<svg id="Layer_1" data-name="Layer 1" xmlns="http://www.w3.org/2000/svg" viewBox="0 0 1226.88 669.53"><defs><style>.cls-1{fill:#fee440;}.cls-2{fill:#96bdc6;}.cls-3{fill:#ff5964;}</style></defs><title>Introduction SVG</title><rect class="cls-1" x="97.43" y="42.05" width="623.07" height="50.73" rx="12"/><rect class="cls-2" x="97.43" y="228.97" width="1129.45" height="77.3" rx="12"/><path d="M180.45,158.85V67.09h27q8.26,0,13.43,3.06A18.2,18.2,0,0,1,228.43,79a36.64,36.64,0,0,1,2.43,14.1q0,9-3.06,14.45a18.24,18.24,0,0,1-8.55,8,31,31,0,0,1-13,2.5h-9.06v40.78Zm16.77-52.57h6.34a15.77,15.77,0,0,0,7.08-1.3,6.92,6.92,0,0,0,3.51-4.19,25.32,25.32,0,0,0,1-7.76,36.38,36.38,0,0,0-.74-8.1,7,7,0,0,0-3.17-4.59q-2.44-1.47-7.65-1.47h-6.34Z" transform="translate(-28.44 -66.07)"/><path d="M250.91,159.87a12.57,12.57,0,0,1-7.59-2.32,15.48,15.48,0,0,1-4.87-5.89,17.13,17.13,0,0,1-1.7-7.42A20.42,20.42,0,0,1,245,126.9a42.66,42.66,0,0,1,8.5-4.93q4.75-2.09,9.63-3.79v-5.66a24.37,24.37,0,0,0-.4-4.76,5.39,5.39,0,0,0-1.47-3,4.72,4.72,0,0,0-3.34-1,5,5,0,0,0-3.12.91,4.92,4.92,0,0,0-1.7,2.55,15.31,15.31,0,0,0-.62,3.79l-.23,4-14.61-.57q.33-11.32,5.61-16.71t16-5.38q9.85,0,14.33,5.44t4.47,14.73v30.24q0,3.63.17,6.57c.11,2,.27,3.74.45,5.33s.36,3,.51,4.19H265.41c-.22-1.51-.51-3.23-.85-5.15s-.58-3.35-.73-4.25a16.77,16.77,0,0,1-4.31,7.19A11.52,11.52,0,0,1,250.91,159.87Zm5.67-11.44a5.55,5.55,0,0,0,2.77-.74,10.43,10.43,0,0,0,2.32-1.76,9.06,9.06,0,0,0,1.48-1.81V125.88q-2.49,1.49-4.7,3a21.73,21.73,0,0,0-3.86,3.23,12.81,12.81,0,0,0-2.49,3.79,12.45,12.45,0,0,0-.85,4.76,10,10,0,0,0,1.42,5.72A4.47,4.47,0,0,0,256.58,148.43Z" transform="translate(-28.44 -66.07)"/><path d="M300,159.87a9.89,9.89,0,0,1-6.35-2,11.18,11.18,0,0,1-3.62-5.33,21.75,21.75,0,0,1-1.14-7.08V93.37h15.41v49.28a9.17,9.17,0,0,0,1,4.59c.64,1.09,1.83,1.64,3.57,1.64a7.46,7.46,0,0,0,3.46-.91,25.49,25.49,0,0,0,3.45-2.15V93.37h15.41v65.48H315.71v-6.23a30.64,30.64,0,0,1-7.25,5.21A18.27,18.27,0,0,1,300,159.87Z" transform="translate(-28.44 -66.07)"/><path d="M344,158.85V67.09h15.3v91.76Z" transform="translate(-28.44 -66.07)"/><path d="M424.8,160.1q-10.08,0-15.8-4a20.68,20.68,0,0,1-8-10.82,50.32,50.32,0,0,1-2.26-15.8V96.77A52.49,52.49,0,0,1,401,80.46a19.56,19.56,0,0,1,8-10.65q5.72-3.74,15.8-3.74,9.52,0,14.9,3.23a17.74,17.74,0,0,1,7.65,9.23,39.36,39.36,0,0,1,2.26,13.93v7.71H433.53V92.24a55.94,55.94,0,0,0-.4-7,8.71,8.71,0,0,0-2.15-5c-1.17-1.24-3.19-1.87-6.06-1.87s-5,.67-6.29,2a9.56,9.56,0,0,0-2.55,5.32,45.09,45.09,0,0,0-.57,7.53V133a35.15,35.15,0,0,0,.8,8.21,8.47,8.47,0,0,0,2.89,4.87,9,9,0,0,0,5.72,1.65q4.18,0,5.95-2a9.76,9.76,0,0,0,2.2-5.27,53,53,0,0,0,.46-7.37v-8.27h16.08v7.37a44.35,44.35,0,0,1-2.15,14.44,18.8,18.8,0,0,1-7.53,9.86Q434.54,160.1,424.8,160.1Z" transform="translate(-28.44 -66.07)"/><path d="M473,159.87a12.53,12.53,0,0,1-7.59-2.32,15.39,15.39,0,0,1-4.87-5.89,17,17,0,0,1-1.7-7.42,20.35,20.35,0,0,1,8.27-17.34,42.58,42.58,0,0,1,8.49-4.93q4.77-2.09,9.63-3.79v-5.66a24.46,24.46,0,0,0-.39-4.76,5.53,5.53,0,0,0-1.47-3,4.75,4.75,0,0,0-3.35-1,5,5,0,0,0-3.11.91,4.86,4.86,0,0,0-1.7,2.55,15.31,15.31,0,0,0-.62,3.79l-.23,4-14.62-.57q.35-11.32,5.61-16.71t16-5.38q9.85,0,14.33,5.44t4.48,14.73v30.24c0,2.42.05,4.61.17,6.57s.26,3.74.45,5.33.36,3,.51,4.19H487.45q-.34-2.26-.85-5.15c-.34-1.93-.59-3.35-.74-4.25a16.75,16.75,0,0,1-4.3,7.19A11.55,11.55,0,0,1,473,159.87Zm5.66-11.44a5.59,5.59,0,0,0,2.78-.74,10.67,10.67,0,0,0,2.32-1.76,9,9,0,0,0,1.47-1.81V125.88c-1.66,1-3.22,2-4.7,3a21.66,21.66,0,0,0-3.85,3.23,12.43,12.43,0,0,0-2.49,3.79,12.26,12.26,0,0,0-.85,4.76,10.13,10.13,0,0,0,1.41,5.72A4.48,4.48,0,0,0,478.61,148.43Z" transform="translate(-28.44 -66.07)"/><path d="M529.25,159.87q-8.26,0-13.59-4.42t-7.59-12.91l11.44-4.42a21.6,21.6,0,0,0,3.62,8.15,7.21,7.21,0,0,0,5.9,2.84,5.54,5.54,0,0,0,4.07-1.36,5,5,0,0,0,1.36-3.74,8,8,0,0,0-1.64-4.93,35.32,35.32,0,0,0-5.61-5.49l-7.93-6.69a40.2,40.2,0,0,1-7-7.64,17,17,0,0,1-2.67-9.8,16.48,16.48,0,0,1,2.44-9.12,16.28,16.28,0,0,1,6.68-5.89,21.09,21.09,0,0,1,9.46-2.1q7.93,0,12.75,4.7a22.13,22.13,0,0,1,6.17,12.29l-10.08,4.31a23.81,23.81,0,0,0-1.64-5,11.18,11.18,0,0,0-2.78-3.8,5.86,5.86,0,0,0-4-1.47,5,5,0,0,0-3.8,1.47,5.15,5.15,0,0,0-1.42,3.74,6.37,6.37,0,0,0,1.65,4,36.28,36.28,0,0,0,4.7,4.64l8,7.25a61.85,61.85,0,0,1,5,4.87,25,25,0,0,1,4,5.84,16.56,16.56,0,0,1,1.59,7.42,16.84,16.84,0,0,1-2.55,9.51,16.1,16.1,0,0,1-6.91,5.84A23.19,23.19,0,0,1,529.25,159.87Z" transform="translate(-28.44 -66.07)"/><path d="M574.57,159.87q-8.28,0-13.6-4.42t-7.59-12.91l11.44-4.42a21.6,21.6,0,0,0,3.63,8.15,7.19,7.19,0,0,0,5.89,2.84,5.58,5.58,0,0,0,4.08-1.36,5.08,5.08,0,0,0,1.36-3.74,8,8,0,0,0-1.65-4.93,35.17,35.17,0,0,0-5.6-5.49l-7.93-6.69a40.28,40.28,0,0,1-7-7.64,17,17,0,0,1-2.66-9.8,16.55,16.55,0,0,1,2.43-9.12,16.31,16.31,0,0,1,6.69-5.89,21,21,0,0,1,9.46-2.1q7.92,0,12.74,4.7a22.07,22.07,0,0,1,6.17,12.29l-10.08,4.31a23.26,23.26,0,0,0-1.64-5,11.05,11.05,0,0,0-2.78-3.8,5.86,5.86,0,0,0-4-1.47,5,5,0,0,0-3.8,1.47,5.19,5.19,0,0,0-1.41,3.74,6.41,6.41,0,0,0,1.64,4,36.28,36.28,0,0,0,4.7,4.64l8,7.25a61.85,61.85,0,0,1,5,4.87,24.77,24.77,0,0,1,4,5.84,18.66,18.66,0,0,1-1,16.93,16,16,0,0,1-6.91,5.84A23.17,23.17,0,0,1,574.57,159.87Z" transform="translate(-28.44 -66.07)"/><path d="M621.92,159.87q-7.36,0-12-2.78a16.4,16.4,0,0,1-6.85-8.15,34,34,0,0,1-2.21-13V116.25a34.23,34.23,0,0,1,2.21-13.14,16.05,16.05,0,0,1,6.91-8q4.69-2.71,11.95-2.72,7.82,0,12.18,3a16.09,16.09,0,0,1,6.23,8.55,43.69,43.69,0,0,1,1.87,13.65v9.29H616.14V139.7a18.45,18.45,0,0,0,.62,5.22,5.21,5.21,0,0,0,2,2.94,5.72,5.72,0,0,0,3.28.91,5.21,5.21,0,0,0,3.29-1,5.43,5.43,0,0,0,1.81-2.83,16.38,16.38,0,0,0,.56-4.7v-5.44h14.39v4.42q0,10-5,15.29T621.92,159.87Zm-5.78-40.67h11.55V113a21.67,21.67,0,0,0-.56-5.5,5.55,5.55,0,0,0-1.81-3,5.62,5.62,0,0,0-3.52-1,5,5,0,0,0-3.28,1,6,6,0,0,0-1.81,3.4,31,31,0,0,0-.57,6.8Z" transform="translate(-28.44 -66.07)"/><path d="M653.64,158.85V67.09h15.29v91.76Z" transform="translate(-28.44 -66.07)"/><path d="M682.18,158.85V67.09h15.3v91.76Z" transform="translate(-28.44 -66.07)"/><path d="M215,374.31q-16.08,0-25-5.9a30.09,30.09,0,0,1-12.32-16.78q-3.39-10.89-3.39-26.07V227.69H200v100.9a85.87,85.87,0,0,0,.9,12.77A17.92,17.92,0,0,0,205.1,351q3.32,3.66,9.92,3.66,7,0,10.08-3.66a19.24,19.24,0,0,0,4.11-9.64,79.38,79.38,0,0,0,1-12.77V227.69h25.54v97.87q0,15.18-3.39,26.07a30.28,30.28,0,0,1-12.23,16.78Q231.26,374.3,215,374.31Z" transform="translate(-28.44 -66.07)"/><path d="M277.16,372.34V227.69h26.07V372.34Z" transform="translate(-28.44 -66.07)"/><path d="M321.09,372.34l41.79-144.65H379L337.16,372.34Z" transform="translate(-28.44 -66.07)"/><path d="M435.92,374.31q-16.08,0-25-5.9a30.09,30.09,0,0,1-12.32-16.78q-3.39-10.89-3.39-26.07V227.69h25.71v100.9a85.87,85.87,0,0,0,.9,12.77A17.92,17.92,0,0,0,426,351q3.3,3.66,9.92,3.66,7,0,10.08-3.66a19.32,19.32,0,0,0,4.11-9.64,79.38,79.38,0,0,0,1-12.77V227.69h25.54v97.87q0,15.18-3.39,26.07A30.2,30.2,0,0,1,461,368.41Q452.17,374.3,435.92,374.31Z" transform="translate(-28.44 -66.07)"/><path d="M488.24,372.34l29.11-76.79-28.22-67.86h24.64l18.75,44.83L549,227.69h22.86L544,300.55l30,71.79H549.31l-20.53-48.57-17.86,48.57Z" transform="translate(-28.44 -66.07)"/><path d="M629.85,372.34V227.69H664q17.67,0,27.59,4.83a28.07,28.07,0,0,1,14.1,14.82q4.2,10,4.2,25.36v52.86q0,15.7-4.2,26.16a29.22,29.22,0,0,1-13.92,15.53q-9.74,5.1-26.7,5.09ZM656.28,354h8q9.12,0,13-3.21t4.82-9.38a108.49,108.49,0,0,0,.89-15.09V270.91a63.89,63.89,0,0,0-1.25-14.11,12.06,12.06,0,0,0-5.17-7.85q-3.93-2.5-12.68-2.5h-7.68Z" transform="translate(-28.44 -66.07)"/><path d="M759,374q-11.61,0-18.93-4.37a26,26,0,0,1-10.8-12.86q-3.5-8.49-3.49-20.45V305.2q0-12.33,3.49-20.72a25.43,25.43,0,0,1,10.89-12.68q7.41-4.28,18.84-4.28,12.31,0,19.2,4.64A25.39,25.39,0,0,1,788,285.64q2.94,8.85,2.94,21.52v14.65H749.85v20.35a28.86,28.86,0,0,0,1,8.22A8.21,8.21,0,0,0,754,355a9.06,9.06,0,0,0,5.18,1.43,8.2,8.2,0,0,0,5.18-1.52,8.53,8.53,0,0,0,2.85-4.46,25.85,25.85,0,0,0,.9-7.41v-8.58h22.68v7q0,15.72-7.86,24.11T759,374Zm-9.11-64.11h18.22V300a33.93,33.93,0,0,0-.9-8.66,8.7,8.7,0,0,0-2.85-4.82,8.9,8.9,0,0,0-5.54-1.52,7.89,7.89,0,0,0-5.18,1.61,9.56,9.56,0,0,0-2.86,5.35,49.44,49.44,0,0,0-.89,10.72Z" transform="translate(-28.44 -66.07)"/><path d="M835.39,374q-13,0-21.43-7t-12-20.36l18-7q2.15,8.4,5.72,12.86A11.32,11.32,0,0,0,835,357q4.29,0,6.43-2.15a8,8,0,0,0,2.15-5.89,12.74,12.74,0,0,0-2.59-7.77,56,56,0,0,0-8.84-8.66L819.68,322a63.17,63.17,0,0,1-11-12.05q-4.2-6.17-4.19-15.45a26,26,0,0,1,3.84-14.37,25.78,25.78,0,0,1,10.53-9.29,33.3,33.3,0,0,1,14.91-3.3q12.51,0,20.09,7.41t9.74,19.37l-15.9,6.79a36.49,36.49,0,0,0-2.59-7.95,17.69,17.69,0,0,0-4.37-6,9.29,9.29,0,0,0-6.25-2.32,7.92,7.92,0,0,0-6,2.32,8.15,8.15,0,0,0-2.24,5.89,10.09,10.09,0,0,0,2.59,6.25,57.75,57.75,0,0,0,7.41,7.33L849,318.06a96.23,96.23,0,0,1,7.86,7.67,39.4,39.4,0,0,1,6.25,9.2,26.15,26.15,0,0,1,2.5,11.7q0,8.92-4,15a25.38,25.38,0,0,1-10.89,9.2A36.54,36.54,0,0,1,835.39,374Z" transform="translate(-28.44 -66.07)"/><path d="M879.5,252.7V232.52h24.29V252.7Zm0,119.64V269.12h24.29V372.34Z" transform="translate(-28.44 -66.07)"/><path d="M953.43,406.27a72.25,72.25,0,0,1-18.57-2.14q-8-2.14-12.5-6.61a15.67,15.67,0,0,1-4.47-11.6,18,18,0,0,1,2.06-8.67,21.33,21.33,0,0,1,5.62-6.69,39.3,39.3,0,0,1,7.68-4.82,17.91,17.91,0,0,1-9-5.18,12.59,12.59,0,0,1-3.12-8.57,17.4,17.4,0,0,1,3-10.36,56.43,56.43,0,0,1,8.39-9.11,27.61,27.61,0,0,1-8.3-11.16q-2.78-6.71-2.77-17.59,0-11.79,3.84-19.91a26.55,26.55,0,0,1,11.25-12.24q7.41-4.1,18.13-4.1a34.46,34.46,0,0,1,13.75,2.41,22.26,22.26,0,0,1,9.11,7.23,31.23,31.23,0,0,1,5-5.36,32.31,32.31,0,0,1,8.21-5.35L994,265l5.89,13q-2,.54-5.27,1.79c-2.2.83-4.37,1.73-6.52,2.68a46.8,46.8,0,0,0-5,2.5,42,42,0,0,1,2.68,8.93,52.24,52.24,0,0,1,1.07,10.18,48.49,48.49,0,0,1-3.39,18.93A26.15,26.15,0,0,1,973,335.47q-7.05,4.38-18.3,4.37a42,42,0,0,1-7.32-.62,59.33,59.33,0,0,1-6.61-1.52c-.71,1.07-1.4,2.2-2,3.39a7.62,7.62,0,0,0-1,3.75,3.69,3.69,0,0,0,2.15,3.22c1.42.83,3.8,1.43,7.14,1.78L968.79,352q12.68,1.25,18.75,7.94t6.07,18.13q0,9.29-4.2,15.53t-13,9.47Q967.53,406.27,953.43,406.27Zm2.68-18.21q10,0,15-2a7.14,7.14,0,0,0,5-7.14,8,8,0,0,0-1.25-4.64,9.06,9.06,0,0,0-4.47-2.95,38.13,38.13,0,0,0-9.1-1.69l-17.68-1.61a30.82,30.82,0,0,0-3.49,3.3,14.58,14.58,0,0,0-2.41,3.66,9.9,9.9,0,0,0-.89,4.11,7.18,7.18,0,0,0,4.29,6.7Q945.39,388.05,956.11,388.06Zm-1.43-63.75a10.16,10.16,0,0,0,5.18-1.16,7.49,7.49,0,0,0,3-3.76,22.33,22.33,0,0,0,1.43-6.51q.36-3.93.36-9.11t-.36-9.11a26.24,26.24,0,0,0-1.34-6.61,7.52,7.52,0,0,0-2.94-3.92,11.92,11.92,0,0,0-10.63,0,7.32,7.32,0,0,0-3,3.83,26.9,26.9,0,0,0-1.43,6.52,83,83,0,0,0-.45,9.29q0,5,.36,8.84a22.29,22.29,0,0,0,1.42,6.43,8.39,8.39,0,0,0,3.13,3.93A9.52,9.52,0,0,0,954.68,324.31Z" transform="translate(-28.44 -66.07)"/><path d="M1006.82,372.34V269.12h24.29v10.36a53,53,0,0,1,11.69-8.66,27.78,27.78,0,0,1,13.31-3.3q6.44,0,10.18,3.12a18.34,18.34,0,0,1,5.53,8.31,34.29,34.29,0,0,1,1.79,11.25v82.14h-24.29V295a14.57,14.57,0,0,0-1.42-7.14c-1-1.67-2.8-2.5-5.54-2.5a12.63,12.63,0,0,0-5.45,1.42,36,36,0,0,0-5.8,3.58v82Z" transform="translate(-28.44 -66.07)"/><path d="M1122.72,374q-11.61,0-18.93-4.37a26,26,0,0,1-10.8-12.86q-3.48-8.49-3.49-20.45V305.2q0-12.33,3.49-20.72a25.43,25.43,0,0,1,10.89-12.68q7.41-4.28,18.84-4.28,12.33,0,19.2,4.64a25.39,25.39,0,0,1,9.82,13.48q2.94,8.85,3,21.52v14.65h-41.08v20.35a28.86,28.86,0,0,0,1,8.22,8.21,8.21,0,0,0,3.13,4.64,9.06,9.06,0,0,0,5.18,1.43,8.2,8.2,0,0,0,5.18-1.52,8.61,8.61,0,0,0,2.86-4.46,26.24,26.24,0,0,0,.89-7.41v-8.58h22.68v7q0,15.72-7.86,24.11T1122.72,374Zm-9.11-64.11h18.22V300a34.45,34.45,0,0,0-.89-8.66,8.76,8.76,0,0,0-2.86-4.82,8.9,8.9,0,0,0-5.54-1.52,7.89,7.89,0,0,0-5.18,1.61,9.49,9.49,0,0,0-2.85,5.35,48.7,48.7,0,0,0-.9,10.72Z" transform="translate(-28.44 -66.07)"/><path d="M1171.65,372.34V269.12h24.29V285q5.36-9.11,10.71-13.13a19.2,19.2,0,0,1,11.79-4c.71,0,1.34,0,1.87.09s1.16.15,1.88.27v25.18a32.59,32.59,0,0,0-4.74-1.52,22.65,22.65,0,0,0-5.26-.62,16.82,16.82,0,0,0-8.75,2.32,24.37,24.37,0,0,0-7.5,7.68v71.07Z" transform="translate(-28.44 -66.07)"/><path d="M179.3,507.58l1.42-76.46h10.47l13.5,62,13.6-62h10.38l1.42,76.46H221.5l-.85-55.51-12.93,55.51h-6.05l-12.84-55.51L188,507.58Z" transform="translate(-28.44 -66.07)"/><path d="M240.09,521.27v-7.74a40.92,40.92,0,0,0,5.86-.33,5.74,5.74,0,0,0,3.11-1.23,3.27,3.27,0,0,0,.95-2.5,23.23,23.23,0,0,0-.66-3.77q-.67-2.93-1.42-6.23L237,453h10.19l7.37,40.78L261.62,453h10.19l-13,57.59a12.48,12.48,0,0,1-3.12,6.27,13.1,13.1,0,0,1-5.8,3.36,30.78,30.78,0,0,1-8.55,1Z" transform="translate(-28.44 -66.07)"/><path d="M299.57,525.52V453h10.1v4.34a17.44,17.44,0,0,1,4.34-3.59,11.69,11.69,0,0,1,6-1.51,9.77,9.77,0,0,1,6.75,2.22,13.54,13.54,0,0,1,3.73,5.57,28.74,28.74,0,0,1,1.61,6.8,55.9,55.9,0,0,1,.38,5.9V486a50.26,50.26,0,0,1-1.14,10.9,17.24,17.24,0,0,1-4.1,8.31c-2,2.11-4.77,3.16-8.36,3.16a9.4,9.4,0,0,1-5.19-1.46,22.08,22.08,0,0,1-4.06-3.35v22Zm17.37-25.11a4,4,0,0,0,3.77-1.94,12.4,12.4,0,0,0,1.42-5.23q.28-3.32.28-7.27V472.75a48.8,48.8,0,0,0-.37-6.28,10.06,10.06,0,0,0-1.61-4.58,4.46,4.46,0,0,0-3.87-1.7,8.84,8.84,0,0,0-3.78.85,13.94,13.94,0,0,0-3.11,2V498a14.06,14.06,0,0,0,3.21,1.74A11,11,0,0,0,316.94,500.41Z" transform="translate(-28.44 -66.07)"/><path d="M351.49,508.34a9.14,9.14,0,0,1-5.66-1.84,12.87,12.87,0,0,1-3.87-4.72,13.55,13.55,0,0,1-1.42-6.09,19.57,19.57,0,0,1,1.7-8.59,17.07,17.07,0,0,1,4.67-5.9,31.71,31.71,0,0,1,6.89-4.2c2.61-1.2,5.37-2.36,8.26-3.5v-3.87a33.12,33.12,0,0,0-.37-5.47,5.69,5.69,0,0,0-1.56-3.26,5.1,5.1,0,0,0-3.54-1.08,5.48,5.48,0,0,0-3.35.94,5.21,5.21,0,0,0-1.84,2.69,13.29,13.29,0,0,0-.57,4.11v2.73l-10-.37q.19-9.06,4.16-13.36t12.27-4.3q8.12,0,11.52,4.44t3.4,12.84v24.92c0,1.7,0,3.34.14,4.91s.22,3,.37,4.39.3,2.63.43,3.82h-9.25c-.19-1-.43-2.28-.71-3.82s-.49-2.94-.61-4.2a14.52,14.52,0,0,1-3.64,6A9.83,9.83,0,0,1,351.49,508.34Zm4-8.69a5.19,5.19,0,0,0,2.83-.84,13.56,13.56,0,0,0,2.36-1.94,9.84,9.84,0,0,0,1.41-1.75V479.64q-2.35,1.32-4.43,2.64a24.68,24.68,0,0,0-3.64,2.79,11.44,11.44,0,0,0-2.45,3.3,11,11,0,0,0,.33,9.4A4,4,0,0,0,355.46,499.65Z" transform="translate(-28.44 -66.07)"/><path d="M394.54,508.34a14.26,14.26,0,0,1-10.76-4.2,17.45,17.45,0,0,1-4.63-11.09l8.4-2.55a18.81,18.81,0,0,0,2.55,7.79,6,6,0,0,0,5.29,2.59,5.32,5.32,0,0,0,4.15-1.56,6,6,0,0,0,1.42-4.2,8.67,8.67,0,0,0-1-4.24,14.4,14.4,0,0,0-3.4-3.88l-9.35-8a25.41,25.41,0,0,1-4.76-5.48,16.48,16.48,0,0,1-.19-15.15,11.39,11.39,0,0,1,4.91-4.53,16.57,16.57,0,0,1,7.41-1.56c4.34,0,7.66,1.41,10,4.2a17.94,17.94,0,0,1,3.92,10.15l-6.8,2.55a24.49,24.49,0,0,0-1.13-5,8,8,0,0,0-2.08-3.31,5.08,5.08,0,0,0-3.49-1.18,5,5,0,0,0-3.92,1.65,5.71,5.71,0,0,0-1.46,3.92,6.72,6.72,0,0,0,.61,2.79,8.16,8.16,0,0,0,2.12,2.69l9.63,8.87a40.15,40.15,0,0,1,3.73,3.87,18.88,18.88,0,0,1,2.88,4.72,15.39,15.39,0,0,1,1.13,6.14,14.79,14.79,0,0,1-1.88,7.74,11.78,11.78,0,0,1-5.29,4.67A18.86,18.86,0,0,1,394.54,508.34Z" transform="translate(-28.44 -66.07)"/><path d="M429.84,508.34a14.29,14.29,0,0,1-10.76-4.2,17.44,17.44,0,0,1-4.62-11.09l8.4-2.55a18.53,18.53,0,0,0,2.55,7.79,6,6,0,0,0,5.28,2.59,5.34,5.34,0,0,0,4.16-1.56,6,6,0,0,0,1.41-4.2,8.67,8.67,0,0,0-1-4.24,14.58,14.58,0,0,0-3.4-3.88l-9.35-8a25.19,25.19,0,0,1-4.77-5.48,16.52,16.52,0,0,1-.18-15.15,11.37,11.37,0,0,1,4.9-4.53,16.57,16.57,0,0,1,7.41-1.56c4.35,0,7.67,1.41,10,4.2a17.8,17.8,0,0,1,3.92,10.15l-6.8,2.55a23.83,23.83,0,0,0-1.13-5,7.83,7.83,0,0,0-2.07-3.31,5.11,5.11,0,0,0-3.5-1.18,5,5,0,0,0-3.92,1.65,5.76,5.76,0,0,0-1.46,3.92,6.73,6.73,0,0,0,.62,2.79,7.9,7.9,0,0,0,2.12,2.69l9.63,8.87a41.39,41.39,0,0,1,3.73,3.87,19.17,19.17,0,0,1,2.88,4.72,15.57,15.57,0,0,1,1.13,6.14,14.7,14.7,0,0,1-1.89,7.74,11.73,11.73,0,0,1-5.29,4.67A18.8,18.8,0,0,1,429.84,508.34Z" transform="translate(-28.44 -66.07)"/><path d="M453.16,444.9V434.33h10.1V444.9Zm0,62.68V453h10.1v54.56Z" transform="translate(-28.44 -66.07)"/><path d="M489.13,508.34q-6,0-9.54-2.45a13.22,13.22,0,0,1-4.95-7,34.71,34.71,0,0,1-1.46-10.67V472.37a34.75,34.75,0,0,1,1.46-10.67,13.19,13.19,0,0,1,4.95-7q3.5-2.46,9.54-2.46t9.49,2.46a13.35,13.35,0,0,1,4.91,7A35.06,35.06,0,0,1,505,472.37v15.86a35,35,0,0,1-1.46,10.67,13.38,13.38,0,0,1-4.91,7Q495.17,508.34,489.13,508.34Zm0-7.46c1.95,0,3.32-.56,4.11-1.7a9.17,9.17,0,0,0,1.41-4.48c.16-1.86.24-3.79.24-5.81V471.81q0-3.12-.24-5.86a9.42,9.42,0,0,0-1.41-4.48c-.79-1.17-2.16-1.75-4.11-1.75s-3.34.58-4.15,1.75a9,9,0,0,0-1.47,4.48c-.16,1.83-.23,3.78-.23,5.86v17.08c0,2,.07,3.95.23,5.81a8.78,8.78,0,0,0,1.47,4.48C485.79,500.32,487.18,500.88,489.13,500.88Z" transform="translate(-28.44 -66.07)"/><path d="M514.24,507.58V453h10.1v5.38a29.12,29.12,0,0,1,6-4.34,15,15,0,0,1,7.27-1.8,7,7,0,0,1,5.05,1.7,9.32,9.32,0,0,1,2.46,4.25,19.38,19.38,0,0,1,.7,5.19v44.18h-10.1V466.33a9.79,9.79,0,0,0-.85-4.53c-.56-1.07-1.73-1.61-3.49-1.61a7.49,7.49,0,0,0-3.54,1,21.92,21.92,0,0,0-3.54,2.41v44Z" transform="translate(-28.44 -66.07)"/><path d="M578,444.9V434.33h10.1V444.9Zm0,62.68V453h10.1v54.56Z" transform="translate(-28.44 -66.07)"/><path d="M611.57,508.34a14.26,14.26,0,0,1-10.76-4.2,17.45,17.45,0,0,1-4.63-11.09l8.4-2.55a18.67,18.67,0,0,0,2.55,7.79,6,6,0,0,0,5.29,2.59,5.32,5.32,0,0,0,4.15-1.56,6,6,0,0,0,1.42-4.2,8.67,8.67,0,0,0-1-4.24,14.4,14.4,0,0,0-3.4-3.88l-9.35-8a25.41,25.41,0,0,1-4.76-5.48,16.48,16.48,0,0,1-.19-15.15,11.39,11.39,0,0,1,4.91-4.53,16.57,16.57,0,0,1,7.41-1.56c4.34,0,7.66,1.41,10,4.2a17.86,17.86,0,0,1,3.91,10.15l-6.79,2.55a23.8,23.8,0,0,0-1.14-5,7.83,7.83,0,0,0-2.07-3.31,5.09,5.09,0,0,0-3.5-1.18,5,5,0,0,0-3.91,1.65,5.72,5.72,0,0,0-1.47,3.92,6.73,6.73,0,0,0,.62,2.79,8,8,0,0,0,2.12,2.69l9.63,8.87a40.15,40.15,0,0,1,3.73,3.87,19.17,19.17,0,0,1,2.88,4.72,15.57,15.57,0,0,1,1.13,6.14,14.7,14.7,0,0,1-1.89,7.74,11.76,11.76,0,0,1-5.28,4.67A18.86,18.86,0,0,1,611.57,508.34Z" transform="translate(-28.44 -66.07)"/><path d="M670.38,508.34a13,13,0,0,1-6.84-1.6,9.19,9.19,0,0,1-3.78-4.54,18.27,18.27,0,0,1-1.18-6.89V459.72h-5.76V453h5.76v-16h10.1v16h8.78v6.7h-8.78v34.93a7.75,7.75,0,0,0,1,4.58c.69.91,2,1.37,4,1.37a16.64,16.64,0,0,0,1.75-.1l1.94-.18v7.45c-1.26.19-2.43.33-3.5.43S671.64,508.34,670.38,508.34Z" transform="translate(-28.44 -66.07)"/><path d="M699.93,508.34q-6,0-9.54-2.45a13.17,13.17,0,0,1-4.95-7A34.69,34.69,0,0,1,684,488.23V472.37a34.74,34.74,0,0,1,1.47-10.67,13.14,13.14,0,0,1,4.95-7q3.5-2.46,9.54-2.46t9.49,2.46a13.35,13.35,0,0,1,4.91,7,35.06,35.06,0,0,1,1.46,10.67v15.86a35,35,0,0,1-1.46,10.67,13.38,13.38,0,0,1-4.91,7Q706,508.34,699.93,508.34Zm0-7.46c2,0,3.32-.56,4.11-1.7a9.17,9.17,0,0,0,1.41-4.48c.16-1.86.24-3.79.24-5.81V471.81q0-3.12-.24-5.86a9.42,9.42,0,0,0-1.41-4.48c-.79-1.17-2.16-1.75-4.11-1.75s-3.34.58-4.16,1.75a9.11,9.11,0,0,0-1.46,4.48c-.16,1.83-.23,3.78-.23,5.86v17.08c0,2,.07,3.95.23,5.81a8.87,8.87,0,0,0,1.46,4.48C696.59,500.32,698,500.88,699.93,500.88Z" transform="translate(-28.44 -66.07)"/><path d="M761.57,508.34q-6.71,0-10.15-2.69a13.22,13.22,0,0,1-4.62-7.6,49,49,0,0,1-1.18-11.42V474.07a48.53,48.53,0,0,1,1.23-11.75,12.88,12.88,0,0,1,4.67-7.46q3.45-2.6,10.05-2.6,6,0,9.21,1.94a10,10,0,0,1,4.48,5.76,31.37,31.37,0,0,1,1.23,9.49v3.21h-9.16v-3.31a27,27,0,0,0-.47-5.66,5.07,5.07,0,0,0-1.7-3,6.89,6.89,0,0,0-7.27.18,6.19,6.19,0,0,0-1.75,3.83,49.76,49.76,0,0,0-.42,7.31v17.19c0,4.65.44,7.77,1.32,9.34s2.46,2.36,4.72,2.36a5.09,5.09,0,0,0,3.73-1.18,5.78,5.78,0,0,0,1.51-3.35,32.89,32.89,0,0,0,.33-4.91V487h9.16v3.78a31,31,0,0,1-1.28,9.44,10.82,10.82,0,0,1-4.53,6Q767.43,508.35,761.57,508.34Z" transform="translate(-28.44 -66.07)"/><path d="M785.74,507.58V453h10.1v7.74q3-5,6-6.7a12.18,12.18,0,0,1,6-1.7h.71a6.12,6.12,0,0,1,.9.09v11.14a16.35,16.35,0,0,0-2.6-.8,13.39,13.39,0,0,0-3-.33,8.69,8.69,0,0,0-4.3,1.08,11.58,11.58,0,0,0-3.82,4.21v39.83Z" transform="translate(-28.44 -66.07)"/><path d="M830.87,508.34q-6.43,0-9.92-2.5a13,13,0,0,1-4.86-7.37,44.76,44.76,0,0,1-1.37-11.94V474.07A43.33,43.33,0,0,1,816.14,462a12.9,12.9,0,0,1,5-7.27q3.54-2.46,9.78-2.46,6.89,0,10.14,2.84a13.92,13.92,0,0,1,4.3,8.16,68.17,68.17,0,0,1,1,12.79v4.44H824.82v10.95a19.33,19.33,0,0,0,.62,5.38,5.58,5.58,0,0,0,2,3.07,5.89,5.89,0,0,0,3.54,1,5,5,0,0,0,3.45-1.08,5.71,5.71,0,0,0,1.6-3.12,23.75,23.75,0,0,0,.42-4.77v-3.3h9.82v2.08q0,8.21-3.49,12.93T830.87,508.34Zm-6-33.32h11.61v-4.91a36.75,36.75,0,0,0-.37-5.72,6.27,6.27,0,0,0-1.56-3.49,5.13,5.13,0,0,0-3.73-1.18,5.47,5.47,0,0,0-3.73,1.13,6.47,6.47,0,0,0-1.74,3.83,44.39,44.39,0,0,0-.48,7.41Z" transform="translate(-28.44 -66.07)"/><path d="M865.32,508.34a9.14,9.14,0,0,1-5.66-1.84,12.87,12.87,0,0,1-3.87-4.72,13.55,13.55,0,0,1-1.42-6.09,19.57,19.57,0,0,1,1.7-8.59,17.07,17.07,0,0,1,4.67-5.9,31.71,31.71,0,0,1,6.89-4.2c2.61-1.2,5.37-2.36,8.26-3.5v-3.87a33.12,33.12,0,0,0-.37-5.47A5.63,5.63,0,0,0,874,460.9a5.1,5.1,0,0,0-3.54-1.08,5.48,5.48,0,0,0-3.35.94,5.21,5.21,0,0,0-1.84,2.69,13.29,13.29,0,0,0-.57,4.11v2.73l-10-.37q.2-9.06,4.16-13.36t12.27-4.3q8.11,0,11.52,4.44t3.4,12.84v24.92c0,1.7,0,3.34.14,4.91s.22,3,.38,4.39l.42,3.82h-9.25c-.19-1-.43-2.28-.71-3.82s-.49-2.94-.61-4.2a14.52,14.52,0,0,1-3.64,6A9.83,9.83,0,0,1,865.32,508.34Zm4-8.69a5.19,5.19,0,0,0,2.83-.84,13.56,13.56,0,0,0,2.36-1.94,9.84,9.84,0,0,0,1.41-1.75V479.64q-2.35,1.32-4.43,2.64a24.68,24.68,0,0,0-3.64,2.79,11.44,11.44,0,0,0-2.45,3.3,11,11,0,0,0,.33,9.4A4,4,0,0,0,869.29,499.65Z" transform="translate(-28.44 -66.07)"/><path d="M909.5,508.34a13,13,0,0,1-6.84-1.6,9.25,9.25,0,0,1-3.78-4.54,18.27,18.27,0,0,1-1.18-6.89V459.72h-5.76V453h5.76v-16h10.1v16h8.78v6.7H907.8v34.93a7.75,7.75,0,0,0,1,4.58c.69.91,2,1.37,4,1.37a16.61,16.61,0,0,0,1.74-.1l1.94-.18v7.45c-1.26.19-2.42.33-3.49.43S910.76,508.34,909.5,508.34Z" transform="translate(-28.44 -66.07)"/><path d="M939.15,508.34q-6.42,0-9.92-2.5a13,13,0,0,1-4.86-7.37A44.76,44.76,0,0,1,923,486.53V474.07A43.33,43.33,0,0,1,924.42,462a12.86,12.86,0,0,1,5-7.27q3.54-2.46,9.77-2.46,6.89,0,10.14,2.84a13.87,13.87,0,0,1,4.3,8.16,68.17,68.17,0,0,1,1,12.79v4.44H933.1v10.95a19.33,19.33,0,0,0,.62,5.38,5.58,5.58,0,0,0,2,3.07,5.89,5.89,0,0,0,3.54,1,5,5,0,0,0,3.45-1.08,5.71,5.71,0,0,0,1.6-3.12,23.69,23.69,0,0,0,.43-4.77v-3.3h9.81v2.08q0,8.21-3.49,12.93T939.15,508.34Zm-6-33.32h11.62v-4.91a36.61,36.61,0,0,0-.38-5.72,6.2,6.2,0,0,0-1.56-3.49,5.13,5.13,0,0,0-3.73-1.18,5.47,5.47,0,0,0-3.73,1.13,6.47,6.47,0,0,0-1.74,3.83,44.39,44.39,0,0,0-.48,7.41Z" transform="translate(-28.44 -66.07)"/><path d="M993.24,508.34a7,7,0,0,1-5-1.7,9.08,9.08,0,0,1-2.5-4.25,19.39,19.39,0,0,1-.71-5.19V453h10.1v41.16a10.24,10.24,0,0,0,.85,4.58c.57,1.1,1.73,1.65,3.5,1.65a7.49,7.49,0,0,0,3.54-1,21.52,21.52,0,0,0,3.54-2.41V453h10.1v54.56h-10.1V502.2a27,27,0,0,1-6,4.35A15.3,15.3,0,0,1,993.24,508.34Z" transform="translate(-28.44 -66.07)"/><path d="M1026.94,507.58V453H1037v5.38a29.12,29.12,0,0,1,6-4.34,15,15,0,0,1,7.27-1.8,7,7,0,0,1,5.05,1.7,9.41,9.41,0,0,1,2.46,4.25,19.38,19.38,0,0,1,.7,5.19v44.18h-10.1V466.33a9.79,9.79,0,0,0-.85-4.53c-.56-1.07-1.73-1.61-3.49-1.61a7.49,7.49,0,0,0-3.54,1,21.92,21.92,0,0,0-3.54,2.41v44Z" transform="translate(-28.44 -66.07)"/><path d="M1069,444.9V434.33h10.1V444.9Zm0,62.68V453h10.1v54.56Z" transform="translate(-28.44 -66.07)"/><path d="M1111.52,525.52V504.09a16.24,16.24,0,0,1-3.92,3.07,9.77,9.77,0,0,1-4.86,1.18q-6.88,0-10.29-5t-3.4-17.14V475.58a60.67,60.67,0,0,1,1-11.56,17.5,17.5,0,0,1,3.92-8.55q2.88-3.21,8.45-3.21a10.32,10.32,0,0,1,5,1.23,17.59,17.59,0,0,1,4.06,3V453h10.1v72.5Zm-6.23-25.11a10.13,10.13,0,0,0,3.07-.52,11.34,11.34,0,0,0,3.16-1.56V462.55a16.77,16.77,0,0,0-2.92-1.65,8.62,8.62,0,0,0-3.5-.71,4.65,4.65,0,0,0-4.72,3.35,23.57,23.57,0,0,0-1.22,8.08V487a50.87,50.87,0,0,0,.42,6.85,10,10,0,0,0,1.75,4.81A4.64,4.64,0,0,0,1105.29,500.41Z" transform="translate(-28.44 -66.07)"/><path d="M1139.66,508.34a7,7,0,0,1-5-1.7,9.08,9.08,0,0,1-2.5-4.25,19.39,19.39,0,0,1-.71-5.19V453h10.1v41.16a10.24,10.24,0,0,0,.85,4.58c.57,1.1,1.73,1.65,3.5,1.65a7.49,7.49,0,0,0,3.54-1A21.52,21.52,0,0,0,1153,497V453h10.1v54.56H1153V502.2a27.25,27.25,0,0,1-6,4.35A15.3,15.3,0,0,1,1139.66,508.34Z" transform="translate(-28.44 -66.07)"/><path d="M1188.46,508.34q-6.42,0-9.91-2.5a13,13,0,0,1-4.86-7.37,44.35,44.35,0,0,1-1.37-11.94V474.07a43.75,43.75,0,0,1,1.41-12.08,13,13,0,0,1,5-7.27q3.54-2.46,9.77-2.46,6.88,0,10.15,2.84a13.91,13.91,0,0,1,4.29,8.16,67.33,67.33,0,0,1,1,12.79v4.44h-21.52v10.95a19.38,19.38,0,0,0,.61,5.38,5.54,5.54,0,0,0,2,3.07,5.89,5.89,0,0,0,3.54,1,4.93,4.93,0,0,0,3.44-1.08,5.71,5.71,0,0,0,1.61-3.12,23.75,23.75,0,0,0,.42-4.77v-3.3h9.82v2.08q0,8.21-3.49,12.93T1188.46,508.34Zm-6-33.32H1194v-4.91a36.61,36.61,0,0,0-.38-5.72,6.26,6.26,0,0,0-1.55-3.49,5.13,5.13,0,0,0-3.73-1.18,5.47,5.47,0,0,0-3.73,1.13,6.53,6.53,0,0,0-1.75,3.83,45.7,45.7,0,0,0-.47,7.41Z" transform="translate(-28.44 -66.07)"/><path d="M186.47,621.63a7,7,0,0,1-5-1.7,9,9,0,0,1-2.5-4.25,19.39,19.39,0,0,1-.71-5.19V566.31h10.1v41.16a10.2,10.2,0,0,0,.85,4.57c.57,1.1,1.73,1.66,3.49,1.66a7.34,7.34,0,0,0,3.54-1,21.73,21.73,0,0,0,3.55-2.4v-44h10.1v54.56h-10.1v-5.38a26.9,26.9,0,0,1-6,4.34A15.2,15.2,0,0,1,186.47,621.63Z" transform="translate(-28.44 -66.07)"/><path d="M232.83,621.63a14.31,14.31,0,0,1-10.77-4.21,17.47,17.47,0,0,1-4.62-11.09l8.4-2.55a18.53,18.53,0,0,0,2.55,7.79,6,6,0,0,0,5.28,2.6,5.34,5.34,0,0,0,4.16-1.56,6,6,0,0,0,1.41-4.2,8.71,8.71,0,0,0-1-4.25,14.41,14.41,0,0,0-3.4-3.87l-9.35-8a25.19,25.19,0,0,1-4.77-5.48,16.52,16.52,0,0,1-.18-15.15,11.42,11.42,0,0,1,4.9-4.53,16.59,16.59,0,0,1,7.42-1.56q6.51,0,9.95,4.2a17.74,17.74,0,0,1,3.92,10.15l-6.79,2.55a24.72,24.72,0,0,0-1.14-5,7.86,7.86,0,0,0-2.07-3.3,5.06,5.06,0,0,0-3.5-1.18,5,5,0,0,0-3.92,1.65,5.74,5.74,0,0,0-1.46,3.92,6.72,6.72,0,0,0,.62,2.78,7.81,7.81,0,0,0,2.12,2.69l9.63,8.88a39.07,39.07,0,0,1,3.73,3.87,19,19,0,0,1,2.88,4.72,15.55,15.55,0,0,1,1.13,6.13,14.65,14.65,0,0,1-1.89,7.74,11.78,11.78,0,0,1-5.28,4.68A18.86,18.86,0,0,1,232.83,621.63Z" transform="translate(-28.44 -66.07)"/><path d="M270.59,621.63q-6.42,0-9.92-2.51a13,13,0,0,1-4.86-7.36,44.76,44.76,0,0,1-1.37-11.94V587.36a43.74,43.74,0,0,1,1.42-12.09,12.91,12.91,0,0,1,5-7.27q3.54-2.44,9.77-2.45,6.89,0,10.14,2.83a13.89,13.89,0,0,1,4.3,8.17,68.09,68.09,0,0,1,1,12.79v4.44H264.54v11a19.43,19.43,0,0,0,.62,5.38,5.62,5.62,0,0,0,2,3.07,5.89,5.89,0,0,0,3.54,1,4.91,4.91,0,0,0,3.45-1.09,5.67,5.67,0,0,0,1.6-3.11,23.83,23.83,0,0,0,.43-4.77v-3.3H286V604q0,8.22-3.49,12.94T270.59,621.63Zm-6-33.33h11.62v-4.91a36.47,36.47,0,0,0-.38-5.71,6.2,6.2,0,0,0-1.56-3.49,5.09,5.09,0,0,0-3.73-1.18,5.47,5.47,0,0,0-3.73,1.13A6.47,6.47,0,0,0,265,578a44.55,44.55,0,0,0-.48,7.41Z" transform="translate(-28.44 -66.07)"/><path d="M295.51,620.87V566.31h10.1v7.74q3-5,6-6.71a12.25,12.25,0,0,1,6-1.7h.71a6.4,6.4,0,0,1,.9.1v11.14a15.38,15.38,0,0,0-2.6-.8,13.45,13.45,0,0,0-3-.33,8.66,8.66,0,0,0-4.3,1.08,11.62,11.62,0,0,0-3.82,4.2v39.84Z" transform="translate(-28.44 -66.07)"/><path d="M362.25,621.63q-6.42,0-9.91-2.51a13,13,0,0,1-4.86-7.36,44.35,44.35,0,0,1-1.37-11.94V587.36a43.78,43.78,0,0,1,1.41-12.09,13,13,0,0,1,5-7.27q3.54-2.44,9.77-2.45,6.88,0,10.15,2.83a14,14,0,0,1,4.3,8.17,68.17,68.17,0,0,1,1,12.79v4.44H356.21v11a19.48,19.48,0,0,0,.61,5.38,5.57,5.57,0,0,0,2,3.07,5.89,5.89,0,0,0,3.54,1,4.88,4.88,0,0,0,3.44-1.09A5.68,5.68,0,0,0,367.4,610a23.89,23.89,0,0,0,.42-4.77v-3.3h9.82V604q0,8.22-3.49,12.94T362.25,621.63Zm-6-33.33h11.61v-4.91a36.47,36.47,0,0,0-.38-5.71,6.26,6.26,0,0,0-1.55-3.49,5.09,5.09,0,0,0-3.73-1.18,5.47,5.47,0,0,0-3.73,1.13,6.53,6.53,0,0,0-1.75,3.82,45.87,45.87,0,0,0-.47,7.41Z" transform="translate(-28.44 -66.07)"/><path d="M382.64,620.87l12.27-28.7-12-25.86h9.63l8,17.27,7.08-17.27h9.91L405.11,593.4l12.65,27.47h-9.63l-8.59-18.5-7.36,18.5Z" transform="translate(-28.44 -66.07)"/><path d="M423.61,638.81v-72.5h10.1v4.34a17.45,17.45,0,0,1,4.35-3.59,11.6,11.6,0,0,1,6-1.51,9.81,9.81,0,0,1,6.75,2.22,13.64,13.64,0,0,1,3.73,5.57,29.09,29.09,0,0,1,1.6,6.8,55.74,55.74,0,0,1,.38,5.9v13.21a51,51,0,0,1-1.13,10.91,17.3,17.3,0,0,1-4.11,8.3q-3,3.16-8.36,3.17a9.32,9.32,0,0,1-5.19-1.47,22,22,0,0,1-4.06-3.35v22ZM441,613.7a4,4,0,0,0,3.78-1.94,12.5,12.5,0,0,0,1.41-5.24q.29-3.3.29-7.27V586a48.72,48.72,0,0,0-.38-6.28,10,10,0,0,0-1.6-4.58,4.47,4.47,0,0,0-3.88-1.7,8.63,8.63,0,0,0-3.77.85,14.12,14.12,0,0,0-3.12,2v34.93a14.52,14.52,0,0,0,3.21,1.75A11,11,0,0,0,441,613.7Z" transform="translate(-28.44 -66.07)"/><path d="M480.82,621.63q-6.42,0-9.91-2.51a13,13,0,0,1-4.86-7.36,44.35,44.35,0,0,1-1.37-11.94V587.36a43.78,43.78,0,0,1,1.41-12.09,13,13,0,0,1,5-7.27q3.54-2.44,9.77-2.45,6.89,0,10.15,2.83a14,14,0,0,1,4.3,8.17,68.17,68.17,0,0,1,1,12.79v4.44H474.78v11a19.48,19.48,0,0,0,.61,5.38,5.57,5.57,0,0,0,2,3.07,5.89,5.89,0,0,0,3.54,1,4.88,4.88,0,0,0,3.44-1.09A5.68,5.68,0,0,0,486,610a23.89,23.89,0,0,0,.42-4.77v-3.3h9.82V604q0,8.22-3.49,12.94T480.82,621.63Zm-6-33.33h11.61v-4.91a36.47,36.47,0,0,0-.38-5.71,6.26,6.26,0,0,0-1.55-3.49,5.09,5.09,0,0,0-3.73-1.18,5.47,5.47,0,0,0-3.73,1.13,6.53,6.53,0,0,0-1.75,3.82,45.87,45.87,0,0,0-.47,7.41Z" transform="translate(-28.44 -66.07)"/><path d="M505.74,620.87V566.31h10.1v7.74q3-5,6-6.71a12.23,12.23,0,0,1,6-1.7h.71a6.29,6.29,0,0,1,.89.1v11.14a15.26,15.26,0,0,0-2.59-.8,13.54,13.54,0,0,0-3-.33,8.65,8.65,0,0,0-4.29,1.08,11.63,11.63,0,0,0-3.83,4.2v39.84Z" transform="translate(-28.44 -66.07)"/><path d="M536.42,558.19V547.61h10.11v10.58Zm0,62.68V566.31h10.11v54.56Z" transform="translate(-28.44 -66.07)"/><path d="M572.49,621.63q-6.43,0-9.92-2.51a13,13,0,0,1-4.86-7.36,44.76,44.76,0,0,1-1.37-11.94V587.36a43.36,43.36,0,0,1,1.42-12.09,12.9,12.9,0,0,1,5-7.27q3.54-2.44,9.78-2.45,6.88,0,10.14,2.83a13.89,13.89,0,0,1,4.3,8.17,68.09,68.09,0,0,1,1,12.79v4.44H566.44v11a19.43,19.43,0,0,0,.62,5.38,5.62,5.62,0,0,0,2,3.07,5.89,5.89,0,0,0,3.54,1,4.91,4.91,0,0,0,3.45-1.09,5.67,5.67,0,0,0,1.6-3.11,23.83,23.83,0,0,0,.43-4.77v-3.3h9.81V604q0,8.22-3.49,12.94T572.49,621.63Zm-6-33.33h11.62v-4.91a36.47,36.47,0,0,0-.38-5.71,6.2,6.2,0,0,0-1.56-3.49,5.09,5.09,0,0,0-3.73-1.18,5.47,5.47,0,0,0-3.73,1.13,6.47,6.47,0,0,0-1.74,3.82,44.55,44.55,0,0,0-.48,7.41Z" transform="translate(-28.44 -66.07)"/><path d="M597.12,620.87V566.31h10.11v5.38a29.26,29.26,0,0,1,6-4.35,15,15,0,0,1,7.27-1.79,7,7,0,0,1,5.05,1.7A9.25,9.25,0,0,1,628,571.5a19.39,19.39,0,0,1,.71,5.19v44.18h-10.1V579.62a9.86,9.86,0,0,0-.85-4.54c-.57-1.06-1.73-1.6-3.49-1.6a7.43,7.43,0,0,0-3.54,1,20.7,20.7,0,0,0-3.54,2.41v44Z" transform="translate(-28.44 -66.07)"/><path d="M653.48,621.63q-6.71,0-10.15-2.7a13.2,13.2,0,0,1-4.62-7.59,49.1,49.1,0,0,1-1.18-11.43V587.36a48.62,48.62,0,0,1,1.23-11.76,12.85,12.85,0,0,1,4.67-7.45q3.45-2.6,10.05-2.6,6,0,9.21,1.94a10,10,0,0,1,4.48,5.75,31.42,31.42,0,0,1,1.23,9.49v3.21h-9.16v-3.3a27.18,27.18,0,0,0-.47-5.67,5.1,5.1,0,0,0-1.7-3,6.92,6.92,0,0,0-7.27.19,6.19,6.19,0,0,0-1.75,3.82,50,50,0,0,0-.42,7.32v17.18c0,4.66.44,7.77,1.32,9.35s2.46,2.36,4.72,2.36A5.13,5.13,0,0,0,657.4,613a5.84,5.84,0,0,0,1.51-3.35,33,33,0,0,0,.33-4.91v-4.44h9.16v3.78a31,31,0,0,1-1.28,9.44,10.86,10.86,0,0,1-4.53,6C660.42,620.93,657.38,621.63,653.48,621.63Z" transform="translate(-28.44 -66.07)"/><path d="M692.47,621.63q-6.42,0-9.91-2.51a13,13,0,0,1-4.86-7.36,44.35,44.35,0,0,1-1.37-11.94V587.36a43.36,43.36,0,0,1,1.42-12.09,12.9,12.9,0,0,1,5-7.27q3.54-2.44,9.77-2.45,6.9,0,10.15,2.83a13.94,13.94,0,0,1,4.29,8.17,67.26,67.26,0,0,1,1,12.79v4.44H686.43v11a19.48,19.48,0,0,0,.61,5.38,5.57,5.57,0,0,0,2,3.07,5.89,5.89,0,0,0,3.54,1,4.88,4.88,0,0,0,3.44-1.09,5.68,5.68,0,0,0,1.61-3.11,23.89,23.89,0,0,0,.42-4.77v-3.3h9.82V604q0,8.22-3.49,12.94T692.47,621.63Zm-6-33.33H698v-4.91a35.29,35.29,0,0,0-.38-5.71,6.26,6.26,0,0,0-1.55-3.49,5.09,5.09,0,0,0-3.73-1.18,5.47,5.47,0,0,0-3.73,1.13A6.53,6.53,0,0,0,686.9,578a45.87,45.87,0,0,0-.47,7.41Z" transform="translate(-28.44 -66.07)"/><path d="M729.76,621.63A14.27,14.27,0,0,1,719,617.42a17.43,17.43,0,0,1-4.63-11.09l8.4-2.55a18.81,18.81,0,0,0,2.55,7.79,6,6,0,0,0,5.29,2.6,5.32,5.32,0,0,0,4.15-1.56,6,6,0,0,0,1.42-4.2,8.71,8.71,0,0,0-1-4.25,14.06,14.06,0,0,0-3.4-3.87l-9.34-8a25.19,25.19,0,0,1-4.77-5.48,16.48,16.48,0,0,1-.19-15.15,11.39,11.39,0,0,1,4.91-4.53,16.57,16.57,0,0,1,7.41-1.56q6.51,0,10,4.2a17.81,17.81,0,0,1,3.92,10.15l-6.8,2.55a24.76,24.76,0,0,0-1.13-5,8,8,0,0,0-2.08-3.3,5.6,5.6,0,0,0-7.41.47,5.69,5.69,0,0,0-1.46,3.92,6.71,6.71,0,0,0,.61,2.78,8.06,8.06,0,0,0,2.12,2.69l9.63,8.88a36.92,36.92,0,0,1,3.73,3.87,18.41,18.41,0,0,1,2.88,4.72,15.38,15.38,0,0,1,1.14,6.13,14.65,14.65,0,0,1-1.89,7.74,11.75,11.75,0,0,1-5.29,4.68A18.86,18.86,0,0,1,729.76,621.63Z" transform="translate(-28.44 -66.07)"/><path d="M788.57,621.63a12.87,12.87,0,0,1-6.84-1.61,9.27,9.27,0,0,1-3.78-4.53,18.3,18.3,0,0,1-1.18-6.89V573H771v-6.7h5.76v-16h10.1v16h8.78V573h-8.78v34.93a7.77,7.77,0,0,0,1,4.58c.69.91,2,1.36,4,1.36q.75,0,1.74-.09l1.94-.19v7.46c-1.26.19-2.42.33-3.49.42S789.83,621.63,788.57,621.63Z" transform="translate(-28.44 -66.07)"/><path d="M803.39,620.87V544.4H813.5V572a29.31,29.31,0,0,1,6.13-4.53,15.29,15.29,0,0,1,7.56-1.89,6.82,6.82,0,0,1,4.95,1.7,9.27,9.27,0,0,1,2.46,4.25,19.38,19.38,0,0,1,.7,5.19v44.18H825.2V579.62a9.86,9.86,0,0,0-.85-4.54c-.56-1.06-1.73-1.6-3.49-1.6a7.9,7.9,0,0,0-3.73,1,18.6,18.6,0,0,0-3.63,2.55v43.8Z" transform="translate(-28.44 -66.07)"/><path d="M854.94,621.63a9.2,9.2,0,0,1-5.67-1.85,13,13,0,0,1-3.87-4.72A13.63,13.63,0,0,1,844,609a19.4,19.4,0,0,1,1.7-8.59,17.07,17.07,0,0,1,4.67-5.9,32.14,32.14,0,0,1,6.89-4.21c2.61-1.19,5.37-2.36,8.26-3.49v-3.87a33.11,33.11,0,0,0-.38-5.48,5.59,5.59,0,0,0-1.55-3.25A5.1,5.1,0,0,0,860,573.1a5.51,5.51,0,0,0-3.36.95,5.29,5.29,0,0,0-1.84,2.69,13.55,13.55,0,0,0-.56,4.1v2.74l-10-.38q.19-9.06,4.15-13.35t12.28-4.3q8.12,0,11.51,4.44t3.4,12.84v24.92c0,1.7,0,3.33.14,4.91s.22,3,.38,4.39.3,2.62.43,3.82h-9.25c-.19-1-.43-2.28-.71-3.82s-.49-2.95-.62-4.2a14.57,14.57,0,0,1-3.63,6A9.82,9.82,0,0,1,854.94,621.63Zm4-8.69a5.15,5.15,0,0,0,2.84-.85,13.51,13.51,0,0,0,2.36-1.93,10.22,10.22,0,0,0,1.41-1.75V592.93q-2.35,1.32-4.44,2.64a24.41,24.41,0,0,0-3.63,2.79,11,11,0,0,0-2.45,3.3,10.94,10.94,0,0,0,.33,9.39A4,4,0,0,0,858.9,612.94Z" transform="translate(-28.44 -66.07)"/><path d="M899.12,621.63a12.87,12.87,0,0,1-6.84-1.61,9.21,9.21,0,0,1-3.78-4.53,18.3,18.3,0,0,1-1.18-6.89V573h-5.76v-6.7h5.76v-16h10.1v16h8.78V573h-8.78v34.93a7.77,7.77,0,0,0,1,4.58c.69.91,2,1.36,4,1.36.51,0,1.09,0,1.75-.09l1.94-.19v7.46c-1.26.19-2.43.33-3.5.42S900.38,621.63,899.12,621.63Z" transform="translate(-28.44 -66.07)"/><path d="M950.19,621.63q-6.71,0-10.15-2.7a13.1,13.1,0,0,1-4.62-7.59,49.1,49.1,0,0,1-1.18-11.43V587.36a49.17,49.17,0,0,1,1.22-11.76,12.91,12.91,0,0,1,4.68-7.45c2.29-1.73,5.65-2.6,10.05-2.6,4,0,7,.65,9.21,1.94a10,10,0,0,1,4.48,5.75,31.42,31.42,0,0,1,1.23,9.49v3.21H956v-3.3a27.18,27.18,0,0,0-.47-5.67,5.1,5.1,0,0,0-1.7-3,6.92,6.92,0,0,0-7.27.19,6.19,6.19,0,0,0-1.75,3.82,50,50,0,0,0-.42,7.32v17.18c0,4.66.44,7.77,1.32,9.35s2.45,2.36,4.72,2.36a5.13,5.13,0,0,0,3.73-1.18,5.84,5.84,0,0,0,1.51-3.35,33,33,0,0,0,.33-4.91v-4.44h9.16v3.78a31,31,0,0,1-1.28,9.44,10.86,10.86,0,0,1-4.53,6C957.13,620.93,954.09,621.63,950.19,621.63Z" transform="translate(-28.44 -66.07)"/><path d="M983.89,621.63a9.17,9.17,0,0,1-5.66-1.85,12.79,12.79,0,0,1-3.87-4.72,13.64,13.64,0,0,1-1.42-6.08,19.54,19.54,0,0,1,1.7-8.59,17.09,17.09,0,0,1,4.68-5.9,31.89,31.89,0,0,1,6.89-4.21c2.61-1.19,5.36-2.36,8.26-3.49v-3.87a33.11,33.11,0,0,0-.38-5.48,5.54,5.54,0,0,0-1.56-3.25A5.1,5.1,0,0,0,989,573.1a5.5,5.5,0,0,0-3.35.95,5.23,5.23,0,0,0-1.84,2.69,13.22,13.22,0,0,0-.57,4.1v2.74l-10-.38q.18-9.06,4.15-13.35t12.27-4.3q8.11,0,11.52,4.44t3.4,12.84v24.92c0,1.7,0,3.33.14,4.91s.22,3,.38,4.39.3,2.62.42,3.82h-9.25c-.19-1-.42-2.28-.71-3.82s-.49-2.95-.61-4.2a14.49,14.49,0,0,1-3.64,6A9.8,9.8,0,0,1,983.89,621.63Zm4-8.69a5.12,5.12,0,0,0,2.83-.85,13.15,13.15,0,0,0,2.36-1.93,10.39,10.39,0,0,0,1.42-1.75V592.93q-2.37,1.32-4.44,2.64a23.91,23.91,0,0,0-3.63,2.79,11.21,11.21,0,0,0-2.46,3.3,10.94,10.94,0,0,0,.33,9.39A4,4,0,0,0,987.86,612.94Z" transform="translate(-28.44 -66.07)"/><path d="M1014.29,620.87V566.31h10.1v5.38a29.81,29.81,0,0,1,6-4.35,15.08,15.08,0,0,1,7.27-1.79,7,7,0,0,1,5,1.7,9.18,9.18,0,0,1,2.46,4.25,19.39,19.39,0,0,1,.71,5.19v44.18h-10.1V579.62a10,10,0,0,0-.85-4.54c-.57-1.06-1.74-1.6-3.5-1.6a7.49,7.49,0,0,0-3.54,1,21.1,21.1,0,0,0-3.54,2.41v44Z" transform="translate(-28.44 -66.07)"/><path d="M1090,621.63a14.27,14.27,0,0,1-10.76-4.21,17.43,17.43,0,0,1-4.63-11.09l8.41-2.55a18.68,18.68,0,0,0,2.54,7.79,6,6,0,0,0,5.29,2.6,5.34,5.34,0,0,0,4.16-1.56,6,6,0,0,0,1.41-4.2,8.71,8.71,0,0,0-1-4.25,14.06,14.06,0,0,0-3.4-3.87l-9.34-8a25.19,25.19,0,0,1-4.77-5.48,16.56,16.56,0,0,1-.19-15.15,11.45,11.45,0,0,1,4.91-4.53,16.57,16.57,0,0,1,7.41-1.56q6.51,0,10,4.2a17.81,17.81,0,0,1,3.92,10.15l-6.8,2.55a24.76,24.76,0,0,0-1.13-5,8,8,0,0,0-2.08-3.3,5.6,5.6,0,0,0-7.41.47,5.74,5.74,0,0,0-1.46,3.92,6.71,6.71,0,0,0,.61,2.78,8,8,0,0,0,2.13,2.69l9.63,8.88a37.87,37.87,0,0,1,3.72,3.87,18.41,18.41,0,0,1,2.88,4.72,15.38,15.38,0,0,1,1.14,6.13,14.65,14.65,0,0,1-1.89,7.74,11.75,11.75,0,0,1-5.29,4.68A18.83,18.83,0,0,1,1090,621.63Z" transform="translate(-28.44 -66.07)"/><path d="M1112.66,638.81v-72.5h10.1v4.34a17.22,17.22,0,0,1,4.34-3.59,11.6,11.6,0,0,1,6-1.51,9.79,9.79,0,0,1,6.75,2.22,13.54,13.54,0,0,1,3.73,5.57,29.12,29.12,0,0,1,1.61,6.8,55.43,55.43,0,0,1,.37,5.9v13.21a50.36,50.36,0,0,1-1.13,10.91,17.2,17.2,0,0,1-4.1,8.3c-2,2.11-4.77,3.17-8.36,3.17a9.32,9.32,0,0,1-5.19-1.47,21.69,21.69,0,0,1-4.06-3.35v22ZM1130,613.7a4,4,0,0,0,3.77-1.94,12.49,12.49,0,0,0,1.42-5.24q.29-3.3.28-7.27V586a48.8,48.8,0,0,0-.37-6.28,10,10,0,0,0-1.61-4.58,4.46,4.46,0,0,0-3.87-1.7,8.7,8.7,0,0,0-3.78.85,14.28,14.28,0,0,0-3.11,2v34.93A14.08,14.08,0,0,0,1126,613,11,11,0,0,0,1130,613.7Z" transform="translate(-28.44 -66.07)"/><path d="M1164.58,621.63a9.15,9.15,0,0,1-5.66-1.85,12.79,12.79,0,0,1-3.87-4.72,13.51,13.51,0,0,1-1.42-6.08,19.54,19.54,0,0,1,1.7-8.59,17.07,17.07,0,0,1,4.67-5.9,32.14,32.14,0,0,1,6.89-4.21c2.61-1.19,5.37-2.36,8.26-3.49v-3.87a33.25,33.25,0,0,0-.37-5.48,5.66,5.66,0,0,0-1.56-3.25,5.1,5.1,0,0,0-3.54-1.09,5.48,5.48,0,0,0-3.35.95,5.17,5.17,0,0,0-1.84,2.69,13.22,13.22,0,0,0-.57,4.1v2.74l-10-.38q.19-9.06,4.16-13.35t12.27-4.3q8.12,0,11.52,4.44t3.4,12.84v24.92c0,1.7,0,3.33.14,4.91s.22,3,.37,4.39.3,2.62.43,3.82H1177c-.19-1-.43-2.28-.71-3.82s-.49-2.95-.61-4.2a14.6,14.6,0,0,1-3.64,6A9.8,9.8,0,0,1,1164.58,621.63Zm4-8.69a5.12,5.12,0,0,0,2.83-.85,13.51,13.51,0,0,0,2.36-1.93,10.22,10.22,0,0,0,1.41-1.75V592.93q-2.36,1.32-4.43,2.64a24,24,0,0,0-3.64,2.79,11,11,0,0,0-2.45,3.3,10.94,10.94,0,0,0,.33,9.39A4,4,0,0,0,1168.55,612.94Z" transform="translate(-28.44 -66.07)"/><path d="M1195,620.87V566.31h10.1v5.38a29.53,29.53,0,0,1,6-4.35,15.06,15.06,0,0,1,7.27-1.79,7,7,0,0,1,5,1.7,9.25,9.25,0,0,1,2.45,4.25,19,19,0,0,1,.71,5.19v44.18h-10.1V579.62a9.86,9.86,0,0,0-.85-4.54c-.56-1.06-1.73-1.6-3.49-1.6a7.49,7.49,0,0,0-3.54,1,20.7,20.7,0,0,0-3.54,2.41v44Z" transform="translate(-28.44 -66.07)"/><path d="M188.46,734.91a9.19,9.19,0,0,1-5.67-1.84,13,13,0,0,1-3.87-4.72,13.67,13.67,0,0,1-1.41-6.09,19.57,19.57,0,0,1,1.69-8.59,17.21,17.21,0,0,1,4.68-5.9,31.71,31.71,0,0,1,6.89-4.2q3.91-1.8,8.26-3.49V696.2a33,33,0,0,0-.38-5.47,5.57,5.57,0,0,0-1.56-3.26,5.07,5.07,0,0,0-3.54-1.08,5.5,5.5,0,0,0-3.35.94,5.27,5.27,0,0,0-1.84,2.69,13.35,13.35,0,0,0-.56,4.11v2.74l-10-.38q.18-9.06,4.15-13.36t12.28-4.3q8.11,0,11.51,4.44t3.4,12.84V721c0,1.7.05,3.34.14,4.91s.22,3,.38,4.39.3,2.63.43,3.83h-9.26c-.19-1-.42-2.28-.7-3.83s-.49-2.94-.62-4.2a14.6,14.6,0,0,1-3.63,6A9.86,9.86,0,0,1,188.46,734.91Zm4-8.68a5.18,5.18,0,0,0,2.83-.85,12.78,12.78,0,0,0,2.36-1.94,9.22,9.22,0,0,0,1.42-1.75V706.21q-2.35,1.32-4.44,2.65a25.07,25.07,0,0,0-3.63,2.78,11.47,11.47,0,0,0-2.46,3.3,11.06,11.06,0,0,0,.33,9.4A4,4,0,0,0,192.42,726.23Z" transform="translate(-28.44 -66.07)"/><path d="M233.77,734.91q-6.71,0-10.15-2.69a13.12,13.12,0,0,1-4.62-7.6,49,49,0,0,1-1.18-11.42V700.64A48.58,48.58,0,0,1,219,688.89a12.94,12.94,0,0,1,4.68-7.46q3.43-2.59,10.05-2.6c4,0,7,.65,9.2,1.94a10,10,0,0,1,4.49,5.76,31.37,31.37,0,0,1,1.23,9.49v3.21h-9.16v-3.31a27,27,0,0,0-.47-5.66,5.12,5.12,0,0,0-1.7-3,6.86,6.86,0,0,0-7.27.19,6.08,6.08,0,0,0-1.75,3.82,49.76,49.76,0,0,0-.42,7.31v17.19q0,7,1.32,9.34c.88,1.58,2.45,2.36,4.72,2.36a5.09,5.09,0,0,0,3.73-1.18,5.84,5.84,0,0,0,1.51-3.35,32.89,32.89,0,0,0,.33-4.91v-4.43h9.16v3.77a31,31,0,0,1-1.28,9.44,10.79,10.79,0,0,1-4.53,6Q239.63,734.92,233.77,734.91Z" transform="translate(-28.44 -66.07)"/><path d="M257.94,734.16V679.59H268v7.74q3-5,6-6.7a12.25,12.25,0,0,1,6-1.7h.71a6.12,6.12,0,0,1,.9.09v11.14a16.35,16.35,0,0,0-2.6-.8,13.52,13.52,0,0,0-3-.33,8.57,8.57,0,0,0-4.3,1.09,11.45,11.45,0,0,0-3.82,4.2v39.84Z" transform="translate(-28.44 -66.07)"/><path d="M303,734.91q-6,0-9.54-2.45a13.17,13.17,0,0,1-4.95-7A34.69,34.69,0,0,1,287,714.8V698.94a34.74,34.74,0,0,1,1.47-10.67,13.14,13.14,0,0,1,4.95-7q3.49-2.46,9.54-2.46c4,0,7.19.82,9.49,2.46a13.28,13.28,0,0,1,4.9,7,34.74,34.74,0,0,1,1.47,10.67V714.8a34.69,34.69,0,0,1-1.47,10.67,13.31,13.31,0,0,1-4.9,7C310.16,734.09,307,734.91,303,734.91Zm0-7.46c1.95,0,3.32-.56,4.1-1.7a9.06,9.06,0,0,0,1.42-4.48c.16-1.86.24-3.79.24-5.81V698.38q0-3.12-.24-5.86a9.31,9.31,0,0,0-1.42-4.48c-.78-1.16-2.15-1.75-4.1-1.75a4.75,4.75,0,0,0-4.16,1.75,9.11,9.11,0,0,0-1.46,4.48c-.16,1.83-.23,3.78-.23,5.86v17.08c0,2,.07,3.95.23,5.81a8.87,8.87,0,0,0,1.46,4.48C299.63,726.89,301,727.45,303,727.45Z" transform="translate(-28.44 -66.07)"/><path d="M340.73,734.91a14.26,14.26,0,0,1-10.76-4.2,17.45,17.45,0,0,1-4.63-11.09l8.4-2.55a18.81,18.81,0,0,0,2.55,7.79,6,6,0,0,0,5.29,2.59,5.35,5.35,0,0,0,4.15-1.55,6,6,0,0,0,1.42-4.21,8.67,8.67,0,0,0-1-4.24,14.23,14.23,0,0,0-3.4-3.87l-9.35-8a25.36,25.36,0,0,1-4.76-5.47,16.5,16.5,0,0,1-.19-15.16,11.39,11.39,0,0,1,4.91-4.53,16.57,16.57,0,0,1,7.41-1.56q6.51,0,10,4.21a17.88,17.88,0,0,1,3.92,10.14l-6.8,2.55a24.49,24.49,0,0,0-1.13-5,8,8,0,0,0-2.08-3.31,5.08,5.08,0,0,0-3.49-1.18,5,5,0,0,0-3.92,1.65,5.72,5.72,0,0,0-1.47,3.92,6.73,6.73,0,0,0,.62,2.79,8.16,8.16,0,0,0,2.12,2.69l9.63,8.87a40.15,40.15,0,0,1,3.73,3.87,18.88,18.88,0,0,1,2.88,4.72,15.43,15.43,0,0,1,1.13,6.14,14.79,14.79,0,0,1-1.88,7.74,11.78,11.78,0,0,1-5.29,4.67A18.86,18.86,0,0,1,340.73,734.91Z" transform="translate(-28.44 -66.07)"/><path d="M376,734.91a14.29,14.29,0,0,1-10.76-4.2,17.44,17.44,0,0,1-4.62-11.09l8.4-2.55a18.53,18.53,0,0,0,2.55,7.79,6,6,0,0,0,5.28,2.59A5.37,5.37,0,0,0,381,725.9a6,6,0,0,0,1.41-4.21,8.67,8.67,0,0,0-1-4.24,14.41,14.41,0,0,0-3.4-3.87l-9.35-8a25.14,25.14,0,0,1-4.77-5.47,16.54,16.54,0,0,1-.18-15.16,11.37,11.37,0,0,1,4.9-4.53,16.57,16.57,0,0,1,7.41-1.56q6.53,0,10,4.21a17.74,17.74,0,0,1,3.92,10.14l-6.8,2.55a23.83,23.83,0,0,0-1.13-5,7.83,7.83,0,0,0-2.07-3.31,5.11,5.11,0,0,0-3.5-1.18,5,5,0,0,0-3.92,1.65,5.76,5.76,0,0,0-1.46,3.92,6.58,6.58,0,0,0,.62,2.79,7.9,7.9,0,0,0,2.12,2.69l9.63,8.87a41.39,41.39,0,0,1,3.73,3.87A19.17,19.17,0,0,1,390,714.8a15.61,15.61,0,0,1,1.13,6.14,14.7,14.7,0,0,1-1.89,7.74,11.73,11.73,0,0,1-5.29,4.67A18.8,18.8,0,0,1,376,734.91Z" transform="translate(-28.44 -66.07)"/><path d="M430.13,734.91a9.19,9.19,0,0,1-5.67-1.84,13.07,13.07,0,0,1-3.87-4.72,13.67,13.67,0,0,1-1.41-6.09,19.43,19.43,0,0,1,1.7-8.59,17.07,17.07,0,0,1,4.67-5.9,31.71,31.71,0,0,1,6.89-4.2c2.61-1.2,5.37-2.36,8.26-3.49V696.2a33,33,0,0,0-.38-5.47,5.62,5.62,0,0,0-1.55-3.26,5.1,5.1,0,0,0-3.54-1.08,5.51,5.51,0,0,0-3.36.94A5.27,5.27,0,0,0,430,690a13.66,13.66,0,0,0-.56,4.11v2.74l-10-.38q.18-9.06,4.15-13.36t12.28-4.3q8.12,0,11.51,4.44t3.4,12.84V721c0,1.7.05,3.34.14,4.91s.22,3,.38,4.39.3,2.63.43,3.83h-9.26c-.18-1-.42-2.28-.7-3.83s-.49-2.94-.62-4.2a14.6,14.6,0,0,1-3.63,6A9.86,9.86,0,0,1,430.13,734.91Zm4-8.68a5.18,5.18,0,0,0,2.83-.85,12.46,12.46,0,0,0,2.36-1.94,9.22,9.22,0,0,0,1.42-1.75V706.21q-2.35,1.32-4.44,2.65a25.07,25.07,0,0,0-3.63,2.78,11.47,11.47,0,0,0-2.46,3.3,9.61,9.61,0,0,0-.89,4.21,9.44,9.44,0,0,0,1.23,5.19A4,4,0,0,0,434.09,726.23Z" transform="translate(-28.44 -66.07)"/><path d="M461.47,734.16V657.69h10.1v76.47Z" transform="translate(-28.44 -66.07)"/><path d="M483.09,734.16V657.69h10.1v76.47Z" transform="translate(-28.44 -66.07)"/><path d="M525.38,734.16V679.59h9.34v5.19a18,18,0,0,1,6-4.62,16.17,16.17,0,0,1,6.8-1.51,10,10,0,0,1,5.43,1.51c1.61,1,2.75,2.8,3.45,5.38a18.79,18.79,0,0,1,6.37-5.24,16.51,16.51,0,0,1,7.22-1.65,9.36,9.36,0,0,1,4.82,1.27,9,9,0,0,1,3.49,4.06,17.21,17.21,0,0,1,1.32,7.32v42.86h-9.25V692c0-2.65-.43-4.42-1.28-5.34a4.49,4.49,0,0,0-3.44-1.37,9.46,9.46,0,0,0-4.34,1.18,15,15,0,0,0-4.16,3.26v44.47h-9.25V692c0-2.65-.43-4.42-1.27-5.34a4.5,4.5,0,0,0-3.45-1.37,9.21,9.21,0,0,0-4.3,1.18,17,17,0,0,0-4.2,3.26v44.47Z" transform="translate(-28.44 -66.07)"/><path d="M604.68,734.91q-6.43,0-9.92-2.5a13,13,0,0,1-4.86-7.36,44.89,44.89,0,0,1-1.37-11.95V700.64A43.33,43.33,0,0,1,590,688.56a12.9,12.9,0,0,1,4.95-7.27q3.54-2.46,9.78-2.46,6.89,0,10.14,2.84a13.87,13.87,0,0,1,4.3,8.16,68.17,68.17,0,0,1,1,12.79v4.44H598.63v11a19.33,19.33,0,0,0,.62,5.38,5.58,5.58,0,0,0,2,3.07,5.89,5.89,0,0,0,3.54,1,5,5,0,0,0,3.45-1.08,5.71,5.71,0,0,0,1.6-3.12,23.69,23.69,0,0,0,.43-4.77v-3.3h9.81v2.08q0,8.21-3.49,12.93T604.68,734.91Zm-6-33.32h11.62v-4.91a36.38,36.38,0,0,0-.38-5.71,6.2,6.2,0,0,0-1.56-3.5,5.13,5.13,0,0,0-3.73-1.18,5.42,5.42,0,0,0-3.73,1.14,6.41,6.41,0,0,0-1.74,3.82,44.39,44.39,0,0,0-.48,7.41Z" transform="translate(-28.44 -66.07)"/><path d="M642,734.91q-6.9,0-10.29-5t-3.4-17.13V702.15a59.87,59.87,0,0,1,1-11.56,17.49,17.49,0,0,1,3.91-8.55c1.92-2.13,4.74-3.21,8.45-3.21a10.33,10.33,0,0,1,5,1.23,17.8,17.8,0,0,1,4.06,3V657.69h10.1v76.47h-10.1v-3.5a16.63,16.63,0,0,1-3.92,3.07A9.82,9.82,0,0,1,642,734.91Zm2.54-7.93a9.8,9.8,0,0,0,3-.52,13.52,13.52,0,0,0,3.21-1.56V689.12a17.24,17.24,0,0,0-2.93-1.65,8.61,8.61,0,0,0-3.49-.71,4.64,4.64,0,0,0-4.72,3.36,23.46,23.46,0,0,0-1.23,8.07v15.39a50.71,50.71,0,0,0,.42,6.84,10.25,10.25,0,0,0,1.75,4.81A4.64,4.64,0,0,0,644.51,727Z" transform="translate(-28.44 -66.07)"/><path d="M671.7,671.47V660.9h10.1v10.57Zm0,62.69V679.59h10.1v54.57Z" transform="translate(-28.44 -66.07)"/><path d="M700.49,734.91a7,7,0,0,1-5-1.7A9,9,0,0,1,693,729a19.39,19.39,0,0,1-.71-5.19V679.59h10.1v41.16a10.11,10.11,0,0,0,.85,4.58c.57,1.1,1.73,1.65,3.49,1.65a7.43,7.43,0,0,0,3.54-1,20.7,20.7,0,0,0,3.54-2.41v-44h10.11v54.57H713.8v-5.39a27,27,0,0,1-6,4.35A15.34,15.34,0,0,1,700.49,734.91Z" transform="translate(-28.44 -66.07)"/><path d="M734.2,734.16V679.59h9.34v5.19a18,18,0,0,1,6-4.62,16.17,16.17,0,0,1,6.8-1.51,10,10,0,0,1,5.43,1.51c1.6,1,2.75,2.8,3.45,5.38a18.79,18.79,0,0,1,6.37-5.24,16.48,16.48,0,0,1,7.22-1.65,9.3,9.3,0,0,1,4.81,1.27,9,9,0,0,1,3.5,4.06,17.21,17.21,0,0,1,1.32,7.32v42.86h-9.25V692c0-2.65-.43-4.42-1.28-5.34a4.49,4.49,0,0,0-3.44-1.37,9.5,9.5,0,0,0-4.35,1.18,15.12,15.12,0,0,0-4.15,3.26v44.47h-9.25V692c0-2.65-.43-4.42-1.28-5.34a4.47,4.47,0,0,0-3.44-1.37,9.21,9.21,0,0,0-4.3,1.18,16.79,16.79,0,0,0-4.2,3.26v44.47Z" transform="translate(-28.44 -66.07)"/><path d="M811,734.91a14.26,14.26,0,0,1-10.76-4.2,17.45,17.45,0,0,1-4.63-11.09l8.4-2.55a18.67,18.67,0,0,0,2.55,7.79,6,6,0,0,0,5.29,2.59A5.35,5.35,0,0,0,816,725.9a6,6,0,0,0,1.42-4.21,8.67,8.67,0,0,0-1-4.24,14.23,14.23,0,0,0-3.4-3.87l-9.35-8a25.36,25.36,0,0,1-4.76-5.47,16.5,16.5,0,0,1-.19-15.16,11.39,11.39,0,0,1,4.91-4.53,16.57,16.57,0,0,1,7.41-1.56q6.51,0,10,4.21a17.88,17.88,0,0,1,3.92,10.14l-6.8,2.55a24.49,24.49,0,0,0-1.13-5,8,8,0,0,0-2.08-3.31,5.08,5.08,0,0,0-3.49-1.18,5,5,0,0,0-3.92,1.65,5.72,5.72,0,0,0-1.47,3.92,6.73,6.73,0,0,0,.62,2.79,8,8,0,0,0,2.12,2.69l9.63,8.87a40.15,40.15,0,0,1,3.73,3.87A19.17,19.17,0,0,1,825,714.8a15.43,15.43,0,0,1,1.13,6.14,14.7,14.7,0,0,1-1.89,7.74,11.76,11.76,0,0,1-5.28,4.67A18.86,18.86,0,0,1,811,734.91Z" transform="translate(-28.44 -66.07)"/><rect class="cls-3" y="0.01" width="67.97" height="669.52" rx="12"/></svg>