<?xml version="1.0" encoding="utf-8"?>
<!-- Generator: Adobe Illustrator 25.4.1, SVG Export Plug-In . SVG Version: 6.00 Build 0)  -->
<svg version="1.1" id="Layer_1" xmlns="http://www.w3.org/2000/svg" xmlns:xlink="http://www.w3.org/1999/xlink" x="0px" y="0px"
	 viewBox="0 0 300 300" style="enable-background:new 0 0 300 300;" xml:space="preserve">
<style type="text/css">
	.st0{stroke:#000000;stroke-width:3.24;stroke-miterlimit:10;}
	.st1{stroke:#000000;stroke-width:1.08;stroke-miterlimit:10;}
	.st2{fill:#C70000;stroke:#000000;stroke-width:3.24;stroke-miterlimit:10;}
	.st3{fill:url(#SVGID_1_);stroke:#000000;stroke-width:3.24;stroke-miterlimit:10;}
	.st4{fill:#FFFFFF;}
	.st5{fill:#C0C0C0;stroke:#282828;stroke-width:1.08;stroke-miterlimit:10;}
	.st6{fill:#282828;}
	.st7{fill:#41322A;stroke:#FF7E1B;stroke-width:1.41;stroke-miterlimit:10;}
	.st8{fill:#FF7E1B;}
	.st9{fill:#1B0124;stroke:#DF76FF;stroke-width:1.41;stroke-miterlimit:10;}
	.st10{fill:#DF76FF;}
	.st11{fill:#28253A;stroke:#37C5FF;stroke-width:1.41;stroke-miterlimit:10;}
	.st12{fill:#37C5FF;}
	.st13{fill:#2E001E;stroke:#FF2BC2;stroke-width:1.41;stroke-miterlimit:10;}
	.st14{fill:#FF2BC2;}
	.st15{opacity:0.8;}
	.st16{opacity:0.35;fill:#FF5B4D;enable-background:new    ;}
</style>
<g>
	<path class="st0" d="M254.1,96.4v40l0,0H45.9l0,0V96.8c0-4.6,3.7-8.3,8.3-8.3l0,0h191.9C250.5,88.5,254.1,92,254.1,96.4
		C254.1,96.4,254.1,96.4,254.1,96.4z"/>
	<path class="st0" d="M250.5,131.9v65.2c0,5.1-4.1,9.2-9.2,9.2H58c-5.1,0-9.2-4.1-9.2-9.2l0,0v-65.2l0,0H250.5L250.5,131.9z"/>
	<path class="st1" d="M170.5,93.1V77.3c0-2.1-1.6-3.7-3.7-3.7c0,0,0,0,0,0h-32.2c-2,0-3.7,1.7-3.7,3.7v15.8h-10.6V70.9
		c0-4.4,3.5-8,7.9-8c0,0,0,0,0,0h43.2c5.3,0,9.6,4.3,9.6,9.6c0,0,0,0,0,0v20.5L170.5,93.1z"/>
	<path class="st2" d="M54.4,90.8H246c3.2,0,5.9,2.6,5.9,5.8c0,0,0,0,0,0v37.6l0,0H48.2l0,0V97C48.2,93.6,51,90.8,54.4,90.8z"/>
	
		<linearGradient id="SVGID_1_" gradientUnits="userSpaceOnUse" x1="64.6904" y1="170.8749" x2="271.3524" y2="77.4498" gradientTransform="matrix(1 0 0 -1 0 300.2898)">
		<stop  offset="0.34" style="stop-color:#C70000"/>
		<stop  offset="0.78" style="stop-color:#940000"/>
	</linearGradient>
	<path class="st3" d="M51.1,134.2h197.1l0,0v62.7c0,3.9-3.2,7.1-7.1,7.1h-183c-3.9,0-7.1-3.2-7.1-7.1V134.2L51.1,134.2z"/>
	<path class="st4" d="M178.8,72.6v18.2h-6V77.3c0-3.3-2.7-6-6-6h-32.2c-3.3,0-6,2.7-6,6v13.5h-6V70.9c0-3.1,2.5-5.6,5.6-5.6h43.2
		C175.5,65.3,178.8,68.6,178.8,72.6C178.8,72.6,178.8,72.6,178.8,72.6z"/>
	<path class="st5" d="M143.6,141.1h14.1l0,0v9.2c0,0.2-0.2,0.4-0.4,0.4h-13.4c-0.2,0-0.4-0.2-0.4-0.4V141.1L143.6,141.1z"/>
	<path class="st5" d="M157,139h-12.8l0,0v-14.5c0-0.2,0.2-0.4,0.4-0.4h12.1c0.2,0,0.4,0.2,0.4,0.4L157,139L157,139z"/>
	<rect x="145.2" y="139" class="st5" width="10.7" height="2.2"/>
	<path class="st6" d="M153.5,136.7h-5.6l1.4-4.4c-1.1-0.8-1.3-2.3-0.5-3.3c0.5-0.6,1.2-1,1.9-1h0c1.3,0,2.4,1,2.4,2.4
		c0,0.8-0.4,1.5-1,1.9C152.6,133.8,153.1,135.2,153.5,136.7z"/>
	<path class="st7" d="M79.3,150.5h19c2.7,0,4.9,2.2,4.9,4.9v19c0,2.7-2.2,4.9-4.9,4.9h-19c-2.7,0-4.9-2.2-4.9-4.9v-19
		C74.3,152.7,76.5,150.5,79.3,150.5z"/>
	<path class="st8" d="M87.3,168h-5.1l-1.3,4.2c0,0.1-0.1,0.2-0.2,0.2h-2.4c-0.2,0-0.2-0.1-0.2-0.2l4.6-14.1c0.1-0.4,0.2-0.9,0.2-1.3
		c0-0.1,0-0.1,0.1-0.1c0,0,0,0,0,0h3.3c0.1,0,0.2,0,0.2,0.1l5.2,15.4c0,0.1,0,0.2-0.1,0.2h-2.7c-0.1,0-0.2-0.1-0.2-0.1L87.3,168z
		 M82.8,165.7h4c-0.1-0.3-0.3-1-0.6-2s-0.6-1.9-0.8-2.7s-0.4-1.5-0.6-2l0,0C84.5,159.8,83.9,162.1,82.8,165.7z"/>
	<path class="st8" d="M95.3,158.8c-0.4,0-0.8-0.1-1.1-0.4c-0.6-0.7-0.6-1.6,0-2.3c0.3-0.3,0.7-0.4,1.1-0.4c0.4,0,0.8,0.1,1.1,0.4
		c0.3,0.3,0.4,0.7,0.4,1.1c0,0.4-0.1,0.8-0.4,1.1C96.1,158.7,95.7,158.8,95.3,158.8z M93.8,172.1v-11.2c0-0.1,0.1-0.2,0.1-0.2
		c0,0,0,0,0,0h2.5c0.1,0,0.2,0.1,0.2,0.1c0,0,0,0,0,0v11.2c0,0.1-0.1,0.2-0.1,0.2c0,0,0,0,0,0H94C93.9,172.4,93.8,172.3,93.8,172.1
		C93.8,172.2,93.8,172.1,93.8,172.1L93.8,172.1z"/>
	<path class="st9" d="M203.3,150.5h19c2.7,0,4.9,2.2,4.9,4.9v19c0,2.7-2.2,4.9-4.9,4.9h-19c-2.7,0-4.9-2.2-4.9-4.9v-19
		C198.4,152.7,200.6,150.5,203.3,150.5z"/>
	<path class="st10" d="M203.3,172.2v-15.4c0-0.1,0-0.2,0.1-0.2c1,0,2.4,0,4.3,0c2.1,0,3.7,0.5,4.6,1.4c1,0.9,1.5,2.3,1.5,3.6
		c0.1,1.5-0.6,3-1.8,3.9c-1.4,0.9-3,1.4-4.6,1.3h-0.8h-0.5v5.3c0,0.1-0.1,0.2-0.2,0.2h-2.5C203.4,172.4,203.3,172.3,203.3,172.2
		C203.3,172.2,203.3,172.2,203.3,172.2z M206.2,158.8v5.9c0.5,0,0.9,0.1,1.4,0c0.9,0,1.7-0.2,2.5-0.7c0.7-0.6,1-1.4,1-2.3
		c0-0.8-0.3-1.6-0.8-2.2c-0.7-0.6-1.5-0.8-2.4-0.8C206.9,158.7,206.4,158.7,206.2,158.8L206.2,158.8z"/>
	<path class="st10" d="M216.1,160.7h2.2c0.1,0,0.2,0.1,0.3,0.2c0.2,0.5,0.2,0.9,0.2,1.4c0.9-1.2,2.2-1.8,3.7-1.8
		c0.1,0,0.2,0.1,0.2,0.1c0,0,0,0,0,0v2.4c0,0.1-0.1,0.2-0.2,0.2c-1.2-0.1-2.4,0.3-3.3,1.1c-0.1,0.2-0.2,0.4-0.2,0.6v7.3
		c0,0.1-0.1,0.2-0.2,0.2h-2.5c-0.1,0-0.2-0.1-0.2-0.2v-8.1c0-1.3,0-2.4-0.1-3.2C216,160.8,216,160.7,216.1,160.7z"/>
	<path class="st11" d="M112.9,150.5h19c2.7,0,4.9,2.2,4.9,4.9v19c0,2.7-2.2,4.9-4.9,4.9h-19c-2.7,0-4.9-2.2-4.9-4.9v-19
		C108,152.7,110.2,150.5,112.9,150.5z"/>
	<path class="st12" d="M112.9,172.2v-15.4c0-0.1,0-0.2,0.1-0.2c1,0,2.4,0,4.3,0c2.1,0,3.7,0.5,4.6,1.4c1,0.9,1.5,2.2,1.5,3.6
		c0.1,1.5-0.6,3-1.8,4c-1.4,0.9-3,1.4-4.6,1.3c-0.2,0-0.5,0-0.8,0h-0.5v5.3c0,0.1-0.1,0.2-0.2,0.2H113
		C112.9,172.4,112.9,172.3,112.9,172.2C112.9,172.2,112.9,172.2,112.9,172.2z M115.8,158.8v5.9c0.5,0,0.9,0.1,1.4,0
		c0.9,0,1.7-0.2,2.5-0.7c0.7-0.6,1-1.4,1-2.3c0-0.8-0.3-1.6-0.8-2.2c-0.7-0.6-1.5-0.8-2.4-0.8C116.5,158.7,115.9,158.7,115.8,158.8
		L115.8,158.8z"/>
	<path class="st12" d="M132.1,163.4c-0.8-0.5-1.7-0.8-2.6-0.8c-0.4,0-0.8,0.1-1.2,0.3c-0.2,0.2-0.4,0.4-0.4,0.7
		c0,0.3,0.1,0.6,0.3,0.8c0.4,0.4,0.9,0.6,1.4,0.8c1,0.4,1.9,0.9,2.6,1.6c0.5,0.6,0.7,1.3,0.7,2.1c0,1-0.4,2-1.2,2.6
		c-0.9,0.7-2,1-3.2,1c-1.1,0-2.2-0.2-3.2-0.7c-0.1-0.1-0.1-0.2-0.1-0.3v-2.1c0-0.1,0-0.1,0.1-0.1c0,0,0.1,0,0.1,0
		c0.9,0.7,2,1.1,3.1,1.1c0.4,0,0.9-0.1,1.2-0.3c0.3-0.2,0.4-0.5,0.4-0.8c0-0.3-0.1-0.6-0.3-0.8c-0.4-0.3-0.9-0.6-1.4-0.8
		c-0.9-0.3-1.8-0.9-2.5-1.6c-1.1-1.4-0.9-3.4,0.4-4.6c0.9-0.7,1.9-1,3.1-1c1-0.1,1.9,0.1,2.8,0.5c0.1,0,0.1,0.1,0.1,0.3v1.9
		C132.3,163.4,132.2,163.5,132.1,163.4z"/>
	<path class="st13" d="M169.1,150.5h19c2.7,0,4.9,2.2,4.9,4.9v19c0,2.7-2.2,4.9-4.9,4.9h-19c-2.7,0-4.9-2.2-4.9-4.9v-19
		C164.1,152.7,166.3,150.5,169.1,150.5z"/>
	<path class="st14" d="M178.4,157.7l-4.1,7l4.4,7.4c0.1,0.1,0,0.2-0.1,0.2h-2.7c-0.1,0-0.3-0.1-0.3-0.2l-3.1-5.6l0,0l-3,5.6
		c-0.1,0.1-0.2,0.2-0.3,0.2h-2.7c-0.1,0-0.2-0.1-0.1-0.2l4.3-7.2l-4.1-7.2c-0.1-0.1-0.1-0.2,0.1-0.2h2.7c0.1,0,0.2,0.1,0.3,0.2
		l2.9,5.6l0,0l2.9-5.6c0.1-0.1,0.2-0.2,0.3-0.2h2.5C178.5,157.5,178.5,157.6,178.4,157.7z"/>
	<path class="st14" d="M185,172.5c-1.5,0.1-2.9-0.4-4-1.4c-1.1-1.1-1.6-2.6-1.5-4.2c0-1.5,0.5-3,1.6-4.1c1.2-1.1,2.7-1.7,4.3-1.6
		c0.4,0,0.8,0,1.2,0.1v-4.9c0-0.1,0-0.1,0.1-0.1h2.5c0.1,0,0.1,0,0.1,0.1v13.5c0,0.6,0,1.1,0.1,1.5c0,0.1,0,0.2-0.1,0.2
		C187.9,172.2,186.5,172.6,185,172.5z M186.6,170.3v-6.9c-0.4-0.2-0.8-0.3-1.2-0.2c-0.8,0-1.7,0.3-2.2,1c-1.1,1.7-1.1,3.9,0,5.5
		c0.5,0.6,1.3,0.9,2.1,0.9C185.7,170.5,186.2,170.5,186.6,170.3L186.6,170.3z"/>
	<path d="M248.2,221.9c0.1,3.6-49.1,9.5-98,9.5c-49.5,0-99.2-5.9-99-9.5c0.1-4.2,65.2-5.5,98.5-5.5
		C183.2,216.4,248.1,217.7,248.2,221.9z"/>
	<g class="st15">
		<path class="st4" d="M140.1,116.9c-0.5,1.2-1,2.4-1.5,3.6c0,0.1-0.2,0.1-0.2,0.1c-0.1,0-0.1-0.1-0.1-0.2V98.7
			c0-0.1,0.1-0.2,0.2-0.2h8.8c0.1,0,0.2,0.1,0.2,0.2c0,0,0,0,0,0.1C145,104.8,142.5,110.9,140.1,116.9z"/>
		<path class="st4" d="M163.2,98.7v21.6c0,0.1-0.1,0.2-0.2,0.2c-0.1,0-0.2,0-0.2-0.1l-8.7-21.6c0-0.1,0-0.2,0.1-0.2c0,0,0,0,0.1,0
			h8.7C163.1,98.5,163.2,98.6,163.2,98.7z"/>
		<path class="st4" d="M156.4,121.4l-3.5,0c-0.1,0-0.1,0-0.2-0.1c-0.6-1.5-1.2-2.9-1.7-4.4h-3.9c-0.1,0-0.2-0.1-0.2-0.2
			c0,0,0,0,0-0.1c1.2-3.2,2.5-6.3,3.7-9.5c0-0.1,0.2-0.1,0.2-0.1c0,0,0.1,0.1,0.1,0.1c0.9,2.3,1.9,4.6,2.7,6.9
			c0.9,2.4,1.9,4.7,2.8,7.1C156.6,121.2,156.5,121.4,156.4,121.4C156.4,121.4,156.4,121.4,156.4,121.4z"/>
	</g>
	<path class="st16" d="M70.8,98c-4.8-3.5-11.5-2.4-15,2.4c-2.4,3.3-2.7,7.7-0.8,11.3c1.2-4.2,3.8-7.9,7.4-10.5
		C64.9,99.5,67.7,98.4,70.8,98z"/>
</g>
</svg>
