<svg id="Layer_1" data-name="Layer 1" xmlns="http://www.w3.org/2000/svg" xmlns:xlink="http://www.w3.org/1999/xlink" viewBox="0 0 300 300"><defs><style>.cls-1,.cls-2,.cls-3,.cls-4{stroke:#000;}.cls-1,.cls-10,.cls-12,.cls-14,.cls-2,.cls-3,.cls-4,.cls-6,.cls-8{stroke-miterlimit:10;}.cls-1,.cls-3,.cls-4{stroke-width:3.24px;}.cls-2,.cls-6{stroke-width:1.08px;}.cls-3{fill:#c70000;}.cls-4{fill:url(#linear-gradient);}.cls-5{fill:#fff;}.cls-6{fill:silver;stroke:#282828;}.cls-7{fill:#282828;}.cls-8{fill:#41322a;stroke:#ff7e1b;}.cls-10,.cls-12,.cls-14,.cls-8{stroke-width:1.41px;}.cls-9{fill:#ff7e1b;}.cls-10{fill:#1b0124;stroke:#df76ff;}.cls-11{fill:#df76ff;}.cls-12{fill:#28253a;stroke:#37c5ff;}.cls-13{fill:#37c5ff;}.cls-14{fill:#2e001e;stroke:#ff2bc2;}.cls-15{fill:#ff2bc2;}.cls-16{opacity:0.8;}.cls-17{fill:#ff5b4d;isolation:isolate;opacity:0.35;}</style><linearGradient id="linear-gradient" x1="64.68" y1="671.05" x2="271.34" y2="764.47" gradientTransform="translate(0 -541.6)" gradientUnits="userSpaceOnUse"><stop offset="0.34" stop-color="#c70000"/><stop offset="0.78" stop-color="#940000"/></linearGradient></defs><path class="cls-1" d="M254.1,96.4v40H45.9V96.8a8.28,8.28,0,0,1,8.3-8.3H246.1a7.94,7.94,0,0,1,8,7.9Z"/><path class="cls-1" d="M250.5,131.9v65.2a9.18,9.18,0,0,1-9.2,9.2H58a9.18,9.18,0,0,1-9.2-9.2h0V131.9H250.5Z"/><path class="cls-2" d="M170.5,93.1V77.3a3.63,3.63,0,0,0-3.7-3.7H134.6a3.76,3.76,0,0,0-3.7,3.7V93.1H120.3V70.9a7.94,7.94,0,0,1,7.9-8h43.2a9.6,9.6,0,0,1,9.6,9.6h0V93Z"/><path class="cls-3" d="M54.4,90.8H246a5.89,5.89,0,0,1,5.9,5.8h0v37.6H48.2V97A6.23,6.23,0,0,1,54.4,90.8Z"/><path class="cls-4" d="M51.1,134.2H248.2v62.7a7.13,7.13,0,0,1-7.1,7.1H58.1a7.13,7.13,0,0,1-7.1-7.1V134.2Z"/><path class="cls-5" d="M178.8,72.6V90.8h-6V77.3a6,6,0,0,0-6-6H134.6a6,6,0,0,0-6,6V90.8h-6V70.9a5.59,5.59,0,0,1,5.6-5.6h43.2a7.36,7.36,0,0,1,7.4,7.3Z"/><path class="cls-6" d="M143.6,141.1h14.1v9.2a.43.43,0,0,1-.4.4H143.9a.43.43,0,0,1-.4-.4v-9.2Z"/><path class="cls-6" d="M157,139H144.2V124.5a.43.43,0,0,1,.4-.4h12.1a.43.43,0,0,1,.4.4L157,139Z"/><rect class="cls-6" x="145.2" y="139" width="10.7" height="2.2"/><path class="cls-7" d="M153.5,136.7h-5.6l1.4-4.4a2.3,2.3,0,0,1-.5-3.3,2.58,2.58,0,0,1,1.9-1h0a2.37,2.37,0,0,1,2.4,2.4,2.28,2.28,0,0,1-1,1.9C152.6,133.8,153.1,135.2,153.5,136.7Z"/><path class="cls-8" d="M79.3,150.5h19a4.91,4.91,0,0,1,4.9,4.9v19a4.91,4.91,0,0,1-4.9,4.9h-19a4.91,4.91,0,0,1-4.9-4.9v-19A4.78,4.78,0,0,1,79.3,150.5Z"/><path class="cls-9" d="M87.3,168H82.2l-1.3,4.2a.22.22,0,0,1-.2.2H78.3c-.2,0-.2-.1-.2-.2l4.6-14.1a5.85,5.85,0,0,0,.2-1.3c0-.1,0-.1.1-.1h3.3c.1,0,.2,0,.2.1l5.2,15.4c0,.1,0,.2-.1.2H88.9a.35.35,0,0,1-.2-.1Zm-4.5-2.3h4c-.1-.3-.3-1-.6-2s-.6-1.9-.8-2.7a16.7,16.7,0,0,0-.6-2h0C84.5,159.8,83.9,162.1,82.8,165.7Z"/><path class="cls-9" d="M95.3,158.8a1.5,1.5,0,0,1-1.1-.4,1.69,1.69,0,0,1,0-2.3,1.56,1.56,0,0,1,2.2,2.2A1.27,1.27,0,0,1,95.3,158.8Zm-1.5,13.3V160.9a.35.35,0,0,1,.1-.2h2.5a.35.35,0,0,1,.2.1h0V172a.35.35,0,0,1-.1.2H94c-.1.2-.2.1-.2-.1Z"/><path class="cls-10" d="M203.3,150.5h19a4.91,4.91,0,0,1,4.9,4.9v19a4.91,4.91,0,0,1-4.9,4.9h-19a4.91,4.91,0,0,1-4.9-4.9v-19A4.91,4.91,0,0,1,203.3,150.5Z"/><path class="cls-11" d="M203.3,172.2V156.8c0-.1,0-.2.1-.2h4.3a6.48,6.48,0,0,1,4.6,1.4,4.91,4.91,0,0,1,1.5,3.6,4.56,4.56,0,0,1-1.8,3.9,7.68,7.68,0,0,1-4.6,1.3h-1.3v5.3a.22.22,0,0,1-.2.2h-2.5c0,.1-.1,0-.1-.1Zm2.9-13.4v5.9a6.55,6.55,0,0,0,1.4,0,4.51,4.51,0,0,0,2.5-.7,2.9,2.9,0,0,0,1-2.3,2.8,2.8,0,0,0-3.2-3,5.82,5.82,0,0,0-1.7.1Z"/><path class="cls-11" d="M216.1,160.7h2.2c.1,0,.2.1.3.2a3.4,3.4,0,0,1,.2,1.4,4.46,4.46,0,0,1,3.7-1.8.35.35,0,0,1,.2.1h0V163a.22.22,0,0,1-.2.2,4.43,4.43,0,0,0-3.3,1.1,1.42,1.42,0,0,0-.2.6v7.3a.22.22,0,0,1-.2.2h-2.5a.22.22,0,0,1-.2-.2v-8.1a29.19,29.19,0,0,0-.1-3.2C216,160.8,216,160.7,216.1,160.7Z"/><path class="cls-12" d="M112.9,150.5h19a4.91,4.91,0,0,1,4.9,4.9v19a4.91,4.91,0,0,1-4.9,4.9h-19a4.91,4.91,0,0,1-4.9-4.9v-19A4.91,4.91,0,0,1,112.9,150.5Z"/><path class="cls-13" d="M112.9,172.2V156.8c0-.1,0-.2.1-.2h4.3a6.48,6.48,0,0,1,4.6,1.4,4.75,4.75,0,0,1,1.5,3.6,4.87,4.87,0,0,1-1.8,4,7.68,7.68,0,0,1-4.6,1.3h-1.3v5.3a.22.22,0,0,1-.2.2H113c-.1,0-.1-.1-.1-.2Zm2.9-13.4v5.9a6.55,6.55,0,0,0,1.4,0,4.51,4.51,0,0,0,2.5-.7,2.9,2.9,0,0,0,1-2.3,2.8,2.8,0,0,0-3.2-3,5.39,5.39,0,0,0-1.7.1Z"/><path class="cls-13" d="M132.1,163.4a5,5,0,0,0-2.6-.8,2.66,2.66,0,0,0-1.2.3,1,1,0,0,0-.4.7,1.14,1.14,0,0,0,.3.8,3.92,3.92,0,0,0,1.4.8,7.6,7.6,0,0,1,2.6,1.6,3.14,3.14,0,0,1,.7,2.1,3.22,3.22,0,0,1-1.2,2.6,5.09,5.09,0,0,1-3.2,1,7.11,7.11,0,0,1-3.2-.7.37.37,0,0,1-.1-.3v-2.1c0-.1,0-.1.1-.1h.1a5.1,5.1,0,0,0,3.1,1.1,2.38,2.38,0,0,0,1.2-.3.91.91,0,0,0,.4-.8,1.14,1.14,0,0,0-.3-.8,6.38,6.38,0,0,0-1.4-.8,6.69,6.69,0,0,1-2.5-1.6,3.4,3.4,0,0,1,.4-4.6,4.8,4.8,0,0,1,3.1-1,5.39,5.39,0,0,1,2.8.5c.1,0,.1.1.1.3v1.9C132.3,163.4,132.2,163.5,132.1,163.4Z"/><path class="cls-14" d="M169.1,150.5h19a4.91,4.91,0,0,1,4.9,4.9v19a4.91,4.91,0,0,1-4.9,4.9h-19a4.91,4.91,0,0,1-4.9-4.9v-19A4.78,4.78,0,0,1,169.1,150.5Z"/><path class="cls-15" d="M178.4,157.7l-4.1,7,4.4,7.4c.1.1,0,.2-.1.2h-2.7c-.1,0-.3-.1-.3-.2l-3.1-5.6h0l-3,5.6c-.1.1-.2.2-.3.2h-2.7c-.1,0-.2-.1-.1-.2l4.3-7.2-4.1-7.2c-.1-.1-.1-.2.1-.2h2.7c.1,0,.2.1.3.2l2.9,5.6h0l2.9-5.6c.1-.1.2-.2.3-.2h2.5C178.5,157.5,178.5,157.6,178.4,157.7Z"/><path class="cls-15" d="M185,172.5a5,5,0,0,1-5.5-5.6,5.5,5.5,0,0,1,5.9-5.7,4.87,4.87,0,0,1,1.2.1v-4.9c0-.1,0-.1.1-.1h2.5c.1,0,.1,0,.1.1v13.5a6.62,6.62,0,0,0,.1,1.5c0,.1,0,.2-.1.2A9.25,9.25,0,0,1,185,172.5Zm1.6-2.2v-6.9a1.72,1.72,0,0,0-1.2-.2,2.7,2.7,0,0,0-2.2,1,5,5,0,0,0,0,5.5,2.72,2.72,0,0,0,2.1.9,6.11,6.11,0,0,0,1.3-.3Z"/><path d="M248.2,221.9c.1,3.6-49.1,9.5-98,9.5-49.5,0-99.2-5.9-99-9.5.1-4.2,65.2-5.5,98.5-5.5C183.2,216.4,248.1,217.7,248.2,221.9Z"/><g class="cls-16"><path class="cls-5" d="M140.1,116.9l-1.5,3.6c0,.1-.2.1-.2.1s-.1-.1-.1-.2V98.7a.22.22,0,0,1,.2-.2h8.8a.22.22,0,0,1,.2.2v.1C145,104.8,142.5,110.9,140.1,116.9Z"/><path class="cls-5" d="M163.2,98.7v21.6a.22.22,0,0,1-.2.2c-.1,0-.2,0-.2-.1l-8.7-21.6c0-.1,0-.2.1-.2H163C163.1,98.5,163.2,98.6,163.2,98.7Z"/><path class="cls-5" d="M156.4,121.4h-3.5c-.1,0-.1,0-.2-.1-.6-1.5-1.2-2.9-1.7-4.4h-3.9a.22.22,0,0,1-.2-.2v-.1c1.2-3.2,2.5-6.3,3.7-9.5,0-.1.2-.1.2-.1l.1.1c.9,2.3,1.9,4.6,2.7,6.9s1.9,4.7,2.8,7.1c.2.1.1.3,0,.3Z"/></g><path class="cls-17" d="M70.8,98A10.74,10.74,0,0,0,55,111.7a19.62,19.62,0,0,1,7.4-10.5A19.12,19.12,0,0,1,70.8,98Z"/></svg>