<svg id="Layer_1" data-name="Layer 1" xmlns="http://www.w3.org/2000/svg" xmlns:xlink="http://www.w3.org/1999/xlink" viewBox="0 0 334.05 273.6"><defs><style>.cls-1,.cls-2,.cls-3,.cls-4{stroke:#000;}.cls-1,.cls-10,.cls-12,.cls-14,.cls-2,.cls-3,.cls-4,.cls-6,.cls-8{stroke-miterlimit:10;}.cls-1,.cls-3,.cls-4{stroke-width:3.24px;}.cls-2,.cls-6{stroke-width:1.08px;}.cls-3{fill:#c70000;}.cls-4{fill:url(#linear-gradient);}.cls-5{fill:#fff;}.cls-6{fill:silver;stroke:#282828;}.cls-7{fill:#282828;}.cls-8{fill:#41322a;stroke:#ff7e1b;stroke-width:1.41px;}.cls-9{fill:#ff7e1b;}.cls-10{fill:#1b0124;stroke:#df76ff;}.cls-10,.cls-14{stroke-width:1.41px;}.cls-11{fill:#df76ff;}.cls-12{fill:#28253a;stroke:#37c5ff;stroke-width:1.41px;}.cls-13{fill:#37c5ff;}.cls-14{fill:#2e001e;stroke:#ff2bc2;}.cls-15{fill:#ff2bc2;}.cls-16{opacity:0.8;}.cls-17{fill:#ff5b4d;opacity:0.35;}</style><linearGradient id="linear-gradient" x1="47.94" y1="117.12" x2="340.64" y2="249.44" gradientUnits="userSpaceOnUse"><stop offset="0.34" stop-color="#c70000"/><stop offset="0.78" stop-color="#940000"/></linearGradient></defs><title>Adobe Toolbox Illustration</title><path class="cls-1" d="M146-54.32h56.71a0,0,0,0,1,0,0V240.59a0,0,0,0,1,0,0H146.58a11.82,11.82,0,0,1-11.82-11.82V-43A11.28,11.28,0,0,1,146-54.32Z" transform="translate(261.9 -75.62) rotate(90)"/><path class="cls-1" d="M115.64,30.49H208a13,13,0,0,1,13,13V303.12a13,13,0,0,1-13,13H115.64a0,0,0,0,1,0,0V30.49A0,0,0,0,1,115.64,30.49Z" transform="translate(341.6 5) rotate(90)"/><path class="cls-2" d="M197.81,65.63V43.28A5.26,5.26,0,0,0,192.56,38H147a5.25,5.25,0,0,0-5.25,5.25V65.63h-15V34.31A11.28,11.28,0,0,1,138,23h61.16A13.63,13.63,0,0,1,212.8,36.65v29Z"/><path class="cls-3" d="M33.37,62.39H304.69A8.28,8.28,0,0,1,313,70.67v53.22a0,0,0,0,1,0,0H24.55a0,0,0,0,1,0,0V71.21A8.82,8.82,0,0,1,33.37,62.39Z"/><path class="cls-4" d="M28.73,123.89H307.87a0,0,0,0,1,0,0v88.83a10,10,0,0,1-10,10H38.73a10,10,0,0,1-10-10V123.89A0,0,0,0,1,28.73,123.89Z"/><path class="cls-5" d="M209.55,36.65V62.39h-8.5V43.28a8.5,8.5,0,0,0-8.49-8.5H147a8.51,8.51,0,0,0-8.5,8.5V62.39H130V34.31a8,8,0,0,1,8-8h61.16A10.36,10.36,0,0,1,209.55,36.65Z"/><path class="cls-6" d="M159.63,133.73h20a0,0,0,0,1,0,0v13a.5.5,0,0,1-.5.5h-19a.5.5,0,0,1-.5-.5v-13A0,0,0,0,1,159.63,133.73Z"/><path class="cls-6" d="M160.55,109.61h18.09a0,0,0,0,1,0,0v20.56a.5.5,0,0,1-.5.5H161a.5.5,0,0,1-.5-.5V109.61A0,0,0,0,1,160.55,109.61Z" transform="translate(339.19 240.28) rotate(-180)"/><rect class="cls-6" x="161.98" y="130.67" width="15.21" height="3.06"/><path class="cls-7" d="M173.78,127.46h-8l2-6.26a3.37,3.37,0,0,1,2-6.1h.05a3.37,3.37,0,0,1,2,6.1Q172.8,124.34,173.78,127.46Z"/><rect class="cls-8" x="61.6" y="146.98" width="40.9" height="40.9" rx="7"/><path class="cls-9" d="M79.94,171.71h-7.2l-1.86,5.95c0,.18-.13.27-.34.27H67.17c-.23,0-.31-.12-.24-.34l6.52-19.9a6,6,0,0,0,.27-1.86.18.18,0,0,1,.2-.2h4.73c.14,0,.22.06.24.17l7.3,21.82c.06.2,0,.31-.17.31H82.23a.35.35,0,0,1-.34-.21Zm-6.39-3.21h5.61c-.14-.47-.42-1.4-.85-2.77s-.82-2.66-1.18-3.85-.63-2.14-.81-2.84h0Q75.92,160.8,73.55,168.5Z"/><path class="cls-9" d="M91.25,158.74a2.18,2.18,0,0,1-1.58-.59,2.43,2.43,0,0,1,0-3.23,2.19,2.19,0,0,1,1.61-.61,2.11,2.11,0,0,1,1.6.61,2.18,2.18,0,0,1,.59,1.62,2.13,2.13,0,0,1-.61,1.61A2.22,2.22,0,0,1,91.25,158.74Zm-2.06,18.88V161.74a.24.24,0,0,1,.27-.27H93a.24.24,0,0,1,.27.27v15.92a.24.24,0,0,1-.27.27H89.5A.28.28,0,0,1,89.19,177.62Z"/><rect class="cls-10" x="237.32" y="146.98" width="40.9" height="40.9" rx="7"/><path class="cls-11" d="M244.27,177.69V155.86c0-.15.07-.23.2-.23q2.16-.07,6.08-.07,4.47,0,6.57,2a6.84,6.84,0,0,1,2.12,5.12,6.47,6.47,0,0,1-2.59,5.59,10.84,10.84,0,0,1-6.54,1.88l-1.09,0h-.66v7.53q0,.24-.27.24h-3.58A.21.21,0,0,1,244.27,177.69Zm4.09-19V167a16,16,0,0,0,2,.07,5.69,5.69,0,0,0,3.48-1,3.81,3.81,0,0,0,1.35-3.29,4,4,0,0,0-1.2-3.06,4.86,4.86,0,0,0-3.4-1.09Q248.77,158.64,248.36,158.7Z"/><path class="cls-11" d="M262.41,161.47h3.18a.37.37,0,0,1,.37.27,6.62,6.62,0,0,1,.34,2,6.21,6.21,0,0,1,5.17-2.53.21.21,0,0,1,.23.24v3.41c0,.18-.09.26-.27.23a5.79,5.79,0,0,0-4.63,1.52,1.13,1.13,0,0,0-.3.82v10.3q0,.24-.27.24h-3.55q-.3,0-.3-.27V166.24c0-1.83-.06-3.34-.17-4.53C262.19,161.55,262.25,161.47,262.41,161.47Z"/><rect class="cls-12" x="109.21" y="146.98" width="40.9" height="40.9" rx="7"/><path class="cls-13" d="M116.17,177.69V155.87c0-.16.07-.24.2-.24q2.16-.07,6.08-.07,4.47,0,6.57,2.05a6.82,6.82,0,0,1,2.12,5.11,6.49,6.49,0,0,1-2.59,5.6,10.84,10.84,0,0,1-6.54,1.87c-.31,0-.68,0-1.09,0h-.66v7.53q0,.24-.27.24H116.4A.21.21,0,0,1,116.17,177.69Zm4.09-19V167a19.54,19.54,0,0,0,2,.06,5.76,5.76,0,0,0,3.48-1,3.84,3.84,0,0,0,1.35-3.3,4,4,0,0,0-1.2-3.06,4.86,4.86,0,0,0-3.4-1.09Q120.67,158.64,120.26,158.7Z"/><path class="cls-13" d="M143.36,165.26a6.56,6.56,0,0,0-3.68-1.12,2.69,2.69,0,0,0-1.69.44,1.32,1.32,0,0,0-.54,1,1.51,1.51,0,0,0,.46,1.11,6.71,6.71,0,0,0,2,1.15,10.36,10.36,0,0,1,3.68,2.32,4.47,4.47,0,0,1,1,3,4.4,4.4,0,0,1-1.7,3.65,7.06,7.06,0,0,1-4.51,1.35,9.46,9.46,0,0,1-4.6-1,.43.43,0,0,1-.2-.37v-3a.23.23,0,0,1,.08-.19.14.14,0,0,1,.16,0,7.3,7.3,0,0,0,4.46,1.55,2.94,2.94,0,0,0,1.72-.43,1.33,1.33,0,0,0,.61-1.12,1.67,1.67,0,0,0-.49-1.2,7.35,7.35,0,0,0-2-1.16,9.47,9.47,0,0,1-3.51-2.29,4.75,4.75,0,0,1,.54-6.46,6.23,6.23,0,0,1,4.32-1.39,8.66,8.66,0,0,1,4,.74c.11.05.17.18.17.41V165C143.67,165.29,143.57,165.37,143.36,165.26Z"/><rect class="cls-14" x="188.76" y="146.98" width="40.9" height="40.9" rx="7"/><path class="cls-15" d="M209,157.25l-5.75,9.86,6.2,10.5c.13.21.07.32-.16.32h-3.88a.5.5,0,0,1-.48-.26l-4.36-8h0l-4.26,8a.49.49,0,0,1-.41.26H192.1c-.21,0-.25-.11-.12-.32l6.1-10.21-5.82-10.21c-.12-.17-.08-.26.13-.26h3.88a.43.43,0,0,1,.41.22l4.11,7.89h0l4.07-7.89a.44.44,0,0,1,.42-.22h3.53C209.07,156.93,209.11,157,209,157.25Z"/><path class="cls-15" d="M218.35,178.21a8,8,0,0,1-5.7-2,7.75,7.75,0,0,1-2.13-5.92,8,8,0,0,1,2.29-5.85,8.26,8.26,0,0,1,6.11-2.29,7.36,7.36,0,0,1,1.66.16v-6.87c0-.13.06-.2.19-.2h3.5c.1,0,.16.07.16.2v19.05q0,1.22.09,2.1a.26.26,0,0,1-.16.29A13.64,13.64,0,0,1,218.35,178.21Zm2.23-3.15v-9.83a3.64,3.64,0,0,0-1.72-.35,4,4,0,0,0-3.15,1.37,7,7,0,0,0,0,7.83,4,4,0,0,0,3,1.27A5,5,0,0,0,220.58,175.06Z"/><path d="M307.87,248.07c.15,5.15-69.61,13.41-138.86,13.46-70.09.06-140.43-8.29-140.28-13.46.16-5.91,92.38-7.78,139.57-7.79C215.8,240.28,307.71,242.17,307.87,248.07Z"/><g class="cls-16"><path class="cls-5" d="M154.68,99.39c-.7,1.7-1.39,3.41-2.09,5.12a.27.27,0,0,1-.52-.1V73.63a.28.28,0,0,1,.27-.27h12.52a.27.27,0,0,1,.25.37q-5.21,12.83-10.43,25.66Z"/><path class="cls-5" d="M187.48,73.63v30.62a.27.27,0,0,1-.52.11L174.63,73.73a.27.27,0,0,1,.25-.37h12.33A.27.27,0,0,1,187.48,73.63Z"/><path class="cls-5" d="M177.81,105.77l-4.91.07a.27.27,0,0,1-.25-.17q-1.23-3.14-2.44-6.25h-5.55a.27.27,0,0,1-.25-.37q2.63-6.71,5.26-13.42a.27.27,0,0,1,.5,0q2,4.84,3.89,9.71,2,5,4,10.07A.27.27,0,0,1,177.81,105.77Z"/></g><path class="cls-17" d="M56.53,72.62A15.17,15.17,0,0,0,34.21,92,27.36,27.36,0,0,1,44.64,77.16,26.46,26.46,0,0,1,56.53,72.62Z"/></svg>