<svg id="Layer_1" data-name="Layer 1" xmlns="http://www.w3.org/2000/svg" xmlns:xlink="http://www.w3.org/1999/xlink" viewBox="0 0 334.05 273.6"><defs><style>.cls-1,.cls-2,.cls-3,.cls-4{stroke:#000;}.cls-1,.cls-11,.cls-14,.cls-16,.cls-2,.cls-3,.cls-4,.cls-6,.cls-9{stroke-miterlimit:10;}.cls-1,.cls-3,.cls-4{stroke-width:3.24px;}.cls-2,.cls-6{stroke-width:1.08px;}.cls-3{fill:#c70000;}.cls-4{fill:url(#linear-gradient);}.cls-5{fill:#fff;}.cls-6{fill:silver;stroke:#282828;}.cls-7{fill:#282828;}.cls-8{opacity:0.8;}.cls-9{fill:#41322a;stroke:#ff7e1b;stroke-width:1.41px;}.cls-10,.cls-12,.cls-15{font-size:33.78px;}.cls-10{fill:#ff7e1b;}.cls-10,.cls-12,.cls-15,.cls-17{font-family:AdobeClean-BoldSemiCn, Adobe Clean;font-weight:700;}.cls-11{fill:#1b0124;stroke:#df76ff;}.cls-11,.cls-16{stroke-width:1.41px;}.cls-12{fill:#df76ff;letter-spacing:0em;}.cls-13{letter-spacing:0em;}.cls-14{fill:#28253a;stroke:#37c5ff;stroke-width:1.41px;}.cls-15{fill:#37c5ff;letter-spacing:0.01em;}.cls-16{fill:#2e001e;stroke:#ff2bc2;}.cls-17{font-size:31.81px;fill:#ff2bc2;}.cls-18{letter-spacing:-0.02em;}.cls-19{fill:#ff5b4d;opacity:0.35;}</style><linearGradient id="linear-gradient" x1="47.94" y1="117.12" x2="340.64" y2="249.44" gradientUnits="userSpaceOnUse"><stop offset="0.34" stop-color="#c70000"/><stop offset="0.78" stop-color="#940000"/></linearGradient></defs><title>Adobe Toolbox Illustration-09</title><path class="cls-1" d="M146-54.32h56.71a0,0,0,0,1,0,0V240.59a0,0,0,0,1,0,0H146.58a11.82,11.82,0,0,1-11.82-11.82V-43A11.28,11.28,0,0,1,146-54.32Z" transform="translate(261.9 -75.62) rotate(90)"/><path class="cls-1" d="M115.64,30.49H208a13,13,0,0,1,13,13V303.12a13,13,0,0,1-13,13H115.64a0,0,0,0,1,0,0V30.49A0,0,0,0,1,115.64,30.49Z" transform="translate(341.6 5) rotate(90)"/><path class="cls-2" d="M197.81,65.63V43.28A5.26,5.26,0,0,0,192.56,38H147a5.25,5.25,0,0,0-5.25,5.25V65.63h-15V34.31A11.28,11.28,0,0,1,138,23h61.16A13.63,13.63,0,0,1,212.8,36.65v29Z"/><path class="cls-3" d="M33.37,62.39H304.69A8.28,8.28,0,0,1,313,70.67v53.22a0,0,0,0,1,0,0H24.55a0,0,0,0,1,0,0V71.21A8.82,8.82,0,0,1,33.37,62.39Z"/><path class="cls-4" d="M28.73,123.89H307.87a0,0,0,0,1,0,0v88.83a10,10,0,0,1-10,10H38.73a10,10,0,0,1-10-10V123.89A0,0,0,0,1,28.73,123.89Z"/><path class="cls-5" d="M209.55,36.65V62.39h-8.5V43.28a8.5,8.5,0,0,0-8.49-8.5H147a8.51,8.51,0,0,0-8.5,8.5V62.39H130V34.31a8,8,0,0,1,8-8h61.16A10.36,10.36,0,0,1,209.55,36.65Z"/><path class="cls-6" d="M159.63,133.73h20a0,0,0,0,1,0,0v13a.5.5,0,0,1-.5.5h-19a.5.5,0,0,1-.5-.5v-13A0,0,0,0,1,159.63,133.73Z"/><path class="cls-6" d="M160.55,109.61h18.09a0,0,0,0,1,0,0v20.56a.5.5,0,0,1-.5.5H161a.5.5,0,0,1-.5-.5V109.61A0,0,0,0,1,160.55,109.61Z" transform="translate(339.19 240.28) rotate(-180)"/><rect class="cls-6" x="161.98" y="130.67" width="15.21" height="3.06"/><path class="cls-7" d="M173.78,127.46h-8l2-6.26a3.37,3.37,0,0,1,2-6.1h.05a3.37,3.37,0,0,1,2,6.1Q172.8,124.34,173.78,127.46Z"/><g class="cls-8"><rect class="cls-9" x="61.6" y="146.98" width="40.9" height="40.9" rx="7"/><text class="cls-10" transform="translate(66.05 177.93)">Ai</text></g><g class="cls-8"><rect class="cls-11" x="237.32" y="146.98" width="40.9" height="40.9" rx="7"/><text class="cls-12" transform="translate(241.77 177.93)">P<tspan class="cls-13" x="18.55" y="0">r</tspan></text></g><g class="cls-8"><rect class="cls-14" x="109.21" y="146.98" width="40.9" height="40.9" rx="7"/><text class="cls-15" transform="translate(113.67 177.93)">P<tspan class="cls-13" x="18.92" y="0">s</tspan></text></g><g class="cls-8"><rect class="cls-16" x="188.76" y="146.98" width="40.9" height="40.9" rx="7"/><text class="cls-17" transform="translate(191.53 177.93)"><tspan class="cls-18">X</tspan><tspan x="17.72" y="0">d</tspan></text></g><path d="M307.87,248.07c.15,5.15-69.61,13.41-138.86,13.46-70.09.06-140.43-8.29-140.28-13.46.16-5.91,92.38-7.78,139.57-7.79C215.8,240.28,307.71,242.17,307.87,248.07Z"/><g class="cls-8"><path class="cls-5" d="M154.68,99.39c-.7,1.7-1.39,3.41-2.09,5.12a.27.27,0,0,1-.52-.1V73.63a.28.28,0,0,1,.27-.27h12.52a.27.27,0,0,1,.25.37q-5.21,12.83-10.43,25.66Z"/><path class="cls-5" d="M187.48,73.63v30.62a.27.27,0,0,1-.52.11L174.63,73.73a.27.27,0,0,1,.25-.37h12.33A.27.27,0,0,1,187.48,73.63Z"/><path class="cls-5" d="M177.81,105.77l-4.91.07a.27.27,0,0,1-.25-.17q-1.23-3.14-2.44-6.25h-5.55a.27.27,0,0,1-.25-.37q2.63-6.71,5.26-13.42a.27.27,0,0,1,.5,0q2,4.84,3.89,9.71,2,5,4,10.07A.27.27,0,0,1,177.81,105.77Z"/></g><path class="cls-19" d="M56.53,72.62A15.17,15.17,0,0,0,34.21,92,27.36,27.36,0,0,1,44.64,77.16,26.46,26.46,0,0,1,56.53,72.62Z"/></svg>