<?xml version="1.0" encoding="utf-8"?>
<!-- Generator: Adobe Illustrator 25.4.1, SVG Export Plug-In . SVG Version: 6.00 Build 0)  -->
<svg version="1.1" id="Layer_1" xmlns="http://www.w3.org/2000/svg" xmlns:xlink="http://www.w3.org/1999/xlink" x="0px" y="0px"
	 viewBox="0 0 300 300" style="enable-background:new 0 0 300 300;" xml:space="preserve">
<style type="text/css">
	.st0{fill:#000018;stroke:#000018;stroke-linecap:round;stroke-linejoin:round;}
	.st1{stroke:#000018;stroke-linecap:round;stroke-linejoin:round;}
	.st2{fill:#00004A;stroke:#000018;stroke-linecap:round;stroke-linejoin:round;}
	.st3{fill:#180064;stroke:#000018;stroke-linecap:round;stroke-linejoin:round;}
	.st4{fill:#6430B0;stroke:#000018;stroke-linecap:round;stroke-linejoin:round;}
	.st5{fill:#7E4ACA;stroke:#000018;stroke-linecap:round;stroke-linejoin:round;}
	.st6{fill:#4B1797;stroke:#000018;stroke-linecap:round;stroke-linejoin:round;}
	.st7{fill:#31007D;stroke:#000018;stroke-linecap:round;stroke-linejoin:round;}
	.st8{clip-path:url(#SVGID_00000056403115496558877870000011650906840562498209_);}
	.st9{fill:#FFFFFF;}
	.st10{opacity:0.2;fill:#FFFFFF;enable-background:new    ;}
</style>
<g>
	<path class="st0" d="M157.7,53.2l-1.9-0.1c-0.7,0-1.4,0-2.1,0c-1.4,0-2.9,0.1-4.3,0.2c-2.7,0.2-5.5,0.7-8.1,1.4l-2,0.6l0.3,3.9
		c4.3,0.6,8.5,1.8,12.5,3.5c0,0,1.1,0.5,2.9,1.2l2.8,1.1V53.2z"/>
	<path class="st0" d="M168,56.8c0-0.3,0-0.7,0.1-1c0-0.1,0.1-0.3,0.2-0.4l0.1-0.1h0.8l3.2,0l-1.4-2.8c-0.5-1-1.3-1.8-2.4-2.1
		l-0.3-0.1h-12l-0.6,0.5c-0.6,0.5-1,1-1.3,1.7c-0.5,0.9-0.7,2-0.6,3v8.3L155,64c3.4,1.4,7,2.6,10.6,3.5l2.4,0.5L168,56.8z"/>
	<path class="st0" d="M167.1,210.4c7.1,0,23.1-0.7,26.4-1c5.1-0.5,10.1-1.3,20.2-2.9c7.2-1.1,10.8-1.8,15-2.8c1.6-0.4,3-0.7,4.3-1.1
		l1.6-0.4l-0.1-2c0.1-1.9-0.1-3.9-0.7-5.7c-1.3-3.6-3.6-6.7-6.7-9c-2.6-1.7-5.7-2.7-8.9-2.6H218c-0.1,0-3.1,0.1-5.5,0.1
		c-0.8,0-1.6,0-2.3-0.1c-2-0.3-6.1-2.9-11.7-6.3l-3.6-2.2c-2.7-1.6-5.3-3.4-7.7-5.4l-0.2-0.2c-1.5-1.4-2.9-2.9-4.2-4.5
		c-0.9-1-1.6-2.1-2.3-3.2c-1.9-4.4-3.5-8.8-4.8-13.4c-0.9-3-1.5-6-1.8-9.1l-1-11.6v-2.1h-2c-0.9,0-1.8,0-2.8,0
		c-2.3,0.1-14,0.7-16.2,3.4c-0.5,0.7-0.8,1.4-1,2.3v0.1l-0.2,2.8c-0.7,13.7-0.3,23.2,1.2,29.2v0.2c0.3,1.1,1.2,4.6-0.2,6.1
		c-0.5,0.5-1.1,0.8-1.8,0.9c-1-0.1-2-0.3-2.9-0.5c-1.7-0.4-3.3-1-4.8-1.6l-1.8-0.7c-2.3-0.9-3.5-1.3-4.3-1.6
		c-0.6-0.2-1.2-0.4-1.7-0.7c-1.7-0.9-3.3-2-4.8-3.2c-0.1-0.1-0.4-0.3-0.9-0.7l-3.6-2.9l0.5,7v8.6l0.7,9.6l1.5,9.4l0.9,0.5
		c1.3,0.7,2.5,1.3,3.5,1.9c4.8,2.6,9.5,5.4,14,8.5c1,0.7,1.9,1.3,2.7,1.8c2,1.4,4.1,2.5,6.3,3.4c2.7,1,5.6,1.7,8.5,2
		C164.9,210.4,166,210.4,167.1,210.4z"/>
	<path class="st0" d="M150.3,173.7c1.7-0.1,3.3-0.9,4.5-2.1c2.9-3.1,1.6-8,1.1-9.8v-0.2c-1.4-5.5-1.8-14.9-1.1-28l0.2-2.5
		c0-0.1,0.1-0.3,0.2-0.4c1.1-0.7,6.5-1.7,13.2-1.9c0.9,0,1.8,0,2.7,0h2v-2.1c-0.1-3.5-0.1-7,0-10.5c0.1-3.5,0.3-6.9,0.7-10.3l1.2-15
		c0.5-4.3,0.8-8.5,1.1-12.6c0.2-2.9,0.4-5.5,0.7-7.8c0.3-3.5,0.6-5.8,0.3-7.2c0-0.1,0-0.1,0-0.2l-0.7-2.5l-2.3,1.2l-0.7,0.4
		l-0.5,0.3c-0.8,0.6-1.7,1-2.6,1.2c-0.5,0.1-1,0.2-1.4,0.2c-0.5,0-1.1-0.1-1.6-0.2l-0.6-0.1c-3.4-0.9-6.8-2-10-3.3
		c-1.7-0.7-2.7-1.1-2.8-1.1c-4.4-1.9-9-3.2-13.7-3.9l-5.5-0.9l-2.7-0.3h-4.1l-0.5,1.2c-0.5,1.1-0.7,2.2-0.6,3.4
		c0,2,0.7,24.6,0.8,25.6c0,0.1,0.1,2,0.1,4c0,2.7-0.1,3.4-0.3,3.8c-0.2,0.3-0.5,0.6-0.9,0.8c-0.6,0.1-1.3,0.2-1.9,0.2l-2,0.1v4.2
		l0.5,11.4l0.6,12.1l0.6,11.4l0.4,11.9l0.6,11.3l0.5,7.7l0.7,0.6c0.5,0.4,0.8,0.7,1,0.8c1.7,1.3,3.4,2.5,5.3,3.6
		c0.7,0.4,1.5,0.7,2.2,1c0.8,0.3,2,0.7,4.2,1.6l1.8,0.7c2.9,1.3,5.9,2.1,9.1,2.4h0.2L150.3,173.7z"/>
	<path class="st0" d="M170.5,57.2L171,56c0.5-1.1,0.5-2.4,0-3.6v-0.1l0,0l-0.8-1.1h-1.5h-0.3c-0.6,0-1.1,0.1-1.7,0.3
		c-0.8,0.4-1.4,1-1.8,1.7c-0.2,0.4-0.4,0.8-0.6,1.3l-0.8,2.6L170.5,57.2z"/>
	<path class="st0" d="M168.6,67.8c0.8,0,1.6-0.1,2.4-0.3c1.4-0.4,2.7-1,3.9-1.8l0.4-0.3l0.6-0.3l1.1-0.6l-0.1-1.3
		c-0.1-1.1-0.4-2.3-0.8-3.3c-0.5-1.3-1.3-2.4-2.2-3.5c-1.1-1.2-2.3-2.2-3.7-3.1l-0.5-0.3h-5l-0.4,1.4c-0.2,0.7-0.3,1.5-0.3,2.3v10.2
		l1.6,0.3l0.7,0.2C167.1,67.7,167.9,67.8,168.6,67.8z"/>
	<path class="st1" d="M133.3,57.9l0.4-1.4c0.2-0.8,0.2-1.7,0-2.5c-0.1-0.2-0.2-0.5-0.3-0.7l-0.7-1.1l-1.1-0.1c-1.1,0-2.2,0.4-3,1.1
		c-0.6,0.5-1.1,1.2-1.3,2L126,58L133.3,57.9z"/>
	<path class="st0" d="M168.1,226c1.2,0,2.4-0.1,3.6-0.1c1.2-0.1,2.4-0.2,3.5-0.3c1.3-0.1,10.6-1.4,11-1.5c5-0.6,9.8-1.5,14.5-2.6
		l31.2-8.1l7.9-2l-0.7-6.2l-0.6-4.6l-2.2-0.1l-0.3,0.1c-15.6,4.4-26.7,6.8-30.4,7.4c-4.8,0.8-9.4,1.4-9.5,1.4l-3.6,0.4
		c-2.4,0.2-7.3,0.6-13.5,0.8c-1.8,0.1-3.3,0.1-4.8,0.1c-1.9,0-3.7,0-5.8-0.1c-7.9-0.1-9.6-0.5-11-0.9c-2.5-0.8-4.9-1.9-7.1-3.2
		c-1.7-0.9-3.6-2.1-7.8-4.7c-2.3-1.5-3.7-2.3-4.6-3c-1.3-0.9-1.9-1.2-3.2-2c-1.1-0.6-1.5-0.8-3.7-1.9l-4-2.1
		c-4.4-2.3-6.8-3.5-7.6-3.9c-3.3-1.9-6.4-4.1-9.3-6.6l-3.3,1.2c-0.6,3.8-1,7.6-1.2,11.4c-0.1,2.6-0.4,8.4-0.4,8.4v0.4l0.1,0.3
		c0.2,0.7,0.6,1.3,1.1,1.8c0.3,0.3,0.6,0.5,1,0.7l0.1,0.1l0.2,0.2c1.3,2.1,3.6,3.5,6.1,3.5h0.4l0.5,0.4c0.8,0.7,1.8,1.2,2.8,1.6
		c1.1,0.4,2.2,0.6,3.3,0.6c0.4,0,0.8,0,1.2-0.1c0.6,0.8,1.5,1.3,2.4,1.7c0.9,0.3,1.9,0.5,2.9,0.5h1.3c0.5,0,0.9,0,1.3,0
		c0.8,0,1.7-0.1,3.5-0.4c1.1-0.1,2.1-0.3,3.1-0.6c0.3-0.1,0.5-0.2,0.8-0.3h1l1.3,1l0.4,0.3v1.7l0.7,0.6c0.8,0.7,1.6,1.3,2.4,1.9
		c0.8,0.7,1.7,1.1,2.7,1.5c0.3,0.1,0.7,0.2,1,0.2l0,0l1.2,0.9c1.1,0.8,2.2,1.4,3.4,1.9c1,0.5,2.1,0.8,3.3,0.8c0.2,0,0.4,0,0.7,0
		l0.4-0.1l0.7,0.3c0.7,0.3,1.4,0.6,2.1,0.8c1,0.2,1.9,0.4,2.9,0.4h4.3v0.2L168.1,226z"/>
	<path class="st0" d="M174.4,214.6c1.5,0,3,0,4.9-0.1c6.3-0.2,11.3-0.6,13.8-0.8c1.3-0.1,2.5-0.2,3.6-0.4c0,0,4.8-0.6,9.7-1.4
		c3.8-0.6,15-3,30.8-7.5l-0.3-2.7l0.7-0.5c-0.4-0.5-0.8-0.9-1.3-1.3c-0.5-0.4-1.1-0.7-1.7-0.9v-1l-2.5,0.7c-1.2,0.3-2.6,0.7-4.2,1
		c-4.1,0.9-7.6,1.6-14.6,2.7c-10.1,1.6-15.1,2.4-20,2.9c-3.3,0.3-19,1-26,1c-1.9,0-2.5,0-2.8-0.1c-2.6-0.2-5.1-0.8-7.5-1.7
		c-2-0.8-3.9-1.9-5.6-3.1c-0.8-0.5-1.7-1.1-2.7-1.8c-4.6-3.2-9.4-6.1-14.4-8.7c-1-0.5-2.2-1.2-3.5-1.8l-0.2-0.1
		c-7-3.7-15.7-8.6-17.3-9.5l-1.1-1.3l-5.3,6.4l0.8,0.7c3.1,2.6,6.5,5,10,7c0.8,0.5,3,1.6,7.6,4l4.1,2.1c2.1,1.1,2.5,1.3,3.5,1.8
		c1.2,0.7,1.7,1,3,1.9c1,0.6,2.3,1.5,4.7,3c3.9,2.5,6.1,3.9,8,4.9c2.5,1.5,5.1,2.6,7.9,3.5c1.8,0.5,3.7,0.9,12.1,1
		C170.6,214.6,172.5,214.6,174.4,214.6z"/>
	<path class="st0" d="M124.5,97c1,0,2-0.2,2.9-0.4h0.2l0.2-0.1c1.1-0.5,2-1.3,2.7-2.2c1-1.5,1-3,1-6c0-2.2-0.1-4.1-0.1-4.2
		c-0.2-6.6-0.8-24.2-0.8-25.4v-0.1c0-0.6,0.1-1.2,0.3-1.7c0.1-0.2,0.1-0.3,0.2-0.5c0.1-0.1,0.3-0.1,0.4-0.1h3.2l-1.4-2.9
		c-0.3-0.6-0.7-1.1-1.2-1.5c-0.4-0.3-0.8-0.6-1.2-0.8l-0.4-0.2h-9l-0.5,0.3c-0.5,0.3-1,0.7-1.3,1.2c-0.3,0.4-0.6,0.8-0.7,1.2
		c-0.2,0.6-0.2,1.3-0.1,1.9c-0.2,5.5-0.2,17.5-0.3,26.2c0,5.1-0.1,9.2-0.1,10.1c-0.1,1.1,0.2,2.2,0.9,3.2c1,1.3,2.6,2,4.8,2
		L124.5,97z"/>
	<path class="st0" d="M129,155.1l-0.5-11.2l-0.5-11.9l-0.5-11.4l-0.6-12.1l-0.4-11.3v-4.3l-2.3,0.1c-1,0-1.5-0.2-1.6-0.3
		c-0.1-0.2-0.1-0.4-0.1-0.6c0-1,0.1-5.1,0.1-10.2c0.1-8.9,0.2-21.1,0.3-26.4v-1.8l-1.8-0.2c-0.3,0-0.6,0-0.9,0
		c-0.8,0-1.6,0.1-2.3,0.4c-1.2,0.4-2.3,1-3.2,1.9c-0.7,0.6-1.2,1.4-1.7,2.2l-0.2,0.5l1.7,37.3c0.6,9,0.9,18.2,1.1,27.2
		c0.1,7.3,0.1,14.8,0,22.1c-0.1,0.5-0.2,1-0.2,1.5v0.3v0.3c0.2,1.4,0.5,2.8,0.9,4.2c0.5,1.7,1.2,3.3,2.2,4.8
		c0.8,1.2,1.7,2.3,2.7,3.3c0.8,0.8,1.7,1.7,2.7,2.5c0.9,0.8,1.6,1.4,2.4,2.1l3.6,2.9L129,155.1z"/>
	<path class="st0" d="M130.4,182.4l-0.7-9.3v-8.6l-0.2-3.5l-0.7-0.6c-0.8-0.6-1.5-1.3-2.3-1.9s-1.7-1.6-2.5-2.4
		c-0.8-0.8-1.5-1.6-2.1-2.6c-0.8-1.2-1.3-2.5-1.8-3.9c-0.4-1.1-0.6-2.3-0.8-3.5h-4c-0.6,3.8-1.3,7.5-2.4,11.2
		c-0.3,1.1-0.6,2.2-0.9,3.2c-1.1,3.7-2.1,6.9-2.1,10.7v10.6l0.5,0.6c0.7,0.8,18.2,10.2,18.4,10.3l3.5,1.9L130.4,182.4z"/>
	<path class="st2" d="M155.7,62.1v-7c-2-0.1-4.1,0-6.1,0.1c-2.6,0.2-5.2,0.7-7.8,1.3l-2,0.6c4.5,0.6,8.9,1.9,13.1,3.7
		C152.9,60.9,154,61.4,155.7,62.1z"/>
	<path class="st3" d="M166,65.5L166,65.5v-8.7c0-0.5,0-1.1,0.2-1.6l0,0c0.1-0.3,0.2-0.6,0.4-0.8c0.2-0.4,0.6-0.8,1-1
		c0.3-0.1,0.7-0.2,1-0.1h0.6c-0.3-0.5-0.7-0.9-1.3-1.1h-11c-0.9,0.7-1.3,1.9-1.3,3v7C159,63.4,162.5,64.6,166,65.5z"/>
	<path class="st4" d="M153.6,129.4c-0.3,0.4-0.5,0.9-0.6,1.4l-0.2,2.7c-0.8,15.6,0,23.9,1.2,28.6c0.4,1.4,1.6,5.8-0.6,8.1
		c-0.9,0.9-2,1.4-3.3,1.5c-1.1-0.1-2.3-0.3-3.4-0.6c-2.4-0.6-4.7-1.4-6.9-2.4c-5.1-2-4.9-1.7-6.2-2.4c-1.8-1-3.4-2.1-5-3.4l-0.9-0.7
		l0.2,2.5v8.6l0.7,9.4l1.3,8.3c1.2,0.7,2.4,1.3,3.5,1.8c5.8,3.1,11.4,6.6,16.9,10.4c1.9,1.3,3.9,2.4,6,3.3c2.6,1,5.3,1.6,8,1.8
		c3.2,0.4,25.3-0.5,29.2-0.9c5-0.5,10-1.3,20.1-2.9c7.1-1.1,10.7-1.8,14.8-2.8c1.5-0.4,2.9-0.7,4.2-1v-0.5c0.1-1.7-0.1-3.5-0.6-5.1
		c-1.1-3.2-3.2-6-5.9-8c-2.3-1.5-5.1-2.3-7.9-2.3c0,0-6.9,0.2-8.2,0c-2.8-0.5-7.9-3.8-16.1-8.8c-2.8-1.6-5.5-3.5-8-5.6l-0.2-0.2
		c-1.6-1.5-3.1-3-4.4-4.7c-0.9-1.1-1.7-2.3-2.4-3.5c-1.9-4.5-3.6-9.1-5-13.8c-0.9-3.1-1.5-6.3-1.9-9.5l-1-11.7v-0.2
		c-0.9,0-1.8,0-2.7,0C162.3,127,154.7,128,153.6,129.4z"/>
	<path class="st5" d="M128.7,58.6c0,1.5,0.8,25.6,0.8,25.6s0.1,2,0.1,4.1c0,3.1-0.1,4-0.7,4.9c-0.5,0.7-1.1,1.2-1.9,1.5
		c-0.8,0.2-1.7,0.3-2.5,0.3v2.3l0.4,11.3l0.6,12.1l0.6,11.4l0.4,11.9l0.6,11.2l0.5,6.8l0.9,0.7c1.6,1.3,3.2,2.4,5,3.4
		c1.3,0.7,1.1,0.5,6.2,2.5c2.2,1,4.6,1.8,6.9,2.4c1.1,0.3,2.3,0.4,3.4,0.6c1.2-0.1,2.4-0.6,3.3-1.5c2.2-2.4,1-6.7,0.6-8.1
		c-1.2-4.7-2-13-1.1-28.6l0.2-2.7c0.1-0.5,0.3-1,0.7-1.4c1.1-1.4,8.7-2.4,14.7-2.6c1,0,1.9,0,2.7,0c-0.1-3.3-0.1-6.9,0-10.6
		c0.1-3.7,0.4-7.2,0.7-10.5l1.2-15c0.6-5.3,0.9-9.6,1.1-12.6c0.4-7.1,1.4-12.6,1-14.5c0-0.1,0-0.1,0-0.2l-0.6,0.4
		c-1.1,0.8-2.4,1.4-3.7,1.8c-1.3,0.3-2.6,0.3-3.9,0l-0.7-0.1l0,0c-3.5-0.9-7-2-10.3-3.4l0,0c-1.7-0.7-2.8-1.2-2.8-1.2
		c-4.2-1.8-8.6-3.1-13.1-3.7l-5.5-0.9l-2.5-0.3h-2.6C128.8,56.8,128.6,57.7,128.7,58.6z"/>
	<path class="st2" d="M167.5,53.4c-0.4,0.2-0.8,0.6-1,1c-0.2,0.3-0.3,0.5-0.4,0.8h3c0.3-0.6,0.3-1.3,0-1.9l0,0h-0.6
		C168.2,53.2,167.8,53.3,167.5,53.4z"/>
	<path class="st2" d="M166,56.8v8.7l0,0l0.7,0.1c1.3,0.3,2.6,0.3,3.9,0c1.3-0.4,2.6-1,3.7-1.8l0.6-0.4c-0.1-0.9-0.3-1.9-0.6-2.7
		c-0.5-1.1-1.1-2-1.9-2.9c-0.9-1.1-2-1.9-3.2-2.7h-3C166.1,55.7,166,56.2,166,56.8z"/>
	<path class="st2" d="M129.1,56h2.6c0.1-0.5,0.1-0.9,0-1.4c0-0.1-0.1-0.2-0.2-0.4c-0.6,0-1.2,0.2-1.7,0.6
		C129.5,55.1,129.3,55.5,129.1,56z"/>
	<path class="st2" d="M236.8,202.5h-0.2c-15,4.3-26.3,6.7-30.6,7.4c-4.9,0.8-9.6,1.4-9.6,1.4c-1.1,0.1-2.3,0.3-3.6,0.4
		c-1.3,0.1-6.6,0.6-13.6,0.8c-4.1,0.1-6.9,0.1-10.6,0c-8.2-0.1-10-0.5-11.6-1c-2.6-0.8-5.1-2-7.5-3.4c-1.8-1-3.9-2.3-7.9-4.8
		c-5.6-3.6-5.6-3.7-7.8-4.9c-1.5-0.9-1.7-0.9-7.6-3.9c-4.5-2.3-6.8-3.5-7.6-4c-3.4-1.9-6.7-4.2-9.7-6.7c-0.6,3.7-0.9,7.4-1.1,11.2
		c-0.1,2.6-0.4,8.4-0.4,8.4c0.1,0.4,0.3,0.7,0.6,0.9c0.2,0.1,0.3,0.3,0.5,0.4l1.3-0.4l0.4,0.2l-0.7,1.2c0.7,1.2,1.9,2,3.2,2.4
		c0.8,0.2,1.7,0.2,2.5,0l0.5-1.2l0.6,0.1c-0.1,0.7-0.2,1.4-0.2,2.1c1.8,1.5,4.2,2,6.5,1.6l0.8-0.9l0.7,0.1l-0.5,1.4
		c0.5,0.6,1.1,1.1,1.8,1.3c0.7,0.2,1.5,0.3,2.2,0.3c0.8,0,1.6,0,2.5,0c0.7,0,1.6-0.1,3.4-0.3c0.9-0.1,1.8-0.2,2.7-0.5
		c0.4-0.2,0.8-0.3,1-0.4l2.1-0.1l2,1.4c-0.8-1-6.5-6.5-8.3-7.3c-0.6-0.3-1.3-0.5-2-0.7c-0.3,0.5-0.6,1-0.8,1.5
		c-0.8,2.1-1.1,4.3-0.7,6.5c-0.4-2.2-0.1-4.4,0.7-6.5c0.2-0.5,0.5-1,0.8-1.5c0.7,0.2,1.4,0.4,2,0.7c1.8,0.8,7.4,6.3,8.3,7.3l1.2,1
		v1.8c0.9,0.8,1.7,1.4,2.3,1.9c0.6,0.5,1.3,1,2,1.2c0.7,0.2,1.5,0.2,2.2,0l0.7-0.5l0.4,0.5l-0.5,1.4c0.9,0.7,1.9,1.2,3,1.7
		c0.9,0.5,1.9,0.7,2.9,0.6c0.4-0.1,0.8-0.2,1.2-0.4l0.3-1l1,0.2c-0.1,0.6-0.2,1.1-0.3,1.6c0.6,0.3,1.1,0.5,1.7,0.7
		c0.8,0.2,1.7,0.3,2.5,0.3c0.5,0,3.5,0,4.1,0v-1h2.1v1.3c1.1,0,2.3-0.1,3.5-0.1c1-0.1,2.1-0.1,3.5-0.3c1.3-0.1,10.9-1.4,10.9-1.4
		c6.1-0.8,11-1.8,14.4-2.6l25.7-6.9l5.4-1.4l6.2-1.5l-0.5-4.4L236.8,202.5z"/>
	<path class="st3" d="M126.2,194.6c5.9,3,6.1,3.1,7.6,3.9c2.1,1.2,2.1,1.4,7.8,4.9c4,2.6,6.1,3.8,7.9,4.8c2.4,1.4,4.9,2.5,7.5,3.4
		c1.6,0.5,3.4,0.8,11.6,1c3.7,0.1,6.5,0.1,10.6,0c7-0.2,12.2-0.7,13.6-0.8c1.4-0.1,2.5-0.2,3.6-0.4c0,0,4.7-0.6,9.6-1.4
		c4.3-0.7,15.5-3.2,30.6-7.4h-0.7c-0.3-0.3-0.6-0.6-0.9-0.9c-0.7-0.6-1.6-0.9-2.5-1l0,0c-1.3,0.3-2.7,0.7-4.2,1
		c-4.1,1-7.7,1.6-14.8,2.8c-10.1,1.6-15.1,2.4-20.1,2.9c-4,0.4-26,1.3-29.2,0.9c-2.7-0.2-5.4-0.9-8-1.8c-2.1-0.9-4.1-2-6-3.3
		c-5.4-3.8-11.1-7.2-16.9-10.4c-1.1-0.6-2.2-1.2-3.5-1.8l0,0c-7.6-4-17.7-9.8-17.8-9.9l-3,2.7c3,2.6,6.2,4.8,9.7,6.8
		C119.4,191.1,121.7,192.3,126.2,194.6z"/>
	<path class="st5" d="M121,93.8c0.7,1,2.1,1.2,3.5,1.2l0,0c0.9,0,1.7-0.1,2.5-0.3c0.8-0.3,1.4-0.9,1.9-1.5c0.6-0.9,0.6-1.8,0.7-4.9
		c0-2.1-0.1-4.1-0.1-4.1s-0.8-24.1-0.8-25.6c-0.1-0.9,0.1-1.8,0.5-2.6c0.2-0.5,0.4-0.9,0.8-1.2c0.5-0.4,1.1-0.6,1.7-0.6
		c-0.2-0.3-0.4-0.7-0.7-0.9c-0.2-0.2-0.5-0.3-0.7-0.4h-8c-0.3,0.2-0.6,0.4-0.8,0.7c-0.2,0.2-0.3,0.4-0.4,0.7c-0.1,0.4-0.1,0.7,0,1.1
		c-0.2,8.4-0.3,34-0.4,36.6C120.5,92.6,120.7,93.3,121,93.8z"/>
	<path class="st6" d="M120.2,154.7c0.7,1.1,1.5,2.1,2.4,2.9c0.7,0.7,1.6,1.5,2.6,2.4c1,0.9,1.8,1.5,2.3,2l-0.5-6.8l-0.6-11.2
		l-0.4-11.9l-0.5-11.5l-0.6-12.1l-0.4-11.3V95c-1.3,0-2.7-0.2-3.5-1.2c-0.4-0.6-0.6-1.3-0.5-1.9c0.1-2.6,0.2-28.2,0.4-36.6
		c-0.8-0.1-1.6,0-2.4,0.2c-0.9,0.3-1.7,0.8-2.4,1.4c-0.5,0.5-0.9,1-1.3,1.7l1.6,36.7c0.5,8.7,0.9,17.8,1.1,27.2
		c0.1,7.7,0.1,15.1,0,22.3c-0.1,0.6-0.2,1.1-0.2,1.6c0.2,1.3,0.4,2.6,0.8,3.8C118.7,151.9,119.4,153.4,120.2,154.7z"/>
	<path class="st7" d="M128.5,182.7l-0.7-9.4v-8.6l-0.2-2.5c-0.6-0.5-1.4-1.2-2.3-2s-1.9-1.8-2.6-2.4c-0.9-0.9-1.7-1.9-2.4-2.9
		c-0.9-1.4-1.5-2.8-2-4.4c-0.4-1.2-0.7-2.5-0.8-3.8c-0.6,3.9-1.4,7.7-2.5,11.5c-1.4,5.1-3,8.9-3,13.3v9.8c0.1,0.1,10.2,5.8,17.8,9.9
		L128.5,182.7z"/>
	<ellipse cx="145.9" cy="242.7" rx="85.7" ry="7.2"/>
	<path class="st0" d="M117.6,55.7l-1.9-0.1c-0.7,0-1.4,0-2.1,0c-1.4,0-2.9,0.1-4.3,0.2c-2.7,0.2-5.5,0.7-8.1,1.4l-2,0.6l0.3,3.9
		c4.3,0.6,8.5,1.8,12.5,3.6c0,0,1.2,0.5,2.9,1.2l2.8,1.1L117.6,55.7z"/>
	<path class="st0" d="M127.9,59.3c0-0.3,0-0.7,0.1-1c0-0.1,0.1-0.3,0.2-0.4l0.1-0.1h0.8l3.1,0l-1.4-2.8c-0.5-1-1.3-1.8-2.4-2.2
		l-0.3-0.1H116l-0.6,0.5c-0.5,0.5-1,1-1.3,1.7c-0.5,0.9-0.7,2-0.6,3V66l1.3,0.5c3.4,1.4,7,2.6,10.6,3.5l2.4,0.5L127.9,59.3z"/>
	<path class="st0" d="M127,212.9c7,0,23-0.7,26.4-1c5.1-0.5,10.1-1.3,20.2-2.9c7.2-1.1,10.8-1.8,15-2.8c1.6-0.4,3-0.7,4.3-1.1
		l1.6-0.4l-0.1-2c0.1-1.9-0.1-3.9-0.7-5.7c-1.3-3.6-3.6-6.7-6.7-9c-2.6-1.7-5.7-2.7-8.9-2.6H178c-0.1,0-3.1,0.1-5.5,0.1
		c-1.9,0-2.3-0.1-2.3-0.1c-2-0.3-6.1-2.9-11.7-6.3l-3.6-2.2c-2.7-1.6-5.3-3.4-7.7-5.4l-0.2-0.2c-1.5-1.4-2.9-2.9-4.2-4.5
		c-0.9-1-1.6-2.1-2.2-3.2c-1.9-4.4-3.5-8.8-4.8-13.4c-0.9-3-1.5-6-1.8-9.1l-0.9-11.6v-2.1h-2c-0.9,0-1.8,0-2.8,0
		c-2.3,0.1-14,0.6-16.2,3.4c-0.5,0.7-0.8,1.4-1,2.2v0.1l-0.3,2.8c-0.7,13.7-0.3,23.2,1.2,29.2v0.2c0.3,1.1,1.2,4.6-0.2,6.1
		c-0.5,0.5-1.2,0.8-1.8,0.8c-1-0.1-2-0.3-2.9-0.5c-1.7-0.4-3.3-0.9-4.8-1.6l-1.8-0.7c-2.3-0.9-3.5-1.3-4.3-1.6
		c-0.6-0.2-1.2-0.4-1.7-0.7c-1.7-0.9-3.3-2-4.8-3.2c-0.1-0.1-0.4-0.3-0.9-0.7l-3.6-2.9l0.5,7v8.7l0.7,9.6l1.5,9.4l0.9,0.5
		c1.3,0.7,2.5,1.3,3.5,1.9c4.8,2.6,9.5,5.4,14,8.5l2.7,1.8c2,1.4,4.1,2.5,6.4,3.4c2.7,1,5.6,1.7,8.5,1.9
		C124.8,212.9,125.9,212.9,127,212.9z"/>
	<path class="st0" d="M110.2,176.2c1.7-0.1,3.3-0.9,4.5-2.1c2.8-3.1,1.6-8,1.1-9.8v-0.2c-1.4-5.5-1.8-14.9-1.1-28l0.2-2.5
		c0-0.1,0.1-0.3,0.2-0.4c1.1-0.7,6.5-1.7,13.2-1.9c0.9,0,1.8,0,2.7,0h2l-0.1-2c-0.1-3.5-0.1-7,0-10.5s0.3-6.9,0.7-10.4l1.2-15
		c0.5-4.3,0.8-8.5,1.1-12.6c0.2-2.9,0.4-5.5,0.7-7.8c0.4-3.5,0.6-5.8,0.3-7.2c0-0.1,0-0.2,0-0.2L136,63l-2.3,1.2
		c-0.2,0.1-0.5,0.3-0.7,0.4l-0.5,0.3c-0.8,0.6-1.7,1-2.6,1.2c-0.5,0.1-1,0.2-1.4,0.2c-0.5,0-1.1-0.1-1.6-0.2l-0.6-0.1
		c-3.4-0.8-6.8-1.9-10-3.3c-1.6-0.7-2.7-1.1-2.7-1.2c-4.3-1.9-8.9-3.2-13.6-3.9l-5.5-0.9l-2.7-0.3h-4.1l-0.5,1.2
		c-0.5,1.1-0.7,2.2-0.6,3.4c0,2.1,0.7,24.6,0.8,25.6c0,0.1,0.1,2,0.1,4c0,2.8-0.1,3.4-0.3,3.8c-0.2,0.3-0.5,0.6-0.9,0.8
		c-0.6,0.1-1.3,0.2-1.9,0.2h-1.9v4.2l0.4,11.4l0.6,12.1l0.5,11.4l0.5,11.9l0.6,11.3l0.5,7.7l0.7,0.6l0.9,0.8
		c1.7,1.3,3.4,2.5,5.3,3.6c0.7,0.4,1.5,0.7,2.3,1c0.8,0.3,2,0.7,4.2,1.6l1.8,0.7c1.7,0.8,3.6,1.4,5.4,1.8c1.2,0.3,2.4,0.5,3.6,0.6
		h0.2L110.2,176.2z"/>
	<path class="st0" d="M130.3,59.7l0.5-1.2c0.5-1.1,0.5-2.4,0-3.6v-0.1v0l-0.8-1.1h-1.5h-0.3c-0.6,0-1.1,0.1-1.7,0.3
		c-0.8,0.4-1.4,1-1.8,1.7c-0.2,0.4-0.4,0.8-0.6,1.3l-0.8,2.6L130.3,59.7z"/>
	<path class="st0" d="M128.5,70.4c0.8,0,1.6-0.1,2.4-0.3c1.4-0.3,2.7-0.9,3.9-1.8l0.5-0.3l0.6-0.3l1.1-0.6l-0.1-1.2
		c-0.1-1.1-0.3-2.3-0.7-3.3c-0.5-1.3-1.3-2.4-2.2-3.5c-1.1-1.2-2.4-2.2-3.8-3.1l-0.5-0.3h-5l-0.4,1.4c-0.2,0.7-0.3,1.5-0.3,2.3v10.2
		l1.6,0.3l0.7,0.2C126.9,70.3,127.7,70.4,128.5,70.4z"/>
	<path class="st1" d="M93.2,60.5l0.4-1.5c0.2-0.8,0.2-1.7,0-2.5c-0.1-0.2-0.2-0.5-0.3-0.7c-0.2-0.4-0.5-0.7-0.7-1.1l-1.1-0.1
		c-1.1,0-2.2,0.4-3,1.1c-0.6,0.5-1.1,1.2-1.3,2l-1.2,2.8L93.2,60.5z"/>
	<path class="st0" d="M128,228.5c1.2,0,2.4-0.1,3.6-0.1c1.2-0.1,2.4-0.2,3.5-0.3c1.3-0.1,10.6-1.4,11-1.5c4.9-0.6,9.8-1.5,14.5-2.6
		l31.2-8.1l7.9-2l-0.7-6.2l-0.6-4.6l-2.2-0.1l-0.3,0.1c-15.6,4.4-26.7,6.8-30.3,7.4c-4.8,0.8-9.5,1.4-9.5,1.4
		c-1.1,0.1-2.3,0.3-3.6,0.4c-2.4,0.2-7.3,0.6-13.5,0.8c-1.8,0-3.3,0.1-4.7,0.1c-1.9,0-3.7,0-5.8-0.1c-7.9-0.1-9.6-0.5-11-0.9
		c-2.5-0.8-4.9-1.9-7.1-3.2c-1.7-0.9-3.6-2.1-7.8-4.7c-2.3-1.5-3.7-2.4-4.6-3c-1.4-0.9-1.9-1.2-3.2-2c-1.1-0.6-1.5-0.8-3.6-1.9
		l-4.1-2c-4.4-2.2-6.8-3.5-7.5-3.9c-3.3-1.9-6.5-4.1-9.4-6.6l-3.3,1.2c-0.6,3.8-1,7.6-1.1,11.4c-0.1,2.6-0.4,8.4-0.4,8.4v0.4
		l0.1,0.3c0.2,0.7,0.6,1.3,1.1,1.8c0.3,0.3,0.6,0.5,1,0.7l0.1,0.1l0.2,0.2c1,1.6,2.6,2.7,4.4,3.2c0.5,0.1,1.1,0.2,1.7,0.2h0.4
		l0.5,0.4c1.7,1.4,3.9,2.2,6.1,2.2c0.4,0,0.8,0,1.2-0.1c0.6,0.7,1.5,1.3,2.4,1.7c0.9,0.3,1.9,0.5,2.9,0.5h1.3c0.5,0,0.9,0,1.3,0
		c0.8,0,1.7-0.1,3.5-0.4c1.1-0.1,2.1-0.3,3.1-0.6c0.3-0.1,0.5-0.2,0.8-0.3h1l1.3,1l0.4,0.3v1.7l0.7,0.6c0.8,0.7,1.6,1.3,2.4,1.9
		c0.8,0.7,1.7,1.2,2.7,1.6c0.3,0.1,0.7,0.2,1,0.2l0,0l1.3,0.9c1.1,0.8,2.2,1.4,3.4,1.9c1,0.5,2.1,0.7,3.3,0.8c0.2,0,0.5,0,0.7,0
		l0.4-0.1l0.7,0.4c0.7,0.3,1.4,0.6,2.1,0.8c1,0.2,1.9,0.4,2.9,0.4h4.3v0.2L128,228.5z"/>
	<path class="st0" d="M134.2,217.2c1.5,0,3,0,4.9-0.1c6.3-0.2,11.3-0.6,13.8-0.8l3.6-0.4c0.1,0,4.8-0.6,9.7-1.4
		c3.8-0.6,15-3,30.8-7.5l-0.3-2.7l0.7-0.5c-0.8-1-1.8-1.8-3-2.2v-1l-2.5,0.7c-1.2,0.3-2.6,0.7-4.2,1c-4.1,1-7.6,1.6-14.6,2.7
		c-10.1,1.6-15.1,2.4-20,2.9c-3.3,0.3-19,1-26,1c-0.9,0-1.9,0-2.8-0.1c-2.6-0.2-5.1-0.8-7.5-1.7c-2-0.8-3.9-1.9-5.7-3.1l-2.7-1.8
		c-4.6-3.2-9.4-6.1-14.4-8.7l-3.5-1.8l-0.2-0.1c-7-3.7-15.7-8.6-17.2-9.5l-1.1-1.3c-1.8,2.1-3.5,4.3-5.3,6.4l0.8,0.7
		c3.1,2.6,6.5,5,10,7c0.8,0.5,3,1.6,7.6,4l4.1,2.1c2.1,1.1,2.5,1.3,3.5,1.8c1.2,0.7,1.7,1,3,1.9c0.9,0.6,2.3,1.5,4.7,3
		c3.9,2.5,6.1,3.9,8,4.9c2.5,1.5,5.1,2.6,7.9,3.5c1.8,0.5,3.7,0.9,12.1,1C130.5,217.1,132.3,217.2,134.2,217.2z"/>
	<path class="st0" d="M84.4,99.5c1,0,1.9-0.2,2.9-0.4h0.2l0.2-0.1c1.1-0.5,2-1.3,2.7-2.2c1-1.5,1-3,1-6c0-2.2-0.1-4.1-0.1-4.2
		c-0.2-6.6-0.8-24.2-0.8-25.4V61c0-0.6,0.1-1.2,0.3-1.7c0.1-0.2,0.1-0.3,0.2-0.5c0.1-0.1,0.3-0.1,0.4-0.1h3.2l-1.4-2.9
		c-0.3-0.6-0.7-1.2-1.2-1.6c-0.4-0.3-0.8-0.6-1.2-0.8l-0.4-0.2h-9l-0.5,0.3c-0.5,0.3-1,0.7-1.3,1.2c-0.3,0.4-0.6,0.8-0.7,1.3
		c-0.2,0.6-0.2,1.3-0.1,1.9c-0.2,5.5-0.2,17.5-0.3,26.2c0,5.1-0.1,9.2-0.1,10.1c-0.1,1.1,0.2,2.3,0.9,3.2c1,1.3,2.6,2,4.8,2
		L84.4,99.5z"/>
	<path class="st0" d="M89,157.7l-0.5-11.2L88,134.6l-0.5-11.5l-0.6-12.1l-0.4-11.3v-4.3L84,95.5c-1,0-1.5-0.2-1.6-0.3
		c-0.1-0.2-0.1-0.4-0.1-0.6c0-1,0.1-5,0.1-10.2c0.1-8.9,0.2-21.1,0.3-26.4l0-1.8L81,55.9c-0.2,0-0.5,0-0.9,0c-0.8,0-1.6,0.1-2.3,0.3
		c-1.2,0.4-2.3,1-3.2,1.9c-0.7,0.6-1.2,1.3-1.7,2.1l-0.2,0.5L74.4,98c0.6,9,0.9,18.2,1.1,27.2c0.1,7.3,0.1,14.8,0,22.1
		c-0.1,0.5-0.1,1-0.2,1.4v0.3v0.3c0.2,1.4,0.5,2.8,0.9,4.2c0.5,1.7,1.2,3.3,2.2,4.8c0.8,1.2,1.7,2.3,2.7,3.3
		c0.8,0.8,1.7,1.7,2.6,2.5c0.9,0.8,1.6,1.4,2.4,2.1l3.6,2.9L89,157.7z"/>
	<path class="st0" d="M90.3,185l-0.7-9.3v-8.6l-0.2-3.5l-0.7-0.6c-0.8-0.6-1.5-1.3-2.3-1.9s-1.7-1.6-2.5-2.4
		c-0.8-0.8-1.5-1.6-2.1-2.6c-0.8-1.2-1.3-2.5-1.8-3.9c-0.4-1.1-0.6-2.3-0.8-3.5h-4c-0.6,3.8-1.4,7.5-2.4,11.2
		c-0.3,1.1-0.6,2.2-0.9,3.2c-1.1,3.7-2.1,6.9-2.1,10.7v10.6l0.5,0.6c0.7,0.8,18.2,10.2,18.4,10.3l3.5,1.9L90.3,185z"/>
	<path class="st2" d="M115.5,64.6v-7c-4.7-0.2-9.4,0.3-13.9,1.5l-2,0.6c4.5,0.6,8.9,1.9,13.1,3.7C112.7,63.4,113.9,63.9,115.5,64.6z
		"/>
	<path class="st3" d="M125.9,68L125.9,68v-8.7c0-0.5,0-1.1,0.2-1.6l0,0c0.1-0.3,0.2-0.6,0.4-0.8c0.2-0.4,0.6-0.7,1-1
		c0.3-0.1,0.7-0.2,1-0.2h0.6c-0.3-0.5-0.7-0.9-1.3-1.1h-11c-0.4,0.3-0.6,0.7-0.9,1.1c-0.3,0.6-0.5,1.3-0.4,2v7
		C118.9,66,122.3,67.2,125.9,68z"/>
	<path class="st4" d="M113.5,131.9c-0.3,0.4-0.5,0.9-0.7,1.4l-0.2,2.7c-0.8,15.6,0,23.9,1.2,28.6c0.3,1.4,1.6,5.7-0.6,8.1
		c-0.9,0.9-2,1.4-3.3,1.5c-1.1-0.1-2.3-0.3-3.4-0.5c-2.4-0.6-4.7-1.4-7-2.4c-5.1-2-4.9-1.7-6.2-2.4c-1.8-1-3.4-2.1-5-3.4l-0.9-0.7
		l0.2,2.5v8.6l0.7,9.4l1.3,8.3c1.2,0.7,2.4,1.3,3.5,1.8c5.8,3.1,11.4,6.6,16.9,10.4c1.9,1.3,3.9,2.4,6,3.3c2.6,1,5.3,1.6,8,1.8
		c3.2,0.4,25.3-0.5,29.2-0.9c5-0.5,10-1.3,20.1-2.9c7.1-1.1,10.7-1.8,14.8-2.8c1.5-0.4,3-0.7,4.2-1v-0.5c0.1-1.7-0.1-3.5-0.6-5.1
		c-0.6-1.7-1.4-3.4-2.6-4.8c-0.9-1.2-2-2.3-3.3-3.2c-2.3-1.5-5.1-2.3-7.9-2.3c0,0-6.9,0.2-8.2,0c-2.8-0.5-7.9-3.8-16.1-8.8
		c-2.8-1.6-5.5-3.5-8-5.6l-0.2-0.2c-1.6-1.4-3.1-3-4.5-4.7c-0.9-1.1-1.7-2.3-2.4-3.5c-1.9-4.5-3.6-9.1-4.9-13.8
		c-0.9-3.1-1.6-6.3-1.9-9.5l-1-11.7c0-0.1,0-0.2,0-0.2c-0.9,0-1.8,0-2.7,0C122.2,129.5,114.6,130.6,113.5,131.9z"/>
	<path class="st5" d="M88.6,61.1c0,1.5,0.8,25.6,0.8,25.6s0.1,2,0.1,4.1c0,3.1-0.1,4-0.7,4.9c-0.5,0.7-1.1,1.2-1.9,1.6
		c-0.8,0.2-1.7,0.3-2.5,0.3v2.3l0.4,11.3l0.6,12.1l0.5,11.4l0.5,11.9l0.5,11.2l0.5,6.8l0.9,0.7c1.6,1.3,3.2,2.4,5,3.4
		c1.3,0.7,1.1,0.5,6.2,2.4c2.2,1,4.6,1.8,6.9,2.4c1.1,0.2,2.3,0.4,3.4,0.5c1.2-0.1,2.4-0.6,3.3-1.5c2.2-2.4,1-6.7,0.6-8.1
		c-1.2-4.7-2-13-1.2-28.6l0.2-2.7c0.1-0.5,0.4-1,0.7-1.4c1.1-1.4,8.7-2.4,14.7-2.6c1,0,1.9,0,2.7,0c-0.1-3.3-0.1-6.9,0-10.6
		c0.1-3.7,0.4-7.2,0.7-10.5l1.2-15c0.6-5.3,0.9-9.6,1.1-12.6c0.4-7.2,1.4-12.6,1-14.5c0-0.1,0-0.1-0.1-0.2c-0.2,0.1-0.4,0.3-0.6,0.4
		c-1.1,0.8-2.4,1.4-3.7,1.8c-1.3,0.3-2.6,0.3-3.9,0l-0.7-0.1l0,0c-3.5-0.9-7-2-10.3-3.4l0,0c-1.7-0.7-2.8-1.2-2.8-1.2
		c-4.2-1.8-8.6-3.1-13.1-3.7l-5.5-0.9l-2.5-0.3h-2.6C88.6,59.3,88.5,60.2,88.6,61.1z"/>
	<path class="st2" d="M127.4,55.9c-0.4,0.2-0.8,0.5-1,1c-0.2,0.3-0.3,0.5-0.4,0.8h3c0.3-0.6,0.3-1.3,0-1.9l0,0h-0.6
		C128.1,55.7,127.7,55.8,127.4,55.9z"/>
	<path class="st2" d="M125.9,59.3V68l0,0l0.7,0.1c1.3,0.3,2.6,0.3,3.9,0c1.3-0.4,2.6-1,3.7-1.8c0.2-0.1,0.4-0.3,0.6-0.4
		c-0.1-0.9-0.3-1.8-0.6-2.7c-0.4-1.1-1.1-2-1.9-2.9c-0.9-1.1-2-2-3.2-2.7h-3C125.9,58.2,125.8,58.8,125.9,59.3z"/>
	<path class="st2" d="M89,58.5h2.6c0.1-0.5,0.1-0.9,0-1.4c0-0.1-0.1-0.3-0.2-0.4c-0.6,0-1.2,0.2-1.7,0.6
		C89.5,57.6,89.2,58.1,89,58.5z"/>
	<path class="st2" d="M196.6,205.1h-0.2c-15,4.3-26.3,6.7-30.6,7.4c-4.9,0.8-9.6,1.4-9.6,1.4l-3.6,0.4c-1.4,0.1-6.6,0.6-13.6,0.8
		c-4.1,0.1-6.9,0.1-10.6,0c-8.2-0.1-10-0.5-11.6-1c-2.6-0.8-5.1-2-7.5-3.4c-1.8-1-3.9-2.3-7.9-4.8c-5.6-3.6-5.6-3.7-7.8-4.9
		c-1.5-0.8-1.7-0.9-7.6-3.9c-4.5-2.3-6.8-3.5-7.6-3.9c-3.4-2-6.7-4.2-9.7-6.8c-0.6,3.7-0.9,7.4-1.1,11.2c-0.1,2.6-0.4,8.4-0.4,8.4
		c0.1,0.4,0.3,0.7,0.6,0.9c0.2,0.1,0.3,0.3,0.5,0.4l1.3-0.4l0.4,0.2l-0.7,1.2c0.7,1.2,1.9,2,3.2,2.4c0.8,0.2,1.7,0.2,2.5,0l0.5-1.2
		l0.6,0.1c-0.1,0.7-0.2,1.4-0.2,2.1c0.7,0.5,1.4,1,2.2,1.3c1.4,0.5,2.8,0.6,4.2,0.3l0.8-0.9l0.7,0.1l-0.5,1.4c0.5,0.6,1.1,1,1.8,1.3
		c0.7,0.2,1.5,0.3,2.2,0.3c1,0,1.8,0,2.4,0c0.6,0,1.6-0.1,3.4-0.3c0.9-0.1,1.8-0.2,2.7-0.5c0.3-0.1,0.7-0.3,1-0.4l2.2-0.1l2,1.4
		c-0.8-1-6.5-6.5-8.3-7.3c-0.6-0.3-1.3-0.5-2-0.7c-0.3,0.5-0.6,1-0.8,1.5c-0.9,2.1-1.1,4.3-0.7,6.5c-0.4-2.2-0.1-4.4,0.7-6.5
		c0.2-0.5,0.5-1.1,0.8-1.5c0.7,0.2,1.4,0.4,2,0.7c1.8,0.8,7.4,6.3,8.3,7.3l1.2,0.9v1.8c0.9,0.8,1.7,1.4,2.3,1.9c0.6,0.5,1.3,1,2,1.2
		c0.7,0.2,1.5,0.2,2.2,0l0.7-0.4l0.4,0.4l-0.5,1.4c0.9,0.7,2,1.3,3,1.7c0.9,0.5,1.9,0.7,2.9,0.6c0.4-0.1,0.8-0.2,1.2-0.4l0.3-1
		l1,0.2c-0.1,0.6-0.2,1.1-0.3,1.7c0.6,0.3,1.1,0.5,1.7,0.7c0.8,0.2,1.7,0.3,2.5,0.3c0.5,0,3.5,0,4.1,0v-1h2.1v1.3
		c1.1,0,2.3-0.1,3.5-0.1c0.9-0.1,2.1-0.1,3.5-0.3s10.9-1.4,10.9-1.4c6.1-0.8,11-1.8,14.4-2.6l25.8-6.7l5.4-1.4l6.2-1.5l-0.5-4.4
		L196.6,205.1z"/>
	<path class="st3" d="M86.1,197.1c5.9,3,6.1,3.1,7.6,3.9c2.1,1.2,2.2,1.4,7.8,4.9c4,2.6,6.1,3.9,7.9,4.8c2.4,1.4,4.9,2.5,7.5,3.4
		c1.6,0.5,3.4,0.8,11.6,1c3.7,0.1,6.5,0.1,10.6,0c7-0.2,12.2-0.7,13.6-0.8l3.6-0.4c0,0,4.7-0.6,9.6-1.4c4.3-0.7,15.5-3.2,30.6-7.4
		h-0.7c-0.3-0.3-0.6-0.6-0.9-0.9c-0.7-0.6-1.6-0.9-2.5-1l0,0c-1.3,0.3-2.7,0.7-4.2,1c-4.1,1-7.7,1.6-14.8,2.8
		c-10.1,1.6-15.1,2.4-20.1,2.9c-4,0.4-26,1.3-29.2,0.9c-2.7-0.2-5.4-0.8-8-1.8c-2.1-0.9-4.1-2-6-3.3c-5.4-3.7-11.1-7.2-16.9-10.3
		c-1.1-0.6-2.2-1.2-3.5-1.8l0,0c-7.6-4.1-17.7-9.8-17.8-9.9l-3,2.7c3,2.6,6.2,4.9,9.7,6.8C79.3,193.7,81.6,194.8,86.1,197.1z"/>
	<path class="st5" d="M80.9,96.4c0.7,1,2.1,1.2,3.4,1.2l0,0c0.9,0,1.7-0.1,2.5-0.3c0.8-0.3,1.4-0.9,1.9-1.6c0.6-0.9,0.6-1.8,0.7-4.9
		c0-2.1-0.1-4.1-0.1-4.1s-0.8-24.1-0.8-25.6c0-0.9,0.1-1.8,0.5-2.6c0.2-0.5,0.4-0.9,0.8-1.2c0.5-0.4,1.1-0.6,1.7-0.6
		c-0.2-0.3-0.4-0.7-0.7-0.9c-0.2-0.2-0.5-0.3-0.7-0.5H82c-0.3,0.2-0.6,0.4-0.8,0.7c-0.5,0.5-0.6,1.2-0.4,1.8
		c-0.2,8.4-0.3,34-0.4,36.6C80.3,95.2,80.5,95.8,80.9,96.4z"/>
	<path class="st6" d="M80.1,157.3c0.7,1.1,1.5,2,2.4,2.9c0.7,0.7,1.5,1.5,2.6,2.4s1.8,1.5,2.3,2l-0.5-6.8l-0.5-11.2L86,134.7
		l-0.5-11.4l-0.6-12.1l-0.4-11.3v-2.3c-1.3,0-2.7-0.2-3.4-1.2c-0.4-0.6-0.5-1.2-0.5-1.9c0.1-2.6,0.2-28.2,0.4-36.6
		c-0.8-0.1-1.6,0-2.4,0.2c-0.9,0.3-1.7,0.8-2.4,1.4c-0.5,0.5-0.9,1-1.3,1.7l1.7,36.7c0.6,8.7,0.9,17.8,1.1,27.2
		c0.1,7.7,0.1,15.1,0,22.3c-0.1,0.6-0.2,1.1-0.2,1.6c0.2,1.3,0.5,2.6,0.9,3.9C78.6,154.4,79.3,155.9,80.1,157.3z"/>
	<path class="st7" d="M88.3,185.2l-0.7-9.4v-8.6l-0.2-2.5c-0.6-0.5-1.4-1.2-2.3-2c-0.9-0.8-1.9-1.8-2.6-2.4
		c-0.9-0.9-1.7-1.9-2.4-2.9c-0.9-1.4-1.5-2.8-2-4.4c-0.4-1.3-0.7-2.5-0.9-3.8c-0.6,3.9-1.4,7.7-2.5,11.5c-1.4,5.1-3,8.9-3,13.3v9.8
		c0.1,0.1,10.2,5.8,17.8,9.9L88.3,185.2z"/>
	<g>
		<g>
			<defs>
				<polygon id="SVGID_1_" points="113,120.8 113,96 129.7,93.6 129.6,118.5 				"/>
			</defs>
			<clipPath id="SVGID_00000181071670327834032720000004522050475337010580_">
				<use xlink:href="#SVGID_1_"  style="overflow:visible;"/>
			</clipPath>
			<g style="clip-path:url(#SVGID_00000181071670327834032720000004522050475337010580_);">
				<path class="st9" d="M117.9,115.6l-0.1-6.8l3.9-0.6h0.1c2-0.3,3.2,0.9,3.2,2.8c0.2,1.9-1.1,3.6-3,3.9L117.9,115.6 M117.7,104.5
					l0-4.6l3.7-0.6h0.1c1-0.2,1.9,0.4,2.2,1.3c0.1,0.2,0.1,0.5,0,0.7c0,1.4-1,2.5-2.4,2.6L117.7,104.5 M121.7,94.7h-0.2l-8.5,1.5
					l0.4,24.6l8.9-1.5c4.3-0.6,7.5-4.4,7.3-8.8c0-3.1-1.6-5.1-4.6-5.4c1.9-0.9,3.1-2.9,3-5C128,96.7,125.7,94.2,121.7,94.7"/>
			</g>
		</g>
	</g>
	
		<ellipse transform="matrix(0.9536 -0.3011 0.3011 0.9536 -50.5002 60.9734)" class="st10" cx="172.5" cy="194.3" rx="9.5" ry="2.7"/>
	<circle class="st10" cx="159.7" cy="199.4" r="2"/>
</g>
</svg>
