<svg id="Layer_1" data-name="Layer 1" xmlns="http://www.w3.org/2000/svg" xmlns:xlink="http://www.w3.org/1999/xlink" viewBox="0 0 194.76 219.76"><defs><style>.cls-1{fill:none;}.cls-2{fill:#000018;}.cls-2,.cls-3,.cls-4,.cls-5,.cls-6,.cls-7,.cls-8,.cls-9{stroke:#000018;stroke-linecap:round;stroke-linejoin:round;stroke-width:1px;}.cls-4{fill:#00004a;}.cls-5{fill:#180064;}.cls-6{fill:#6430b0;}.cls-7{fill:#7e4aca;}.cls-8{fill:#4b1797;}.cls-9{fill:#31007d;}.cls-10{isolation:isolate;}.cls-11{clip-path:url(#clip-path);}.cls-12,.cls-13{fill:#fff;}.cls-13{opacity:0.2;}</style><clipPath id="clip-path"><polygon class="cls-1" points="61.94 81.95 61.99 57.08 78.64 54.74 78.6 79.61 61.94 81.95"/></clipPath></defs><title>Bootstrap Illustration</title><path class="cls-2" d="M106.63,14.3l-1.91-.08c-.67,0-1.37,0-2.1,0-1.42,0-2.87.06-4.29.18a49.91,49.91,0,0,0-8.13,1.4l-2,.61.29,3.9A47.8,47.8,0,0,1,101,23.84s1.14.51,2.88,1.2l2.75,1.11Z"/><path class="cls-2" d="M117,17.88a3,3,0,0,1,.11-1,2.09,2.09,0,0,1,.17-.4l.09-.13h.82l3.15-.05-1.39-2.83a4.29,4.29,0,0,0-2.39-2.14l-.33-.12h-12l-.56.47a5.48,5.48,0,0,0-1.34,1.66,5.58,5.58,0,0,0-.64,3v8.26l1.25.5a74,74,0,0,0,10.63,3.5l2.44.54Z"/><path class="cls-2" d="M116.1,171.46c7.05,0,23.05-.68,26.38-1,5.05-.49,10.12-1.3,20.21-2.91,7.19-1.14,10.82-1.82,15-2.8,1.56-.37,3-.73,4.27-1.06l1.55-.41-.08-2a15.53,15.53,0,0,0-.67-5.72,18.85,18.85,0,0,0-6.66-9,15.69,15.69,0,0,0-8.86-2.62H167c-.07,0-3.11.1-5.47.1a18.56,18.56,0,0,1-2.34-.07c-2-.34-6.09-2.85-11.74-6.32l-3.62-2.22a54.22,54.22,0,0,1-7.68-5.42l-.18-.16a38.17,38.17,0,0,1-4.22-4.47,20.89,20.89,0,0,1-2.26-3.25,121.9,121.9,0,0,1-4.79-13.39,54.55,54.55,0,0,1-1.83-9.12l-1-11.63,0-2.09h-2c-.89,0-1.82,0-2.79,0-2.32.09-14,.65-16.16,3.36a5.56,5.56,0,0,0-1,2.26l0,.13-.21,2.82c-.7,13.68-.31,23.22,1.21,29.22l0,.17c.3,1.14,1.19,4.61-.18,6.07a3.11,3.11,0,0,1-1.84.85,28.66,28.66,0,0,1-2.92-.48,28.3,28.3,0,0,1-4.84-1.65l-1.81-.71c-2.26-.89-3.49-1.34-4.26-1.62a8.79,8.79,0,0,1-1.71-.73,35,35,0,0,1-4.77-3.23c-.12-.09-.44-.34-.88-.7l-3.57-2.88.48,7v8.63l.74,9.59,1.47,9.39.88.47c1.27.67,2.46,1.3,3.53,1.85a145,145,0,0,1,14,8.46c1,.67,1.91,1.27,2.72,1.79a34.75,34.75,0,0,0,6.33,3.44,32.18,32.18,0,0,0,8.5,2A31.77,31.77,0,0,0,116.1,171.46Z"/><path class="cls-2" d="M99.26,134.76a7.13,7.13,0,0,0,4.48-2.12c2.85-3.07,1.6-8,1.12-9.8l0-.15c-1.39-5.53-1.76-14.94-1.09-28l.19-2.49a1.38,1.38,0,0,1,.16-.39c1.11-.66,6.52-1.69,13.23-1.94.93,0,1.81,0,2.66,0H122L122,87.77c-.11-3.48-.11-7,0-10.46s.34-6.94.67-10.35l1.16-15c.47-4.27.84-8.54,1.09-12.62.18-2.91.44-5.49.67-7.76.35-3.5.59-5.81.32-7.23,0-.07,0-.15,0-.24l-.67-2.55-2.3,1.24-.69.42-.5.32a7.67,7.67,0,0,1-2.61,1.24,6.32,6.32,0,0,1-1.45.16,7.87,7.87,0,0,1-1.61-.17l-.62-.13a71.48,71.48,0,0,1-10-3.3c-1.65-.66-2.73-1.15-2.75-1.15A51.9,51.9,0,0,0,89,16.3l-5.5-.9-2.7-.34-4.09,0-.52,1.21a7.76,7.76,0,0,0-.6,3.42c0,2.05.74,24.61.77,25.58,0,.08.12,2,.12,4,0,2.74-.07,3.41-.32,3.78a2.45,2.45,0,0,1-.9.76,12.33,12.33,0,0,1-1.94.24l-2,.06v4.24l.46,11.42.63,12.1.55,11.42.45,11.87.55,11.27.52,7.74.68.55c.48.39.82.65,1,.76a39.7,39.7,0,0,0,5.3,3.57,13.52,13.52,0,0,0,2.25,1c.76.27,1.95.71,4.17,1.58l1.79.71a28.3,28.3,0,0,0,9.09,2.41l.22,0Z"/><path class="cls-2" d="M119.41,18.27,120,17.1a4.37,4.37,0,0,0,0-3.58l0-.09,0,0-.78-1.08-1.5,0h-.28a3.85,3.85,0,0,0-1.67.33,4.22,4.22,0,0,0-1.84,1.74,6.37,6.37,0,0,0-.57,1.27l-.82,2.61Z"/><path class="cls-2" d="M117.61,28.94a10.78,10.78,0,0,0,2.35-.26,11.71,11.71,0,0,0,3.88-1.78l.45-.29.59-.35,1.08-.63-.09-1.26a11.18,11.18,0,0,0-.79-3.32,12.09,12.09,0,0,0-2.22-3.45,15.46,15.46,0,0,0-3.71-3.06l-.47-.28h-5l-.44,1.41a7.08,7.08,0,0,0-.29,2.31V28.19l1.57.35.71.15A11.82,11.82,0,0,0,117.61,28.94Z"/><path class="cls-3" d="M82.24,19.05l.41-1.44a4.59,4.59,0,0,0,0-2.52,4.19,4.19,0,0,0-.27-.68l-.71-1.06-1.11-.07a4.59,4.59,0,0,0-3,1.06,4.91,4.91,0,0,0-1.32,2L75,19.11Z"/><path class="cls-2" d="M117.1,187.11c1.19,0,2.39-.07,3.57-.14s2.37-.16,3.53-.27c1.34-.14,10.57-1.41,11-1.47,5-.65,9.84-1.52,14.53-2.59l31.21-8.11,7.9-2-.69-6.19-.65-4.64-2.18-.12-.32.09c-15.61,4.44-26.68,6.79-30.35,7.41-4.81.81-9.44,1.36-9.49,1.36l-3.57.39c-2.37.23-7.27.64-13.47.8-1.77.05-3.29.07-4.75.07-1.89,0-3.69,0-5.78-.07-7.92-.13-9.63-.46-11-.87a35.9,35.9,0,0,1-7.11-3.2c-1.72-.91-3.62-2.11-7.76-4.74-2.32-1.46-3.68-2.34-4.63-3-1.35-.88-1.91-1.24-3.21-2-1.06-.61-1.51-.84-3.66-1.93l-4-2.06c-4.4-2.26-6.79-3.48-7.55-3.91a60.54,60.54,0,0,1-9.35-6.59l-3.28,1.22A96.93,96.93,0,0,0,54.81,156c-.1,2.59-.38,8.35-.38,8.35v.36l.1.33a4.29,4.29,0,0,0,1.09,1.79,4.48,4.48,0,0,0,1,.71l.13.07.15.23A7.1,7.1,0,0,0,63,171.3h.4l.51.41a9.81,9.81,0,0,0,2.8,1.58,9.66,9.66,0,0,0,3.34.58,9.5,9.5,0,0,0,1.19-.07,6.08,6.08,0,0,0,2.37,1.7,8.53,8.53,0,0,0,2.89.46l1.3,0c.49,0,.94,0,1.31,0,.76,0,1.68-.14,3.52-.35a12.45,12.45,0,0,0,3.14-.63,8,8,0,0,0,.8-.34l1,0,1.34,1,.39.32v1.72l.68.6c.77.67,1.57,1.33,2.37,1.94A8,8,0,0,0,95,181.68a6.43,6.43,0,0,0,1,.2v0l1.25.89a17.48,17.48,0,0,0,3.45,1.92,8.59,8.59,0,0,0,3.28.8,4.08,4.08,0,0,0,.67,0l.4-.06.69.34a10.6,10.6,0,0,0,2.13.81,13.18,13.18,0,0,0,2.92.38h4.3v.22Z"/><path class="cls-2" d="M123.33,175.75c1.49,0,3,0,4.86-.07,6.32-.17,11.33-.59,13.75-.83,1.3-.12,2.5-.25,3.65-.39,0,0,4.77-.57,9.69-1.39,3.75-.64,15-3,30.78-7.5l-.3-2.67.67-.52a6.69,6.69,0,0,0-1.28-1.27,6.77,6.77,0,0,0-1.71-.94v-1l-2.51.66c-1.25.33-2.65.68-4.17,1-4.06.95-7.62,1.62-14.65,2.74-10.06,1.6-15.09,2.41-20,2.89-3.27.31-19,1-26,1-1.86,0-2.55,0-2.8-.07a28.14,28.14,0,0,1-7.48-1.69,31.06,31.06,0,0,1-5.64-3.09c-.8-.51-1.69-1.1-2.67-1.75a147.4,147.4,0,0,0-14.37-8.69c-1-.54-2.23-1.16-3.48-1.83l-.19-.1c-7-3.73-15.71-8.63-17.26-9.53l-1.13-1.34-5.33,6.4.85.72a64.81,64.81,0,0,0,10,7c.84.48,3,1.57,7.63,4l4.13,2.1c2.07,1.06,2.5,1.28,3.48,1.84,1.2.68,1.7,1,3,1.86,1,.62,2.33,1.51,4.66,3,3.94,2.49,6.11,3.87,8,4.89a39,39,0,0,0,7.87,3.51c1.76.51,3.66.89,12.09,1C119.6,175.72,121.41,175.75,123.33,175.75Z"/><path class="cls-2" d="M73.47,58.1a17,17,0,0,0,2.91-.38l.2,0,.2-.09a6.38,6.38,0,0,0,2.73-2.24c1-1.46,1-3,1-6,0-2.15-.11-4.13-.11-4.21-.22-6.62-.78-24.22-.77-25.42v-.13a3.68,3.68,0,0,1,.28-1.69,1.94,1.94,0,0,1,.25-.49.72.72,0,0,1,.42-.09l3.16,0-1.38-2.85a4.54,4.54,0,0,0-1.22-1.55,5.08,5.08,0,0,0-1.21-.77l-.39-.16h-9l-.48.3a5.14,5.14,0,0,0-1.33,1.17A4.05,4.05,0,0,0,68,14.69a3.86,3.86,0,0,0-.11,1.94c-.15,5.49-.24,17.46-.3,26.24,0,5.13-.07,9.17-.1,10.1a4.94,4.94,0,0,0,.88,3.17c1,1.3,2.58,2,4.78,2Z"/><path class="cls-2" d="M78,116.24,77.5,105l-.45-11.87-.54-11.45-.64-12.08-.45-11.32V54l-2.28.06c-1,0-1.48-.22-1.57-.34a1.24,1.24,0,0,1-.08-.64c0-1,.06-5.06.1-10.21.06-8.91.15-21.11.31-26.42l0-1.85-1.84-.2a7.17,7.17,0,0,0-.87,0,7.77,7.77,0,0,0-2.3.35,8,8,0,0,0-3.17,1.89,8.28,8.28,0,0,0-1.66,2.19l-.25.48,1.66,37.29c.56,9,.92,18.15,1.09,27.16.13,7.35.13,14.79,0,22.13-.07.5-.15,1-.22,1.46l0,.28,0,.29a24.05,24.05,0,0,0,.94,4.19,19.21,19.21,0,0,0,2.19,4.82,18.68,18.68,0,0,0,2.67,3.28c.84.84,1.74,1.69,2.65,2.51s1.62,1.41,2.42,2.06l3.57,2.88Z"/><path class="cls-2" d="M79.4,143.55l-.71-9.29v-8.61l-.24-3.46-.68-.55c-.76-.61-1.52-1.26-2.27-1.93s-1.7-1.56-2.5-2.37a14.47,14.47,0,0,1-2.12-2.59,15.78,15.78,0,0,1-1.75-3.89,19.57,19.57,0,0,1-.78-3.48l-4,0A96.74,96.74,0,0,1,62,118.55c-.31,1.12-.64,2.18-.94,3.19-1.13,3.72-2.11,6.93-2.13,10.68V143l.48.56c.65.77,18.23,10.24,18.4,10.34l3.55,1.89Z"/><path class="cls-4" d="M104.63,23.19v-7a46.28,46.28,0,0,0-6.13.14,46.9,46.9,0,0,0-7.8,1.34l-2,.59A49.19,49.19,0,0,1,101.82,22S102.93,22.5,104.63,23.19Z"/><path class="cls-5" d="M115,26.58h0v-8.7a4.43,4.43,0,0,1,.2-1.61h0a3.42,3.42,0,0,1,.37-.84,2.17,2.17,0,0,1,1-1,2.14,2.14,0,0,1,1-.14h.61a2.35,2.35,0,0,0-1.28-1.14H105.9a3.62,3.62,0,0,0-1.27,3v7A72.65,72.65,0,0,0,115,26.58Z"/><path class="cls-6" d="M102.58,90.48a3.35,3.35,0,0,0-.65,1.43l-.2,2.69c-.81,15.63,0,23.9,1.15,28.58.36,1.4,1.58,5.75-.61,8.1a5.35,5.35,0,0,1-3.27,1.5,27.52,27.52,0,0,1-3.4-.55,42.82,42.82,0,0,1-6.94-2.45c-5.07-2-4.86-1.72-6.19-2.45a37.28,37.28,0,0,1-5-3.4l-.92-.73.17,2.52v8.62l.73,9.44,1.31,8.32c1.25.67,2.44,1.29,3.5,1.84a182.82,182.82,0,0,1,16.87,10.35,33.69,33.69,0,0,0,6,3.26,30.53,30.53,0,0,0,8,1.82c3.21.37,25.26-.53,29.22-.91,5-.49,10-1.29,20.14-2.9,7.09-1.14,10.66-1.8,14.79-2.77,1.54-.36,2.95-.72,4.22-1l0-.53a13.84,13.84,0,0,0-.58-5.11,17,17,0,0,0-5.89-8,13.74,13.74,0,0,0-7.89-2.26s-6.91.21-8.17,0c-2.83-.48-7.87-3.82-16.06-8.81a55.35,55.35,0,0,1-8-5.63l-.2-.17a39.84,39.84,0,0,1-4.44-4.72,22.49,22.49,0,0,1-2.45-3.54,118.46,118.46,0,0,1-5-13.77,56.33,56.33,0,0,1-1.9-9.46l-1-11.71v-.23c-.87,0-1.77,0-2.72,0C111.25,88.1,103.64,89.13,102.58,90.48Z"/><path class="cls-7" d="M77.63,19.67c0,1.5.78,25.56.78,25.56s.12,2,.11,4.08c0,3.09-.06,4-.66,4.91A4.53,4.53,0,0,1,76,55.76a14.51,14.51,0,0,1-2.53.33v2.3l.45,11.34L74.5,81.8l.55,11.44.45,11.88.55,11.25.46,6.83.92.73a37.28,37.28,0,0,0,5,3.4c1.33.73,1.12.46,6.19,2.45a42.82,42.82,0,0,0,6.94,2.45,27.52,27.52,0,0,0,3.4.55,5.35,5.35,0,0,0,3.27-1.5c2.19-2.35,1-6.7.61-8.1-1.18-4.68-2-13-1.15-28.58l.2-2.69a3.35,3.35,0,0,1,.65-1.43c1.06-1.35,8.67-2.38,14.66-2.6,1,0,1.85,0,2.72,0-.11-3.33-.12-6.86,0-10.59s.37-7.19.69-10.48l1.15-15c.59-5.35.91-9.61,1.09-12.59.45-7.14,1.39-12.55,1-14.49,0-.07,0-.12,0-.18l-.64.38a11.13,11.13,0,0,1-3.72,1.81,9,9,0,0,1-3.9,0l-.66-.14h0a72.65,72.65,0,0,1-10.32-3.39h0c-1.7-.69-2.81-1.18-2.81-1.18a49.19,49.19,0,0,0-13.07-3.72l-5.53-.91-2.5-.32-2.64,0A5.8,5.8,0,0,0,77.63,19.67Z"/><path class="cls-4" d="M116.47,14.47a2.17,2.17,0,0,0-1,1,3.42,3.42,0,0,0-.37.84h3a2.39,2.39,0,0,0,0-1.91.05.05,0,0,1,0,0h-.61A2.14,2.14,0,0,0,116.47,14.47Z"/><path class="cls-4" d="M115,17.88v8.7h0l.66.14a9,9,0,0,0,3.9,0,11.13,11.13,0,0,0,3.72-1.81l.64-.38a9,9,0,0,0-.64-2.72,9.86,9.86,0,0,0-1.88-2.88,13.19,13.19,0,0,0-3.22-2.66h-3A4.43,4.43,0,0,0,115,17.88Z"/><path class="cls-4" d="M78.08,17.08l2.64,0a2.59,2.59,0,0,0,0-1.41,3,3,0,0,0-.15-.36,2.58,2.58,0,0,0-1.71.57A3,3,0,0,0,78.08,17.08Z"/><path class="cls-4" d="M185.71,163.65h-.2c-15,4.27-26.28,6.73-30.56,7.45-4.93.83-9.6,1.38-9.6,1.38-1.13.14-2.32.27-3.61.39s-6.63.63-13.61.82c-4.1.11-6.88.06-10.62,0-8.18-.14-10-.49-11.56-1a37.15,37.15,0,0,1-7.49-3.35c-1.82-1-3.87-2.26-7.89-4.81-5.61-3.55-5.63-3.68-7.76-4.9-1.49-.85-1.74-.94-7.63-3.95-4.54-2.33-6.81-3.49-7.62-4A62.4,62.4,0,0,1,57.9,145a95.74,95.74,0,0,0-1.09,11.16c-.1,2.59-.37,8.37-.37,8.37a2.22,2.22,0,0,0,.57.95,2.38,2.38,0,0,0,.51.38l1.3-.45.44.24-.71,1.19a5.43,5.43,0,0,0,3.19,2.35,5.28,5.28,0,0,0,2.48,0l.48-1.21.64.12c-.08.69-.15,1.39-.23,2.09a7.77,7.77,0,0,0,6.49,1.56l.75-.9.68.06-.48,1.43a4.25,4.25,0,0,0,1.75,1.34,7.21,7.21,0,0,0,2.25.32A24.15,24.15,0,0,0,79,174c.68,0,1.58-.14,3.38-.34a10.83,10.83,0,0,0,2.68-.52c.42-.16.75-.32,1-.43l2.15-.12,2,1.41c-.82-1-6.47-6.5-8.26-7.31a13.51,13.51,0,0,0-2-.72,11.07,11.07,0,0,0-.82,1.54,11.74,11.74,0,0,0-.72,6.49,11.74,11.74,0,0,1,.72-6.49,11.07,11.07,0,0,1,.82-1.54,13.51,13.51,0,0,1,2,.72c1.79.81,7.44,6.31,8.26,7.31l1.18,1v1.77c.9.79,1.68,1.41,2.27,1.86a6,6,0,0,0,2,1.23,4.29,4.29,0,0,0,2.24,0l.7-.46.41.46-.52,1.4a15.14,15.14,0,0,0,3,1.7,5.49,5.49,0,0,0,2.92.62,3.93,3.93,0,0,0,1.22-.37l.32-1,1,.18c-.1.55-.19,1.1-.29,1.65a8.83,8.83,0,0,0,1.74.66,11.19,11.19,0,0,0,2.5.32c.5,0,3.52,0,4.08,0v-1l2.13,0v1.27c1.1,0,2.26-.06,3.49-.14,1-.05,2.12-.14,3.45-.27s10.89-1.45,10.89-1.45c6.14-.81,11-1.8,14.36-2.56L175,174l5.4-1.4,6.21-1.54-.5-4.45Z"/><path class="cls-5" d="M75.18,155.71c5.89,3,6.14,3.1,7.63,3.95,2.13,1.22,2.15,1.35,7.76,4.9,4,2.55,6.07,3.84,7.89,4.81a37.15,37.15,0,0,0,7.49,3.35c1.61.47,3.38.82,11.56,1,3.74.06,6.52.11,10.62,0,7-.19,12.22-.68,13.61-.82s2.48-.25,3.61-.39c0,0,4.67-.55,9.6-1.38,4.28-.72,15.54-3.18,30.56-7.45l-.67,0a4.74,4.74,0,0,0-.9-.89,5,5,0,0,0-2.5-1h0c-1.27.33-2.68.69-4.22,1-4.13,1-7.7,1.63-14.79,2.77-10.1,1.61-15.15,2.41-20.14,2.9-4,.38-26,1.28-29.22.91a30.53,30.53,0,0,1-8-1.82,33.69,33.69,0,0,1-6-3.26,182.82,182.82,0,0,0-16.87-10.35c-1.06-.55-2.25-1.17-3.5-1.84v0c-7.6-4-17.74-9.76-17.83-9.86l-3,2.72a62.4,62.4,0,0,0,9.66,6.8C68.37,152.22,70.64,153.38,75.18,155.71Z"/><path class="cls-7" d="M70,54.94c.72,1,2.13,1.19,3.46,1.15h0A14.51,14.51,0,0,0,76,55.76a4.53,4.53,0,0,0,1.91-1.54c.6-.89.65-1.82.66-4.91,0-2.1-.11-4.08-.11-4.08s-.79-24.06-.78-25.56a5.8,5.8,0,0,1,.45-2.59,3,3,0,0,1,.78-1.22,2.58,2.58,0,0,1,1.71-.57,2.92,2.92,0,0,0-.71-.91,2.83,2.83,0,0,0-.73-.45h-8a3.24,3.24,0,0,0-.82.72,2.25,2.25,0,0,0-.39.66,1.87,1.87,0,0,0,0,1.11c-.24,8.43-.32,34-.4,36.61A2.87,2.87,0,0,0,70,54.94Z"/><path class="cls-8" d="M69.2,115.83a16.08,16.08,0,0,0,2.38,2.93c.68.68,1.55,1.52,2.58,2.45s1.75,1.51,2.35,2l-.46-6.83-.55-11.25-.45-11.88L74.5,81.8l-.63-12.07-.45-11.34v-2.3c-1.33,0-2.74-.18-3.46-1.15A2.87,2.87,0,0,1,69.49,53c.08-2.59.16-28.18.4-36.61a5.82,5.82,0,0,0-2.36.22,6.24,6.24,0,0,0-2.38,1.43,6.41,6.41,0,0,0-1.26,1.67l1.63,36.75c.54,8.73.92,17.81,1.09,27.22q.21,11.49,0,22.32c-.08.55-.16,1.08-.24,1.61a21.21,21.21,0,0,0,.85,3.83A17.78,17.78,0,0,0,69.2,115.83Z"/><path class="cls-9" d="M77.41,143.78l-.73-9.44v-8.62l-.17-2.52c-.6-.48-1.41-1.16-2.35-2s-1.9-1.77-2.58-2.45a16.08,16.08,0,0,1-2.38-2.93,17.78,17.78,0,0,1-2-4.36,21.21,21.21,0,0,1-.85-3.83,97.63,97.63,0,0,1-2.48,11.46c-1.43,5.07-3,8.88-3,13.34v9.8c.09.1,10.23,5.81,17.83,9.86Z"/><ellipse cx="94.82" cy="203.79" rx="85.74" ry="7.21"/><path class="cls-2" d="M66.51,16.84l-1.92-.08c-.67,0-1.37-.05-2.1-.05-1.42,0-2.86.06-4.28.19a50,50,0,0,0-8.14,1.39l-2,.61.29,3.9a48.35,48.35,0,0,1,12.54,3.57s1.15.51,2.89,1.21l2.75,1.11Z"/><path class="cls-2" d="M76.82,20.41a2.89,2.89,0,0,1,.11-1,2.1,2.1,0,0,1,.18-.4l.08-.13H78l3.15-.05L79.78,16a4.35,4.35,0,0,0-2.39-2.15l-.33-.12H65l-.56.48a5.54,5.54,0,0,0-1.34,1.66,5.67,5.67,0,0,0-.64,3v8.26l1.26.5a75.14,75.14,0,0,0,10.62,3.5l2.44.54Z"/><path class="cls-2" d="M76,174c7,0,23-.69,26.38-1,5.05-.49,10.12-1.3,20.21-2.91,7.2-1.15,10.82-1.83,15-2.8,1.56-.37,3-.73,4.27-1.07l1.56-.41-.08-2a15.8,15.8,0,0,0-.67-5.73,19,19,0,0,0-6.67-9,15.61,15.61,0,0,0-8.86-2.62h-.19c-.07,0-3.11.09-5.47.09-1.87,0-2.3-.06-2.34-.06-2-.34-6.09-2.85-11.74-6.33l-3.61-2.21a55.48,55.48,0,0,1-7.69-5.42l-.17-.16a37.57,37.57,0,0,1-4.23-4.48,20.28,20.28,0,0,1-2.25-3.24,119.82,119.82,0,0,1-4.79-13.39,54,54,0,0,1-1.84-9.12l-.94-11.63,0-2.09h-2c-.88,0-1.81,0-2.78,0-2.33.08-14,.64-16.17,3.36a5.52,5.52,0,0,0-1,2.25l0,.13L59.6,97c-.7,13.69-.3,23.23,1.21,29.23l0,.16c.29,1.15,1.18,4.62-.18,6.08a3.11,3.11,0,0,1-1.84.84,23.86,23.86,0,0,1-2.93-.48,27.79,27.79,0,0,1-4.83-1.64l-1.81-.72c-2.27-.89-3.49-1.33-4.27-1.61a10.06,10.06,0,0,1-1.7-.73,36.74,36.74,0,0,1-4.78-3.23c-.12-.1-.44-.34-.88-.7l-3.56-2.88.47,7V137l.74,9.6,1.48,9.38.88.47c1.26.68,2.46,1.31,3.52,1.86a146.55,146.55,0,0,1,14,8.46l2.72,1.79A34.69,34.69,0,0,0,64.22,172a31.68,31.68,0,0,0,8.49,1.94A27.32,27.32,0,0,0,76,174Z"/><path class="cls-2" d="M59.13,137.3a7.15,7.15,0,0,0,4.48-2.12c2.85-3.07,1.6-8,1.13-9.8l0-.16c-1.4-5.52-1.77-14.94-1.1-28l.19-2.49a1.61,1.61,0,0,1,.17-.4c1.11-.66,6.51-1.68,13.22-1.93.93,0,1.82,0,2.66,0H81.9l-.06-2c-.11-3.49-.11-7,0-10.46s.34-6.94.67-10.36l1.16-15c.47-4.27.84-8.53,1.09-12.62.19-2.91.45-5.48.67-7.75.36-3.5.59-5.81.32-7.24,0-.06,0-.15,0-.23L85,24.08l-2.3,1.25c-.25.14-.48.28-.7.42l-.49.31a7.83,7.83,0,0,1-2.62,1.25,6.23,6.23,0,0,1-1.44.16,8.66,8.66,0,0,1-1.62-.17l-.61-.14a69.1,69.1,0,0,1-10-3.3c-1.64-.66-2.73-1.14-2.74-1.15a52.11,52.11,0,0,0-13.59-3.87l-5.51-.9-2.7-.35-4.09,0-.51,1.2a7.67,7.67,0,0,0-.6,3.42c0,2.06.74,24.62.77,25.59,0,.07.12,2,.11,4,0,2.75-.06,3.42-.32,3.79a2.37,2.37,0,0,1-.9.76,12.19,12.19,0,0,1-1.94.24l-1.94,0v4.25l.45,11.42.64,12.09.54,11.43.45,11.87L33.92,119l.53,7.74.68.55.95.75a39.63,39.63,0,0,0,5.3,3.58,13.25,13.25,0,0,0,2.26,1c.75.28,2,.71,4.16,1.58l1.79.71A31.13,31.13,0,0,0,55,136.72a29.68,29.68,0,0,0,3.64.59l.23,0Z"/><path class="cls-2" d="M79.29,20.81l.53-1.17a4.34,4.34,0,0,0,0-3.59l0-.08,0-.05L79,14.84l-1.5,0h-.27a3.83,3.83,0,0,0-1.67.33,4.05,4.05,0,0,0-1.84,1.74,5.41,5.41,0,0,0-.57,1.27l-.82,2.61Z"/><path class="cls-2" d="M77.49,31.48a10.33,10.33,0,0,0,2.35-.27,11.74,11.74,0,0,0,3.87-1.77l.46-.3.58-.34,1.09-.64-.1-1.25A11.09,11.09,0,0,0,85,23.59a11.79,11.79,0,0,0-2.23-3.45A15.27,15.27,0,0,0,79,17.08l-.47-.28h-5l-.44,1.4a6.59,6.59,0,0,0-.29,2.31V30.72l1.56.35.71.16A12.61,12.61,0,0,0,77.49,31.48Z"/><path class="cls-3" d="M42.11,21.59l.41-1.45a4.56,4.56,0,0,0,0-2.51,3.86,3.86,0,0,0-.28-.68c-.23-.36-.47-.71-.71-1.06l-1.11-.07a4.56,4.56,0,0,0-3,1.06,4.91,4.91,0,0,0-1.32,2l-1.2,2.81Z"/><path class="cls-2" d="M77,189.65c1.2,0,2.4-.07,3.58-.14s2.36-.16,3.52-.28c1.34-.13,10.58-1.4,11-1.46,4.95-.65,9.84-1.52,14.53-2.59l31.21-8.12,7.89-2-.69-6.19-.64-4.64-2.19-.11-.32.09c-15.6,4.44-26.67,6.78-30.34,7.4-4.82.81-9.45,1.36-9.5,1.37-1.12.13-2.3.26-3.57.38-2.36.23-7.26.64-13.47.81-1.77,0-3.29.07-4.74.07-1.9,0-3.69,0-5.79-.07-7.91-.13-9.62-.46-11-.87a35.68,35.68,0,0,1-7.11-3.21c-1.72-.91-3.62-2.11-7.76-4.73-2.32-1.47-3.67-2.35-4.62-3-1.36-.88-1.92-1.25-3.22-2-1.06-.6-1.51-.83-3.65-1.92L36,156.46c-4.4-2.25-6.78-3.47-7.54-3.9A61.31,61.31,0,0,1,19.07,146l-3.28,1.21a99.5,99.5,0,0,0-1.11,11.4c-.1,2.58-.37,8.35-.37,8.35l0,.35.11.34a4.19,4.19,0,0,0,1.09,1.79,4,4,0,0,0,1,.71l.12.07.15.23a7.5,7.5,0,0,0,4.41,3.21,6.78,6.78,0,0,0,1.68.21h.4l.51.41a9.71,9.71,0,0,0,6.14,2.16,9.39,9.39,0,0,0,1.19-.07,6.16,6.16,0,0,0,2.37,1.7,8.84,8.84,0,0,0,2.9.46l1.29,0c.5,0,.94,0,1.32,0,.76,0,1.68-.14,3.51-.35a12.44,12.44,0,0,0,3.14-.64,7.92,7.92,0,0,0,.8-.33l1,0,1.34,1,.39.32v1.72l.69.6c.77.67,1.56,1.32,2.36,1.94a8.07,8.07,0,0,0,2.66,1.56,6.52,6.52,0,0,0,1,.19v0l1.26.89a17.64,17.64,0,0,0,3.44,1.92,8.79,8.79,0,0,0,3.28.79,6.23,6.23,0,0,0,.68,0l.39-.07.7.35a11.67,11.67,0,0,0,2.13.81,13.65,13.65,0,0,0,2.91.38h4.3v.22Z"/><path class="cls-2" d="M83.21,178.28c1.49,0,3,0,4.85-.06,6.33-.17,11.33-.59,13.75-.83l3.65-.39c.05,0,4.78-.57,9.69-1.4,3.75-.63,15-3,30.78-7.5l-.3-2.66.68-.52a6.91,6.91,0,0,0-3-2.21v-1l-2.52.66c-1.25.33-2.64.68-4.16,1-4.06,1-7.62,1.62-14.65,2.74-10.07,1.61-15.1,2.41-20,2.89-3.28.32-19,1-26,1a27.58,27.58,0,0,1-2.79-.08,28.22,28.22,0,0,1-7.48-1.68,31.78,31.78,0,0,1-5.65-3.09l-2.66-1.76A151.18,151.18,0,0,0,43,154.7l-3.48-1.83-.19-.1c-7-3.73-15.7-8.63-17.25-9.54L21,141.9c-1.77,2.13-3.55,4.26-5.32,6.4l.84.72a64.89,64.89,0,0,0,10,7c.83.48,3,1.57,7.63,4l4.12,2.11c2.07,1.05,2.51,1.27,3.49,1.83,1.2.69,1.69,1,3,1.87.95.62,2.32,1.51,4.66,3,3.93,2.49,6.1,3.86,8,4.88a38.71,38.71,0,0,0,7.86,3.51c1.76.52,3.66.89,12.09,1C79.47,178.25,81.29,178.28,83.21,178.28Z"/><path class="cls-2" d="M33.35,60.63a15.11,15.11,0,0,0,2.9-.38l.21,0,.19-.09a6.55,6.55,0,0,0,2.74-2.24c1-1.46,1-3,1-6,0-2.15-.12-4.13-.12-4.21-.22-6.62-.78-24.22-.77-25.42v-.14a3.86,3.86,0,0,1,.28-1.69,2.64,2.64,0,0,1,.25-.49.81.81,0,0,1,.42-.08l3.17,0L42.25,17A4.94,4.94,0,0,0,41,15.39a5.1,5.1,0,0,0-1.22-.76l-.38-.17h-9l-.49.3a5.18,5.18,0,0,0-1.33,1.18,4.1,4.1,0,0,0-.73,1.28,3.75,3.75,0,0,0-.1,1.94c-.16,5.49-.24,17.47-.31,26.25,0,5.12-.06,9.17-.09,10.09a4.89,4.89,0,0,0,.87,3.18c1,1.3,2.58,2,4.79,2Z"/><path class="cls-2" d="M37.92,118.78l-.54-11.22L36.92,95.7l-.54-11.46-.64-12.07-.45-11.32V56.57L33,56.63c-1,0-1.49-.23-1.58-.35a1.47,1.47,0,0,1-.08-.64c0-1,.06-5,.1-10.2.06-8.91.15-21.11.31-26.43l.05-1.84L30,17c-.25,0-.54,0-.87,0a7.78,7.78,0,0,0-2.31.34,8.23,8.23,0,0,0-3.17,1.9A8.36,8.36,0,0,0,22,21.34l-.25.48,1.65,37.29c.56,9,.93,18.16,1.09,27.17.13,7.34.13,14.79,0,22.13-.07.49-.14,1-.22,1.45l0,.29,0,.29a24,24,0,0,0,.93,4.19,19.72,19.72,0,0,0,2.19,4.81,18.39,18.39,0,0,0,2.67,3.29c.84.84,1.74,1.69,2.65,2.51s1.62,1.41,2.43,2.06l3.56,2.88Z"/><path class="cls-2" d="M39.27,146.08l-.71-9.28v-8.61l-.24-3.46-.68-.55c-.75-.61-1.52-1.26-2.27-1.93s-1.69-1.56-2.5-2.37a14.41,14.41,0,0,1-2.11-2.59A16.05,16.05,0,0,1,29,113.4a20.6,20.6,0,0,1-.77-3.49l-4,0a95.14,95.14,0,0,1-2.43,11.22c-.31,1.12-.63,2.17-.94,3.19-1.13,3.72-2.1,6.93-2.13,10.68v10.55l.48.56c.65.76,18.23,10.24,18.41,10.33l3.54,1.9Z"/><path class="cls-4" d="M64.5,25.72v-7a47.18,47.18,0,0,0-13.92,1.47l-2,.59a49.84,49.84,0,0,1,13.07,3.72S62.81,25,64.5,25.72Z"/><path class="cls-5" d="M74.82,29.12h0V20.41A4.69,4.69,0,0,1,75,18.8h0a4.07,4.07,0,0,1,.37-.84,2.19,2.19,0,0,1,1-.95,2.23,2.23,0,0,1,1-.15H78a2.34,2.34,0,0,0-1.27-1.14H65.77a3.57,3.57,0,0,0-.86,1.06,3.75,3.75,0,0,0-.41,2v7A73.47,73.47,0,0,0,74.82,29.12Z"/><path class="cls-6" d="M62.45,93a3.62,3.62,0,0,0-.65,1.43l-.2,2.68c-.8,15.63,0,23.9,1.16,28.59.35,1.39,1.57,5.74-.62,8.1a5.25,5.25,0,0,1-3.26,1.49,28.84,28.84,0,0,1-3.4-.54,45.29,45.29,0,0,1-6.95-2.45c-5.07-2-4.86-1.73-6.19-2.45a37.93,37.93,0,0,1-5-3.4l-.92-.73.18,2.52v8.62l.72,9.43,1.31,8.33c1.25.67,2.44,1.29,3.5,1.84A183.56,183.56,0,0,1,59,166.82a32.77,32.77,0,0,0,6,3.27,30.25,30.25,0,0,0,8,1.81c3.22.38,25.26-.52,29.22-.9,5-.49,10-1.3,20.14-2.91,7.1-1.13,10.66-1.8,14.8-2.77,1.54-.36,3-.71,4.21-1l0-.53a13.58,13.58,0,0,0-.58-5.1,14.33,14.33,0,0,0-2.62-4.79,14.88,14.88,0,0,0-3.26-3.18,13.71,13.71,0,0,0-7.9-2.27s-6.91.22-8.16,0c-2.83-.48-7.88-3.81-16.06-8.8a54.91,54.91,0,0,1-8-5.63l-.2-.18a38.58,38.58,0,0,1-4.45-4.72,22.63,22.63,0,0,1-2.45-3.53,121.36,121.36,0,0,1-4.94-13.77,55.17,55.17,0,0,1-1.91-9.46l-1-11.71a1.77,1.77,0,0,0,0-.23c-.86,0-1.77,0-2.72,0C71.13,90.64,63.51,91.66,62.45,93Z"/><path class="cls-7" d="M37.51,22.21c0,1.5.77,25.56.77,25.56s.12,2,.11,4.08c0,3.09-.06,4-.66,4.9a4.57,4.57,0,0,1-1.91,1.55,14.37,14.37,0,0,1-2.53.33v2.3l.45,11.34.64,12.07.54,11.43.46,11.89.54,11.25.46,6.83.92.73a37.93,37.93,0,0,0,5,3.4c1.33.72,1.12.46,6.19,2.45a45.29,45.29,0,0,0,6.95,2.45,28.84,28.84,0,0,0,3.4.54,5.25,5.25,0,0,0,3.26-1.49c2.19-2.36,1-6.71.62-8.1-1.19-4.69-2-13-1.16-28.59l.2-2.68A3.62,3.62,0,0,1,62.45,93c1.06-1.36,8.68-2.38,14.66-2.6,1,0,1.86,0,2.72,0-.1-3.33-.11-6.87,0-10.59s.36-7.19.68-10.48l1.16-15c.58-5.35.9-9.61,1.08-12.59.45-7.15,1.39-12.55,1-14.5,0-.06,0-.12-.05-.18-.22.13-.44.26-.63.39a11.19,11.19,0,0,1-3.73,1.81,9,9,0,0,1-3.9,0l-.66-.14h0a73.47,73.47,0,0,1-10.32-3.4h0c-1.69-.68-2.81-1.18-2.81-1.18a49.84,49.84,0,0,0-13.07-3.72l-5.53-.91-2.5-.31-2.64,0A5.87,5.87,0,0,0,37.51,22.21Z"/><path class="cls-4" d="M76.35,17a2.19,2.19,0,0,0-1,.95,4.07,4.07,0,0,0-.37.84h3a2.32,2.32,0,0,0,0-1.9l0,0h-.61A2.23,2.23,0,0,0,76.35,17Z"/><path class="cls-4" d="M74.82,20.41v8.71h0l.66.14a9,9,0,0,0,3.9,0,11.19,11.19,0,0,0,3.73-1.81c.19-.13.41-.26.63-.39a9,9,0,0,0-.64-2.71,9.73,9.73,0,0,0-1.88-2.89A13,13,0,0,0,78,18.8H75A4.69,4.69,0,0,0,74.82,20.41Z"/><path class="cls-4" d="M38,19.62l2.64,0a2.5,2.5,0,0,0,0-1.41,2,2,0,0,0-.15-.37,2.67,2.67,0,0,0-1.71.57A3.21,3.21,0,0,0,38,19.62Z"/><path class="cls-4" d="M145.58,166.19h-.2c-15,4.27-26.27,6.72-30.56,7.45-4.92.83-9.59,1.38-9.59,1.38l-3.61.39c-1.39.13-6.64.63-13.61.81-4.11.11-6.89.07-10.62,0-8.18-.14-10-.48-11.57-1a37.17,37.17,0,0,1-7.49-3.36c-1.82-1-3.87-2.26-7.89-4.81-5.6-3.55-5.63-3.68-7.76-4.9-1.48-.84-1.74-.93-7.62-3.94-4.55-2.33-6.82-3.49-7.62-3.95a61.89,61.89,0,0,1-9.67-6.81,95.92,95.92,0,0,0-1.09,11.17c-.1,2.59-.37,8.37-.37,8.37a2.26,2.26,0,0,0,.58.95,2.39,2.39,0,0,0,.51.37l1.29-.44.44.24-.71,1.19a5.43,5.43,0,0,0,3.2,2.35,5.29,5.29,0,0,0,2.48,0l.48-1.22.63.12c-.07.7-.15,1.4-.22,2.09a7.41,7.41,0,0,0,2.23,1.26,7.9,7.9,0,0,0,4.25.31l.75-.91.68.07-.48,1.43a4.41,4.41,0,0,0,1.75,1.34,7.29,7.29,0,0,0,2.25.32c1,0,1.8,0,2.43,0s1.58-.14,3.38-.34a10.25,10.25,0,0,0,2.67-.53,7.69,7.69,0,0,0,1-.43l2.15-.11,2,1.41c-.82-1-6.48-6.5-8.26-7.31a13.6,13.6,0,0,0-2-.72,9.64,9.64,0,0,0-.81,1.54,11.76,11.76,0,0,0-.73,6.49,11.76,11.76,0,0,1,.73-6.49,9.64,9.64,0,0,1,.81-1.54,13.6,13.6,0,0,1,2,.72c1.78.81,7.44,6.31,8.26,7.31l1.17.95v1.77c.9.78,1.69,1.41,2.27,1.86a5.92,5.92,0,0,0,2,1.22,4.18,4.18,0,0,0,2.24,0l.71-.45.41.45-.53,1.41a15.41,15.41,0,0,0,3.05,1.7,5.44,5.44,0,0,0,2.92.61,4.34,4.34,0,0,0,1.23-.36l.31-1,1,.18c-.09.56-.19,1.11-.29,1.66a9.52,9.52,0,0,0,1.74.66,11.21,11.21,0,0,0,2.5.31c.5,0,3.53,0,4.08,0v-1l2.13,0v1.27c1.1,0,2.27-.07,3.5-.14.94-.06,2.11-.14,3.45-.27s10.89-1.45,10.89-1.45c6.13-.81,11-1.81,14.35-2.57l25.75-6.69,5.4-1.41,6.22-1.54-.5-4.44Z"/><path class="cls-5" d="M35.06,158.25c5.88,3,6.14,3.1,7.62,3.94,2.13,1.22,2.16,1.35,7.76,4.9,4,2.55,6.07,3.85,7.89,4.81a37.17,37.17,0,0,0,7.49,3.36c1.61.47,3.39.81,11.57,1,3.73.07,6.51.11,10.62,0,7-.18,12.22-.68,13.61-.81l3.61-.39s4.67-.55,9.59-1.38c4.29-.73,15.55-3.18,30.56-7.45l-.66,0a4.74,4.74,0,0,0-.9-.89,5.07,5.07,0,0,0-2.51-1h0c-1.26.34-2.67.69-4.21,1-4.14,1-7.7,1.64-14.8,2.77-10.09,1.61-15.14,2.42-20.14,2.91-4,.38-26,1.28-29.22.9a30.25,30.25,0,0,1-8-1.81,32.77,32.77,0,0,1-6-3.27,183.56,183.56,0,0,0-16.88-10.34c-1.06-.55-2.25-1.17-3.5-1.84v0c-7.59-4.06-17.73-9.76-17.82-9.87l-3,2.72a61.89,61.89,0,0,0,9.67,6.81C28.24,154.76,30.51,155.92,35.06,158.25Z"/><path class="cls-7" d="M29.84,57.48c.72,1,2.13,1.19,3.45,1.15h0a14.37,14.37,0,0,0,2.53-.33,4.57,4.57,0,0,0,1.91-1.55c.6-.88.65-1.81.66-4.9,0-2.11-.11-4.08-.11-4.08s-.79-24.06-.77-25.56A5.87,5.87,0,0,1,38,19.62a3.21,3.21,0,0,1,.78-1.23,2.67,2.67,0,0,1,1.71-.57,2.85,2.85,0,0,0-.71-.9,2.8,2.8,0,0,0-.72-.45H31a3.06,3.06,0,0,0-.82.72A1.78,1.78,0,0,0,29.77,19c-.25,8.42-.33,34-.41,36.61A2.94,2.94,0,0,0,29.84,57.48Z"/><path class="cls-8" d="M29.07,118.37a16.46,16.46,0,0,0,2.38,2.92c.69.69,1.55,1.53,2.59,2.45s1.75,1.52,2.34,2l-.46-6.83-.54-11.25-.46-11.89-.54-11.43-.64-12.07-.45-11.34v-2.3c-1.32,0-2.73-.19-3.45-1.15a2.94,2.94,0,0,1-.48-1.91c.08-2.59.16-28.19.41-36.61a5.86,5.86,0,0,0-2.37.22A6.17,6.17,0,0,0,25,20.61a6.39,6.39,0,0,0-1.26,1.66L25.39,59q.83,13.11,1.09,27.22.21,11.49,0,22.33c-.07.55-.16,1.08-.24,1.6A22.13,22.13,0,0,0,27.1,114,17.46,17.46,0,0,0,29.07,118.37Z"/><path class="cls-9" d="M37.28,146.31l-.72-9.43v-8.62l-.18-2.52c-.59-.48-1.41-1.16-2.34-2s-1.9-1.76-2.59-2.45a16.46,16.46,0,0,1-2.38-2.92,17.46,17.46,0,0,1-2-4.36,22.13,22.13,0,0,1-.86-3.84,96.71,96.71,0,0,1-2.48,11.46c-1.43,5.08-3,8.89-3,13.34v9.8c.09.11,10.23,5.81,17.82,9.87Z"/><g class="cls-10"><g class="cls-11"><path class="cls-12" d="M66.9,76.69l-.13-6.77,3.93-.64.11,0c2-.28,3.19.89,3.23,2.85a3.62,3.62,0,0,1-3,3.9l-4.18.68m-.21-11.07L66.61,61l3.74-.61h.05a1.79,1.79,0,0,1,2.19,2A2.66,2.66,0,0,1,70.2,65l-3.51.58m4-9.77-.2,0L62,57.27l.43,24.61,8.93-1.46a8.44,8.44,0,0,0,7.26-8.81c0-3.07-1.55-5.08-4.58-5.38a5.37,5.37,0,0,0,3-5c-.06-3.42-2.34-5.91-6.34-5.35"/></g></g><ellipse class="cls-13" cx="121.65" cy="156.48" rx="9.5" ry="2.67" transform="matrix(0.95, -0.3, 0.3, 0.95, -41.02, 43.24)"/><circle class="cls-13" cx="108.66" cy="160.53" r="1.99"/></svg>