<svg id="Layer_1" data-name="Layer 1" xmlns="http://www.w3.org/2000/svg" xmlns:xlink="http://www.w3.org/1999/xlink" viewBox="0 0 300 300"><defs><style>.cls-1{fill:none;}.cls-2{fill:#000018;}.cls-2,.cls-3,.cls-4,.cls-5,.cls-6,.cls-7,.cls-8,.cls-9{stroke:#000018;stroke-linecap:round;stroke-linejoin:round;}.cls-4{fill:#00004a;}.cls-5{fill:#180064;}.cls-6{fill:#6430b0;}.cls-7{fill:#7e4aca;}.cls-8{fill:#4b1797;}.cls-9{fill:#31007d;}.cls-10{clip-path:url(#clip-path);}.cls-11,.cls-12{fill:#fff;}.cls-12{isolation:isolate;opacity:0.2;}</style><clipPath id="clip-path"><polygon class="cls-1" points="113 120.8 113 96 129.7 93.6 129.6 118.5 113 120.8"/></clipPath></defs><path class="cls-2" d="M157.7,53.2l-1.9-.1h-2.1c-1.4,0-2.9.1-4.3.2a44.28,44.28,0,0,0-8.1,1.4l-2,.6.3,3.9a49.48,49.48,0,0,1,12.5,3.5s1.1.5,2.9,1.2l2.8,1.1V53.2Z"/><path class="cls-2" d="M168,56.8a3.4,3.4,0,0,1,.1-1,.76.76,0,0,1,.2-.4l.1-.1h4L171,52.5a3.85,3.85,0,0,0-2.4-2.1l-.3-.1h-12l-.6.5a4.31,4.31,0,0,0-1.3,1.7,5.25,5.25,0,0,0-.6,3v8.3l1.2.2a77.38,77.38,0,0,0,10.6,3.5l2.4.5Z"/><path class="cls-2" d="M167.1,210.4c7.1,0,23.1-.7,26.4-1,5.1-.5,10.1-1.3,20.2-2.9,7.2-1.1,10.8-1.8,15-2.8,1.6-.4,3-.7,4.3-1.1l1.6-.4-.1-2a15.68,15.68,0,0,0-.7-5.7,19.32,19.32,0,0,0-6.7-9,15.47,15.47,0,0,0-8.9-2.6H218c-.1,0-3.1.1-5.5.1a17,17,0,0,1-2.3-.1c-2-.3-6.1-2.9-11.7-6.3l-3.6-2.2a59.09,59.09,0,0,1-7.7-5.4l-.2-.2a44.73,44.73,0,0,1-4.2-4.5,23.49,23.49,0,0,1-2.3-3.2,106.92,106.92,0,0,1-4.8-13.4,47.29,47.29,0,0,1-1.8-9.1l-1-11.6v-2.1h-4.8c-2.3.1-14,.7-16.2,3.4a6,6,0,0,0-1,2.3v.1l-.2,2.8c-.7,13.7-.3,23.2,1.2,29.2v.2c.3,1.1,1.2,4.6-.2,6.1a3.1,3.1,0,0,1-1.8.9,25,25,0,0,1-2.9-.5,33.77,33.77,0,0,1-4.8-1.6l-1.8-.7c-2.3-.9-3.5-1.3-4.3-1.6a8.65,8.65,0,0,1-1.7-.7,30.83,30.83,0,0,1-4.8-3.2c-.1-.1-.4-.3-.9-.7l-3.6-2.9.5,7v8.6l.7,9.6,1.5,9.4.9.5c1.3.7,2.5,1.3,3.5,1.9a153.46,153.46,0,0,1,14,8.5q1.5,1,2.7,1.8a32,32,0,0,0,6.3,3.4,35.09,35.09,0,0,0,8.5,2A13.43,13.43,0,0,1,167.1,210.4Z"/><path class="cls-2" d="M150.3,173.7a7,7,0,0,0,4.5-2.1c2.9-3.1,1.6-8,1.1-9.8v-.2c-1.4-5.5-1.8-14.9-1.1-28l.2-2.5a.76.76,0,0,1,.2-.4c1.1-.7,6.5-1.7,13.2-1.9h4.7v-2.1q-.15-5.25,0-10.5c.1-3.5.3-6.9.7-10.3l1.2-15c.5-4.3.8-8.5,1.1-12.6.2-2.9.4-5.5.7-7.8.3-3.5.6-5.8.3-7.2v-.2l-.7-2.5-2.3,1.2-.7.4-.5.3a6.82,6.82,0,0,1-2.6,1.2,7.84,7.84,0,0,1-1.4.2,8.75,8.75,0,0,1-1.6-.2l-.6-.1a83.61,83.61,0,0,1-10-3.3c-1.7-.7-2.7-1.1-2.8-1.1a54.94,54.94,0,0,0-13.7-3.9l-5.5-.9-2.7-.3h-4.1l-.5,1.2a6.65,6.65,0,0,0-.6,3.4c0,2,.7,24.6.8,25.6,0,.1.1,2,.1,4,0,2.7-.1,3.4-.3,3.8a2.36,2.36,0,0,1-.9.8,12.25,12.25,0,0,1-1.9.2l-2,.1v4.2l.5,11.4.6,12.1.6,11.4.4,11.9.6,11.3.5,7.7.7.6a11,11,0,0,0,1,.8,49.3,49.3,0,0,0,5.3,3.6,21.4,21.4,0,0,0,2.2,1c.8.3,2,.7,4.2,1.6l1.8.7a28.49,28.49,0,0,0,9.1,2.4h.2Z"/><path class="cls-2" d="M170.5,57.2,171,56a4.51,4.51,0,0,0,0-3.6v-.1h0l-.8-1.1h-1.8a5.08,5.08,0,0,0-1.7.3,4.24,4.24,0,0,0-1.8,1.7c-.2.4-.4.8-.6,1.3l-.8,2.6Z"/><path class="cls-2" d="M168.6,67.8a9.86,9.86,0,0,0,2.4-.3,13.84,13.84,0,0,0,3.9-1.8l.4-.3.6-.3,1.1-.6-.1-1.3a12.26,12.26,0,0,0-.8-3.3,12.88,12.88,0,0,0-2.2-3.5,18.46,18.46,0,0,0-3.7-3.1l-.5-.3h-5l-.4,1.4a8.52,8.52,0,0,0-.3,2.3V66.9l1.6.3.7.2A6.56,6.56,0,0,0,168.6,67.8Z"/><path class="cls-3" d="M133.3,57.9l.4-1.4a5.28,5.28,0,0,0,0-2.5c-.1-.2-.2-.5-.3-.7l-.7-1.1-1.1-.1a4.62,4.62,0,0,0-3,1.1,3.9,3.9,0,0,0-1.3,2L126,58Z"/><path class="cls-2" d="M168.1,226c1.2,0,2.4-.1,3.6-.1l3.5-.3c1.3-.1,10.6-1.4,11-1.5a132.79,132.79,0,0,0,14.5-2.6l31.2-8.1,7.9-2-.7-6.2-.6-4.6-2.2-.1-.3.1c-15.6,4.4-26.7,6.8-30.4,7.4-4.8.8-9.4,1.4-9.5,1.4l-3.6.4c-2.4.2-7.3.6-13.5.8-1.8.1-3.3.1-4.8.1-1.9,0-3.7,0-5.8-.1-7.9-.1-9.6-.5-11-.9a35,35,0,0,1-7.1-3.2c-1.7-.9-3.6-2.1-7.8-4.7-2.3-1.5-3.7-2.3-4.6-3-1.3-.9-1.9-1.2-3.2-2-1.1-.6-1.5-.8-3.7-1.9l-4-2.1c-4.4-2.3-6.8-3.5-7.6-3.9a60.28,60.28,0,0,1-9.3-6.6l-3.3,1.2a110.18,110.18,0,0,0-1.2,11.4c-.1,2.6-.4,8.4-.4,8.4v.4l.1.3a4.18,4.18,0,0,0,1.1,1.8,3.59,3.59,0,0,0,1,.7l.1.1.2.2a7.27,7.27,0,0,0,6.1,3.5h.4l.5.4a9.7,9.7,0,0,0,2.8,1.6,9.6,9.6,0,0,0,3.3.6,4.87,4.87,0,0,0,1.2-.1,5.86,5.86,0,0,0,2.4,1.7,9.29,9.29,0,0,0,2.9.5h2.6a21.38,21.38,0,0,0,3.5-.4,15.47,15.47,0,0,0,3.1-.6c.3-.1.5-.2.8-.3h1l1.3,1,.4.3v1.7l.7.6c.8.7,1.6,1.3,2.4,1.9a8.92,8.92,0,0,0,2.7,1.5,3.55,3.55,0,0,0,1,.2h0l1.2.9a16.33,16.33,0,0,0,3.4,1.9,7.31,7.31,0,0,0,3.3.8h.7l.4-.1.7.3a18,18,0,0,0,2.1.8,14.46,14.46,0,0,0,2.9.4h4.3v.2Z"/><path class="cls-2" d="M174.4,214.6c1.5,0,3,0,4.9-.1,6.3-.2,11.3-.6,13.8-.8a36,36,0,0,0,3.6-.4s4.8-.6,9.7-1.4c3.8-.6,15-3,30.8-7.5l-.3-2.7.7-.5a8,8,0,0,0-1.3-1.3,5.56,5.56,0,0,0-1.7-.9v-1l-2.5.7c-1.2.3-2.6.7-4.2,1-4.1.9-7.6,1.6-14.6,2.7-10.1,1.6-15.1,2.4-20,2.9-3.3.3-19,1-26,1a13.67,13.67,0,0,1-2.8-.1,27.26,27.26,0,0,1-7.5-1.7,27.67,27.67,0,0,1-5.6-3.1q-1.2-.75-2.7-1.8a131.1,131.1,0,0,0-14.4-8.7c-1-.5-2.2-1.2-3.5-1.8l-.2-.1c-7-3.7-15.7-8.6-17.3-9.5l-1.1-1.3-5.3,6.4.8.7a69,69,0,0,0,10,7c.8.5,3,1.6,7.6,4l4.1,2.1c2.1,1.1,2.5,1.3,3.5,1.8,1.2.7,1.7,1,3,1.9,1,.6,2.3,1.5,4.7,3,3.9,2.5,6.1,3.9,8,4.9a37.26,37.26,0,0,0,7.9,3.5c1.8.5,3.7.9,12.1,1C170.6,214.6,172.5,214.6,174.4,214.6Z"/><path class="cls-2" d="M124.5,97a13.52,13.52,0,0,0,2.9-.4h.2l.2-.1a7.29,7.29,0,0,0,2.7-2.2c1-1.5,1-3,1-6,0-2.2-.1-4.1-.1-4.2-.2-6.6-.8-24.2-.8-25.4v-.1a4.67,4.67,0,0,1,.3-1.7c.1-.2.1-.3.2-.5a.6.6,0,0,1,.4-.1h3.2l-1.4-2.9a4.43,4.43,0,0,0-1.2-1.5,8.34,8.34,0,0,0-1.2-.8l-.4-.2h-9l-.5.3a5.33,5.33,0,0,0-2,2.4,4.08,4.08,0,0,0-.1,1.9c-.2,5.5-.2,17.5-.3,26.2,0,5.1-.1,9.2-.1,10.1a4.77,4.77,0,0,0,.9,3.2,5.7,5.7,0,0,0,4.8,2Z"/><path class="cls-2" d="M129,155.1l-.5-11.2L128,132l-.5-11.4-.6-12.1-.4-11.3V92.9l-2.3.1a2.88,2.88,0,0,1-1.6-.3,1.27,1.27,0,0,1-.1-.6c0-1,.1-5.1.1-10.2.1-8.9.2-21.1.3-26.4V53.7l-1.8-.2h-.9a5.87,5.87,0,0,0-2.3.4,8,8,0,0,0-3.2,1.9A9.24,9.24,0,0,0,113,58l-.2.5,1.7,37.3c.6,9,.9,18.2,1.1,27.2.1,7.3.1,14.8,0,22.1a7.72,7.72,0,0,0-.2,1.5v.6a31.48,31.48,0,0,0,.9,4.2,17.38,17.38,0,0,0,2.2,4.8,21.58,21.58,0,0,0,2.7,3.3,33.21,33.21,0,0,0,2.7,2.5c.9.8,1.6,1.4,2.4,2.1l3.6,2.9Z"/><path class="cls-2" d="M130.4,182.4l-.7-9.3v-8.6l-.2-3.5-.7-.6c-.8-.6-1.5-1.3-2.3-1.9a27.75,27.75,0,0,1-2.5-2.4,13.29,13.29,0,0,1-2.1-2.6,17.33,17.33,0,0,1-1.8-3.9,19.82,19.82,0,0,1-.8-3.5h-4a85.87,85.87,0,0,1-2.4,11.2c-.3,1.1-.6,2.2-.9,3.2-1.1,3.7-2.1,6.9-2.1,10.7v10.6l.5.6c.7.8,18.2,10.2,18.4,10.3l3.5,1.9Z"/><path class="cls-4" d="M155.7,62.1v-7c-2-.1-4.1,0-6.1.1a52.9,52.9,0,0,0-7.8,1.3l-2,.6a50.19,50.19,0,0,1,13.1,3.7A15,15,0,0,0,155.7,62.1Z"/><path class="cls-5" d="M166,65.5h0V56.8a4.4,4.4,0,0,1,.2-1.6h0a2,2,0,0,1,.4-.8,2.41,2.41,0,0,1,1-1,1.73,1.73,0,0,1,1-.1h.6a2.37,2.37,0,0,0-1.3-1.1h-11a3.8,3.8,0,0,0-1.3,3v7C159,63.4,162.5,64.6,166,65.5Z"/><path class="cls-6" d="M153.6,129.4a3.51,3.51,0,0,0-.6,1.4l-.2,2.7c-.8,15.6,0,23.9,1.2,28.6.4,1.4,1.6,5.8-.6,8.1a5.07,5.07,0,0,1-3.3,1.5,20.21,20.21,0,0,1-3.4-.6,40.19,40.19,0,0,1-6.9-2.4c-5.1-2-4.9-1.7-6.2-2.4a33.87,33.87,0,0,1-5-3.4l-.9-.7.2,2.5v8.6l.7,9.4,1.3,8.3a39.06,39.06,0,0,0,3.5,1.8,174.36,174.36,0,0,1,16.9,10.4,35.06,35.06,0,0,0,6,3.3,28.08,28.08,0,0,0,8,1.8c3.2.4,25.3-.5,29.2-.9,5-.5,10-1.3,20.1-2.9,7.1-1.1,10.7-1.8,14.8-2.8,1.5-.4,2.9-.7,4.2-1v-.5a14.58,14.58,0,0,0-.6-5.1,16.84,16.84,0,0,0-5.9-8,14.58,14.58,0,0,0-7.9-2.3s-6.9.2-8.2,0c-2.8-.5-7.9-3.8-16.1-8.8a54.76,54.76,0,0,1-8-5.6l-.2-.2a38.91,38.91,0,0,1-4.4-4.7,27.14,27.14,0,0,1-2.4-3.5,133.53,133.53,0,0,1-5-13.8,61.45,61.45,0,0,1-1.9-9.5L171,127v-.2h-2.7C162.3,127,154.7,128,153.6,129.4Z"/><path class="cls-7" d="M128.7,58.6c0,1.5.8,25.6.8,25.6s.1,2,.1,4.1c0,3.1-.1,4-.7,4.9a4,4,0,0,1-1.9,1.5,10.68,10.68,0,0,1-2.5.3v2.3l.4,11.3.6,12.1.6,11.4.4,11.9.6,11.2.5,6.8.9.7a33.87,33.87,0,0,0,5,3.4c1.3.7,1.1.5,6.2,2.5a43.4,43.4,0,0,0,6.9,2.4c1.1.3,2.3.4,3.4.6a5.3,5.3,0,0,0,3.3-1.5c2.2-2.4,1-6.7.6-8.1-1.2-4.7-2-13-1.1-28.6l.2-2.7a2.67,2.67,0,0,1,.7-1.4c1.1-1.4,8.7-2.4,14.7-2.6h2.7c-.1-3.3-.1-6.9,0-10.6s.4-7.2.7-10.5l1.2-15c.6-5.3.9-9.6,1.1-12.6.4-7.1,1.4-12.6,1-14.5v-.2l-.6.4a12.7,12.7,0,0,1-3.7,1.8,8.56,8.56,0,0,1-3.9,0l-.7-.1h0A73.06,73.06,0,0,1,155.9,62h0c-1.7-.7-2.8-1.2-2.8-1.2A50.19,50.19,0,0,0,140,57.1l-5.5-.9-2.5-.3h-2.6A4,4,0,0,0,128.7,58.6Z"/><path class="cls-4" d="M167.5,53.4a2.41,2.41,0,0,0-1,1,3,3,0,0,0-.4.8h3a2.12,2.12,0,0,0,0-1.9h-.6A1.73,1.73,0,0,0,167.5,53.4Z"/><path class="cls-4" d="M166,56.8v8.7h0l.7.1a8.56,8.56,0,0,0,3.9,0,12.7,12.7,0,0,0,3.7-1.8l.6-.4a11.79,11.79,0,0,0-.6-2.7,11.18,11.18,0,0,0-1.9-2.9,13.9,13.9,0,0,0-3.2-2.7h-3A9.85,9.85,0,0,0,166,56.8Z"/><path class="cls-4" d="M129.1,56h2.6a3.3,3.3,0,0,0,0-1.4c0-.1-.1-.2-.2-.4a2.72,2.72,0,0,0-1.7.6A3.46,3.46,0,0,0,129.1,56Z"/><path class="cls-4" d="M236.8,202.5h-.2a311.84,311.84,0,0,1-30.6,7.4c-4.9.8-9.6,1.4-9.6,1.4-1.1.1-2.3.3-3.6.4s-6.6.6-13.6.8c-4.1.1-6.9.1-10.6,0-8.2-.1-10-.5-11.6-1a36,36,0,0,1-7.5-3.4c-1.8-1-3.9-2.3-7.9-4.8-5.6-3.6-5.6-3.7-7.8-4.9-1.5-.9-1.7-.9-7.6-3.9-4.5-2.3-6.8-3.5-7.6-4a64.39,64.39,0,0,1-9.7-6.7,103.58,103.58,0,0,0-1.1,11.2c-.1,2.6-.4,8.4-.4,8.4a1.46,1.46,0,0,0,.6.9c.2.1.3.3.5.4l1.3-.4.4.2-.7,1.2a5.52,5.52,0,0,0,3.2,2.4,5.28,5.28,0,0,0,2.5,0l.5-1.2.6.1a14.92,14.92,0,0,0-.2,2.1,8,8,0,0,0,6.5,1.6l.8-.9.7.1-.5,1.4a3.8,3.8,0,0,0,1.8,1.3,8.33,8.33,0,0,0,2.2.3h2.5c.7,0,1.6-.1,3.4-.3a12.82,12.82,0,0,0,2.7-.5c.4-.2.8-.3,1-.4l2.1-.1,2,1.4c-.8-1-6.5-6.5-8.3-7.3a11.76,11.76,0,0,0-2-.7,10.93,10.93,0,0,0-.8,1.5,12.06,12.06,0,0,0-.7,6.5,12.06,12.06,0,0,1,.7-6.5,10.93,10.93,0,0,1,.8-1.5,11.76,11.76,0,0,1,2,.7c1.8.8,7.4,6.3,8.3,7.3l1.2,1v1.8c.9.8,1.7,1.4,2.3,1.9a5.93,5.93,0,0,0,2,1.2,4.11,4.11,0,0,0,2.2,0l.7-.5.4.5-.5,1.4a14.59,14.59,0,0,0,3,1.7,4.92,4.92,0,0,0,2.9.6,5.64,5.64,0,0,0,1.2-.4l.3-1,1,.2c-.1.6-.2,1.1-.3,1.6a12.2,12.2,0,0,0,1.7.7,10.68,10.68,0,0,0,2.5.3H166v-1h2.1v1.3c1.1,0,2.3-.1,3.5-.1,1-.1,2.1-.1,3.5-.3s10.9-1.4,10.9-1.4a146.11,146.11,0,0,0,14.4-2.6l25.7-6.9,5.4-1.4,6.2-1.5-.5-4.4Z"/><path class="cls-5" d="M126.2,194.6c5.9,3,6.1,3.1,7.6,3.9,2.1,1.2,2.1,1.4,7.8,4.9,4,2.6,6.1,3.8,7.9,4.8a42.12,42.12,0,0,0,7.5,3.4c1.6.5,3.4.8,11.6,1,3.7.1,6.5.1,10.6,0,7-.2,12.2-.7,13.6-.8a32.91,32.91,0,0,0,3.6-.4s4.7-.6,9.6-1.4c4.3-.7,15.5-3.2,30.6-7.4h-.7l-.9-.9a4.59,4.59,0,0,0-2.5-1h0c-1.3.3-2.7.7-4.2,1-4.1,1-7.7,1.6-14.8,2.8-10.1,1.6-15.1,2.4-20.1,2.9-4,.4-26,1.3-29.2.9a31.93,31.93,0,0,1-8-1.8,35.06,35.06,0,0,1-6-3.3,182.28,182.28,0,0,0-16.9-10.4c-1.1-.6-2.2-1.2-3.5-1.8h0c-7.6-4-17.7-9.8-17.8-9.9l-3,2.7a60.24,60.24,0,0,0,9.7,6.8C119.4,191.1,121.7,192.3,126.2,194.6Z"/><path class="cls-7" d="M121,93.8c.7,1,2.1,1.2,3.5,1.2h0a10.07,10.07,0,0,0,2.5-.3,4.71,4.71,0,0,0,1.9-1.5c.6-.9.6-1.8.7-4.9,0-2.1-.1-4.1-.1-4.1s-.8-24.1-.8-25.6a4.68,4.68,0,0,1,.5-2.6,2.55,2.55,0,0,1,.8-1.2,2.72,2.72,0,0,1,1.7-.6,3.11,3.11,0,0,0-.7-.9,2.51,2.51,0,0,0-.7-.4h-8a2.7,2.7,0,0,0-.8.7,1.61,1.61,0,0,0-.4.7,2.05,2.05,0,0,0,0,1.1c-.2,8.4-.3,34-.4,36.6A2.27,2.27,0,0,0,121,93.8Z"/><path class="cls-8" d="M120.2,154.7a13.74,13.74,0,0,0,2.4,2.9c.7.7,1.6,1.5,2.6,2.4s1.8,1.5,2.3,2l-.5-6.8-.6-11.2-.4-11.9-.5-11.5-.6-12.1-.4-11.3V95a4.32,4.32,0,0,1-3.5-1.2,2.75,2.75,0,0,1-.5-1.9c.1-2.6.2-28.2.4-36.6a6.52,6.52,0,0,0-2.4.2,7.22,7.22,0,0,0-2.4,1.4,7.63,7.63,0,0,0-1.3,1.7l1.6,36.7c.5,8.7.9,17.8,1.1,27.2.1,7.7.1,15.1,0,22.3a10,10,0,0,0-.2,1.6,19.35,19.35,0,0,0,2.9,8.3Z"/><path class="cls-9" d="M128.5,182.7l-.7-9.4v-8.6l-.2-2.5c-.6-.5-1.4-1.2-2.3-2s-1.9-1.8-2.6-2.4a21.72,21.72,0,0,1-2.4-2.9,17.51,17.51,0,0,1-2-4.4,16.06,16.06,0,0,1-.8-3.8,90.65,90.65,0,0,1-2.5,11.5c-1.4,5.1-3,8.9-3,13.3v9.8c.1.1,10.2,5.8,17.8,9.9Z"/><ellipse cx="145.9" cy="242.7" rx="85.7" ry="7.2"/><path class="cls-2" d="M117.6,55.7l-1.9-.1h-2.1c-1.4,0-2.9.1-4.3.2a44.28,44.28,0,0,0-8.1,1.4l-2,.6.3,3.9A45.86,45.86,0,0,1,112,65.3l2.9,1.2,2.8,1.1Z"/><path class="cls-2" d="M127.9,59.3a3.4,3.4,0,0,1,.1-1,.76.76,0,0,1,.2-.4l.1-.1h3.9L130.8,55a4.33,4.33,0,0,0-2.4-2.2l-.3-.1H116l-.6.5a5.5,5.5,0,0,0-1.3,1.7,5.25,5.25,0,0,0-.6,3V66l1.3.5A77.38,77.38,0,0,0,125.4,70l2.4.5Z"/><path class="cls-2" d="M127,212.9c7,0,23-.7,26.4-1,5.1-.5,10.1-1.3,20.2-2.9,7.2-1.1,10.8-1.8,15-2.8,1.6-.4,3-.7,4.3-1.1l1.6-.4-.1-2a15.68,15.68,0,0,0-.7-5.7,19.32,19.32,0,0,0-6.7-9,15.47,15.47,0,0,0-8.9-2.6H178c-.1,0-3.1.1-5.5.1a13.25,13.25,0,0,1-2.3-.1c-2-.3-6.1-2.9-11.7-6.3l-3.6-2.2a59.09,59.09,0,0,1-7.7-5.4l-.2-.2a44.73,44.73,0,0,1-4.2-4.5,16.59,16.59,0,0,1-2.2-3.2,106.92,106.92,0,0,1-4.8-13.4,47.29,47.29,0,0,1-1.8-9.1l-.9-11.6v-2.1h-4.8c-2.3.1-14,.6-16.2,3.4a6.25,6.25,0,0,0-1,2.2v.1l-.3,2.8c-.7,13.7-.3,23.2,1.2,29.2v.2c.3,1.1,1.2,4.6-.2,6.1a2.69,2.69,0,0,1-1.8.8,25,25,0,0,1-2.9-.5,24.59,24.59,0,0,1-4.8-1.6l-1.8-.7c-2.3-.9-3.5-1.3-4.3-1.6a8.65,8.65,0,0,1-1.7-.7,30.83,30.83,0,0,1-4.8-3.2c-.1-.1-.4-.3-.9-.7l-3.6-2.9.5,7V176l.7,9.6,1.5,9.4.9.5c1.3.7,2.5,1.3,3.5,1.9a153.46,153.46,0,0,1,14,8.5l2.7,1.8a30.17,30.17,0,0,0,6.4,3.4,30.83,30.83,0,0,0,8.5,1.9A30.09,30.09,0,0,1,127,212.9Z"/><path class="cls-2" d="M110.2,176.2a7,7,0,0,0,4.5-2.1c2.8-3.1,1.6-8,1.1-9.8v-.2c-1.4-5.5-1.8-14.9-1.1-28l.2-2.5a.76.76,0,0,1,.2-.4c1.1-.7,6.5-1.7,13.2-1.9H133l-.1-2q-.15-5.25,0-10.5c.1-3.5.3-6.9.7-10.4l1.2-15c.5-4.3.8-8.5,1.1-12.6.2-2.9.4-5.5.7-7.8.4-3.5.6-5.8.3-7.2v-.2L136,63l-2.3,1.2c-.2.1-.5.3-.7.4l-.5.3a6.82,6.82,0,0,1-2.6,1.2,7.84,7.84,0,0,1-1.4.2,8.75,8.75,0,0,1-1.6-.2l-.6-.1a58.56,58.56,0,0,1-10-3.3,23.31,23.31,0,0,1-2.7-1.2A53,53,0,0,0,100,57.6l-5.5-.9-2.7-.3H87.7l-.5,1.2a6.65,6.65,0,0,0-.6,3.4c0,2.1.7,24.6.8,25.6,0,.1.1,2,.1,4,0,2.8-.1,3.4-.3,3.8a2.36,2.36,0,0,1-.9.8,12.25,12.25,0,0,1-1.9.2H82.5v4.2l.4,11.4.6,12.1.5,11.4.5,11.9.6,11.3.5,7.7.7.6.9.8a49.3,49.3,0,0,0,5.3,3.6,16,16,0,0,0,2.3,1c.8.3,2,.7,4.2,1.6l1.8.7a26.35,26.35,0,0,0,5.4,1.8,22.54,22.54,0,0,0,3.6.6h.2Z"/><path class="cls-2" d="M130.3,59.7l.5-1.2a4.51,4.51,0,0,0,0-3.6v-.1h0l-.8-1.1h-1.8a5.08,5.08,0,0,0-1.7.3,4.24,4.24,0,0,0-1.8,1.7c-.2.4-.4.8-.6,1.3l-.8,2.6Z"/><path class="cls-2" d="M128.5,70.4a11,11,0,0,0,6.3-2.1l.5-.3.6-.3,1.1-.6-.1-1.2a12.13,12.13,0,0,0-.7-3.3,12.88,12.88,0,0,0-2.2-3.5,19.07,19.07,0,0,0-3.8-3.1l-.5-.3h-5l-.4,1.4a8.52,8.52,0,0,0-.3,2.3V69.6l1.6.3.7.2A7.32,7.32,0,0,0,128.5,70.4Z"/><path class="cls-3" d="M93.2,60.5l.4-1.5a5.28,5.28,0,0,0,0-2.5c-.1-.2-.2-.5-.3-.7-.2-.4-.5-.7-.7-1.1l-1.1-.1a4.62,4.62,0,0,0-3,1.1,3.9,3.9,0,0,0-1.3,2L86,60.5Z"/><path class="cls-2" d="M128,228.5c1.2,0,2.4-.1,3.6-.1l3.5-.3c1.3-.1,10.6-1.4,11-1.5a137.24,137.24,0,0,0,14.5-2.6l31.2-8.1,7.9-2-.7-6.2-.6-4.6-2.2-.1-.3.1c-15.6,4.4-26.7,6.8-30.3,7.4-4.8.8-9.5,1.4-9.5,1.4-1.1.1-2.3.3-3.6.4-2.4.2-7.3.6-13.5.8-1.8,0-3.3.1-4.7.1-1.9,0-3.7,0-5.8-.1-7.9-.1-9.6-.5-11-.9a35,35,0,0,1-7.1-3.2c-1.7-.9-3.6-2.1-7.8-4.7-2.3-1.5-3.7-2.4-4.6-3-1.4-.9-1.9-1.2-3.2-2-1.1-.6-1.5-.8-3.6-1.9l-4.1-2c-4.4-2.2-6.8-3.5-7.5-3.9a61.13,61.13,0,0,1-9.4-6.6l-3.3,1.2a88,88,0,0,0-1.1,11.4c-.1,2.6-.4,8.4-.4,8.4v.4l.1.3a4.18,4.18,0,0,0,1.1,1.8,3.59,3.59,0,0,0,1,.7l.1.1.2.2a7.51,7.51,0,0,0,4.4,3.2,8.81,8.81,0,0,0,1.7.2h.4l.5.4a9.71,9.71,0,0,0,6.1,2.2,4.87,4.87,0,0,0,1.2-.1,7,7,0,0,0,2.4,1.7,9.29,9.29,0,0,0,2.9.5h2.6a21.38,21.38,0,0,0,3.5-.4,15.47,15.47,0,0,0,3.1-.6c.3-.1.5-.2.8-.3h1l1.3,1,.4.3v1.7l.7.6c.8.7,1.6,1.3,2.4,1.9a9.19,9.19,0,0,0,2.7,1.6,3.55,3.55,0,0,0,1,.2h0l1.3.9a16.33,16.33,0,0,0,3.4,1.9,8.9,8.9,0,0,0,3.3.8h.7l.4-.1.7.4a18,18,0,0,0,2.1.8,14.46,14.46,0,0,0,2.9.4h4.3v.2Z"/><path class="cls-2" d="M134.2,217.2c1.5,0,3,0,4.9-.1,6.3-.2,11.3-.6,13.8-.8l3.6-.4c.1,0,4.8-.6,9.7-1.4,3.8-.6,15-3,30.8-7.5l-.3-2.7.7-.5a6.54,6.54,0,0,0-3-2.2v-1l-2.5.7c-1.2.3-2.6.7-4.2,1-4.1,1-7.6,1.6-14.6,2.7-10.1,1.6-15.1,2.4-20,2.9-3.3.3-19,1-26,1a26.2,26.2,0,0,1-2.8-.1,27.26,27.26,0,0,1-7.5-1.7,31.48,31.48,0,0,1-5.7-3.1l-2.7-1.8A131.1,131.1,0,0,0,94,193.5l-3.5-1.8-.2-.1c-7-3.7-15.7-8.6-17.2-9.5L72,180.8c-1.8,2.1-3.5,4.3-5.3,6.4l.8.7a69,69,0,0,0,10,7c.8.5,3,1.6,7.6,4l4.1,2.1c2.1,1.1,2.5,1.3,3.5,1.8,1.2.7,1.7,1,3,1.9.9.6,2.3,1.5,4.7,3,3.9,2.5,6.1,3.9,8,4.9a37.26,37.26,0,0,0,7.9,3.5c1.8.5,3.7.9,12.1,1C130.5,217.1,132.3,217.2,134.2,217.2Z"/><path class="cls-2" d="M84.4,99.5a14.46,14.46,0,0,0,2.9-.4h.2l.2-.1a7.29,7.29,0,0,0,2.7-2.2c1-1.5,1-3,1-6,0-2.2-.1-4.1-.1-4.2-.2-6.6-.8-24.2-.8-25.4V61a4.67,4.67,0,0,1,.3-1.7c.1-.2.1-.3.2-.5a.6.6,0,0,1,.4-.1h3.2l-1.4-2.9A4.81,4.81,0,0,0,92,54.2a8.34,8.34,0,0,0-1.2-.8l-.4-.2h-9l-.5.3a3.74,3.74,0,0,0-1.3,1.2,3.29,3.29,0,0,0-.7,1.3,4.08,4.08,0,0,0-.1,1.9c-.2,5.5-.2,17.5-.3,26.2,0,5.1-.1,9.2-.1,10.1a4.62,4.62,0,0,0,.9,3.2,5.7,5.7,0,0,0,4.8,2Z"/><path class="cls-2" d="M89,157.7l-.5-11.2L88,134.6l-.5-11.5L86.9,111l-.4-11.3V95.4l-2.5.1a2.88,2.88,0,0,1-1.6-.3,1.27,1.27,0,0,1-.1-.6c0-1,.1-5,.1-10.2.1-8.9.2-21.1.3-26.4V56.2L81,55.9h-.9a8.52,8.52,0,0,0-2.3.3,8,8,0,0,0-3.2,1.9,8.7,8.7,0,0,0-1.7,2.1l-.2.5L74.4,98c.6,9,.9,18.2,1.1,27.2.1,7.3.1,14.8,0,22.1-.1.5-.1,1-.2,1.4v.6a31.48,31.48,0,0,0,.9,4.2,17.38,17.38,0,0,0,2.2,4.8,21.58,21.58,0,0,0,2.7,3.3c.8.8,1.7,1.7,2.6,2.5s1.6,1.4,2.4,2.1l3.6,2.9Z"/><path class="cls-2" d="M90.3,185l-.7-9.3v-8.6l-.2-3.5-.7-.6c-.8-.6-1.5-1.3-2.3-1.9a27.75,27.75,0,0,1-2.5-2.4,13.29,13.29,0,0,1-2.1-2.6,17.33,17.33,0,0,1-1.8-3.9,19.82,19.82,0,0,1-.8-3.5h-4a106.21,106.21,0,0,1-2.4,11.2c-.3,1.1-.6,2.2-.9,3.2-1.1,3.7-2.1,6.9-2.1,10.7v10.6l.5.6c.7.8,18.2,10.2,18.4,10.3l3.5,1.9Z"/><path class="cls-4" d="M115.5,64.6v-7a46.36,46.36,0,0,0-13.9,1.5l-2,.6a50.19,50.19,0,0,1,13.1,3.7S113.9,63.9,115.5,64.6Z"/><path class="cls-5" d="M125.9,68h0V59.3a4.4,4.4,0,0,1,.2-1.6h0a2,2,0,0,1,.4-.8,3.18,3.18,0,0,1,1-1,3.55,3.55,0,0,1,1-.2h.6a2.37,2.37,0,0,0-1.3-1.1h-11a4.81,4.81,0,0,0-.9,1.1,3.44,3.44,0,0,0-.4,2v7A74,74,0,0,0,125.9,68Z"/><path class="cls-6" d="M113.5,131.9a6.11,6.11,0,0,0-.7,1.4l-.2,2.7c-.8,15.6,0,23.9,1.2,28.6.3,1.4,1.6,5.7-.6,8.1a5.07,5.07,0,0,1-3.3,1.5c-1.1-.1-2.3-.3-3.4-.5a44.51,44.51,0,0,1-7-2.4c-5.1-2-4.9-1.7-6.2-2.4a33.87,33.87,0,0,1-5-3.4l-.9-.7.2,2.5v8.6l.7,9.4,1.3,8.3a39.06,39.06,0,0,0,3.5,1.8A174.36,174.36,0,0,1,110,205.8a35.06,35.06,0,0,0,6,3.3,28.08,28.08,0,0,0,8,1.8c3.2.4,25.3-.5,29.2-.9,5-.5,10-1.3,20.1-2.9,7.1-1.1,10.7-1.8,14.8-2.8,1.5-.4,3-.7,4.2-1v-.5a14.58,14.58,0,0,0-.6-5.1,14.94,14.94,0,0,0-2.6-4.8,14.35,14.35,0,0,0-3.3-3.2,14.58,14.58,0,0,0-7.9-2.3s-6.9.2-8.2,0c-2.8-.5-7.9-3.8-16.1-8.8a54.76,54.76,0,0,1-8-5.6l-.2-.2a40.17,40.17,0,0,1-4.5-4.7,27.14,27.14,0,0,1-2.4-3.5,113.16,113.16,0,0,1-4.9-13.8,51.58,51.58,0,0,1-1.9-9.5l-1-11.7v-.2H128C122.2,129.5,114.6,130.6,113.5,131.9Z"/><path class="cls-7" d="M88.6,61.1c0,1.5.8,25.6.8,25.6s.1,2,.1,4.1c0,3.1-.1,4-.7,4.9a4.94,4.94,0,0,1-1.9,1.6,10.68,10.68,0,0,1-2.5.3v2.3l.4,11.3.6,12.1.5,11.4.5,11.9.5,11.2.5,6.8.9.7a33.87,33.87,0,0,0,5,3.4c1.3.7,1.1.5,6.2,2.4a43.4,43.4,0,0,0,6.9,2.4c1.1.2,2.3.4,3.4.5a5.3,5.3,0,0,0,3.3-1.5c2.2-2.4,1-6.7.6-8.1-1.2-4.7-2-13-1.2-28.6l.2-2.7a3.69,3.69,0,0,1,.7-1.4c1.1-1.4,8.7-2.4,14.7-2.6h2.7c-.1-3.3-.1-6.9,0-10.6s.4-7.2.7-10.5l1.2-15c.6-5.3.9-9.6,1.1-12.6.4-7.2,1.4-12.6,1-14.5,0-.1,0-.1-.1-.2-.2.1-.4.3-.6.4a12.7,12.7,0,0,1-3.7,1.8,8.56,8.56,0,0,1-3.9,0l-.7-.1h0a73.06,73.06,0,0,1-10.3-3.4h0c-1.7-.7-2.8-1.2-2.8-1.2a50.19,50.19,0,0,0-13.1-3.7l-5.5-.9-2.5-.3H89A5.63,5.63,0,0,0,88.6,61.1Z"/><path class="cls-4" d="M127.4,55.9a2,2,0,0,0-1,1,3,3,0,0,0-.4.8h3a2.12,2.12,0,0,0,0-1.9h-.6A1.73,1.73,0,0,0,127.4,55.9Z"/><path class="cls-4" d="M125.9,59.3V68h0l.7.1a8.56,8.56,0,0,0,3.9,0,12.7,12.7,0,0,0,3.7-1.8c.2-.1.4-.3.6-.4a13.1,13.1,0,0,0-.6-2.7,9.1,9.1,0,0,0-1.9-2.9,11.8,11.8,0,0,0-3.2-2.7h-3A3.45,3.45,0,0,0,125.9,59.3Z"/><path class="cls-4" d="M89,58.5h2.6a3.3,3.3,0,0,0,0-1.4.76.76,0,0,0-.2-.4,2.72,2.72,0,0,0-1.7.6A12.75,12.75,0,0,0,89,58.5Z"/><path class="cls-4" d="M196.6,205.1h-.2a311.84,311.84,0,0,1-30.6,7.4c-4.9.8-9.6,1.4-9.6,1.4l-3.6.4c-1.4.1-6.6.6-13.6.8-4.1.1-6.9.1-10.6,0-8.2-.1-10-.5-11.6-1a36,36,0,0,1-7.5-3.4c-1.8-1-3.9-2.3-7.9-4.8-5.6-3.6-5.6-3.7-7.8-4.9-1.5-.8-1.7-.9-7.6-3.9-4.5-2.3-6.8-3.5-7.6-3.9a65,65,0,0,1-9.7-6.8,103.58,103.58,0,0,0-1.1,11.2c-.1,2.6-.4,8.4-.4,8.4a1.46,1.46,0,0,0,.6.9c.2.1.3.3.5.4l1.3-.4.4.2-.7,1.2a5.52,5.52,0,0,0,3.2,2.4,5.28,5.28,0,0,0,2.5,0l.5-1.2.6.1a14.92,14.92,0,0,0-.2,2.1,9.8,9.8,0,0,0,2.2,1.3,7.56,7.56,0,0,0,4.2.3l.8-.9.7.1-.5,1.4a4.63,4.63,0,0,0,1.8,1.3,8.33,8.33,0,0,0,2.2.3h2.4c.6,0,1.6-.1,3.4-.3a12.82,12.82,0,0,0,2.7-.5c.3-.1.7-.3,1-.4l2.2-.1,2,1.4c-.8-1-6.5-6.5-8.3-7.3a11.76,11.76,0,0,0-2-.7,10.93,10.93,0,0,0-.8,1.5,11.18,11.18,0,0,0-.7,6.5,12.06,12.06,0,0,1,.7-6.5,7.14,7.14,0,0,1,.8-1.5,11.76,11.76,0,0,1,2,.7c1.8.8,7.4,6.3,8.3,7.3l1.2.9v1.8c.9.8,1.7,1.4,2.3,1.9a5.93,5.93,0,0,0,2,1.2,4.11,4.11,0,0,0,2.2,0l.7-.4.4.4-.5,1.4a12.83,12.83,0,0,0,3,1.7,4.92,4.92,0,0,0,2.9.6,5.64,5.64,0,0,0,1.2-.4l.3-1,1,.2c-.1.6-.2,1.1-.3,1.7a12.2,12.2,0,0,0,1.7.7,10.68,10.68,0,0,0,2.5.3h4.1v-1h2.1v1.3c1.1,0,2.3-.1,3.5-.1.9-.1,2.1-.1,3.5-.3s10.9-1.4,10.9-1.4a146.11,146.11,0,0,0,14.4-2.6l25.8-6.7,5.4-1.4,6.2-1.5-.5-4.4Z"/><path class="cls-5" d="M86.1,197.1c5.9,3,6.1,3.1,7.6,3.9,2.1,1.2,2.2,1.4,7.8,4.9a87.2,87.2,0,0,0,7.9,4.8,42.12,42.12,0,0,0,7.5,3.4c1.6.5,3.4.8,11.6,1,3.7.1,6.5.1,10.6,0,7-.2,12.2-.7,13.6-.8l3.6-.4s4.7-.6,9.6-1.4c4.3-.7,15.5-3.2,30.6-7.4h-.7l-.9-.9a4.59,4.59,0,0,0-2.5-1h0c-1.3.3-2.7.7-4.2,1-4.1,1-7.7,1.6-14.8,2.8-10.1,1.6-15.1,2.4-20.1,2.9-4,.4-26,1.3-29.2.9a28.08,28.08,0,0,1-8-1.8,35.06,35.06,0,0,1-6-3.3,181.35,181.35,0,0,0-16.9-10.3c-1.1-.6-2.2-1.2-3.5-1.8h0c-7.6-4.1-17.7-9.8-17.8-9.9l-3,2.7a54.54,54.54,0,0,0,9.7,6.8C79.3,193.7,81.6,194.8,86.1,197.1Z"/><path class="cls-7" d="M80.9,96.4c.7,1,2.1,1.2,3.4,1.2h0a10.07,10.07,0,0,0,2.5-.3,4.21,4.21,0,0,0,1.9-1.6c.6-.9.6-1.8.7-4.9,0-2.1-.1-4.1-.1-4.1s-.8-24.1-.8-25.6a5.75,5.75,0,0,1,.5-2.6,2.55,2.55,0,0,1,.8-1.2,2.72,2.72,0,0,1,1.7-.6,3.11,3.11,0,0,0-.7-.9c-.2-.2-.5-.3-.7-.5H82a2.7,2.7,0,0,0-.8.7,1.74,1.74,0,0,0-.4,1.8c-.2,8.4-.3,34-.4,36.6A2.75,2.75,0,0,0,80.9,96.4Z"/><path class="cls-8" d="M80.1,157.3a16.83,16.83,0,0,0,2.4,2.9,33.31,33.31,0,0,0,2.6,2.4c1.1.9,1.8,1.5,2.3,2l-.5-6.8-.5-11.2L86,134.7l-.5-11.4-.6-12.1-.4-11.3V97.6c-1.3,0-2.7-.2-3.4-1.2a3.2,3.2,0,0,1-.5-1.9c.1-2.6.2-28.2.4-36.6a6.52,6.52,0,0,0-2.4.2,7.22,7.22,0,0,0-2.4,1.4,7.63,7.63,0,0,0-1.3,1.7l1.7,36.7c.6,8.7.9,17.8,1.1,27.2.1,7.7.1,15.1,0,22.3a10,10,0,0,0-.2,1.6,27.44,27.44,0,0,0,.9,3.9A12.56,12.56,0,0,0,80.1,157.3Z"/><path class="cls-9" d="M88.3,185.2l-.7-9.4v-8.6l-.2-2.5c-.6-.5-1.4-1.2-2.3-2s-1.9-1.8-2.6-2.4a21.72,21.72,0,0,1-2.4-2.9,17.51,17.51,0,0,1-2-4.4,26.15,26.15,0,0,1-.9-3.8,90.65,90.65,0,0,1-2.5,11.5c-1.4,5.1-3,8.9-3,13.3v9.8c.1.1,10.2,5.8,17.8,9.9Z"/><g class="cls-10"><path class="cls-11" d="M117.9,115.6l-.1-6.8,3.9-.6h.1A2.58,2.58,0,0,1,125,111a3.55,3.55,0,0,1-3,3.9l-4.1.7m-.2-11.1V99.9l3.7-.6h.1a1.91,1.91,0,0,1,2.2,1.3.85.85,0,0,1,0,.7,2.54,2.54,0,0,1-2.4,2.6l-3.6.6m4-9.8h-.2L113,96.2l.4,24.6,8.9-1.5a8.5,8.5,0,0,0,7.3-8.8c0-3.1-1.6-5.1-4.6-5.4a5.3,5.3,0,0,0,3-5c0-3.4-2.3-5.9-6.3-5.4"/></g><ellipse class="cls-12" cx="172.5" cy="194.32" rx="9.5" ry="2.7" transform="translate(-50.5 60.96) rotate(-17.52)"/><circle class="cls-12" cx="159.7" cy="199.4" r="2"/></svg>