<?xml version="1.0" encoding="utf-8"?>
<!-- Generator: Adobe Illustrator 25.4.1, SVG Export Plug-In . SVG Version: 6.00 Build 0)  -->
<svg version="1.1" id="Layer_1" xmlns="http://www.w3.org/2000/svg" xmlns:xlink="http://www.w3.org/1999/xlink" x="0px" y="0px"
	 viewBox="0 0 273 60.7" style="enable-background:new 0 0 273 60.7;" xml:space="preserve">
<style type="text/css">
	.st0{fill:#212121;stroke:#212121;stroke-width:0.3135;stroke-miterlimit:10;}
	.st1{fill:#212121;}
	.st2{fill:#FF5964;}
</style>
<g>
	<path class="st0" d="M17.9,35.7c-0.1,0-0.2-0.1-0.2-0.2l0,0v-1l0.5,0c0.3,0,0.4-0.2,0.4-0.4v-6.9c0-0.1-0.1-0.2-0.2-0.2l-0.5,0
		c-0.1,0-0.2-0.1-0.2-0.2v-0.9c0-0.1,0.1-0.2,0.2-0.2h4.2c0.9-0.1,1.9,0.2,2.6,0.8c0.7,0.6,1,1.5,0.9,2.4c0,0.9-0.3,1.9-1.1,2.5
		c-0.8,0.6-1.8,0.9-2.9,0.9h-1.1c-0.1,0-0.2,0.1-0.2,0.2v1.8c0,0.1,0.1,0.2,0.2,0.2c0,0,0,0,0,0l1.1,0c0.1,0,0.2,0.1,0.2,0.2v0.9
		c0,0.1-0.1,0.2-0.2,0.2l0,0L17.9,35.7z M20.5,30.5c0,0.1,0.1,0.2,0.2,0.2h0.9c1.5,0,2.2-0.6,2.2-1.8c0-0.7-0.2-1.2-0.6-1.4
		c-0.6-0.3-1.2-0.4-1.8-0.4h-0.7c-0.1,0-0.2,0.1-0.2,0.2V30.5z"/>
	<path class="st0" d="M33.3,28.4c0.1,0,0.1,0.1,0.1,0.2V34c0,0.1,0,0.2,0.1,0.3c0.1,0.1,0.2,0.1,0.3,0.1l0.5,0v1
		c0,0.1-0.1,0.2-0.2,0.2c0,0,0,0,0,0h-2.1c-0.1,0-0.2-0.1-0.2-0.2c0,0,0,0,0,0v-0.7h0c-0.5,0.7-1.2,1.1-2.1,1.1
		c-0.9,0.1-1.7-0.3-2.3-1c-0.5-0.8-0.8-1.7-0.7-2.7c0-1.4,0.3-2.4,1-3.2c0.7-0.8,1.7-1.1,3-1.1C31.6,27.9,32.5,28,33.3,28.4z
		 M31.7,33.3v-3.8c0-0.1,0-0.1-0.1-0.2c-0.3-0.1-0.7-0.2-1.1-0.2c-0.6,0-1.2,0.3-1.5,0.8c-0.3,0.7-0.5,1.4-0.5,2.2
		c0,1.6,0.5,2.5,1.6,2.5c0.4,0,0.8-0.1,1.1-0.4C31.5,34,31.7,33.7,31.7,33.3z"/>
	<path class="st0" d="M43,34.5v1c0,0.1-0.1,0.2-0.2,0.2h-2.1c-0.1,0-0.2-0.1-0.2-0.2c0,0,0,0,0,0v-0.8c-0.6,0.8-1.5,1.2-2.5,1.2
		c-1.6,0-2.3-0.9-2.3-2.6v-3.5c0-0.3-0.1-0.4-0.4-0.4l-0.5,0v-1.1c0-0.1,0.1-0.2,0.2-0.2c0,0,0,0,0,0h2.3c0.1,0,0.2,0.1,0.2,0.2v4.6
		c0,0.4,0.1,0.8,0.2,1.2c0.2,0.3,0.6,0.5,0.9,0.4c0.5,0,1-0.2,1.3-0.6c0.2-0.3,0.3-0.7,0.3-1v-3.1c0-0.1,0-0.2-0.1-0.3
		c-0.1-0.1-0.2-0.1-0.3-0.1l-0.5,0v-1c0-0.1,0.1-0.2,0.2-0.2c0,0,0,0,0,0h2.3c0.1,0,0.2,0.1,0.2,0.2V34c0,0.1,0,0.2,0.1,0.3
		c0.1,0.1,0.2,0.1,0.3,0.1L43,34.5z"/>
	<path class="st0" d="M46.6,25.1v9.2c0,0.1,0.1,0.2,0.2,0.2l0.5,0c0.1,0,0.2,0.1,0.2,0.2v0.8c0,0.1-0.1,0.2-0.2,0.2H44
		c-0.1,0-0.2-0.1-0.2-0.2v-0.9l0.5,0c0.2,0,0.4-0.2,0.4-0.4c0,0,0,0,0-0.1v-7.5c0-0.2-0.1-0.3-0.4-0.4l-0.5,0v-1.1
		c0-0.1,0.1-0.2,0.2-0.2c0,0,0,0,0,0h2.3C46.5,24.9,46.6,25,46.6,25.1C46.6,25.1,46.6,25.1,46.6,25.1z"/>
	<path class="st1" d="M38.3,40.9c-1.2-0.1-2.1,0.8-2.2,1.9c0,0,0,0.1,0,0.1v4c0,0.6-0.1,1.2-0.3,1.7c-0.2,0.4-0.9,0.7-2,1.1
		c-1.1,0.3-2.3,0.5-3.5,0.5h-2.1c-9.7,0-14.5-6.5-14.5-19.4c0-6.2,1.3-11,3.8-14.3s6.2-4.9,11.1-4.9c3.7,0,5.9,0.5,6.4,1.5
		c0.2,0.5,0.4,1.1,0.3,1.7v3.9c0,1.2,0.9,2.1,2.1,2.1c0,0,0.1,0,0.1,0l3.8-0.3c1.1-0.1,2-1,1.9-2.1v-10c0-0.8-0.5-1.6-1.3-1.9
		C37.8,4.9,33.2,4,28.6,4c-6.5,0-12.1,2-16.8,5.9c-2.4,2-4.3,4.9-5.7,8.5S4,26.4,4,31.3c0,8.9,2.1,15.6,6.3,20.1s10.3,6.7,18.3,6.7
		c5.7,0,10.4-0.9,14.3-2.6c0.7-0.3,1.2-1.1,1.2-1.9V43.3c0-1.1-0.8-2-1.9-2.1L38.3,40.9z"/>
	<path class="st1" d="M87.7,50.6c-0.6,0-1.1-0.2-1.5-0.5c-0.3-0.3-0.4-0.9-0.4-1.7V20.7c0-0.9-0.6-1.7-1.4-2
		c-4-1.4-8.3-2.2-12.5-2.2c-6.9,0-12.1,2-15.5,6s-5.2,9.5-5.2,16.6c0,5.9,1.3,10.5,3.8,13.9c2.6,3.4,6.5,5.1,11.8,5.1
		c4.5,0,8.1-1.9,10.7-5.6l0.2,0.1V55c0,1.2,0.9,2.1,2.1,2.1h8.3c1.2,0,2.1-0.9,2.1-2.1v-2.2c0-1.1-0.9-2-2-2.1L87.7,50.6z
		 M66.2,24.6c0-0.4,0.3-0.7,0.7-0.7h4.2c0.4,0,0.7,0.3,0.7,0.7l0,0v6.9h-5.6V24.6z M58.5,26.5c0-0.3,0.2-0.5,0.5-0.5h4.5
		c0.3,0,0.6,0.2,0.6,0.5v5.1h-5.7V26.5z M74.7,50.7H63.5V40.5h11.2L74.7,50.7z M79.6,37.4c0,0.7-0.6,1.3-1.3,1.3H59.5
		c-0.5,0-0.9-0.4-0.9-0.9v-5.1h21.1L79.6,37.4z M79.6,31.6h-5.7v-5c0-0.4,0.3-0.6,0.7-0.6h4.3c0.4,0,0.7,0.3,0.7,0.7L79.6,31.6z"/>
	<path class="st1" d="M122.7,38.1c-0.9-0.9-1.9-1.7-3-2.2c-1.1-0.6-2.2-1-3.3-1.5c-0.9-0.3-2.2-0.7-4.1-1.2c-1.6-0.4-3.2-1-4.7-1.8
		c-0.7-0.4-1.4-1-1.8-1.7c-0.4-0.8-0.6-1.8-0.6-2.7c0-1.2,0.6-2.3,1.6-3c1.1-0.8,2.5-1.2,4.3-1.2c1.5,0,3.1,0.2,4.5,0.7
		c1.1,0.4,1.9,1.5,1.8,2.7v1c0,1.2,0.9,2.1,2.1,2.1c0.1,0,0.1,0,0.2,0l2.9-0.2c1.1-0.1,1.9-1,1.9-2.1V21c0-0.8-0.5-1.6-1.3-1.9
		c-3.7-1.7-7.7-2.5-11.7-2.5c-4.4,0-8,1.1-10.9,3.3s-4.3,5.3-4.3,9.4c0,4,1.3,6.9,4,8.7c1.2,0.7,2.4,1.4,3.7,1.9
		c1,0.4,2.1,0.8,3.1,1.1c1,0.3,2,0.5,3,0.8c1,0.3,1.9,0.5,2.6,0.8c0.8,0.3,1.6,0.8,2.2,1.5c0.8,0.7,1.2,1.8,1.1,2.8
		c0,3.2-2.2,4.8-6.6,4.8c-4.4,0-6.6-1.2-6.6-3.4v-1.5c0-1.2-0.9-2.1-2.1-2.1c-0.1,0-0.1,0-0.2,0l-2.9,0.2c-1.1,0.1-1.9,1-1.9,2.1
		v7.6c0,0.9,0.5,1.6,1.3,2c3.2,1.2,7.5,1.8,13.1,1.8c4.4,0,8-1.1,10.9-3.3c2.9-2.2,4.3-5.3,4.3-9.2C125.4,42.5,124.5,40,122.7,38.1z
		"/>
	<path class="st1" d="M158,38.1c-0.9-0.9-1.9-1.7-3-2.2c-1.1-0.6-2.2-1.1-3.3-1.5c-0.9-0.3-2.2-0.7-4.1-1.2c-1.6-0.4-3.2-1-4.7-1.8
		c-0.8-0.4-1.4-1-1.8-1.7c-0.4-0.8-0.6-1.8-0.6-2.7c0-1.2,0.6-2.3,1.6-3c1.1-0.8,2.5-1.2,4.3-1.2c1.5,0,3.1,0.2,4.5,0.7
		c1.1,0.4,1.9,1.5,1.8,2.7v1c0,1.2,0.9,2.1,2.1,2.1c0.1,0,0.1,0,0.2,0l2.9-0.2c1.1-0.1,1.9-1,1.9-2.1V21c0-0.8-0.5-1.6-1.3-1.9
		c-3.7-1.7-7.7-2.5-11.7-2.5c-4.4,0-8,1.1-10.9,3.3c-2.9,2.2-4.3,5.3-4.3,9.4c0,4,1.3,6.9,4,8.7c1.2,0.7,2.4,1.4,3.7,1.9
		c1,0.4,2.1,0.8,3.1,1.1c1,0.3,2,0.5,3,0.8c1,0.3,1.9,0.5,2.6,0.8c0.8,0.3,1.6,0.8,2.2,1.5c0.8,0.7,1.2,1.8,1.1,2.8
		c0,3.2-2.2,4.8-6.6,4.8c-4.4,0-6.6-1.2-6.6-3.4v-1.5c0-1.2-0.9-2.1-2.1-2.1c-0.1,0-0.1,0-0.2,0l-2.9,0.2c-1.1,0.1-1.9,1-1.9,2.1
		v7.6c0,0.9,0.5,1.6,1.3,2c3.2,1.2,7.5,1.8,13.1,1.8c4.4,0,8-1.1,10.9-3.3c2.9-2.2,4.3-5.3,4.3-9.2C160.8,42.5,159.9,40,158,38.1z"
		/>
	<path class="st1" d="M196.3,49.5c-0.5-1-1.7-1.5-2.8-1c0,0-0.1,0-0.1,0.1c-2.4,1.4-5.1,2.2-7.8,2.2c-3.2,0-5.6-0.8-7.2-2.5
		c-1.6-1.7-2.4-3.9-2.6-6.7c4,0.1,8-0.5,11.8-1.6c1.9-0.5,3.7-1.4,5.3-2.4c3.3-2.3,5.3-6.1,5.2-10.2c0-3.4-1.1-6.1-3.4-8
		c-2.3-1.9-5.4-2.9-9.3-2.9c-6.1,0-10.9,2.1-14.3,6.3s-5.1,9.4-5.1,15.5c0,6.2,1.5,11,4.5,14.5c3,3.5,7.7,5.3,14,5.3
		c2.9,0.1,5.8-0.5,8.5-1.5c1.3-0.5,2.6-1.1,3.8-1.8c0.9-0.6,1.3-1.7,0.8-2.7L196.3,49.5z M178.1,26.6c1.6-2.3,3.8-3.5,6.7-3.5
		c3.1,0,4.7,1.6,4.7,4.8c0,1.6-0.8,3-2.4,4.2c-1.6,1.2-3.4,1.9-5.3,2.3c-2.1,0.4-4.2,0.6-6.3,0.6C175.6,32,176.5,29.1,178.1,26.6z"
		/>
	<path class="st1" d="M217.7,50.6V3.3c0-1.2-0.9-2.1-2.1-2.1h-9.8c-1.2,0-2.1,0.9-2.1,2.1v2.4c0,1.1,0.9,2,2,2.1l0.8,0
		c1.3,0.1,2,0.7,2,1.9v38.6c0,1.5-0.8,2.3-2.3,2.5l-0.7,0.1c-1.1,0.1-1.9,1-1.9,2.1v2c0,1.2,0.9,2.1,2.1,2.1H220
		c1.2,0,2.1-0.9,2.1-2.1v-2.2c0-1.1-0.9-2-2-2.1L217.7,50.6z"/>
	<path class="st1" d="M241,50.6V3.3c0-1.2-0.9-2.1-2.1-2.1h-9.9c-1.2,0-2.1,0.9-2.1,2.1v2.4c0,1.1,0.9,2,2,2.1l0.8,0
		c1.3,0.1,2,0.7,2,1.9v38.6c0,1.5-0.8,2.3-2.3,2.5l-0.7,0.1c-1.1,0.1-1.9,1-1.9,2.1v2c0,1.2,0.9,2.1,2.1,2.1h14.5
		c1.2,0,2.1-0.9,2.1-2.1v-2.2c0-1.1-0.9-2-2-2.1L241,50.6z"/>
	<path class="st2" d="M245.5,19c0-3.8,0-7.7,0-11.5c0-0.5,0.4-0.3,0.8,0.2c8.8,10.8,17.5-1.3,26.3,10.4c0.6,0.8,0.4,1.6-0.2,1
		c-8.8-7.4-17.5,8.5-26.3,1.1C245.8,19.9,245.5,19.5,245.5,19z"/>
</g>
</svg>
