<svg id="Layer_1" data-name="Layer 1" xmlns="http://www.w3.org/2000/svg" viewBox="0 0 655.2 154.08"><defs><style>.cls-1,.cls-2{fill:#212121;}.cls-1{stroke:#212121;stroke-miterlimit:10;stroke-width:0.75px;}.cls-3{fill:#ff5964;}</style></defs><title>Cassell Logo</title><path class="cls-1" d="M39,91.15a.44.44,0,0,1-.44-.44v-2.5l1.2-.11q1.05-.1,1.05-1V70.63a.43.43,0,0,0-.41-.43l-1.24-.07a.44.44,0,0,1-.42-.43V67.46a.44.44,0,0,1,.44-.43h9.94a9.57,9.57,0,0,1,6.33,1.9,7,7,0,0,1,2.26,5.71,7.27,7.27,0,0,1-2.57,5.93,10.36,10.36,0,0,1-6.82,2.12H45.67a.44.44,0,0,0-.43.44v4.4a.43.43,0,0,0,.42.44l2.64.08a.44.44,0,0,1,.42.43v2.23a.44.44,0,0,1-.44.44Zm6.24-12.41a.44.44,0,0,0,.43.44h2.18q5.3,0,5.29-4.32c0-1.74-.45-2.89-1.36-3.46a8.38,8.38,0,0,0-4.33-.86H45.67a.44.44,0,0,0-.43.44Z"/><path class="cls-1" d="M76,73.52a.45.45,0,0,1,.29.42V87.12a1.23,1.23,0,0,0,.2.8,1.06,1.06,0,0,0,.71.25l1.16.07v2.47a.44.44,0,0,1-.44.44H73a.44.44,0,0,1-.44-.44V89l-.11,0a5.72,5.72,0,0,1-5,2.61A6.42,6.42,0,0,1,62,89.26a10.46,10.46,0,0,1-1.78-6.46c0-3.28.8-5.85,2.4-7.69s4-2.75,7.18-2.75A18,18,0,0,1,76,73.52ZM72.08,85.38v-9.1a.43.43,0,0,0-.28-.41,7.32,7.32,0,0,0-2.52-.36,3.74,3.74,0,0,0-3.52,2,10.76,10.76,0,0,0-1.08,5.19c0,3.92,1.25,5.87,3.77,5.87a3.66,3.66,0,0,0,2.61-1A2.94,2.94,0,0,0,72.08,85.38Z"/><path class="cls-1" d="M99.06,88.28v2.43a.44.44,0,0,1-.43.44h-5a.44.44,0,0,1-.44-.44V88.79a6.73,6.73,0,0,1-5.87,2.83q-5.62,0-5.62-6.28V77c0-.65-.31-1-.91-1l-1.16-.07V73.34a.44.44,0,0,1,.44-.44h5.51a.44.44,0,0,1,.43.44V84.4a6,6,0,0,0,.55,2.9,2.35,2.35,0,0,0,2.25,1,3.61,3.61,0,0,0,3-1.37,3.93,3.93,0,0,0,.76-2.44V77a1.31,1.31,0,0,0-.2-.82,1,1,0,0,0-.71-.27l-1.16-.07V73.34a.44.44,0,0,1,.44-.44h5.51a.44.44,0,0,1,.43.44V87.12a1.13,1.13,0,0,0,.19.78,1.22,1.22,0,0,0,.72.27Z"/><path class="cls-1" d="M107.76,65.72v22a.45.45,0,0,0,.42.44l1.24.06a.44.44,0,0,1,.41.44v2a.44.44,0,0,1-.43.44h-7.77a.44.44,0,0,1-.43-.44V88.39l1.2-.11a1,1,0,0,0,1-1.16V69.24c0-.53-.3-.82-.91-.87l-1.27-.07V65.72a.44.44,0,0,1,.44-.44h5.62A.44.44,0,0,1,107.76,65.72Z"/><path class="cls-2" d="M88,103.6a5,5,0,0,0-5.34,5v9.64a8.74,8.74,0,0,1-.75,4.12c-.5.88-2.07,1.73-4.69,2.53a27.86,27.86,0,0,1-8.34,1.23h-5q-34.71,0-34.69-46.32,0-22.32,9-34.14T64.63,33.84c8.88,0,14,1.2,15.38,3.56a8.7,8.7,0,0,1,.76,4.13V50.8a5,5,0,0,0,5.34,5l9.12-.62a5,5,0,0,0,4.66-5V26.24a5,5,0,0,0-3.08-4.62,82.53,82.53,0,0,0-32.18-6.33q-23.23,0-40.12,14.06-8.62,7.31-13.69,20.44T5.76,80.54q0,31.88,15.09,48t43.78,16.12q20.34,0,34.23-6.27a5,5,0,0,0,2.9-4.54V109.21a5,5,0,0,0-4.66-5Z"/><path class="cls-2" d="M206.2,126.85a5.36,5.36,0,0,1-3.66-1.31c-.68-.75-1-2.13-1-4.12V55.19a5,5,0,0,0-3.39-4.75,92.5,92.5,0,0,0-30-5.34q-24.74,0-37.12,14.25T118.64,99.11q0,21.18,9.19,33.36t28.31,12.19q16.31,0,25.69-13.5l.56.19v5.88a5,5,0,0,0,5,5H207.2a5,5,0,0,0,5-5v-5.31a5,5,0,0,0-4.7-5ZM154.76,64.58a1.7,1.7,0,0,1,1.7-1.7h10.13a1.67,1.67,0,0,1,1.67,1.67V81.17h-13.5ZM136.32,69a1.31,1.31,0,0,1,1.31-1.31h10.86A1.36,1.36,0,0,1,149.86,69V81.17H136.32Zm38.57,57.94H148.12V102.62h26.77Zm11.83-31.7a3.18,3.18,0,0,1-3.18,3.17h-45a2.23,2.23,0,0,1-2.23-2.23V83.94h50.4Zm0-14H173.18v-12a1.56,1.56,0,0,1,1.56-1.55H185a1.76,1.76,0,0,1,1.76,1.75Z"/><path class="cls-2" d="M289.82,96.85a23.59,23.59,0,0,0-7.21-5.25,59,59,0,0,0-8-3.47q-3.19-1-9.76-2.81a55.64,55.64,0,0,1-11.25-4.22,11.43,11.43,0,0,1-4.4-4,12.61,12.61,0,0,1-1.41-6.56,8.68,8.68,0,0,1,3.84-7.12c2.56-1.94,6-2.9,10.22-2.9a30.91,30.91,0,0,1,10.87,1.69,6.28,6.28,0,0,1,4.32,6.36V71a5,5,0,0,0,5.39,5l6.87-.54a5,5,0,0,0,4.61-5V55.8a5,5,0,0,0-3-4.6,69.24,69.24,0,0,0-28-6.1q-15.66,0-26,7.87T226.64,75.39q0,14.52,9.56,20.71a59.15,59.15,0,0,0,8.91,4.6,69.1,69.1,0,0,0,7.5,2.53q3.46.94,7.13,1.87c2.43.63,4.53,1.25,6.28,1.88a15.19,15.19,0,0,1,5.33,3.56,9,9,0,0,1,2.73,6.75q0,11.45-15.75,11.44t-15.75-8.25v-3.6a5,5,0,0,0-5.39-5l-6.88.53a5,5,0,0,0-4.61,5v18.17a5,5,0,0,0,3.22,4.68q11.39,4.39,31.28,4.39,15.76,0,26-8t10.22-22Q296.4,103.8,289.82,96.85Z"/><path class="cls-2" d="M374.39,96.85a23.84,23.84,0,0,0-7.21-5.25,58,58,0,0,0-8-3.47q-3.18-1-9.74-2.81a55.64,55.64,0,0,1-11.25-4.22,11.39,11.39,0,0,1-4.41-4,12.71,12.71,0,0,1-1.41-6.56,8.67,8.67,0,0,1,3.85-7.12q3.84-2.91,10.22-2.9a30.91,30.91,0,0,1,10.87,1.69,6.29,6.29,0,0,1,4.32,6.36V71A5,5,0,0,0,367,76l6.86-.54a5,5,0,0,0,4.61-5V55.8a5,5,0,0,0-3-4.6,69.24,69.24,0,0,0-28-6.1q-15.66,0-26,7.87t-10.3,22.42q0,14.52,9.56,20.71a57.76,57.76,0,0,0,8.91,4.6,69,69,0,0,0,7.49,2.53q3.46.94,7.13,1.87c2.44.63,4.53,1.25,6.28,1.88a15.22,15.22,0,0,1,5.34,3.56,9,9,0,0,1,2.73,6.75q0,11.45-15.75,11.44t-15.76-8.25v-3.6a5,5,0,0,0-5.38-5l-6.88.53a5,5,0,0,0-4.62,5v18.17a5,5,0,0,0,3.22,4.68q11.38,4.39,31.29,4.39,15.75,0,26-8t10.22-22Q381,103.8,374.39,96.85Z"/><path class="cls-2" d="M466.06,124.13a5,5,0,0,0-6.95-2.25,37.35,37.35,0,0,1-18.71,5.34c-7.76,0-13.5-2-17.26-6.08s-5.81-9.41-6.18-16a98.52,98.52,0,0,0,28.31-3.75A46.05,46.05,0,0,0,458,95.53,29,29,0,0,0,470.4,71.16q0-12.37-8.25-19.21T439.84,45.1q-21.94,0-34.13,15T393.52,97.22q0,22.14,10.69,34.79t33.56,12.65a54.35,54.35,0,0,0,20.34-3.56,62.91,62.91,0,0,0,9-4.29,5,5,0,0,0,1.93-6.4ZM422.39,69.38Q428,61,438.51,61q11.26,0,11.27,11.43c0,3.88-1.95,7.22-5.82,10a30.31,30.31,0,0,1-12.65,5.43,97.84,97.84,0,0,1-15.11,1.41A38.44,38.44,0,0,1,422.39,69.38Z"/><path class="cls-2" d="M517.08,126.66V13.53a5,5,0,0,0-5-5H488.52a5,5,0,0,0-5,5v5.84a5,5,0,0,0,4.72,5l1.84.11c3.12.25,4.69,1.76,4.69,4.5v92.45q0,5.43-5.44,6l-1.64.15a5,5,0,0,0-4.55,5v4.68a5,5,0,0,0,5,5h34.63a5,5,0,0,0,5-5V132a5,5,0,0,0-4.74-5Z"/><path class="cls-2" d="M573,126.66V13.53a5,5,0,0,0-5-5H544.4a5,5,0,0,0-5,5v5.84a5,5,0,0,0,4.72,5l1.84.11c3.12.25,4.68,1.76,4.68,4.5v92.45q0,5.43-5.43,6l-1.65.15a5,5,0,0,0-4.54,5v4.68a5,5,0,0,0,5,5h34.62a5,5,0,0,0,5-5V132a5,5,0,0,0-4.73-5Z"/><path class="cls-3" d="M583.65,51.18q0-13.74,0-27.49c0-1.08,1.06-.78,2,.39,21,25.93,41.93-3.09,62.9,24.83,1.46,2,1,3.83-.56,2.43C627,33.58,606.07,71.75,585.11,54A4.4,4.4,0,0,1,583.65,51.18Z"/></svg>