<?xml version="1.0" encoding="utf-8"?>
<!-- Generator: Adobe Illustrator 23.0.6, SVG Export Plug-In . SVG Version: 6.00 Build 0)  -->
<svg version="1.1" id="Layer_1" xmlns="http://www.w3.org/2000/svg" xmlns:xlink="http://www.w3.org/1999/xlink" x="0px" y="0px"
	 viewBox="0 0 655.2 154.08" style="enable-background:new 0 0 655.2 154.08;" xml:space="preserve">
<style type="text/css">
	.st0{fill:#191919;}
	.st1{fill:#424242;}
	.st2{fill:#FFFFFF;}
	.st3{stroke:#000000;stroke-width:2;stroke-linecap:round;stroke-linejoin:round;stroke-miterlimit:10;}
	.st4{stroke:#000000;stroke-width:2;stroke-miterlimit:10;}
	.st5{fill:#FFFFFF;stroke:#FFFFFF;stroke-width:2;stroke-linecap:round;stroke-linejoin:round;stroke-miterlimit:10;}
	.st6{fill:none;stroke:#FFFFFF;stroke-miterlimit:10;}
	.st7{fill:#212121;stroke:#212121;stroke-width:0.75;stroke-miterlimit:10;}
	.st8{fill:#212121;}
	.st9{fill:#FF5964;}
</style>
<g>
	<path class="st7" d="M38.56,91.15v-2.94l1.2-0.11c0.7-0.07,1.05-0.41,1.05-1.02V70.22l-2.07-0.11v-3.08h10.37
		c2.71,0,4.82,0.63,6.33,1.9c1.51,1.27,2.27,3.17,2.27,5.71c0,2.54-0.86,4.52-2.58,5.93s-3.99,2.12-6.82,2.12h-3.08v5.26l3.48,0.11
		v3.08H38.56z M45.24,79.18h2.61c3.53,0,5.3-1.44,5.3-4.32c0-1.74-0.45-2.9-1.36-3.46c-0.91-0.57-2.35-0.85-4.33-0.85h-2.21V79.18z"
		/>
	<path class="st7" d="M76.28,73.63v13.49c0,0.39,0.07,0.65,0.2,0.8c0.13,0.15,0.37,0.23,0.71,0.25l1.16,0.07v2.9h-5.77v-2.1
		l-0.11-0.04c-1.21,1.74-2.87,2.61-4.97,2.61c-2.47,0-4.29-0.79-5.48-2.36c-1.18-1.57-1.78-3.72-1.78-6.46
		c0-3.29,0.8-5.85,2.39-7.69c1.6-1.84,3.99-2.76,7.18-2.76C71.88,72.36,74.03,72.78,76.28,73.63z M72.08,85.38v-9.39
		c-0.68-0.31-1.61-0.47-2.79-0.47c-1.62,0-2.79,0.65-3.52,1.96s-1.09,3.04-1.09,5.19c0,3.92,1.26,5.88,3.77,5.88
		c1.06,0,1.93-0.32,2.61-0.96C71.74,86.93,72.08,86.2,72.08,85.38z"/>
	<path class="st7" d="M99.06,88.28v2.87h-5.88v-2.36c-1.33,1.89-3.29,2.83-5.88,2.83c-3.75,0-5.62-2.09-5.62-6.27v-8.38
		c0-0.65-0.3-0.99-0.91-1.02l-1.16-0.07V72.9H86v11.5c0,1.28,0.18,2.25,0.54,2.9c0.36,0.65,1.11,0.98,2.25,0.98s2.05-0.35,2.74-1.05
		c0.69-0.7,1.03-1.55,1.03-2.54v-7.65c0-0.39-0.07-0.66-0.2-0.82c-0.13-0.16-0.37-0.25-0.71-0.27l-1.16-0.07V72.9h6.38v14.22
		c0,0.39,0.06,0.65,0.18,0.78c0.12,0.13,0.36,0.22,0.73,0.27L99.06,88.28z"/>
	<path class="st7" d="M107.76,65.28v22.85l2.07,0.11v2.9h-8.63v-2.76l1.2-0.11c0.7-0.07,1.05-0.46,1.05-1.16V69.24
		c0-0.53-0.3-0.82-0.91-0.87l-1.27-0.07v-3.01H107.76z"/>
</g>
<g>
	<path class="st8" d="M82.64,103.23v14.99c0,1.87-0.26,3.26-0.75,4.12c-0.5,0.88-2.07,1.73-4.69,2.53
		c-2.63,0.82-5.41,1.22-8.35,1.22h-4.97c-23.13,0-34.69-15.45-34.69-46.32c0-14.88,3-26.25,9-34.14c6-7.87,14.81-11.81,26.44-11.81
		c8.87,0,14,1.2,15.37,3.56c0.5,0.88,0.76,2.25,0.76,4.12v14.63l19.12-1.31V22.97c-11-5.13-22.75-7.69-35.25-7.69
		c-15.5,0-28.87,4.69-40.12,14.06c-5.75,4.87-10.32,11.69-13.7,20.44c-3.37,8.75-5.06,19-5.06,30.75c0,21.25,5.03,37.25,15.09,48
		c10.06,10.75,24.66,16.12,43.78,16.12c15.01,0,27.38-2.56,37.12-7.69v-32.44L82.64,103.23z"/>
	<path class="st8" d="M206.2,126.85c-1.75-0.12-2.97-0.56-3.66-1.31c-0.69-0.76-1.03-2.13-1.03-4.12V51.66
		c-11.63-4.38-22.75-6.56-33.38-6.56c-16.5,0-28.87,4.75-37.12,14.25s-12.37,22.75-12.37,39.76c0,14.12,3.06,25.25,9.19,33.37
		c6.12,8.13,15.56,12.19,28.31,12.19c10.87,0,19.44-4.49,25.69-13.5l0.56,0.18v10.88h29.8v-15.01L206.2,126.85z M154.76,64.58
		c0-0.94,0.78-1.7,1.73-1.7h10.11c0.92,0,1.66,0.75,1.66,1.68v16.62h-13.5V64.58z M136.32,68.95c0-0.72,0.58-1.31,1.3-1.31h10.87
		c0.76,0,1.37,0.61,1.37,1.36v12.18h-13.54V68.95z M174.89,126.89h-26.77v-24.27h26.77V126.89z M186.72,95.19
		c0,1.74-1.42,3.17-3.17,3.17h-44.99c-1.24,0-2.23-1-2.23-2.24V83.94h50.39V95.19z M186.72,81.17h-13.54V69.19
		c0-0.86,0.7-1.55,1.57-1.55h10.22c0.95,0,1.75,0.78,1.75,1.75V81.17z"/>
	<path class="st8" d="M289.82,96.85c-1.62-1.87-4.03-3.62-7.21-5.25c-3.19-1.63-5.85-2.78-7.97-3.48c-2.13-0.69-5.39-1.62-9.76-2.8
		c-4.38-1.19-8.13-2.59-11.25-4.22c-2.01-1.13-3.48-2.47-4.41-4.04c-0.94-1.55-1.41-3.75-1.41-6.56c0-2.8,1.29-5.18,3.84-7.12
		c2.56-1.93,5.97-2.9,10.22-2.9c4.25,0,7.87,0.56,10.87,1.69c2.88,1.13,4.32,3.24,4.32,6.36v7.88l16.87-1.31V52.59
		c-10.24-4.99-20.59-7.49-31.03-7.49c-10.44,0-19.09,2.62-25.97,7.87c-6.87,5.25-10.31,12.72-10.31,22.41
		c0,9.68,3.18,16.59,9.56,20.71c3.26,2.01,6.22,3.54,8.91,4.6c2.68,1.06,5.18,1.91,7.5,2.53c2.3,0.62,4.69,1.25,7.12,1.87
		c2.44,0.62,4.53,1.25,6.28,1.87c1.75,0.62,3.53,1.81,5.34,3.56c1.81,1.75,2.73,4,2.73,6.76c0,7.63-5.25,11.43-15.75,11.43
		c-10.5,0-15.75-2.75-15.75-8.25v-9l-16.88,1.31v26.06c7.75,3.88,19.25,5.81,34.5,5.81c10.5,0,19.16-2.66,25.97-7.97
		c6.81-5.31,10.22-12.66,10.22-22.03C296.4,107.42,294.21,101.48,289.82,96.85z"/>
	<path class="st8" d="M374.39,96.85c-1.62-1.87-4.03-3.62-7.21-5.25c-3.19-1.63-5.85-2.78-7.98-3.48c-2.12-0.69-5.37-1.62-9.74-2.8
		c-4.38-1.19-8.13-2.59-11.25-4.22c-2.01-1.13-3.48-2.47-4.41-4.04c-0.94-1.55-1.41-3.75-1.41-6.56c0-2.8,1.27-5.18,3.84-7.12
		c2.56-1.93,5.96-2.9,10.22-2.9c4.25,0,7.87,0.56,10.87,1.69c2.88,1.13,4.32,3.24,4.32,6.36v7.88l16.87-1.31V52.59
		c-10.24-4.99-20.59-7.49-31.03-7.49c-10.44,0-19.09,2.62-25.97,7.87c-6.87,5.25-10.31,12.72-10.31,22.41
		c0,9.68,3.18,16.59,9.56,20.71c3.24,2.01,6.22,3.54,8.91,4.6c2.68,1.06,5.18,1.91,7.49,2.53c2.31,0.62,4.69,1.25,7.14,1.87
		c2.44,0.62,4.53,1.25,6.28,1.87c1.75,0.62,3.53,1.81,5.34,3.56c1.81,1.75,2.73,4,2.73,6.76c0,7.63-5.25,11.43-15.75,11.43
		c-10.5,0-15.75-2.75-15.75-8.25v-9l-16.88,1.31v26.06c7.75,3.88,19.25,5.81,34.5,5.81c10.5,0,19.16-2.66,25.97-7.97
		c6.81-5.31,10.22-12.66,10.22-22.03C380.96,107.42,378.77,101.48,374.39,96.85z"/>
	<path class="st8" d="M463.64,118.97c-7.75,5.51-15.5,8.25-23.24,8.25c-7.76,0-13.5-2.02-17.26-6.08
		c-3.75-4.06-5.81-9.41-6.18-16.03c10.5,0,19.94-1.25,28.31-3.76c4.99-1.49,9.25-3.43,12.75-5.81c3.49-2.36,6.44-5.64,8.81-9.84
		c2.37-4.19,3.56-9.03,3.56-14.53c0-8.25-2.75-14.65-8.25-19.22c-5.51-4.57-12.94-6.84-22.31-6.84c-14.63,0-26.01,4.99-34.12,14.99
		c-8.13,10-12.19,22.37-12.19,37.12c0,14.76,3.56,26.35,10.69,34.79c7.12,8.43,18.31,12.66,33.56,12.66
		c7.63,0,14.41-1.19,20.34-3.56c5.94-2.37,10.16-4.69,12.66-6.94L463.64,118.97z M422.39,69.38c3.75-5.56,9.12-8.34,16.12-8.34
		c7.5,0,11.26,3.81,11.26,11.43c0,3.88-1.95,7.22-5.81,10.04c-3.88,2.82-8.1,4.63-12.66,5.43c-4.57,0.82-9.6,1.29-15.1,1.41
		C416.58,81.6,418.65,74.94,422.39,69.38z"/>
	<path class="st8" d="M517.08,126.66V8.53h-33.56V24.1l6.56,0.37c3.12,0.26,4.69,1.76,4.69,4.5v92.45c0,3.62-1.81,5.62-5.43,6
		l-6.19,0.56v14.25h44.63v-15.01L517.08,126.66z"/>
	<path class="st8" d="M572.96,126.66V8.53H539.4V24.1l6.56,0.37c3.12,0.26,4.69,1.76,4.69,4.5v92.45c0,3.62-1.81,5.62-5.43,6
		l-6.19,0.56v14.25h44.63v-15.01L572.96,126.66z"/>
</g>
<g>
	<path class="st9" d="M583.65,51.18c0-9.16-0.01-18.33-0.01-27.49c0-1.08,1.06-0.79,2.01,0.39c20.97,25.93,41.94-3.09,62.9,24.83
		c1.46,2.02,1.03,3.82-0.56,2.42c-20.96-17.76-41.93,20.42-62.89,2.68C584.3,53.34,583.65,52.01,583.65,51.18z"/>
</g>
</svg>
