<?xml version="1.0" encoding="utf-8"?>
<!-- Generator: Adobe Illustrator 27.5.0, SVG Export Plug-In . SVG Version: 6.00 Build 0)  -->
<svg version="1.1" id="Layer_1" xmlns="http://www.w3.org/2000/svg" xmlns:xlink="http://www.w3.org/1999/xlink" x="0px" y="0px"
	 viewBox="0 0 2750 1718.8" style="enable-background:new 0 0 2750 1718.8;" xml:space="preserve">
<style type="text/css">
	.st0{fill:#009FFD;}
	.st1{opacity:0.5;enable-background:new    ;}
	.st2{fill:#B35800;stroke:#000000;stroke-width:6.54;stroke-linecap:round;stroke-linejoin:round;}
	.st3{fill:#D7D4D5;stroke:#000000;stroke-width:11;stroke-miterlimit:10;}
	.st4{fill:#D7D4D5;stroke:#000000;stroke-width:10.75;stroke-miterlimit:10;}
	.st5{fill:#F0EDEE;stroke:#000000;stroke-width:10.75;stroke-miterlimit:10;}
	.st6{fill:#D7D4D5;stroke:#000000;stroke-width:11.3;stroke-miterlimit:10;}
	.st7{fill:#FFFFFF;stroke:#000000;stroke-width:1.55;stroke-miterlimit:10;}
	.st8{opacity:0.15;enable-background:new    ;}
	.st9{fill:#FFA400;stroke:#802500;stroke-width:5.37;stroke-miterlimit:10;}
	.st10{fill:none;stroke:#802500;stroke-width:5.37;stroke-linecap:round;stroke-linejoin:round;}
	.st11{fill:#802500;}
	.st12{fill:#FFB6C1;stroke:#802500;stroke-width:5.37;stroke-miterlimit:10;}
	.st13{fill:#FFA400;stroke:#802500;stroke-width:5.37;stroke-linecap:round;stroke-linejoin:round;}
	.st14{fill:#FFA400;stroke:#802500;stroke-width:4.99;stroke-miterlimit:10;}
	.st15{opacity:0.5;fill:#802500;enable-background:new    ;}
	.st16{fill:none;stroke:#000000;stroke-width:5.37;stroke-linecap:round;stroke-linejoin:round;}
	.st17{fill:#FFD94D;}
	.st18{fill:#FFB6C1;stroke:#802500;stroke-width:5.37;stroke-linecap:round;stroke-linejoin:round;}
	.st19{fill:none;}
	.st20{fill:#BCBDC0;stroke:#000000;stroke-width:3.11;stroke-miterlimit:10;}
	.st21{fill:#BCBDC0;}
	.st22{fill:none;stroke:#000000;stroke-width:3.22;stroke-miterlimit:10;}
	.st23{fill:#BCBDC0;stroke:#000000;stroke-width:3.21;stroke-miterlimit:10;}
	.st24{fill:#BDBABB;stroke:#000000;stroke-width:3.11;stroke-miterlimit:10;}
	.st25{fill:#BDBABB;stroke:#000000;stroke-width:2.33;stroke-miterlimit:10;}
	.st26{stroke:#000000;stroke-width:1.55;stroke-miterlimit:10;}
	.st27{fill:none;stroke:#000000;stroke-width:1.55;stroke-miterlimit:10;}
	.st28{fill:none;stroke:#000000;stroke-width:5.25;stroke-linecap:round;stroke-linejoin:round;}
	.st29{opacity:0.25;fill:#FFFFFF;enable-background:new    ;}
	.st30{fill:#2A2A72;stroke:#000000;stroke-width:6.75;stroke-miterlimit:10;}
	.st31{fill:#2A2A72;stroke:#000000;stroke-width:5.37;stroke-miterlimit:10;}
</style>
<circle class="st0" cx="1971.1" cy="727.9" r="683.1"/>
<ellipse class="st1" cx="1638.8" cy="1633.5" rx="1021.2" ry="65.8"/>
<path class="st2" d="M616.9,1591h170.2c2.1,0,3.9,1.7,3.9,3.9v46.4c0,2.1-1.7,3.9-3.9,3.9H616.9c-2.1,0-3.9-1.7-3.9-3.9v-46.4
	C613,1592.7,614.7,1591,616.9,1591z"/>
<path class="st2" d="M1005,1591h170.2c2.1,0,3.9,1.7,3.9,3.9v46.4c0,2.1-1.7,3.9-3.9,3.9H1005c-2.1,0-3.9-1.7-3.9-3.9v-46.4
	C1001.1,1592.7,1002.9,1591,1005,1591z"/>
<path class="st2" d="M1681,1591h170.2c2.1,0,3.9,1.7,3.9,3.9v46.4c0,2.1-1.7,3.9-3.9,3.9H1681c-2.1,0-3.9-1.7-3.9-3.9v-46.4
	C1677.1,1592.7,1678.9,1591,1681,1591z"/>
<path class="st2" d="M2087,1591h170.2c2.1,0,3.9,1.7,3.9,3.9v46.4c0,2.1-1.7,3.9-3.9,3.9H2087c-2.1,0-3.9-1.7-3.9-3.9v-46.4
	C2083.1,1592.7,2084.9,1591,2087,1591z"/>
<path class="st3" d="M2181.6,1283.5l-989.9,3.9c56.8-170.2,113.6-340.4,170.4-510.6h945.3L2181.6,1283.5z"/>
<path class="st4" d="M1277.3,1166.6v336.9h-566v-336.9c0-35.5,27.7-64.5,61.5-64.5h443.1C1249.7,1102.1,1277.3,1131.1,1277.3,1166.6
	z"/>
<path class="st5" d="M2000.8,1283.5l-943.9,3.9c54.2-170.2,108.3-340.4,162.5-510.6h901.3C2080.7,945.7,2040.7,1114.6,2000.8,1283.5
	z"/>
<path class="st6" d="M2307.3,1166.6v382.3c0,35.5-26.4,64.5-58.8,64.5h-423.7c-32.3,0-58.8-29-58.8-64.5v-382.3
	c0-35.5,26.4-64.5,58.8-64.5h423.7C2280.9,1102.1,2307.3,1131.1,2307.3,1166.6z"/>
<path class="st5" d="M710,1310.4v128.3c0,4.3,0.4,8.7,1.3,12.9v-154.2C710.4,1301.7,710,1306,710,1310.4z"/>
<path class="st5" d="M1573.3,1245.9v257.2H774.5c-35.5,0.1-64.4-28.7-64.5-64.2c0-0.1,0-0.2,0-0.3v-128.3
	c-0.1-35.5,28.7-64.4,64.2-64.5c0.1,0,0.2,0,0.2,0H1573.3z"/>
<path class="st7" d="M1136.2,1239.8h22.4c0.3,0,0.5,0.2,0.5,0.5v4.5c0,0.3-0.2,0.5-0.5,0.5h-22.4c-0.3,0-0.5-0.2-0.5-0.5v-4.5
	C1135.7,1240.1,1135.9,1239.8,1136.2,1239.8z"/>
<path class="st4" d="M1573.3,1245.9v257.6c-0.6-0.1-1.2-0.2-1.8-0.4c-0.9-0.2-1.8-0.4-2.7-0.7c-7.7-2.3-14.7-6.2-20.6-11.6
	c-7.2-6.5-12.5-14.7-15.5-23.9c-1.2-62.2-2.4-124.4-3.6-186.7c3.5-18.8,19.2-32.9,38.3-34.4
	C1569.4,1245.7,1571.3,1245.7,1573.3,1245.9z"/>
<path class="st8" d="M1521.6,1255.2c40-80.1,30.8-137.5,39.2-137.6c11.2-0.2,46.3,95.6-0.6,172.9c-12.9,21.4-25.5,30.4-30.6,54.7
	c-11.6,55.5,35.9,97.5,30.8,100.4c-6,3.4-82-49.5-76.1-115.6C1486.7,1303.7,1500.3,1298,1521.6,1255.2z"/>
<path class="st9" d="M1343,880c-3.4,22.3-9.4,38.3-14.5,49.2c-2.6,5.5-6,12-12.1,25.2c-4.9,10.7-8.7,19.5-11.2,25.5
	c-6.2,10.6-12.6,22.3-18.7,35c-4.8,10-9.1,19.7-12.8,28.9c-2.8-2.7-5.2-5.7-7.2-9.1c-2.2-3.9-4.3-9.1-6.3-27.1
	c-0.5-4.7-1.1-11.2-1.4-19c-1.7,2.2-3.6,4.2-5.8,5.9c-1.9,1.4-3.9,2.6-6,3.5c-5,2.9-10.8,4.1-16.5,3.4c-2.7,0-5.5-0.3-8.2-0.8
	c-2.8-0.4-5.5-1.3-8-2.7c-1.9-1.2-3.7-2.6-5.3-4.3c-1.8-1.7-3.5-3.5-5-5.4c-2.5-3.5-2.9-7-3.6-15.2c-0.8-9.6-1-12-1.4-17.8
	s-0.8-11.4-1.3-17.2c-0.4-3.2-0.4-6.4,0-9.7c0.5-2.9,1.3-5.7,2.3-8.5c1.3-3.9,3-7.7,5-11.3c2.3-4,5.1-7.8,8.4-11.1
	c3.3-3.1,7-6,10.8-8.5c5-3.2,9.2-5,16.3-8.1c4.8-2.1,7.2-3.1,9.5-3.6c5.1-1.1,10.4-1.1,15.5,0c4.2,0.9,8.2,2.5,11.8,4.7
	c3,1.9,5.8,4.2,8.1,6.8c2.6,3.1,4.7,6.6,6.1,10.3c1.9,4.5,2.1,6.7,4.1,14.8c0.8,3,1.9,7.3,3.5,12.5c0.8-0.7,1.8-1.5,3-2.6
	c0,0,2-1.8,3.9-3.6c6.9-6.6,18.9-21.2,18.9-21.2C1330.5,892.4,1336.6,886,1343,880z"/>
<polyline class="st10" points="1258.8,988.5 1263.3,980.1 1264.4,975.6 1264.5,954 1264.6,926 "/>
<path class="st11" d="M1246.3,1000.6c-2.2-0.6-4.3-1.5-6.3-2.5c-2-1-4-2.2-5.8-3.7c-0.9-0.7-1.7-1.5-2.5-2.3
	c-0.8-0.8-1.6-1.7-2.2-2.7c-1.5-2-2.5-4.3-2.8-6.7c-0.2-2.3,0-4.6,0.5-6.8l1.1-6.2c0.7-4.1,1.2-8.3,1.7-12.5c0.1-0.6,0.7-1.1,1.3-1
	c0.6,0.1,1,0.6,1,1.2c-0.2,4.2-0.5,8.5-0.9,12.7l-0.7,6.3c-0.3,1.9-0.3,3.9-0.1,5.8c0.6,3.4,3.5,6.3,6.6,8.6
	c1.6,1.1,3.3,2.1,5.1,2.8c1.8,0.8,3.6,1.4,5.5,1.8c1.4,0.3,2.4,1.8,2,3.2c-0.3,1.4-1.8,2.4-3.2,2l0,0L1246.3,1000.6L1246.3,1000.6z"
	/>
<path class="st11" d="M1220,1002.8c-1.9-0.8-3.7-2-5.3-3.3c-1.6-1.4-2.9-3-3.9-4.8c-1-1.8-1.8-3.7-2.2-5.7c-0.4-2-0.5-4-0.2-6
	c0.4-3.8,1.3-7.3,2-10.9l2.3-10.7c0.1-0.6,0.7-1,1.2-0.9s1,0.7,0.9,1.2l0,0l0,0l-1.5,10.8c-0.5,3.5-1.1,7.2-1.2,10.7
	c-0.1,1.6,0.1,3.2,0.5,4.8c0.5,1.5,1.2,3,2.1,4.3c1.8,2.6,4.3,4.5,7.3,5.5c1.4,0.5,2.1,2,1.6,3.4c-0.5,1.4-2,2.1-3.4,1.6
	L1220,1002.8L1220,1002.8z"/>
<path class="st11" d="M1301.8,925.8l4,15.2c0.3,1.2-0.4,2.3-1.5,2.7c-1.1,0.3-2.3-0.3-2.6-1.4l-5-14.8c-0.5-1.4,0.2-2.9,1.6-3.5
	s2.9,0.2,3.5,1.6c0,0.1,0,0.1,0.1,0.2C1301.8,925.7,1301.8,925.8,1301.8,925.8z"/>
<path class="st9" d="M1289.2,664.9l0.1-22l0.1-44.6l0.1-23.6c0-1.3,0-3.1-0.1-5.3c-0.2-4-0.6-5.5,0.2-7.3c0.6-1.5,1.7-2.8,3-3.7
	c1.5-0.4,3.1-0.4,4.7,0c2.1,0.5,3.9,1.7,5.3,3.3l33.9,29.7l11.2,9.4"/>
<path class="st12" d="M1300.2,646.7l1.1-43.1l0.1-17.3c7.5,10.6,14.9,21.2,22.4,31.8c-4,3.6-7.8,7.4-11.2,11.5
	C1307.9,634.9,1303.8,640.6,1300.2,646.7z"/>
<path class="st8" d="M1362.2,1227.7c0,0.5-1.2,39.2-6.5,52.7c-5.6,14.2-18.5,31.4-45.8,57.3c-41.2,39.2-85.2,60-98.2,46.4
	s9.8-56.6,51.1-95.8c6-5.7,12-11,18-15.9c0.4-10.2-2.4-20.2-8-28.7c-2.3-4.9-3.8-10.2-4.4-15.6c-3.2-29.6,21.2-66,46.7-66.1
	C1340.9,1161.8,1362,1191.3,1362.2,1227.7z"/>
<path class="st13" d="M1329.9,1240.4c0,0.5-1.2,39.2-6.5,52.7c-5.6,14.2-18.5,31.4-45.8,57.3c-41.2,39.3-85.2,60-98.2,46.4
	s9.8-56.6,51.1-95.8c6-5.7,12-11,18-15.9c0.4-10.2-2.4-20.2-8-28.7c-2.3-4.9-3.8-10.2-4.4-15.6c-3.2-29.7,21.2-66,46.7-66.1
	C1308.7,1174.5,1329.8,1204,1329.9,1240.4z"/>
<path class="st14" d="M1509.2,1267.2c41.3-86,30.4-148.2,39.4-148.2c12,0,51.2,104.2,2.5,187.1c-13.4,22.9-26.7,32.5-31.7,58.6
	c-11.4,59.8,40.1,106.1,34.7,109.1c-6.3,3.6-88.5-55-83.4-126.4C1472.7,1319,1487.1,1313.2,1509.2,1267.2z"/>
<path class="st15" d="M1522.1,1353.9l-50.9,10.4c0.4,2.4,0.8,4.9,1.3,7.5c0.7,3.4,1.4,6.6,2.1,9.8l43.7-9.3
	C1518.7,1366,1519.9,1359.8,1522.1,1353.9L1522.1,1353.9z"/>
<path class="st15" d="M1480.2,1396.2l37.5-7.3c0.7,4.4,1.3,8.7,2,13.1l-33.2,6.3L1480.2,1396.2z"/>
<polygon class="st15" points="1494.3,1421.4 1523.1,1414.9 1526.1,1423.2 1500.3,1429.5 "/>
<ellipse transform="matrix(0.3686 -0.9296 0.9296 0.3686 104.8537 2209.0134)" class="st8" cx="1678.6" cy="1027.3" rx="216.5" ry="58.2"/>
<path class="st16" d="M1429.2,585.7L1419,604"/>
<path class="st13" d="M1610.5,1057.2v3.8c0,8.6,0,12.1,0,17.9s-0.1,10.4-0.1,11.8c-0.3,16.3-2.8,32.6-7.5,48.2
	c-5.1,15.3-12.5,29.7-22.1,42.7c-4.6,6.2-9.6,12.1-15,17.6c1,7,1,14,0,21c-2.5,17.5-10.6,29.3-21.2,44.5
	c-9.5,13.5-20.4,25.9-32.4,37.2c-11.9,8.8-24.4,16.9-37.3,24.2c-17.5,9.8-35.8,18.2-54.7,25.1c-4.5,3.5-8.7,7.2-12.7,11.2
	c-5.1,5-8.4,9.1-9.3,10.3c-6.5,14.5-15,28-25.2,40.1c-29.9,35.3-80.3,65-95.7,52.2c-13.8-11.3,2-54.2,16.4-78.3
	c17.5-29.2,41.7-45.2,55.5-52.8c0.1-2.2,0.3-4.6,0.5-7.1s0.6-4.8,1.1-7.3c-6.6-11.2-12.1-23-16.6-35.3c-5-13.8-8.6-28-10.6-42.6
	c-16.8-0.2-33.4-4.3-48.5-11.8c-9.2-4.7-23.2-12.2-34.6-28.1c-2.1-2.9-12.2-17.8-14.3-39.7c-2.8-28.3,9.4-50.5,18.4-67.2
	c18.2-33.6,87.5-173,91.8-186.8c3.9-12.6,5.7-22.4,8.1-35.9c2-11.5,4.5-27.1,6.1-45.9l0.1-19c-7.1-2.1-14-4.8-20.7-8.1
	c-17.2-8.5-28.2-18.7-40.1-30.1c-10.4-9.9-20.1-20.6-28.9-32l-7-9c5-9.8,10.4-19.8,16.1-29.9c10.8-19.2,21.6-37.1,32.6-53.8
	c4.1-6.8,8.9-13.3,14.4-19.2c8.8-9.5,16.8-15.1,26.2-21.7c2.4-1.6,4.8-3.3,7.6-5.1c-8.5-12.8-3.2-29.4-2.7-30.8
	c3.4,7.8,7.9,15.1,13.3,21.8c-6.3-15.8,4.9-31.5,5.9-32.9c1,9.5,3.4,18.8,7.2,27.6c-3.6-14.5,6.1-28.1,7-29.3
	c0.9,9.1,3.2,18,6.8,26.5c9.9-2.1,20.1-1.9,29.9,0.5c3.8,1,7.5,2.3,11,4c4.1-7.6,8.3-15.3,12.4-22.9c2-3.4,4-6.8,6-10.2
	c0.6-1.3,1.3-2.5,2.2-3.7c0.7-1,1.5-1.8,2.5-2.5c0.9-0.7,1.9-1.2,3-1.5c1.3-0.3,2.7-0.3,4,0.1c3.8,1,5.4,4.7,5.6,5.3l10.2,17.3
	c10.4,20.9,18.8,36.6,24.8,47.3c1.7,3.1,4.4,7.9,11.2,20c7,12.6,8.3,15.1,15.4,27.8c8.9,16,13.3,23.9,17.9,32
	c4.6,8.1,8.7,15.1,14.9,26.5c2.3,4.2,4.2,7.7,5.5,10c-4.4,5.9-8.4,10.7-11.6,14.5c-2.2,2.5-4.6,5.1-18.5,19.4
	c-3.1,3.2-5.8,5.9-7.5,7.7c1.5,2.3,3,4.5,4.5,6.8c3.1,5.4,6.3,10.8,9.4,16.5c6.2,11.3,11.9,22.3,16.9,33
	c4.4,10.2,8.7,20.7,12.8,31.5c6.7,17.1,12.8,33.8,18.3,50c4.2,14,7.4,26.6,9.9,37.5c4.4,19.2,6.7,33.8,7.4,38
	c2.2,13.5,3.7,23.6,4.4,37.5C1611,1031.3,1610.7,1032,1610.5,1057.2z"/>
<path class="st17" d="M1431,1021.2c-8.3,32.6-24.5,93.1-77.3,132.2c-12.1,9-37.4,27.7-56.6,19.1c-16.8-7.5-20.4-32.1-22.1-45
	c-1.1-7.9-1.3-15.9-0.6-23.9c3.8-36.9,20.1-71.4,40.6-116.5c17.2-37.7,19.7-44.1,28.3-60.2c22.2-41.6,33.7-62.4,49-62.5
	c21.5-0.2,37.6,40.1,40.1,46.3C1448.2,951.5,1439.1,989.3,1431,1021.2z"/>
<path class="st10" d="M1323.5,1241.7c-2.6-28.1,11.5-55.1,36-69.2"/>
<path class="st11" d="M1350.5,804.7c2-0.4,2.9,0.9,4.3,1.6s2.6,1.5,3.9,2.2c2.7,1.3,5.5,2.5,8.4,3.3c2.9,0.9,5.9,1.5,8.9,2
	c3.1,0.4,6.2,0.6,9.3,0.5c0.4,0,0.7,0.3,0.7,0.7c0,0,0,0,0,0c0,0.3-0.2,0.6-0.6,0.7c-3.2,0.7-6.4,1.2-9.6,1.3
	c-3.3,0.1-6.6-0.1-9.8-0.7c-3.3-0.6-6.5-1.4-9.6-2.6c-1.5-0.6-3.1-1.3-4.6-2c-1.4-0.8-3.2-1.2-3.8-3.2c-0.4-1.6,0.5-3.2,2-3.7
	c0.1,0,0.2-0.1,0.3-0.1L1350.5,804.7z"/>
<path class="st11" d="M1529.2,774.1c-2.1,2.6-4.3,5.1-6.6,7.5c-2.3,2.4-4.7,4.7-7.2,6.8c-4.9,4.3-10.2,8.2-15.8,11.7
	c-0.2,0.1-0.4,0.1-0.5-0.1c-0.1-0.2-0.1-0.4,0.1-0.5c5-4.1,9.7-8.5,14-13.3c2.1-2.4,4.2-4.9,6.1-7.4c1.9-2.5,3.7-5.2,5.5-7.8
	c0.8-1.2,2.5-1.6,3.8-0.7c1.2,0.8,1.6,2.5,0.7,3.8l0,0L1529.2,774.1z"/>
<polygon class="st12" points="1427.6,618.7 1435.1,603 1444.7,582.3 1453,565.8 1457.4,580.3 1478.2,639.3 1454.3,630.7 "/>
<path class="st13" d="M1493,877.3c-1.7,9.3-3.3,18.9-4.8,28.8c-1.8,12.2-3.4,24.2-4.8,35.8l-8.3-16.3c-0.5-1-1-1.9-1.5-2.8
	c-5.3-9.5-13-17.4-22.2-23.2c-7-4.3-14.7-7.3-22.8-8.7c-4.9-0.9-13-2.2-22.8,0.4c-3.8,1-7.5,2.5-11,4.5c-5.5,2.2-10.6,5.2-15.3,8.8
	c-3.6,2.8-7.3,5.6-10.9,10.5c-3.3,4.7-5.6,10-6.9,15.5c-0.9,3.6-1.4,7.3-1.7,11c-0.2,3.6-0.2,7.2,0,10.8c0.2,4.8,0.4,11.8-0.1,20.8
	c-0.3,3.5-0.3,7,0,10.5c0.1,2.9,0.7,5.8,1.6,8.5c1.2,3,2.9,5.7,5.1,8c1.7,1.9,3.6,3.6,5.8,5c3.2,2,6.9,3.2,10.6,3.7
	c2.8,0.3,5.6,0.3,8.3,0c2.9-0.1,5.8-0.5,8.7-1.3c2.9-0.9,5.6-2.2,8-4c3.3-2.4,6-5.6,7.7-9.3c0.6-1.3,1.1-2.9,1.9-10.5
	c0.4-4.6,0.7-8.5,0.9-11.8l0.7-5.8l4.4,11.4l5,13.5l5.7,15.2l6.7,17.2l5.2,14.8l5,11.8l5.2,8.2l7.7,8l6,4.3l7,2.8l6.5,2h8.8h9.4
	l8.3-2.6l10.6-6.2l6.7-6.6l6.2-9.4l3.9-12.1l2.9-11.5l4.9-18c0.9-3.1,2.2-7.9,3.8-13.7c1.2-4.7,2.2-8.4,4-15.8
	c2.7-10.6,3-12.1,4.3-17c1.5-5.8,2.9-10.4,3.8-13.5"/>
<line class="st10" x1="1483.5" y1="941.8" x2="1498.7" y2="973"/>
<line class="st10" x1="1419.3" y1="966.1" x2="1420.9" y2="938.4"/>
<path class="st11" d="M1396.2,1010.6c-2.1-0.6-4.2-1.5-6.1-2.5c-1-0.6-1.8-1.1-2.7-1.7c-0.9-0.6-1.8-1.4-2.6-2.1
	c-0.8-0.8-1.6-1.7-2.2-2.6c-0.6-0.9-1.2-1.9-1.7-2.9c-1-2-1.6-4.2-1.9-6.4c-0.1-2.2,0.1-4.4,0.6-6.5c0.4-2,0.9-3.9,1.2-5.8
	c0.8-3.9,1.4-7.8,1.8-11.7c0-0.7,0.6-1.1,1.3-1.1c0.7,0,1.1,0.6,1.1,1.3l0,0c-0.2,4-0.5,8-1.1,12c-0.3,2-0.6,4-0.9,5.9
	c-0.4,1.8-0.4,3.6-0.2,5.4c0.8,4.4,3.4,8.2,7.2,10.5c0.8,0.5,1.6,0.9,2.4,1.3c1.6,0.8,3.3,1.4,5.1,1.8c1.5,0.3,2.4,1.6,2.2,3.1
	c-0.3,1.5-1.6,2.4-3.1,2.2c-0.1,0-0.2,0-0.2-0.1L1396.2,1010.6L1396.2,1010.6z"/>
<path class="st11" d="M1365.6,1002.1c-2-11.3-1.8-22.8,0.5-34c0.1-0.7,0.8-1.2,1.5-1.1c0.7,0.1,1.2,0.8,1.1,1.5
	c-1.3,10.9-0.6,21.9,2.2,32.4c0.3,1.4-0.6,2.9-2,3.2c-1.4,0.3-2.8-0.5-3.2-1.9C1365.7,1002.3,1365.7,1002.2,1365.6,1002.1
	L1365.6,1002.1z"/>
<path class="st11" d="M1308.7,681.9c-0.3-3.9,1-7.8,3.7-10.6c5.7-6.2,15.4-6.6,21.5-0.9c0.2,0.2,0.3,0.3,0.5,0.5
	c2.9,2.8,4.4,6.7,4.2,10.7c-0.1,0.6-0.6,1-1.2,1c-0.5,0-0.8-0.3-1-0.7l0,0c-1-2.9-2.8-5.5-5.3-7.4c-2.3-1.8-5-2.7-7.9-2.7
	c-2.9,0-5.7,1-8,2.7c-2.5,1.9-4.4,4.6-5.5,7.6l0,0c-0.1,0.3-0.5,0.5-0.8,0.4C1308.9,682.3,1308.8,682.1,1308.7,681.9z"/>
<path class="st11" d="M1386.7,681.8c-0.3-4.8,1.2-9.6,4.3-13.3c1.6-2,3.7-3.5,6-4.6c2.4-1.1,5-1.5,7.6-1.3c5,0.5,9.5,2.9,12.7,6.7
	c1.5,1.8,2.7,3.9,3.5,6.1c0.7,2.2,1.1,4.5,1,6.8c0,0.3-0.3,0.6-0.6,0.6c0,0,0,0,0,0c-0.3,0-0.5-0.2-0.6-0.4l0,0
	c-0.6-2-1.5-3.9-2.6-5.6c-1.1-1.7-2.3-3.2-3.8-4.5c-2.8-2.5-6.3-4.1-10-4.3c-1.7-0.1-3.5,0.2-5.1,0.9c-1.6,0.7-3.1,1.7-4.4,3
	c-2.7,2.8-4.6,6.3-5.6,10.2l0,0c-0.2,0.6-0.8,1-1.5,0.9c0,0,0,0,0,0C1387.2,682.8,1386.8,682.3,1386.7,681.8z"/>
<path class="st18" d="M1356.9,713.3l-15.1-13.3c-0.7-0.6-0.8-1.7-0.2-2.4c0.3-0.4,0.8-0.6,1.4-0.6l29.1,0.1c0.9,0,1.7,0.8,1.7,1.7
	c0,0.5-0.2,0.9-0.5,1.2l-14.1,13.1C1358.6,713.8,1357.6,713.8,1356.9,713.3z"/>
<path class="st10" d="M1358.1,714.3l2.1,21.4c-2.3,9.2-9.2,15.9-16.5,16.6c-10.2,1-21.9-9.5-21.3-24.4"/>
<path class="st10" d="M1360.1,735.6c1.2,11.7,12.5,19.3,22.5,16.9c9.8-2.3,16.4-13.8,12.7-24.7"/>
<line class="st19" x1="1191.7" y1="1400.9" x2="1208.6" y2="1378.3"/>
<path class="st11" d="M1190,1399.7l17.5-22.1c0.4-0.5,1.2-0.6,1.7-0.2c0,0,0,0,0,0c0.5,0.4,0.6,1.1,0.2,1.7l-16.2,23
	c-0.6,0.9-1.9,1.1-2.8,0.5C1189.5,1401.9,1189.3,1400.7,1190,1399.7L1190,1399.7z"/>
<line class="st19" x1="1288.8" y1="1468" x2="1300.7" y2="1446.2"/>
<path class="st11" d="M1287,1467l12.9-21.2c0.3-0.4,0.8-0.6,1.2-0.3c0,0,0,0,0,0c0.4,0.2,0.5,0.7,0.3,1.1l-10.9,22.3
	c-0.5,1-1.7,1.4-2.7,0.9c-1-0.5-1.4-1.7-0.9-2.7L1287,1467z"/>
<line class="st19" x1="1176.9" y1="1392.4" x2="1192.9" y2="1371.5"/>
<path class="st11" d="M1175.3,1391.2l16.7-20.4c0.4-0.5,1.1-0.5,1.6-0.1c0.4,0.4,0.5,1,0.2,1.5l-15.3,21.5c-0.6,0.9-1.9,1.1-2.8,0.5
	c-0.9-0.6-1.1-1.9-0.5-2.8l0,0L1175.3,1391.2z"/>
<line class="st19" x1="1272.9" y1="1458.4" x2="1283.7" y2="1437.9"/>
<path class="st11" d="M1271.1,1457.4l11.8-20c0.2-0.4,0.8-0.6,1.2-0.4s0.6,0.8,0.4,1.2l-9.8,21c-0.4,1-1.6,1.5-2.6,1c0,0,0,0-0.1,0
	c-1-0.4-1.5-1.6-1-2.6c0,0,0,0,0,0L1271.1,1457.4z"/>
<path class="st15" d="M1546.7,811l-14.8,24.2c-0.7,1.3-0.3,2.9,0.9,3.7c0.3,0.2,0.6,0.3,1,0.3l28.5,4.7c-1.9-4.9-4.1-9.9-6.6-15.2
	C1552.8,822.5,1549.7,816.5,1546.7,811z"/>
<path class="st15" d="M1570.7,864.1l-16.4,19.6c-0.9,1.1-0.8,2.8,0.4,3.7c0.3,0.3,0.7,0.4,1.1,0.5l27,7.3c-1.6-4.4-3.3-8.9-5-13.3
	C1575.4,875.9,1573,870,1570.7,864.1z"/>
<path class="st15" d="M1590,916.9l-16.7,18.9c-1,1.1-0.9,2.8,0.2,3.7c0.2,0.2,0.5,0.4,0.8,0.5l24.4,9.7c-1.4-5.7-2.9-11.5-4.5-17.4
	C1592.9,927.1,1591.5,921.9,1590,916.9z"/>
<path class="st15" d="M1601.6,967.9c-6,5.5-11.9,10.9-17.9,16.3c-1.1,1-1.2,2.6-0.2,3.7c0.2,0.3,0.6,0.5,0.9,0.6l22.9,10.6
	c-0.8-5.5-1.8-11-2.8-16.7C1603.5,977.5,1602.6,972.7,1601.6,967.9z"/>
<path class="st15" d="M1610.2,1016.4c-3.5,2.8-7.3,5.6-11.4,8.4c-2.7,1.9-5.4,3.7-8.1,5.4c-1.2,0.7-1.6,2.3-0.9,3.6
	c0.2,0.3,0.4,0.6,0.7,0.8l20,14.5c0.1-2.4,0.2-5.4,0.2-8.9c0-1.8,0.1-5,0-8.8S1610.6,1022.5,1610.2,1016.4z"/>
<path class="st15" d="M1609.8,1066.9c-3.5,2.8-7.3,5.6-11.4,8.4c-2.4,1.7-4.8,3.3-7.1,4.8c-1.2,0.8-1.6,2.3-0.8,3.6
	c0.1,0.2,0.3,0.4,0.5,0.6l18.9,16.8c0.2-2.7,0.4-6.2,0.5-10.4c0-0.7,0.1-4,0-8.8C1610.3,1078,1610.2,1072.9,1609.8,1066.9z"/>
<path class="st15" d="M1607.6,1118.6c-3.7,1.8-7.4,3.6-11.2,5.3c-3.4,1.6-6.8,3.1-10.1,4.7c-1.3,0.6-1.9,2.1-1.4,3.4
	c0.1,0.2,0.2,0.3,0.2,0.5l12.6,18.8c1-1.9,2.2-4.5,3.5-7.5c1.5-3.7,2.7-7.5,3.7-11.4C1606.2,1127.8,1607.1,1123.2,1607.6,1118.6z"/>
<path class="st5" d="M1830.6,1613.4H588.7c-2,0-3.9-0.1-5.9-0.3c-1.7-0.2-3.5-0.4-5.2-0.8l-2.2-0.5c-0.2,0-0.5-0.2-0.8-0.2l-2.3-0.7
	c-25.8-7.6-44.8-32.6-44.8-62v-382.3c0-35.5,27.7-64.5,61.5-64.5h183.8c-33.8,0-61.5,29-61.5,64.5v130.8c-0.9,4.3-1.3,8.6-1.3,12.9
	v128.3c0,4.3,0.4,8.7,1.3,12.9v51.9h862v-336.9c0.1-35.6,28.9-64.4,64.5-64.5h192.8c-35.6,0.1-64.4,28.9-64.5,64.5v382.3
	C1766.2,1584.5,1795,1613.3,1830.6,1613.4z"/>
<path class="st7" d="M1165.8,1239.8h22.4c0.3,0,0.5,0.2,0.5,0.5v4.5c0,0.3-0.2,0.5-0.5,0.5h-22.4c-0.3,0-0.5-0.2-0.5-0.5v-4.5
	C1165.3,1240.1,1165.6,1239.8,1165.8,1239.8z"/>
<path class="st7" d="M1196.8,1239.8h22.4c0.3,0,0.5,0.2,0.5,0.5v4.5c0,0.3-0.2,0.5-0.5,0.5h-22.4c-0.3,0-0.5-0.2-0.5-0.5v-4.5
	C1196.3,1240.1,1196.5,1239.8,1196.8,1239.8z"/>
<path class="st7" d="M1227,1239.8h22.4c0.3,0,0.5,0.2,0.5,0.5v4.5c0,0.3-0.2,0.5-0.5,0.5H1227c-0.3,0-0.5-0.2-0.5-0.5v-4.5
	C1226.4,1240.1,1226.7,1239.8,1227,1239.8z"/>
<path class="st7" d="M1257.4,1239.8h22.4c0.3,0,0.5,0.2,0.5,0.5v4.5c0,0.3-0.2,0.5-0.5,0.5h-22.4c-0.3,0-0.5-0.2-0.5-0.5v-4.5
	C1256.9,1240.1,1257.1,1239.8,1257.4,1239.8z"/>
<path class="st7" d="M1288.5,1239.8h22.4c0.3,0,0.5,0.2,0.5,0.5v4.5c0,0.3-0.2,0.5-0.5,0.5h-22.4c-0.3,0-0.5-0.2-0.5-0.5v-4.5
	C1287.9,1240.1,1288.2,1239.8,1288.5,1239.8z"/>
<path class="st20" d="M786.8,1245.4h543.6c1.8,0,3.3,1.5,3.3,3.3v29.9c0,1.8-1.5,3.3-3.3,3.3H786.8c-1.8,0-3.3-1.5-3.3-3.3v-29.9
	C783.5,1246.9,784.9,1245.4,786.8,1245.4z"/>
<image style="overflow:visible;opacity:0.75;enable-background:new    ;" width="627" height="424" xlink:href="959FD4CC.png"  transform="matrix(0.9976 0 0 0.9976 578.1094 918.87)">
</image>
<path class="st21" d="M1107,1258.2H791.2c-13.1,0-25-7.6-30.4-19.6l-98.8-218.7c-3-6.6,0-14.4,6.6-17.4c1.7-0.8,3.6-1.2,5.4-1.1
	h317.3c14,0,26.8,8.3,32.5,21.1l95.3,217.3c2.9,6.7-0.2,14.4-6.9,17.3C1110.6,1257.8,1108.8,1258.2,1107,1258.2z"/>
<path class="st22" d="M1107,1258.2H791.2c-13.1,0-25-7.6-30.4-19.6l-98.8-218.7c-3-6.6,0-14.4,6.6-17.4c1.7-0.8,3.6-1.2,5.4-1.1
	h317.3c14,0,26.8,8.3,32.5,21.1l95.3,217.3c2.9,6.7-0.2,14.4-6.9,17.3C1110.6,1257.8,1108.8,1258.2,1107,1258.2z"/>
<path class="st23" d="M1097.7,1266H784.4c-13,0-24.8-7.7-30.2-19.6l-98-218.7c-3-6.6,0-14.4,6.6-17.4c1.7-0.8,3.5-1.2,5.4-1.1H983
	c14,0,26.6,8.3,32.2,21.1l94.6,217.3c2.9,6.7-0.2,14.4-6.9,17.3C1101.3,1265.6,1099.5,1266,1097.7,1266z"/>
<circle class="st24" cx="1132.9" cy="1263.7" r="18.3"/>
<path class="st25" d="M1220.1,1252h93.9c0.9,0,1.7,0.8,1.7,1.7v20.6c0,0.9-0.8,1.7-1.7,1.7h-93.9c-0.9,0-1.7-0.8-1.7-1.7v-20.6
	C1218.4,1252.7,1219.2,1252,1220.1,1252z"/>
<path class="st26" d="M1225.7,1255.6h8.4c0.5,0,1,0.4,1,1v14.9c0,0.5-0.4,1-1,1h-8.4c-0.5,0-1-0.4-1-1v-14.9
	C1224.8,1256,1225.2,1255.6,1225.7,1255.6z"/>
<path class="st26" d="M1241.1,1255.6h8.4c0.5,0,1,0.4,1,1v14.9c0,0.5-0.4,1-1,1h-8.4c-0.5,0-1-0.4-1-1v-14.9
	C1240.2,1256,1240.6,1255.6,1241.1,1255.6z"/>
<path class="st26" d="M1256.2,1255.6h8.4c0.5,0,1,0.4,1,1v14.9c0,0.5-0.4,1-1,1h-8.4c-0.5,0-1-0.4-1-1v-14.9
	C1255.2,1256,1255.7,1255.6,1256.2,1255.6z"/>
<path class="st26" d="M1271.3,1255.6h8.4c0.5,0,1,0.4,1,1v14.9c0,0.5-0.4,1-1,1h-8.4c-0.5,0-1-0.4-1-1v-14.9
	C1270.3,1256,1270.8,1255.6,1271.3,1255.6z"/>
<path class="st26" d="M1286,1255.6h8.4c0.5,0,1,0.4,1,1v14.9c0,0.5-0.4,1-1,1h-8.4c-0.5,0-1-0.4-1-1v-14.9
	C1285.1,1256,1285.5,1255.6,1286,1255.6z"/>
<path class="st26" d="M1300,1255.6h8.4c0.5,0,1,0.4,1,1v14.9c0,0.5-0.4,1-1,1h-8.4c-0.5,0-1-0.4-1-1v-14.9
	C1299.1,1256,1299.5,1255.6,1300,1255.6z"/>
<path class="st24" d="M1162.9,1258.2h34.2c0.6,0,1.2,0.5,1.2,1.2v10.1c0,0.6-0.5,1.2-1.2,1.2h-34.2c-0.6,0-1.2-0.5-1.2-1.2v-10.1
	C1161.8,1258.7,1162.3,1258.2,1162.9,1258.2z"/>
<line class="st27" x1="1170.9" y1="1264.4" x2="1188.8" y2="1264.4"/>
<path class="st2" d="M1251.7,1301.9H183.3v-18.8h1615v18.8H1251.7v-18.8"/>
<polygon class="st28" points="194.2,1303 104.3,1646.2 149.2,1646.2 536.3,1303 617.5,1646.2 550.5,1646.2 "/>
<polygon class="st28" points="1263.1,1301.9 1125.9,1645.1 1194.5,1645.1 1785.2,1301.9 1909.1,1645.1 1806.8,1645.1 "/>
<path class="st29" d="M1496.6,1084.7c3,1.6,1.3,8.7-0.4,22.6c0,0-2.4,20-2.5,38.3c-0.1,11.6,2.6,28.2,15.5,49h-61.9
	c-4.5-6.1-12.3-18.7-12.5-35.4c-0.2-9.7,2.3-16.6,6.8-29c2-5.6,12.6-35.1,19.3-33.8c6.5,1.2,6,30,8.7,30c1.8,0,0.5-13.9,8.7-27.1
	C1483.6,1090.6,1492.9,1082.7,1496.6,1084.7z"/>
<path class="st30" d="M1437.6,1270.6v5c0,3.5,2.8,6.3,6.3,6.3h69.3c3.5,0,6.3-2.8,6.3-6.3v-5c0-0.5,0-1-0.2-1.5h-81.7
	C1437.6,1269.5,1437.6,1270.1,1437.6,1270.6z"/>
<path class="st31" d="M1432.3,1194.6h92.5c3.8,0,6.9,3.1,6.9,6.9v60.6c0,3.8-3.1,6.9-6.9,6.9h-92.5c-3.8,0-6.9-3.1-6.9-6.9v-60.6
	C1425.4,1197.7,1428.5,1194.6,1432.3,1194.6z"/>
<path class="st31" d="M1552.4,1234.2c0,8.2-6.7,14.9-14.9,14.9l0,0c-2,0-4-0.4-5.8-1.2v11.2c1.9,0.5,3.8,0.7,5.8,0.7
	c14.2,0.3,25.9-11,26.1-25.1c0.3-14.2-11-25.9-25.1-26.1c-0.3,0-0.7,0-1,0c-2,0-3.9,0.2-5.8,0.7v11.2c7.5-3.2,16.3,0.3,19.5,7.8
	C1552.1,1230.2,1552.5,1232.2,1552.4,1234.2L1552.4,1234.2z"/>
</svg>
