<?xml version="1.0" encoding="utf-8"?>
<!-- Generator: Adobe Illustrator 25.4.1, SVG Export Plug-In . SVG Version: 6.00 Build 0)  -->
<svg version="1.1" id="Layer_1" xmlns="http://www.w3.org/2000/svg" xmlns:xlink="http://www.w3.org/1999/xlink" x="0px" y="0px"
	 viewBox="0 0 300 300" style="enable-background:new 0 0 300 300;" xml:space="preserve">
<style type="text/css">
	.st0{fill:#000072;stroke:#000072;stroke-width:0.8;stroke-linecap:round;stroke-linejoin:round;}
	.st1{fill:#000072;stroke:#000072;stroke-width:1.6;stroke-linecap:round;stroke-linejoin:round;}
	.st2{fill:#437FFF;stroke:#000072;stroke-width:1.6;stroke-linecap:round;stroke-linejoin:round;}
	.st3{fill:#0019A5;stroke:#000072;stroke-width:1.6;stroke-linecap:round;stroke-linejoin:round;}
	.st4{fill:none;stroke:#000072;stroke-width:0.8;stroke-linecap:round;stroke-linejoin:round;}
	.st5{fill:#76B2FF;stroke:#000072;stroke-width:0.8;stroke-linecap:round;stroke-linejoin:round;}
	.st6{fill:#FFFFFF;stroke:#000072;stroke-width:0.8;stroke-linecap:round;stroke-linejoin:round;}
	.st7{fill:#0019A5;stroke:#000072;stroke-width:0.8;stroke-linecap:round;stroke-linejoin:round;}
	.st8{fill:#FFFFFF;stroke:#000072;stroke-width:0.6;stroke-linecap:round;stroke-linejoin:round;}
	.st9{fill:none;stroke:#000072;stroke-width:0.6;stroke-linecap:round;stroke-linejoin:round;}
	.st10{fill:none;stroke:#000072;stroke-width:2.4;stroke-linecap:round;stroke-linejoin:round;}
	.st11{fill:#5C98FF;stroke:#000072;stroke-width:0.8;stroke-linecap:round;stroke-linejoin:round;}
</style>
<g>
	<path class="st0" d="M159.5,114.7c-0.6,0-1.3-0.2-1.7-0.7l-16.4-16.4c-0.9-0.9-1-2.4,0-3.4c0,0,0,0,0,0l7.6-7.6
		c0.9-0.9,2.4-0.9,3.3,0l2.4,2.3c0,0,11.1,11.1,14.1,14.2c0.9,0.9,0.9,2.4,0,3.4l-7.5,7.5C160.8,114.4,160.2,114.7,159.5,114.7z"/>
	<path class="st0" d="M151.3,89.3l2-0.7c2.6-1,5.1-2.2,7.4-3.8c3.4-2.3,5.2-4.5,9.8-9.8l0.1-0.1c5.5-6.4,7.8-9.1,9.1-10.6
		c1.2-1.4,1.3-1.5,2.2-2.6l1.9-2.3c2.1-2.6,4.4-5.3,7.7-9.1c1.9-2.3,3.8-4.4,6-6.4c1.1-1,2-1.7,2.7-2.3l0.1-0.1
		c3.8-3.1,5.7-4.6,7.9-5c0.6-0.1,1.2-0.2,1.9-0.2c2.4-0.1,4.8,0.8,6.6,2.5c3.4,3.3,2.6,8.1,2.5,8.6c-0.4,2.1-2,4.1-5,7.9l-0.1,0.1
		c-0.5,0.7-1.3,1.6-2.3,2.7c-2,2.1-4.1,4.1-6.4,6c-3.8,3.3-6.5,5.5-9.2,7.7c-0.8,0.6-1.5,1.3-2.3,1.9c-1.1,0.9-1.2,1-2.6,2.2
		c-1.4,1.2-4.1,3.6-10.6,9.1l-0.1,0.1c-5.3,4.5-7.5,6.4-9.8,9.7c-1.6,2.3-2.9,4.8-3.8,7.4l-0.7,2L151.3,89.3z M208.4,46.5
		c-1.1,0-3.4,1-5.6,3.3c-1.2,1.2-2.2,2.6-2.9,4.2c-0.5,1.1-0.4,1.7-0.2,1.8c0.1,0.1,0.2,0.1,0.4,0.1c1.1,0,3.4-1,5.6-3.3
		c1.2-1.2,2.2-2.6,2.9-4.2c0.5-1.1,0.4-1.7,0.2-1.8S208.6,46.5,208.4,46.5z"/>
	<path class="st0" d="M119.7,127.4l1.2-1.7l-1.7,1.2l-5.4-5.4l14.8-13.3l0.7,1.8c0.4,1,0.9,1.9,1.7,2.7c1.5,1.7,3.3,2.3,5.4,2.9
		c2.1,0.5,4.2,1.5,6,2.7c2.3,1.7,4.1,4,5.2,6.6l0.4,0.9l-14.2,15.6L119.7,127.4z"/>
	<path class="st0" d="M145.1,126.1c-0.9-2.2-2.4-4.1-4.3-5.5c-1.6-1.1-3.3-1.8-5.2-2.3c-2.3-0.7-4.6-1.4-6.7-3.7
		c-0.9-1-1.7-2.2-2.2-3.5l-0.3-0.9l13.1-11.9l3.2-3.2l17.4,17.4l-3.2,3.2L146,128L145.1,126.1z"/>
	<path class="st1" d="M124.9,172.8c-14.1,0-35.8-3.7-37.2-11.5c0-0.2-0.1-0.3-0.1-0.5c-0.4-4,4.1-7.9,13.8-11.9c9.7-4,18.1-4,23.7-4
		h0.2c12.3,0,20.5,2.6,24.4,4.2c9.5,3.9,14.2,9,13.7,11.8c-0.1,0.9-0.4,1.8-1,2.6c-0.4,0.5-0.8,0.9-1.3,1.4l-0.1,0.1
		c-1.4,1.2-3.1,2.1-4.8,2.8c-1.3,0.5-2.7,1-4,1.4c-2.6,0.8-4.8,1.3-6.2,1.6c-3.2,0.6-6.4,1.2-9.7,1.5c-3.3,0.4-6.8,0.6-10.2,0.6
		L124.9,172.8z"/>
	<path class="st1" d="M125.6,247c-12.8,0-25.4-3.6-36.3-10.2c-0.3-0.1-0.5-0.2-0.8-0.4c-0.5-0.4-0.9-1.1-0.9-1.8v-74l4.1-0.1
		c0.2,3.2,15.5,8.3,33.2,8.3h1.1c1,0,2.1,0,3.1-0.1c17.3-0.8,30.1-5.4,30.2-8.1l4.1,0.1l-0.3,75.5l-1,0.6
		c-10.5,6.5-22.5,10-34.8,10.4L125.6,247z"/>
	<path class="st0" d="M87.2,162.5h2c1.4,0,2.6,1.1,2.6,2.6v6.9c0,1.4-1.1,2.6-2.6,2.6h-2c-1.4,0-2.6-1.1-2.6-2.6v-6.9
		C84.6,163.7,85.8,162.5,87.2,162.5z"/>
	<path class="st0" d="M161.9,161.1h2c1.4,0,2.6,1.1,2.6,2.6v6.9c0,1.4-1.1,2.6-2.6,2.6h-2c-1.4,0-2.6-1.1-2.6-2.6v-6.9
		C159.4,162.3,160.5,161.1,161.9,161.1z"/>
	<path class="st2" d="M161.4,160.6c-0.1,0.6-0.3,1.1-0.6,1.6c-0.3,0.3-1,1.1-1.1,1.2l-0.1,0.1c-0.4,0.4-1.4,1.2-4.2,2.3
		c-1.3,0.5-2.5,1-3.8,1.4c-2.5,0.7-4.6,1.2-6,1.5c-3.7,0.7-6.9,1.2-9.5,1.5c-2.8,0.3-6.1,0.6-10,0.6h-0.5
		c-16.1,0.1-34.8-4.3-35.8-9.9c0-0.1,0-0.2-0.1-0.3c-0.4-4.4,10.2-8.8,12.6-9.8c9.1-3.7,17.1-3.8,22.9-3.8c13.4,0,21.6,3.1,23.8,4
		C158.7,154.9,161.6,159.4,161.4,160.6z"/>
	<path class="st3" d="M161.4,160.6c-0.1,24.8-0.2,49.6-0.3,74.3c-21.8,13.4-49.2,13.4-71,0c-0.1,0-0.2,0-0.2-0.1
		c-0.1,0-0.1-0.1-0.1-0.2v-74c0.3,5.8,19.5,10.3,35.9,10.2h0.5c1.1,0,2.2,0,3.2-0.1C143.6,170,161.1,166,161.4,160.6z"/>
	<path class="st4" d="M152.6,160.1c-0.1,0.4-0.2,0.8-0.4,1.2c-0.2,0.2-0.7,0.8-0.9,0.9l-0.1,0.1c-0.9,0.8-2,1.3-3.1,1.7
		c-1.2,0.5-2.2,0.9-2.9,1c-1.9,0.6-3.4,0.9-4.6,1.1c-2.8,0.6-5.2,0.9-7.2,1.1c-2,0.2-4.6,0.4-7.5,0.5h-0.4
		c-12.1,0.2-26.1-3.1-27-7.4c0-0.1,0-0.1,0-0.2c-0.3-3.4,7.7-6.7,9.5-7.4c6.8-2.8,12.9-2.9,17.2-2.9c10.1,0,16.3,2.4,17.9,3
		C150.5,155.9,152.7,159.3,152.6,160.1z"/>
	<path class="st5" d="M102.4,167.2c-0.8-0.7-1.5-1.5-2.1-2.3c-0.8-1.3-1.4-2.8-1.8-4.4c3.2-2.2,6.6-4,10.2-5.3
		c5.3-1.9,10.9-2.8,16.5-2.7h0.1c3.6,0,7.2,0.3,10.8,1c2.1,0.4,4.2,1,6.3,1.8c3.6,1.3,7,3,10.2,5.2c-0.1,1.4-0.7,2.6-1.6,3.7
		c-1.5,1.6-3.6,1.9-5.2,2.2c-5.9,1-3.2,1.5-10.9,2.9C119.5,171.9,105.8,170.1,102.4,167.2z"/>
	<path class="st6" d="M154.1,223c-18.3,7.1-38.6,7.1-57,0v-26.7c9.4,1.6,18.9,2.4,28.5,2.4c9.5,0,19.1-0.8,28.5-2.4V223z"/>
	<path class="st5" d="M161.4,160.9c0,3.9,0,7.9-0.1,11.8c-1.5,6.9-3.5,12.8-6.2,13c-3.5,0.2-6.3-9.4-8.4-8.8
		c-2.7,0.8,0.4,12.7-3.1,14.3c-4.3,1.9-12.9-14.1-19.5-12.1c-4.6,1.4-4.6,10.4-7.7,10.5c-4,0.1-7.1-14.1-10-13.6
		c-1.2,0.2-1.1,2.7-3.9,7.4c-1.7,2.8-2.7,4.5-4,4.7c-3.5,0.5-7.5-9.9-8.8-13.3l0.1-14l8.8-0.8c0.4,0.9,1,1.8,1.7,2.5
		c0.5,0.5,1.4,1.2,4.8,2.3c2,0.6,3.7,1,4.8,1.3c1.2,0.3,3,0.6,5.3,0.9c3.2,0.4,6.4,0.6,9.6,0.7c1.6,0,3.1,0,4.4-0.1
		c1.1-0.1,4.1-0.3,7.9-0.9c0.7-0.1,3.2-0.5,6.4-1.3c1.3-0.3,2.6-0.7,3.8-1.2c1.2-0.4,2.3-1,3.2-1.8c0.8-0.7,1.4-1.5,1.9-2.4
		L161.4,160.9z"/>
	<path class="st4" d="M89.7,160.6c1.4,2.1,3.1,4,5.1,5.6c1.6,1.3,4.7,3.4,12.4,5.2c6,1.3,12,1.9,18.1,1.8c5.6,0.1,11.1-0.3,16.6-1.4
		c8.1-1.6,11.5-3.7,12.5-4.4c2.7-1.7,5-3.9,6.9-6.5"/>
	<path class="st7" d="M215.5,39.8c-2.9-2.8-6.9-2-7.3-2c-1.8,0.4-3.6,1.8-7.3,4.7c-0.7,0.5-1.6,1.3-2.7,2.3c-2.1,2-4,4.1-5.9,6.3
		c-4.3,5-6.8,8.1-9.5,11.4c-1.8,2.2-0.5,0.6-11.3,13.2c-4.6,5.4-6.5,7.7-10.1,10.1c-2.4,1.6-5,3-7.7,4l11.8,11.8
		c1-2.7,2.3-5.3,4-7.7c2.4-3.5,4.7-5.5,10.1-10.1c12.7-10.9,10.9-9.5,13.2-11.4c3.3-2.7,6.5-5.3,11.4-9.5c2.2-1.8,4.3-3.8,6.3-5.9
		c1-1.1,1.7-2,2.3-2.7c2.9-3.6,4.4-5.5,4.7-7.3C217.6,46.9,218.4,42.7,215.5,39.8z M206.6,53.6c-3.1,3.1-6.6,4.5-8,3.2
		s0.1-4.9,3.2-8c3.1-3.1,6.6-4.5,8-3.2C211.1,46.9,209.7,50.5,206.6,53.6z"/>
	<path class="st5" d="M141.7,119.5c-4.3-3.1-8.4-2.1-11.7-5.8c-0.8-0.9-1.5-2-1.9-3.1l-12.2,11.1l3.5,3.5l7.5-5.1l-5.4,7.2l6.6,6.6
		l2.1,2.1l3.5,3.5l12.6-14C145.4,123.1,143.8,121,141.7,119.5z"/>
	<path class="st6" d="M140.5,99.3l-12.5,11.3c0.4,1.1,1.1,2.2,1.9,3.1c3.3,3.6,7.4,2.7,11.7,5.8c2.1,1.6,3.7,3.7,4.7,6.1l9.7-10.7
		l2.3-2.3L142.8,97L140.5,99.3z"/>
	<path class="st8" d="M130.3,114l15-14.5"/>
	<path class="st8" d="M147,101.2l-14.5,14.4"/>
	<line class="st9" x1="134.9" y1="116.6" x2="148.6" y2="102.8"/>
	<line class="st9" x1="137.4" y1="117.4" x2="150.3" y2="104.5"/>
	<line class="st9" x1="140.1" y1="118.5" x2="151.9" y2="106.2"/>
	<line class="st9" x1="142.3" y1="119.9" x2="153.8" y2="108"/>
	<line class="st9" x1="144" y1="121.7" x2="155.5" y2="109.7"/>
	<path class="st7" d="M149.9,87.6l-7.6,7.6c-0.4,0.4-0.4,1,0,1.4l0.5,0.5l15.5,15.5l0.5,0.5c0.4,0.4,1,0.4,1.4,0c0,0,0,0,0,0
		l7.5-7.5c0.4-0.4,0.4-1,0-1.4c-3-3.1-14.1-14.2-14.1-14.2l-2.4-2.3C151,87.2,150.3,87.2,149.9,87.6z"/>
	<ellipse cx="145.6" cy="258.8" rx="63.7" ry="4.9"/>
	<path d="M102.2,209.9c0-6.3,3.5-10.3,8.7-9.7c3.3,0.3,5.7,2,7.4,5.4c-1.3,1-2,1.4-3.2,2.3c-0.7-1.9-2.4-3.2-4.4-3.5
		c-3.2-0.4-5.3,2.2-5.4,6.3c-0.1,4.1,1.5,7.7,4.7,8.5c2.3,0.5,3.8-0.7,5-2.5c1.2,1.2,1.9,1.8,3.2,3c-2,3-5,4.5-8.4,3.7
		C104.7,222,102.2,216.2,102.2,209.9z"/>
	<path d="M120,220c1.5-0.8,2.3-1.2,3.8-2.1c1,1.7,2.4,3,4.7,2.9c2-0.1,3.1-1.2,3.1-2.6c-0.1-1.7-1.3-2.1-3.4-3l-1.2-0.5
		c-3.4-1.4-5.5-3.5-5.4-7.4c-0.1-3.5,2.7-6.3,6.2-6.4c0.1,0,0.2,0,0.3,0c2.6-0.2,5,1.2,6,3.6c-1.2,1.1-1.9,1.6-3.2,2.6
		c-0.8-1.4-1.6-2-2.8-2c-1.1,0-2.1,0.9-2.1,2c0,0,0,0.1,0,0.1c0,1.5,0.9,2.1,2.8,2.9l1.1,0.5c3.8,1.6,5.8,3.1,6,7.1
		c0.2,4.3-2.6,7.2-7.2,7.4C125,225.5,121.5,223.4,120,220z"/>
	<path d="M137.4,219.2c1.3-1.1,1.9-1.7,3-2.8c0.9,1.5,2,2.4,3.6,2c1.3-0.3,2.1-1.5,2.1-2.8c0-1.5-0.9-1.8-2.5-2.4l-0.9-0.3
		c-2.6-0.9-4.6-2.5-4.8-6.3c-0.2-3.5,2-6.4,5.1-6.8c2.3-0.3,3.8,0.5,4.9,2.8c-1,1.1-1.5,1.6-2.5,2.7c-0.6-1.3-1.3-1.7-2.3-1.6
		c-1,0.2-1.7,1.2-1.6,2.2c0.1,1.4,0.8,1.8,2.3,2.4l0.9,0.3c2.9,1.1,4.1,2.3,4.1,6c0,4-1.6,6.8-4.7,7.7
		C141.2,223.4,138.7,221.8,137.4,219.2z"/>
	<path class="st10" d="M86.7,168.4H81c-1.3,26,19.5,47.7,44.4,47.9c25.5,0.1,46.9-22.5,44.8-49l-5.8-0.1"/>
	<path class="st11" d="M87.2,164.6h2c0.3,0,0.5,0.2,0.5,0.5v6.9c0,0.3-0.2,0.5-0.5,0.5h-2c-0.3,0-0.5-0.2-0.5-0.5v-6.9
		C86.7,164.8,86.9,164.6,87.2,164.6z"/>
	<path class="st11" d="M161.9,163.2h2c0.3,0,0.5,0.2,0.5,0.5v6.9c0,0.3-0.2,0.5-0.5,0.5h-2c-0.3,0-0.5-0.2-0.5-0.5v-6.9
		C161.4,163.4,161.6,163.2,161.9,163.2z"/>
</g>
</svg>
