<svg id="Layer_1" data-name="Layer 1" xmlns="http://www.w3.org/2000/svg" viewBox="0 0 198.14 283.68"><defs><style>.cls-1,.cls-2{fill:#000072;}.cls-1,.cls-10,.cls-11,.cls-2,.cls-3,.cls-4,.cls-5,.cls-6,.cls-7,.cls-8,.cls-9{stroke:#000072;stroke-linecap:round;stroke-linejoin:round;}.cls-1,.cls-11,.cls-5,.cls-6,.cls-7,.cls-8{stroke-width:0.8px;}.cls-2,.cls-3,.cls-4{stroke-width:1.6px;}.cls-3{fill:#437fff;}.cls-4,.cls-8{fill:#0019a5;}.cls-10,.cls-5{fill:none;}.cls-6{fill:#76b2ff;}.cls-7,.cls-9{fill:#fff;}.cls-9{stroke-width:0.6px;}.cls-10{stroke-width:2.4px;}.cls-11{fill:#5c98ff;}</style></defs><title>CSS Illustration</title><path class="cls-1" d="M115.58,97.51a2.75,2.75,0,0,1-2-.82L94.31,77.4a2.79,2.79,0,0,1,0-4l8.87-8.88a2.79,2.79,0,0,1,3.91,0l2.81,2.68s13,13.07,16.54,16.68a2.81,2.81,0,0,1,0,3.94l-8.86,8.86A2.78,2.78,0,0,1,115.58,97.51Z"/><path class="cls-1" d="M105.89,67.73l2.34-.86a40.09,40.09,0,0,0,8.68-4.48c4-2.71,6.16-5.28,11.45-11.47l.06-.08c6.44-7.52,9.2-10.73,10.65-12.4s1.54-1.79,2.6-3.07l2.23-2.72c2.52-3.06,5.13-6.23,9-10.73a83.61,83.61,0,0,1,7-7.52c1.29-1.18,2.35-2,3.13-2.65l.12-.1c4.48-3.59,6.72-5.38,9.24-5.89a12.25,12.25,0,0,1,2.2-.19,10.89,10.89,0,0,1,7.75,2.95c4,3.92,3,9.47,2.9,10.09-.5,2.52-2.3,4.76-5.88,9.24l-.1.12c-.62.78-1.47,1.84-2.66,3.13a82.33,82.33,0,0,1-7.52,7c-4.5,3.84-7.68,6.45-10.75,9-.91.74-1.79,1.47-2.69,2.22-1.28,1-1.46,1.21-3.07,2.59s-4.87,4.2-12.41,10.65l-.08.07c-6.19,5.29-8.75,7.48-11.46,11.44a40.1,40.1,0,0,0-4.48,8.68l-.87,2.34Zm67.05-50.26c-1.31,0-3.94,1.2-6.59,3.86a15.73,15.73,0,0,0-3.46,4.91c-.53,1.32-.42,2-.29,2.17s.2.1.49.1c1.31,0,3.94-1.2,6.59-3.86a15.73,15.73,0,0,0,3.46-4.91c.53-1.32.42-2,.29-2.17S173.23,17.47,172.94,17.47Z"/><path class="cls-1" d="M68.89,112.46l1.44-1.95-2,1.38L62,105.61,79.33,90l.85,2.14a10.28,10.28,0,0,0,1.94,3.18c1.81,2,3.93,2.65,6.39,3.38a22,22,0,0,1,7.06,3.17,18.82,18.82,0,0,1,6.05,7.77l.43,1L85.4,129Z"/><path class="cls-1" d="M98.7,110.91a15.77,15.77,0,0,0-5-6.48,18.85,18.85,0,0,0-6.1-2.69c-2.68-.8-5.44-1.63-7.85-4.3a13.86,13.86,0,0,1-2.54-4.15l-.41-1L92.21,78.32,96,74.54,116.46,95l-3.77,3.77-13,14.36Z"/><path class="cls-2" d="M75,165.73c-16.6,0-42-4.3-43.7-13.53a4.77,4.77,0,0,1-.09-.6c-.46-4.71,4.85-9.27,16.23-13.95S68.69,133,75.22,133h.2c14.38,0,24.1,3.06,28.61,4.88,11.19,4.52,16.66,10.53,16.12,13.89a6.43,6.43,0,0,1-1.16,3,20.32,20.32,0,0,1-1.47,1.59l-.15.15a18.48,18.48,0,0,1-5.67,3.23,49.61,49.61,0,0,1-4.72,1.67c-3.1.94-5.65,1.49-7.3,1.83-3.71.76-7.54,1.36-11.4,1.78s-8,.69-12,.76Z"/><path class="cls-2" d="M75.73,252.8a82.18,82.18,0,0,1-42.61-12,2.88,2.88,0,0,1-.89-.49,2.69,2.69,0,0,1-1-2.09v-86.9l4.79-.14c.23,3.74,18.16,9.7,39,9.7h1.25c1.22,0,2.45,0,3.65-.12,20.35-.94,35.29-6.36,35.45-9.56l4.8.13-.41,88.56-1.13.7a82.27,82.27,0,0,1-40.89,12.15Z"/><rect class="cls-1" x="27.68" y="153.67" width="8.34" height="14.1" rx="3"/><rect class="cls-1" x="115.39" y="152.05" width="8.34" height="14.1" rx="3"/><path class="cls-3" d="M117.78,151.36a4.3,4.3,0,0,1-.68,1.87c-.31.4-1.15,1.24-1.28,1.38l-.15.14c-.47.46-1.61,1.36-4.88,2.71a46.42,46.42,0,0,1-4.5,1.59c-2.93.88-5.34,1.42-7.09,1.78-4.29.87-8.12,1.41-11.18,1.74-3.23.36-7.19.67-11.74.75h-.56c-18.85.13-40.79-5-42-11.56a2.87,2.87,0,0,1-.06-.4c-.51-5.22,12-10.37,14.75-11.49,10.68-4.38,20.11-4.49,26.84-4.5,15.68,0,25.35,3.68,27.9,4.71C114.61,144.71,118,150.05,117.78,151.36Z"/><path class="cls-4" d="M117.78,151.36q-.21,43.62-.4,87.23a79.39,79.39,0,0,1-83.34,0,.47.47,0,0,1-.29-.1.3.3,0,0,1-.11-.23v-86.9c.4,6.76,22.85,12.09,42.08,12h.56c1.29,0,2.55,0,3.79-.12C96.9,162.42,117.46,157.78,117.78,151.36Z"/><path class="cls-5" d="M107.43,150.87a3.33,3.33,0,0,1-.51,1.41c-.24.29-.87.93-1,1l-.11.1a11.59,11.59,0,0,1-3.68,2c-1.43.59-2.61,1-3.4,1.21-2.2.66-4,1.06-5.34,1.33-3.23.66-6.12,1.07-8.43,1.32s-5.42.5-8.85.56h-.43C61.5,160,45,156.12,44,151.16c0-.08,0-.17,0-.29-.39-3.94,9.07-7.83,11.12-8.66,8-3.31,15.16-3.39,20.24-3.4,11.82,0,19.11,2.77,21,3.55C105,145.85,107.59,149.88,107.43,150.87Z"/><path class="cls-6" d="M48.53,159.15a15.45,15.45,0,0,1-2.46-2.71A15.84,15.84,0,0,1,44,151.32a51.53,51.53,0,0,1,12-6.21A53.35,53.35,0,0,1,75.35,142h.14a65.26,65.26,0,0,1,12.63,1.17,51.37,51.37,0,0,1,7.36,2.08,54.39,54.39,0,0,1,12,6.06,7.54,7.54,0,0,1-1.85,4.31c-1.77,1.92-4.26,2.24-6.1,2.55-6.91,1.14-3.8,1.8-12.77,3.35C68.6,164.65,52.51,162.54,48.53,159.15Z"/><path class="cls-7" d="M109.27,224.62a92.37,92.37,0,0,1-66.85,0V193.31a198.66,198.66,0,0,0,33.43,2.83,198.53,198.53,0,0,0,33.42-2.83Z"/><path class="cls-6" d="M117.78,151.82q0,6.92-.07,13.83c-1.75,8.12-4.14,15.07-7.33,15.25-4.1.22-7.43-11-9.89-10.28-3.11.95.44,14.94-3.64,16.8-5,2.27-15.16-16.52-22.87-14.2-5.38,1.61-5.41,12.23-9,12.29-4.75.08-8.35-16.53-11.72-15.94-1.4.24-1.31,3.21-4.61,8.74-1.95,3.27-3.16,5.26-4.71,5.47-4.09.55-8.82-11.63-10.27-15.56l.06-16.46L44,150.87a9,9,0,0,0,2,2.88c.57.54,1.61,1.39,5.69,2.72,2.33.76,4.29,1.23,5.68,1.54s3.49.72,6.27,1.09a89.65,89.65,0,0,0,11.3.78c1.88,0,3.62,0,5.22-.13,1.29-.08,4.77-.3,9.31-1,.83-.13,3.78-.62,7.47-1.54a32.15,32.15,0,0,0,4.49-1.43,12.53,12.53,0,0,0,3.79-2.06,9.49,9.49,0,0,0,2.21-2.82Z"/><path class="cls-5" d="M33.64,151.36a27.64,27.64,0,0,0,6,6.58c1.88,1.49,5.48,3.95,14.6,6.05a98.44,98.44,0,0,0,21.28,2.17A92.42,92.42,0,0,0,95,164.57c9.49-1.87,13.49-4.35,14.7-5.14a31.85,31.85,0,0,0,8.06-7.61"/><path class="cls-8" d="M181.22,9.66c-3.35-3.28-8.14-2.4-8.52-2.33-2.13.43-4.27,2.14-8.55,5.57-.8.64-1.85,1.47-3.17,2.68A81.1,81.1,0,0,0,154.09,23c-5,5.84-8,9.53-11.19,13.43-2.16,2.62-.57.66-13.26,15.49-5.42,6.35-7.67,9-11.82,11.83a42.65,42.65,0,0,1-9,4.66l13.85,13.85a41.27,41.27,0,0,1,4.66-9c2.84-4.16,5.47-6.4,11.82-11.83C154,48.68,152,50.27,154.62,48.1c3.9-3.22,7.58-6.19,13.42-11.18a81.14,81.14,0,0,0,7.38-6.9c1.22-1.32,2.05-2.38,2.69-3.17,3.43-4.28,5.14-6.42,5.56-8.55C183.74,18,184.64,13,181.22,9.66ZM170.81,25.79c-3.62,3.62-7.8,5.3-9.35,3.75s.14-5.72,3.76-9.35,7.8-5.29,9.35-3.75S174.43,22.16,170.81,25.79Z"/><path class="cls-6" d="M94.63,103.14c-5-3.6-9.85-2.5-13.7-6.78a12.16,12.16,0,0,1-2.24-3.66l-14.33,13,4.15,4.15,8.8-6L71,112.3,78.7,120l2.49,2.49,4.15,4.15,14.82-16.39A17.07,17.07,0,0,0,94.63,103.14Z"/><path class="cls-7" d="M93.31,79.48,78.69,92.7a12.16,12.16,0,0,0,2.24,3.66c3.85,4.28,8.74,3.18,13.7,6.78a17.07,17.07,0,0,1,5.53,7.12l11.37-12.57L114.2,95,96,76.81Z"/><path class="cls-9" d="M81.23,96.68,98.79,79.62"/><path class="cls-9" d="M100.85,81.68l-17,16.95"/><line class="cls-9" x1="86.64" y1="99.78" x2="102.8" y2="83.62"/><line class="cls-9" x1="89.67" y1="100.71" x2="104.78" y2="85.6"/><line class="cls-9" x1="92.78" y1="101.99" x2="106.66" y2="87.55"/><line class="cls-9" x1="95.35" y1="103.69" x2="108.83" y2="89.66"/><line class="cls-9" x1="97.4" y1="105.74" x2="110.87" y2="91.69"/><path class="cls-8" d="M104.32,65.7l-8.88,8.88a1.21,1.21,0,0,0,0,1.69l.54.54L114.2,95l.54.54a1.19,1.19,0,0,0,1.69,0l8.86-8.86a1.2,1.2,0,0,0,0-1.69c-3.56-3.61-16.51-16.64-16.51-16.64L106,65.69A1.19,1.19,0,0,0,104.32,65.7Z"/><ellipse cx="99.2" cy="266.63" rx="74.74" ry="5.76"/><path d="M48.26,209.23c0-7.41,4.09-12.08,10.16-11.43,3.83.41,6.7,2.34,8.68,6.32-1.53,1.13-2.29,1.67-3.78,2.73a6.56,6.56,0,0,0-5.14-4.14c-3.81-.51-6.17,2.64-6.32,7.42s1.75,9.09,5.49,9.93c2.67.61,4.45-.78,5.85-2.91,1.44,1.41,2.18,2.11,3.74,3.49-2.29,3.5-5.87,5.29-9.83,4.29C51.22,223.44,48.26,216.65,48.26,209.23Z"/><path d="M69.18,221.13c1.76-.93,2.66-1.43,4.48-2.46,1.17,2,2.83,3.54,5.57,3.42,2.29-.1,3.63-1.41,3.59-3-.06-2-1.48-2.5-4-3.56l-1.37-.58c-4-1.69-6.47-4.06-6.37-8.71a7.38,7.38,0,0,1,7.57-7.51,7.16,7.16,0,0,1,7.1,4.23c-1.44,1.24-2.18,1.86-3.71,3.08-.91-1.7-1.85-2.36-3.32-2.32a2.41,2.41,0,0,0-2.48,2.49c0,1.72,1,2.43,3.28,3.41l1.31.55c4.45,1.87,6.78,3.6,7,8.28.22,5-3,8.48-8.42,8.74A10.14,10.14,0,0,1,69.18,221.13Z"/><path d="M89.65,220.22c1.48-1.31,2.19-2,3.55-3.28,1,1.73,2.3,2.85,4.2,2.34A3.21,3.21,0,0,0,99.82,216c0-1.8-1-2.17-2.88-2.83l-1-.36c-3-1-5.36-2.88-5.58-7.38-.2-4.15,2.29-7.52,6-8,2.65-.34,4.49.55,5.73,3.32-1.14,1.26-1.71,1.9-2.89,3.18-.71-1.5-1.48-2-2.65-1.84a2.38,2.38,0,0,0-1.89,2.62c.07,1.62.92,2.16,2.67,2.82l1,.38c3.37,1.25,4.83,2.71,4.83,7,0,4.65-1.89,8-5.47,9.08S91.17,223.21,89.65,220.22Z"/><path class="cls-10" d="M30.08,160.56H23.46c-1.55,30.49,22.94,56,52.1,56.17,29.87.16,55-26.35,52.59-57.54l-6.82-.09"/><rect class="cls-11" x="30.08" y="156.07" width="3.54" height="9.29" rx="0.59"/><rect class="cls-11" x="117.79" y="154.45" width="3.54" height="9.29" rx="0.6"/></svg>