<svg id="Layer_1" data-name="Layer 1" xmlns="http://www.w3.org/2000/svg" viewBox="0 0 300 300"><defs><style>.cls-1,.cls-2{fill:#000072;}.cls-1,.cls-10,.cls-11,.cls-12,.cls-2,.cls-3,.cls-4,.cls-5,.cls-6,.cls-7,.cls-8,.cls-9{stroke:#000072;stroke-linecap:round;stroke-linejoin:round;}.cls-1,.cls-12,.cls-5,.cls-6,.cls-7,.cls-8{stroke-width:0.8px;}.cls-2,.cls-3,.cls-4{stroke-width:1.6px;}.cls-3{fill:#437fff;}.cls-4,.cls-8{fill:#0019a5;}.cls-10,.cls-11,.cls-5{fill:none;}.cls-6{fill:#76b2ff;}.cls-7,.cls-9{fill:#fff;}.cls-10,.cls-9{stroke-width:0.6px;}.cls-11{stroke-width:2.4px;}.cls-12{fill:#5c98ff;}</style></defs><path class="cls-1" d="M159.5,114.7a2.19,2.19,0,0,1-1.7-.7L141.4,97.6a2.38,2.38,0,0,1,0-3.4h0l7.6-7.6a2.35,2.35,0,0,1,3.3,0l2.4,2.3s11.1,11.1,14.1,14.2a2.48,2.48,0,0,1,0,3.4l-7.5,7.5A2.87,2.87,0,0,1,159.5,114.7Z"/><path class="cls-1" d="M151.3,89.3l2-.7a34.51,34.51,0,0,0,7.4-3.8c3.4-2.3,5.2-4.5,9.8-9.8l.1-.1c5.5-6.4,7.8-9.1,9.1-10.6s1.3-1.5,2.2-2.6l1.9-2.3c2.1-2.6,4.4-5.3,7.7-9.1a60.58,60.58,0,0,1,6-6.4c1.1-1,2-1.7,2.7-2.3l.1-.1c3.8-3.1,5.7-4.6,7.9-5a11.08,11.08,0,0,1,1.9-.2,9.11,9.11,0,0,1,6.6,2.5c3.4,3.3,2.6,8.1,2.5,8.6-.4,2.1-2,4.1-5,7.9l-.1.1a34,34,0,0,1-2.3,2.7,73.13,73.13,0,0,1-6.4,6c-3.8,3.3-6.5,5.5-9.2,7.7-.8.6-1.5,1.3-2.3,1.9-1.1.9-1.2,1-2.6,2.2s-4.1,3.6-10.6,9.1l-.1.1c-5.3,4.5-7.5,6.4-9.8,9.7a30.5,30.5,0,0,0-3.8,7.4l-.7,2Zm57.1-42.8c-1.1,0-3.4,1-5.6,3.3a13.71,13.71,0,0,0-2.9,4.2c-.5,1.1-.4,1.7-.2,1.8s.2.1.4.1c1.1,0,3.4-1,5.6-3.3a13.71,13.71,0,0,0,2.9-4.2c.5-1.1.4-1.7.2-1.8A.6.6,0,0,0,208.4,46.5Z"/><path class="cls-1" d="M119.7,127.4l1.2-1.7-1.7,1.2-5.4-5.4,14.8-13.3.7,1.8a7.71,7.71,0,0,0,1.7,2.7c1.5,1.7,3.3,2.3,5.4,2.9a19.09,19.09,0,0,1,6,2.7,16,16,0,0,1,5.2,6.6l.4.9-14.2,15.6Z"/><path class="cls-1" d="M145.1,126.1a12.93,12.93,0,0,0-4.3-5.5,16.21,16.21,0,0,0-5.2-2.3c-2.3-.7-4.6-1.4-6.7-3.7a11.52,11.52,0,0,1-2.2-3.5l-.3-.9,13.1-11.9,3.2-3.2,17.4,17.4-3.2,3.2L146,128Z"/><path class="cls-2" d="M124.9,172.8c-14.1,0-35.8-3.7-37.2-11.5,0-.2-.1-.3-.1-.5-.4-4,4.1-7.9,13.8-11.9s18.1-4,23.7-4h.2c12.3,0,20.5,2.6,24.4,4.2,9.5,3.9,14.2,9,13.7,11.8a5.24,5.24,0,0,1-1,2.6,16.61,16.61,0,0,1-1.3,1.4l-.1.1a17.76,17.76,0,0,1-4.8,2.8c-1.3.5-2.7,1-4,1.4-2.6.8-4.8,1.3-6.2,1.6-3.2.6-6.4,1.2-9.7,1.5a86,86,0,0,1-10.2.6Z"/><path class="cls-2" d="M125.6,247a70.29,70.29,0,0,1-36.3-10.2,3,3,0,0,1-.8-.4,2.43,2.43,0,0,1-.9-1.8v-74l4.1-.1c.2,3.2,15.5,8.3,33.2,8.3H126c1,0,2.1,0,3.1-.1,17.3-.8,30.1-5.4,30.2-8.1l4.1.1-.3,75.5-1,.6a70.33,70.33,0,0,1-34.8,10.4Z"/><path class="cls-1" d="M87.2,162.5h2a2.58,2.58,0,0,1,2.6,2.6V172a2.58,2.58,0,0,1-2.6,2.6h-2a2.58,2.58,0,0,1-2.6-2.6v-6.9A2.65,2.65,0,0,1,87.2,162.5Z"/><path class="cls-1" d="M161.9,161.1h2a2.58,2.58,0,0,1,2.6,2.6v6.9a2.58,2.58,0,0,1-2.6,2.6h-2a2.58,2.58,0,0,1-2.6-2.6v-6.9A2.72,2.72,0,0,1,161.9,161.1Z"/><path class="cls-3" d="M161.4,160.6a4.42,4.42,0,0,1-.6,1.6c-.3.3-1,1.1-1.1,1.2l-.1.1a12.25,12.25,0,0,1-4.2,2.3c-1.3.5-2.5,1-3.8,1.4-2.5.7-4.6,1.2-6,1.5-3.7.7-6.9,1.2-9.5,1.5a91,91,0,0,1-10,.6h-.5c-16.1.1-34.8-4.3-35.8-9.9a.37.37,0,0,0-.1-.3c-.4-4.4,10.2-8.8,12.6-9.8,9.1-3.7,17.1-3.8,22.9-3.8,13.4,0,21.6,3.1,23.8,4C158.7,154.9,161.6,159.4,161.4,160.6Z"/><path class="cls-4" d="M161.4,160.6q-.15,37.2-.3,74.3a67.72,67.72,0,0,1-71,0c-.1,0-.2,0-.2-.1s-.1-.1-.1-.2v-74c.3,5.8,19.5,10.3,35.9,10.2h.5c1.1,0,2.2,0,3.2-.1C143.6,170,161.1,166,161.4,160.6Z"/><path class="cls-5" d="M152.6,160.1a5.64,5.64,0,0,1-.4,1.2,7.64,7.64,0,0,1-.9.9l-.1.1a9.41,9.41,0,0,1-3.1,1.7,14.3,14.3,0,0,1-2.9,1,32.51,32.51,0,0,1-4.6,1.1,64,64,0,0,1-7.2,1.1c-2,.2-4.6.4-7.5.5h-.4c-12.1.2-26.1-3.1-27-7.4v-.2c-.3-3.4,7.7-6.7,9.5-7.4a43,43,0,0,1,17.2-2.9,49,49,0,0,1,17.9,3C150.5,155.9,152.7,159.3,152.6,160.1Z"/><path class="cls-6" d="M102.4,167.2a15.07,15.07,0,0,1-2.1-2.3,15.66,15.66,0,0,1-1.8-4.4,45,45,0,0,1,10.2-5.3,46.46,46.46,0,0,1,16.5-2.7h.1a56.39,56.39,0,0,1,10.8,1,37.27,37.27,0,0,1,6.3,1.8,44.61,44.61,0,0,1,10.2,5.2,6.51,6.51,0,0,1-1.6,3.7c-1.5,1.6-3.6,1.9-5.2,2.2-5.9,1-3.2,1.5-10.9,2.9C119.5,171.9,105.8,170.1,102.4,167.2Z"/><path class="cls-7" d="M154.1,223a78.93,78.93,0,0,1-57,0V196.3a169.54,169.54,0,0,0,28.5,2.4,170.43,170.43,0,0,0,28.5-2.4Z"/><path class="cls-6" d="M161.4,160.9c0,3.9,0,7.9-.1,11.8-1.5,6.9-3.5,12.8-6.2,13-3.5.2-6.3-9.4-8.4-8.8-2.7.8.4,12.7-3.1,14.3-4.3,1.9-12.9-14.1-19.5-12.1-4.6,1.4-4.6,10.4-7.7,10.5-4,.1-7.1-14.1-10-13.6-1.2.2-1.1,2.7-3.9,7.4-1.7,2.8-2.7,4.5-4,4.7-3.5.5-7.5-9.9-8.8-13.3l.1-14,8.8-.8a8.52,8.52,0,0,0,1.7,2.5c.5.5,1.4,1.2,4.8,2.3,2,.6,3.7,1,4.8,1.3a51.15,51.15,0,0,0,5.3.9c3.2.4,6.4.6,9.6.7,1.6,0,3.1,0,4.4-.1,1.1-.1,4.1-.3,7.9-.9.7-.1,3.2-.5,6.4-1.3a24,24,0,0,0,3.8-1.2,9.16,9.16,0,0,0,3.2-1.8,8.76,8.76,0,0,0,1.9-2.4Z"/><path class="cls-5" d="M89.7,160.6a24.65,24.65,0,0,0,5.1,5.6c1.6,1.3,4.7,3.4,12.4,5.2a78.87,78.87,0,0,0,18.1,1.8,77,77,0,0,0,16.6-1.4c8.1-1.6,11.5-3.7,12.5-4.4a25.11,25.11,0,0,0,6.9-6.5"/><path class="cls-8" d="M215.5,39.8c-2.9-2.8-6.9-2-7.3-2-1.8.4-3.6,1.8-7.3,4.7a34,34,0,0,0-2.7,2.3c-2.1,2-4,4.1-5.9,6.3-4.3,5-6.8,8.1-9.5,11.4-1.8,2.2-.5.6-11.3,13.2-4.6,5.4-6.5,7.7-10.1,10.1a37.54,37.54,0,0,1-7.7,4l11.8,11.8a33.19,33.19,0,0,1,4-7.7c2.4-3.5,4.7-5.5,10.1-10.1,12.7-10.9,10.9-9.5,13.2-11.4,3.3-2.7,6.5-5.3,11.4-9.5a69.88,69.88,0,0,0,6.3-5.9c1-1.1,1.7-2,2.3-2.7,2.9-3.6,4.4-5.5,4.7-7.3A8.13,8.13,0,0,0,215.5,39.8Zm-8.9,13.8c-3.1,3.1-6.6,4.5-8,3.2s.1-4.9,3.2-8,6.6-4.5,8-3.2S209.7,50.5,206.6,53.6Z"/><path class="cls-6" d="M141.7,119.5c-4.3-3.1-8.4-2.1-11.7-5.8a10,10,0,0,1-1.9-3.1l-12.2,11.1,3.5,3.5,7.5-5.1-5.4,7.2,6.6,6.6,2.1,2.1,3.5,3.5,12.6-14A13,13,0,0,0,141.7,119.5Z"/><path class="cls-7" d="M140.5,99.3,128,110.6a10,10,0,0,0,1.9,3.1c3.3,3.6,7.4,2.7,11.7,5.8a14.79,14.79,0,0,1,4.7,6.1l9.7-10.7,2.3-2.3L142.8,97Z"/><path class="cls-9" d="M130.3,114l15-14.5"/><path class="cls-9" d="M147,101.2l-14.5,14.4"/><line class="cls-10" x1="134.9" y1="116.6" x2="148.6" y2="102.8"/><line class="cls-10" x1="137.4" y1="117.4" x2="150.3" y2="104.5"/><line class="cls-10" x1="140.1" y1="118.5" x2="151.9" y2="106.2"/><line class="cls-10" x1="142.3" y1="119.9" x2="153.8" y2="108"/><line class="cls-10" x1="144" y1="121.7" x2="155.5" y2="109.7"/><path class="cls-8" d="M149.9,87.6l-7.6,7.6a1,1,0,0,0,0,1.4l.5.5,15.5,15.5.5.5a1,1,0,0,0,1.4,0h0l7.5-7.5a1,1,0,0,0,0-1.4c-3-3.1-14.1-14.2-14.1-14.2l-2.4-2.3A.79.79,0,0,0,149.9,87.6Z"/><ellipse cx="145.6" cy="258.8" rx="63.7" ry="4.9"/><path d="M102.2,209.9c0-6.3,3.5-10.3,8.7-9.7,3.3.3,5.7,2,7.4,5.4-1.3,1-2,1.4-3.2,2.3a5.5,5.5,0,0,0-4.4-3.5c-3.2-.4-5.3,2.2-5.4,6.3s1.5,7.7,4.7,8.5c2.3.5,3.8-.7,5-2.5,1.2,1.2,1.9,1.8,3.2,3-2,3-5,4.5-8.4,3.7C104.7,222,102.2,216.2,102.2,209.9Z"/><path d="M120,220c1.5-.8,2.3-1.2,3.8-2.1,1,1.7,2.4,3,4.7,2.9,2-.1,3.1-1.2,3.1-2.6-.1-1.7-1.3-2.1-3.4-3l-1.2-.5c-3.4-1.4-5.5-3.5-5.4-7.4a6.27,6.27,0,0,1,6.2-6.4h.3a5.92,5.92,0,0,1,6,3.6,40.31,40.31,0,0,1-3.2,2.6c-.8-1.4-1.6-2-2.8-2a2.09,2.09,0,0,0-2.1,2v.1c0,1.5.9,2.1,2.8,2.9l1.1.5c3.8,1.6,5.8,3.1,6,7.1.2,4.3-2.6,7.2-7.2,7.4A8.54,8.54,0,0,1,120,220Z"/><path d="M137.4,219.2c1.3-1.1,1.9-1.7,3-2.8.9,1.5,2,2.4,3.6,2a2.8,2.8,0,0,0,2.1-2.8c0-1.5-.9-1.8-2.5-2.4l-.9-.3c-2.6-.9-4.6-2.5-4.8-6.3-.2-3.5,2-6.4,5.1-6.8,2.3-.3,3.8.5,4.9,2.8-1,1.1-1.5,1.6-2.5,2.7-.6-1.3-1.3-1.7-2.3-1.6a2.07,2.07,0,0,0-1.6,2.2c.1,1.4.8,1.8,2.3,2.4l.9.3c2.9,1.1,4.1,2.3,4.1,6,0,4-1.6,6.8-4.7,7.7C141.2,223.4,138.7,221.8,137.4,219.2Z"/><path class="cls-11" d="M86.7,168.4H81c-1.3,26,19.5,47.7,44.4,47.9,25.5.1,46.9-22.5,44.8-49l-5.8-.1"/><path class="cls-12" d="M87.2,164.6h2a.47.47,0,0,1,.5.5V172a.47.47,0,0,1-.5.5h-2a.47.47,0,0,1-.5-.5v-6.9A.47.47,0,0,1,87.2,164.6Z"/><path class="cls-12" d="M161.9,163.2h2a.47.47,0,0,1,.5.5v6.9a.47.47,0,0,1-.5.5h-2a.47.47,0,0,1-.5-.5v-6.9A.47.47,0,0,1,161.9,163.2Z"/></svg>