<svg id="Layer_1" data-name="Layer 1" xmlns="http://www.w3.org/2000/svg" xmlns:xlink="http://www.w3.org/1999/xlink" viewBox="0 0 1600 1200"><defs><style>.cls-1,.cls-3,.cls-4{stroke:#000;stroke-miterlimit:10;}.cls-1{stroke-width:1.29px;}.cls-2{fill:url(#radial-gradient);}.cls-3{fill:#fff;stroke-width:7.75px;}.cls-4{fill:#f47d30;stroke-width:5.45px;}</style><radialGradient id="radial-gradient" cx="808.5" cy="598.63" r="473.74" gradientUnits="userSpaceOnUse"><stop offset="0" stop-color="#f3de2c"/><stop offset="0.53" stop-color="#f4aa2e"/><stop offset="0.99" stop-color="#f47d30"/></radialGradient></defs><title>Frederick Keys Logo Redesign</title><rect class="cls-1" x="-7.5" y="0.5" width="1607" height="1200"/><path class="cls-2" d="M1123.52,932.79c-3.6,3.65-107.19-91-323.53-296.37-3.79,188.51-8.3,270-13.28,270s-11-81.35-18.13-269.78c-213,208.84-315.1,305.09-318.75,301.5S540.78,831,746.2,614.64C397.65,611,231,606.51,231,601.36s166.52-11.18,515-18.13c-208.85-213-305.1-315.1-301.5-318.75S551.64,355.43,768,560.85c3.79-188.51,8.3-270,13.28-270s11,81.34,18.12,269.78c213-208.85,315.1-305.09,318.76-301.5s-91,107.19-296.37,323.53c380.66,0,564.16,2.66,564.23,7.83s-183.34,13-564,23.57C1030.86,827.06,1127.11,929.13,1123.52,932.79Z"/><path class="cls-3" d="M724.61,761.53a30.32,30.32,0,0,1,0-60.63h2.72V453h-2.72a30.32,30.32,0,0,1,0-60.64H917.48a30.36,30.36,0,0,1,30.32,30.32v33a30.35,30.35,0,0,1-30.32,30.32h-2.9a30.35,30.35,0,0,1-30.32-30.32V453H813V544h38.37a30.43,30.43,0,0,1,60.74,2.63V602a30.43,30.43,0,0,1-60.74,2.64H813v96.3h5.4a30.32,30.32,0,1,1,0,60.63Z"/><path class="cls-4" d="M818.37,742.15H724.61a10.94,10.94,0,0,1-10.94-10.94h0a10.94,10.94,0,0,1,10.94-10.94h11.16a10.93,10.93,0,0,0,10.94-10.93V444.59a10.94,10.94,0,0,0-10.94-10.94H724.61a10.94,10.94,0,0,1-10.94-10.94h0a10.94,10.94,0,0,1,10.94-10.94H917.48a10.94,10.94,0,0,1,10.94,10.94v33a10.94,10.94,0,0,1-10.94,10.94h-2.9a10.94,10.94,0,0,1-10.94-10.94V444.59a10.94,10.94,0,0,0-10.94-10.94H804.53a10.94,10.94,0,0,0-10.94,10.94V552.41a10.94,10.94,0,0,0,10.94,10.94h55.14a10.93,10.93,0,0,0,10.93-10.94V546.6a10.94,10.94,0,0,1,10.94-10.94h.23A10.93,10.93,0,0,1,892.7,546.6V602a10.93,10.93,0,0,1-10.93,10.94h-.23A10.94,10.94,0,0,1,870.6,602v-5.8a10.93,10.93,0,0,0-10.93-10.94H804.53a10.94,10.94,0,0,0-10.94,10.94V709.34a10.93,10.93,0,0,0,10.94,10.93h13.84a10.94,10.94,0,0,1,10.94,10.94h0A10.94,10.94,0,0,1,818.37,742.15Z"/></svg>