<?xml version="1.0" encoding="utf-8"?>
<!-- Generator: Adobe Illustrator 25.4.1, SVG Export Plug-In . SVG Version: 6.00 Build 0)  -->
<svg version="1.1" id="Layer_1" xmlns="http://www.w3.org/2000/svg" xmlns:xlink="http://www.w3.org/1999/xlink" x="0px" y="0px"
	 viewBox="0 0 300 300" style="enable-background:new 0 0 300 300;" xml:space="preserve">
<style type="text/css">
	.st0{fill:#E44D26;stroke:#650000;stroke-width:1.87;stroke-miterlimit:10;}
	.st1{fill:#B11A00;stroke:#650000;stroke-width:1.87;stroke-miterlimit:10;}
	.st2{fill:none;stroke:#650000;stroke-width:1.87;stroke-miterlimit:10;}
	.st3{fill:#E44D26;}
	.st4{fill:#650000;}
	.st5{fill:#E44D26;stroke:#650000;stroke-width:2.09;stroke-miterlimit:10;}
	.st6{fill:#CB340D;stroke:#650000;stroke-width:2.09;stroke-miterlimit:10;}
	.st7{fill:#B11A00;stroke:#650000;stroke-width:2.09;stroke-miterlimit:10;}
	.st8{fill:none;}
	.st9{fill:#FFFFFF;stroke:#FFFFFF;stroke-width:1.34;stroke-miterlimit:10;}
	.st10{fill:#7F7F7F;stroke:#000000;stroke-width:0.82;stroke-linecap:round;stroke-linejoin:round;}
</style>
<g>
	<path class="st0" d="M232.4,188.5l-31.6,32.6C159,177.5,117.2,133.8,75.4,90.2l3.1-3.1l4.8-4.6l3.1-3.1l5.3,5.5l-1.9-8.8l4.7-4.5
		l8-7.8l3.5-3.4c0.1-0.1,0.2-0.2,0.3-0.3C148.4,102.9,190.4,145.7,232.4,188.5z"/>
	<path class="st0" d="M106.3,60.1c-0.3-0.3-1-1-1.6-1.5c-0.3-0.3-0.5-0.5-0.7-0.6l-2.8,2.9L92.1,70c-1,1-2,2-3,3l0.7,3.1l1.9,8.8
		l-7.1-7.3L82,80.2l-4.8,4.9c-2.2,2.3-4.4,4.5-6.6,6.7c42.4,44.2,84.7,88.4,127.1,132.6l34.8-36C191.5,144.9,149.4,102.1,106.3,60.1
		z"/>
	<path class="st1" d="M237.1,187.2l-34.8,36l-4.3,1.5c-0.2,0.1-0.2-0.1-0.1-0.3l34.4-35.5c-42.6-43.4-85.2-86.7-127.8-130.1l3.3-3.2
		L237.1,187.2z"/>
	<line class="st2" x1="232.4" y1="188.5" x2="237.1" y2="187.2"/>
	
		<ellipse transform="matrix(0.7207 -0.6933 0.6933 0.7207 -39.573 109.4756)" class="st0" cx="116.1" cy="103.8" rx="5.7" ry="20.9"/>
	<path class="st0" d="M122.1,110.1c-0.4,0.4-4-2.3-6.8-5.2c-2.8-2.9-5.7-6.8-5.2-7.3s4.2,2.7,6.9,5.5S122.5,109.6,122.1,110.1z"/>
	<path class="st3" d="M82,80.2c6.8,13.2,16.2,25,27.6,34.6c7.4,6.1,15.6,11.3,24.3,15.3c15.7,7.9,37,24,59.3,60.9"/>
	<path class="st4" d="M82.2,80.1c6.2,11.7,14.4,22.3,24.3,31.2c4.9,4.4,10.2,8.4,15.9,11.9c2.8,1.7,5.7,3.3,8.7,4.8s6,3,8.8,4.7
		c11.5,6.8,21.7,15.8,30.5,25.8c8.8,10,16.4,21,23.3,32.4l-0.9,0.5c-3.5-5.6-7.1-11.2-11.1-16.5c-3.9-5.4-8-10.5-12.4-15.5
		c-8.8-9.8-18.7-18.8-30.1-25.5c-2.8-1.7-5.8-3.1-8.8-4.6c-3-1.5-5.9-3.1-8.7-4.9c-5.7-3.5-11-7.6-15.9-12.2c-2.5-2.3-4.8-4.6-7-7.1
		c-2.2-2.5-4.4-5-6.3-7.7c-4-5.4-7.5-11-10.5-17L82.2,80.1z"/>
	<path class="st3" d="M92.1,70c11.1,7.5,21.6,16,31.2,25.3c4.9,4.7,9.4,10,13.2,15.7c2.6,3.8,4.9,7.9,6.9,12
		c3.9,7.7,9.5,12.6,28.2,31c10,9.8,20.5,19,31.5,27.6"/>
	<path class="st4" d="M92.3,69.8c5.5,3.7,10.9,7.5,16.1,11.6c5.2,4.1,10.2,8.4,15,13.1c4.8,4.6,9.2,9.6,13,15.1
		c1.9,2.7,3.7,5.6,5.3,8.5c0.8,1.5,1.5,2.9,2.3,4.4c0.7,1.5,1.6,2.9,2.5,4.2c1.9,2.7,4,5.2,6.2,7.5c2.3,2.4,4.6,4.7,6.9,7l14.1,13.9
		c4.7,4.6,9.5,9.1,14.5,13.5c4.9,4.4,10,8.6,15.1,12.8l-0.3,0.4c-5.2-4-10.4-8.2-15.4-12.5c-5-4.3-9.9-8.8-14.7-13.3
		c-4.8-4.6-9.5-9.2-14.2-13.8c-2.4-2.3-4.7-4.6-7-7.1c-2.3-2.4-4.5-4.9-6.4-7.7c-0.9-1.4-1.8-2.8-2.6-4.3c-0.8-1.5-1.5-2.9-2.3-4.4
		c-1.6-2.9-3.3-5.7-5.1-8.4c-3.8-5.4-8-10.4-12.7-15c-4.7-4.7-9.6-9-14.7-13.2C102.6,78,97.4,74,92,70.2L92.3,69.8z"/>
	<path class="st3" d="M77.2,85.1c6.4,10.3,14.3,19.4,23.6,27.1c4.8,3.9,9.9,7.3,18.4,14.7c6.2,5.4,11,10.1,14.3,13.4"/>
	<path class="st4" d="M77.5,84.9c3.6,5.5,7.7,10.7,12.1,15.6c4.4,4.9,9.2,9.4,14.4,13.4c5.2,4,10.5,8.1,15.4,12.5
		c4.9,4.4,9.7,9,14.3,13.8l-0.4,0.4c-4.7-4.6-9.6-9-14.6-13.3c-2.5-2.1-5.1-4.2-7.7-6.3c-2.5-2-5.2-4-7.8-6
		c-5.3-4-10.2-8.6-14.6-13.6c-4.4-5-8.3-10.4-11.7-16.1L77.5,84.9z"/>
	<path class="st3" d="M203,218.9c-1.8-2.5-4.9-6.7-9-11.5c-15.3-18.2-22-19.6-35.1-35.4c-10-12.1-8.4-14.2-16.5-21.2
		c-3.7-3.2-7.8-6.1-19.7-15.9c-2.5-2-4.5-3.7-5.9-4.9"/>
	<path class="st4" d="M202.7,219.1c-3.1-4.2-6.3-8.2-9.7-12.1c-3.3-3.9-6.9-7.7-10.6-11.2c-3.7-3.6-7.7-6.9-11.6-10.4
		c-1.9-1.7-3.8-3.5-5.6-5.4c-1.8-1.8-3.6-3.8-5.3-5.8c-3.4-3.9-6.5-8.1-9.3-12.5c-1.3-2.2-2.8-4.3-4.4-6.3c-1.7-1.9-3.5-3.7-5.5-5.3
		c-4-3.3-8.1-6.5-12.1-9.8c-4-3.3-7.9-6.7-11.9-10l0.5-0.5c8,6.6,16.2,12.9,24.3,19.3c2,1.6,4,3.5,5.7,5.4c1.7,2,3.2,4.2,4.5,6.4
		c2.8,4.3,5.9,8.4,9.3,12.3c1.7,2,3.4,3.8,5.2,5.7c1.8,1.9,3.7,3.6,5.6,5.4c3.8,3.5,7.8,6.8,11.5,10.5c7.4,7.3,14.1,15.3,20,23.8
		L202.7,219.1z"/>
	<path class="st3" d="M228.6,192.6c-4.2-2.1-8.2-4.6-11.9-7.5c-9.3-7.3-10.5-12.4-20.4-23.3c-5.4-6-11.4-11.5-17.7-16.5
		c-9.9-7.8-13-8.2-19.2-14.1c-5.9-5.7-10.6-12.5-13.9-20.1"/>
	<path class="st4" d="M228.5,192.8c-4.5-2.1-8.7-4.8-12.5-7.8c-2-1.5-3.8-3.2-5.5-5c-1.7-1.8-3.3-3.7-4.7-5.7c-3-3.9-6-7.8-9.2-11.4
		c-3.3-3.6-6.7-7.1-10.3-10.4c-3.6-3.3-7.4-6.4-11.3-9.3c-2-1.5-4-2.8-6-4.2c-2.1-1.3-4.1-2.7-6.1-4.2c-2-1.5-3.8-3.2-5.5-5
		c-1.7-1.8-3.3-3.7-4.8-5.7c-2.9-4-5.3-8.3-7.3-12.9l0.4-0.2c2.1,4.4,4.6,8.6,7.6,12.5c2.9,3.9,6.4,7.3,10.2,10.3
		c1.9,1.5,4,2.8,6.1,4.1s4.1,2.7,6.1,4.2c4,2.9,7.8,6.1,11.4,9.4c3.6,3.3,7.1,6.8,10.4,10.5c3.3,3.7,6.3,7.6,9.2,11.6
		c5.6,8,13.4,14.2,22.1,18.7L228.5,192.8z"/>
	<path class="st3" d="M101.2,60.8c0.5,1.4,1.1,2.8,1.9,4c3.5,5.9,7.9,6.8,14,12.3c1.8,1.6,3.4,3.4,4.9,5.2"/>
	<path class="st4" d="M101.5,60.7c1,2.3,2.3,4.4,3.9,6.3c1.7,1.8,3.7,3.4,5.7,4.7c2.1,1.4,4.2,3,6.1,4.7c1.9,1.8,3.6,3.7,5,5.8
		l-0.4,0.3c-1.7-1.9-3.5-3.6-5.4-5.2c-1-0.8-2-1.5-3-2.3s-2.1-1.4-3.1-2.2c-2.2-1.4-4.2-3.1-5.9-5c-1.6-2-2.8-4.4-3.5-6.9
		L101.5,60.7z"/>
	<path class="st3" d="M125.7,87.3c0.5,0.6,1.3,1.6,2.4,2.8c8.7,10,14.5,12.3,22.3,21.7c0.8,0.9,2,2.5,3.4,4.5"/>
	<path class="st4" d="M126,87.1c2.2,2.5,4.5,5,6.9,7.3c2.4,2.3,5,4.5,7.5,6.7c2.6,2.2,5.1,4.5,7.4,7c1.1,1.3,2.3,2.5,3.3,3.9l3,4.1
		l-0.7,0.5l-3.1-3.9c-1.1-1.3-2.2-2.5-3.3-3.7c-2.3-2.4-4.8-4.7-7.4-6.8c-2.6-2.2-5.1-4.4-7.5-6.8c-1.2-1.2-2.3-2.5-3.4-3.8
		c-1.1-1.3-2.1-2.6-3.2-4L126,87.1z"/>
	<path class="st3" d="M209,212.9c-2.6-4.3-5.6-8.3-9-11.9c-6.4-6.9-10.3-8.1-17-13.5c-7.4-5.8-7-7.7-21-23.5
		c-3.5-4-8.8-9.9-15.7-16.8"/>
	<path class="st4" d="M208.7,213.1c-2-3.2-4.3-6.3-6.7-9.1c-2.4-2.9-5.2-5.5-8.1-7.8c-3-2.3-6.2-4.3-9.3-6.6
		c-1.5-1.1-3.1-2.3-4.5-3.6c-1.5-1.3-2.8-2.7-4.1-4.1c-1.3-1.5-2.4-3-3.6-4.4s-2.4-3-3.6-4.4c-2.4-2.9-4.9-5.8-7.4-8.7
		s-5-5.7-7.6-8.5c-2.6-2.8-5.1-5.6-7.7-8.4l0.4-0.4c2.7,2.7,5.4,5.4,8.1,8.1c2.7,2.7,5.2,5.5,7.8,8.4c2.6,2.8,5,5.7,7.5,8.6
		c2.5,2.9,4.8,5.9,7.2,8.8c1.2,1.4,2.5,2.8,3.9,4c1.4,1.2,2.9,2.4,4.4,3.5c3,2.3,6.3,4.2,9.3,6.7c5.9,4.9,10.9,10.9,14.6,17.6
		L208.7,213.1z"/>
	<path class="st3" d="M216.7,205c-1.4-2.2-3-4.3-4.8-6.2c-6-6.4-11.3-7.7-16.9-15.3c-0.7-0.9-1.2-1.7-1.5-2.2"/>
	<path class="st4" d="M216.3,205.2c-1.5-2.3-3.3-4.4-5.2-6.3c-0.5-0.5-1-1-1.5-1.4c-0.5-0.5-1-0.9-1.5-1.4c-1-0.9-2.1-1.7-3.3-2.5
		c-2.3-1.6-4.5-3.4-6.5-5.4c-1-1-1.9-2.1-2.8-3.2c-0.8-1.1-1.5-2.3-2.3-3.5l0.6-0.3c1.6,2.2,3.4,4.3,5.4,6.2c2,1.8,4.2,3.5,6.4,5.1
		c2.3,1.6,4.4,3.5,6.3,5.6c1.9,2.1,3.6,4.3,5,6.8L216.3,205.2z"/>
	<path class="st5" d="M74.9,222c-4.6-3.9-7-5.9-8.2-8.8c-0.8-1.9-1.2-3.9-1.3-6c0-0.4,0.2-0.8,0.5-1.1C71.5,202,79.2,196,88,188.4
		c5.5-4.8,10.2-9.1,20.8-19.2c16.9-16,27.2-26.2,27.2-26.2c12.6-12.3,30-29.3,51.5-50.6l10.9,10.9l-119,118.8
		c-0.6,0.6-1.4,0.9-2.3,0.9C76.3,222.9,75.5,222.6,74.9,222z"/>
	<polygon class="st6" points="203.7,98.1 198.5,103.3 187.6,92.4 192.9,87.3 	"/>
	<path class="st7" d="M192.9,87.3c1.5-2.6,2.8-5.4,3.7-8.3c1.5-4.6,1.1-6,0.8-6.7c-0.9-2.4-3.2-3.7-4.4-4.4c-1.6-0.9-3.3-1.4-5-1.6
		c-4.1-0.6-9.5-1.5-16.6-2.9l-3.9-3.5c5.2-1,9.7-1.6,12.9-1.9c13.2-1.4,17.5-0.1,18.9,0.4c3.1,1.1,6.1,2.7,8.6,4.9l20.5,20.5
		c0,1.5,0.4,3,1.1,4.3c0.9,1.5,2.2,2.7,3.7,3.5c1.3,0.7,2.8,1.2,4.3,1.3l5.2,5.2c-2.1,6.6-7.2,11.7-13.8,13.8
		c-1.7-1.3-3.3-2.8-4.8-4.3c-2-2.2-2.3-3.1-2.5-3.9c-0.2-1.3,0.1-2.7,0.8-3.8l-4-4c-5,0-10,0.8-14.7,2.3L192.9,87.3z"/>
	<line class="st8" x1="183.8" y1="100.6" x2="170.2" y2="114.1"/>
	<path class="st4" d="M183.9,100.7c-2,2.5-4.2,4.9-6.5,7.1c-2.3,2.2-4.6,4.4-7.2,6.4c0,0-0.1,0-0.1,0c0,0,0,0,0,0c0,0,0-0.1,0-0.1
		c2-2.5,4.2-4.9,6.4-7.1c2.2-2.3,4.6-4.5,7.1-6.5c0.1-0.1,0.2-0.1,0.3,0C184,100.5,184,100.6,183.9,100.7z"/>
	<line class="st8" x1="184.5" y1="112.7" x2="170.8" y2="126.2"/>
	<path class="st4" d="M184.6,112.8c-2,2.5-4.2,4.9-6.5,7.1c-2.3,2.2-4.6,4.4-7.2,6.4c0,0-0.1,0-0.1,0c0,0,0,0,0,0c0,0,0-0.1,0-0.1
		c2-2.5,4.2-4.9,6.4-7.1c2.2-2.3,4.6-4.5,7.1-6.5c0.1-0.1,0.2-0.1,0.3,0C184.7,112.6,184.7,112.7,184.6,112.8z"/>
	<path class="st3" d="M161.3,124.3c-3.6,5.8-7.5,8.8-10.5,10.5c-3.3,1.9-9.1,4.3-15.1,8.7c-0.7,0.5-1.4,1.1-2,1.8
		c-3.2,3.4-3.9,7.8-4,10.6"/>
	<path class="st4" d="M161.4,124.4c-2,3.4-4.6,6.4-7.7,8.9c-1.6,1.2-3.2,2.2-5,3.1c-1.7,0.9-3.5,1.8-5.2,2.7c-1.7,0.9-3.4,1.9-5,2.9
		c-0.8,0.5-1.6,1.1-2.4,1.6c-2.4,1.6-4.2,3.9-5.2,6.6c-0.7,1.8-1.1,3.7-1.2,5.6c0,0.1-0.1,0.2-0.2,0.1c-0.1,0-0.1-0.1-0.2-0.2
		c0-2,0.3-3.9,1-5.8c0.6-1.9,1.7-3.6,3-5.1c0.7-0.7,1.5-1.4,2.3-2c0.8-0.6,1.6-1.1,2.4-1.7c1.6-1.1,3.3-2.1,5-3
		c1.7-0.9,3.5-1.8,5.2-2.7c1.7-0.8,3.4-1.8,4.9-2.9c3.1-2.3,5.7-5.2,7.9-8.4c0.1-0.1,0.1-0.1,0.2,0c0,0,0,0,0,0
		C161.4,124.3,161.4,124.4,161.4,124.4z"/>
	<line class="st8" x1="190.8" y1="95.7" x2="186.9" y2="99.6"/>
	<path class="st4" d="M191,95.8c-0.5,0.8-1.1,1.5-1.8,2.1c-0.7,0.7-1.4,1.2-2.2,1.7c0,0-0.1,0-0.1,0c0,0,0,0,0,0c0,0,0-0.1,0-0.1
		c0.5-0.8,1.1-1.5,1.7-2.2c0.6-0.7,1.4-1.3,2.1-1.8c0.1-0.1,0.2,0,0.2,0.1c0,0,0,0,0,0C191,95.7,191,95.7,191,95.8z"/>
	<line class="st8" x1="194.6" y1="99.4" x2="183.8" y2="110.1"/>
	<path class="st4" d="M194.7,99.5c-1.6,2-3.3,3.8-5.1,5.6c-1.8,1.8-3.7,3.5-5.6,5.1c-0.1,0-0.2,0-0.2-0.1c0,0,0-0.1,0-0.1
		c1.6-2,3.3-3.8,5.1-5.6c1.8-1.8,3.6-3.5,5.6-5.1c0.1-0.1,0.2-0.1,0.2,0c0,0,0,0,0,0C194.7,99.3,194.8,99.4,194.7,99.5
		C194.7,99.5,194.7,99.5,194.7,99.5z"/>
	<path class="st3" d="M168.2,128.9c-0.4,1.7-12.7,14-14.4,14.4"/>
	<path class="st4" d="M168.4,128.9c-0.3,0.8-0.8,1.6-1.3,2.3c-0.5,0.7-1.1,1.3-1.6,2c-1.1,1.3-2.3,2.5-3.5,3.8
		c-1.2,1.2-2.5,2.4-3.8,3.5c-0.7,0.6-1.3,1.1-2,1.6c-0.7,0.6-1.5,1-2.3,1.4c-0.1,0-0.2,0-0.2-0.1c0-0.1,0-0.2,0.1-0.2h0.1
		c0.7-0.4,1.3-1,1.9-1.5l1.8-1.8l3.6-3.6l3.6-3.6l1.8-1.8c0.6-0.6,1.1-1.2,1.6-1.9v-0.1c0-0.1,0.2-0.1,0.2-0.1
		C168.3,128.8,168.4,128.8,168.4,128.9z"/>
	<path class="st3" d="M146.4,147.2c-1.1,0.3-9.1,8.3-9.4,9.4"/>
	<path class="st4" d="M146.5,147.4c-0.4,0.3-0.9,0.7-1.2,1.1c-0.4,0.4-0.8,0.8-1.2,1.2l-2.4,2.3l-2.4,2.3c-0.4,0.4-0.8,0.8-1.2,1.2
		c-0.4,0.4-0.7,0.8-1,1.2v0c0,0.1-0.1,0.1-0.2,0c0,0,0,0,0,0c-0.1,0-0.1-0.1-0.1-0.1c0.2-0.5,0.5-1,0.9-1.5c0.3-0.5,0.7-0.9,1.1-1.3
		c0.7-0.9,1.5-1.7,2.3-2.5c0.8-0.8,1.6-1.5,2.5-2.3c0.4-0.4,0.9-0.7,1.3-1c0.5-0.4,1-0.7,1.5-0.9c0.1,0,0.1,0,0.1,0.1
		c0,0,0,0.1,0,0.1L146.5,147.4z"/>
	<line class="st8" x1="174.8" y1="113.9" x2="167.4" y2="121.3"/>
	<path class="st4" d="M175,114c-1.1,1.4-2.2,2.7-3.5,3.9c-1.2,1.3-2.5,2.4-3.9,3.5c-0.1,0.1-0.2,0.1-0.3,0c-0.1-0.1-0.1-0.2,0-0.3
		c1.1-1.4,2.2-2.7,3.5-3.9c1.2-1.2,2.6-2.4,3.9-3.5c0.1-0.1,0.2-0.1,0.3,0C175,113.8,175,114,175,114z"/>
	<line class="st8" x1="128.3" y1="161.5" x2="120.9" y2="168.9"/>
	<path class="st4" d="M128.4,161.6c-1.1,1.4-2.2,2.7-3.5,3.9c-1.2,1.3-2.5,2.4-3.9,3.5c-0.1,0.1-0.2,0.1-0.3,0
		c-0.1-0.1-0.1-0.2,0-0.3c1.1-1.4,2.2-2.7,3.5-3.9c1.2-1.2,2.5-2.4,3.9-3.5c0.1-0.1,0.2-0.1,0.3,0c0,0,0,0,0,0
		C128.5,161.4,128.5,161.5,128.4,161.6z"/>
	<line class="st8" x1="71.9" y1="219.4" x2="81.6" y2="209.8"/>
	<path class="st4" d="M71.8,219.4c1.4-1.8,2.9-3.5,4.5-5.1c1.6-1.6,3.3-3.2,5-4.6c0.1-0.1,0.2-0.1,0.3,0c0.1,0.1,0.1,0.2,0,0.3
		c-1.4,1.8-3,3.5-4.6,5c-1.6,1.6-3.3,3.1-5.1,4.5c0,0-0.1,0-0.1,0c0,0,0,0,0,0C71.8,219.4,71.8,219.4,71.8,219.4z"/>
	<line class="st8" x1="84.6" y1="206.7" x2="90.9" y2="200.5"/>
	<path class="st4" d="M84.6,206.7c0.8-1.2,1.8-2.4,2.8-3.4c1-1.1,2.2-2,3.4-2.9c0.1-0.1,0.1-0.1,0.2,0c0,0,0,0.1,0,0.2
		c-0.9,1.2-1.8,2.3-2.9,3.4C87.1,205,85.9,205.9,84.6,206.7C84.6,206.7,84.6,206.7,84.6,206.7C84.6,206.7,84.6,206.7,84.6,206.7z"/>
	<line class="st8" x1="67.1" y1="213.9" x2="73.3" y2="207.6"/>
	<path class="st4" d="M67,213.8c0.8-1.2,1.8-2.4,2.8-3.4c1-1.1,2.2-2,3.4-2.9c0.1-0.1,0.1-0.1,0.2,0c0,0,0,0.1,0,0.2
		c-0.9,1.2-1.8,2.3-2.9,3.4C69.5,212.1,68.4,213.1,67,213.8C67.1,213.9,67,213.9,67,213.8C67,213.9,67,213.9,67,213.8
		C67,213.8,67,213.8,67,213.8z"/>
	<line class="st8" x1="121.2" y1="161.7" x2="93.9" y2="189"/>
	<path class="st4" d="M121.3,161.9c-1.1,1.2-2.2,2.4-3.3,3.5l-3.3,3.5c-2.2,2.3-4.5,4.6-6.8,6.9c-2.3,2.3-4.6,4.5-6.9,6.7
		c-2.3,2.2-4.6,4.4-7,6.6c-0.1,0.1-0.3,0.1-0.4,0c-0.1-0.1-0.1-0.3,0-0.4c2.2-2.4,4.4-4.7,6.6-7s4.5-4.6,6.7-6.9
		c2.2-2.3,4.6-4.5,6.9-6.8l3.5-3.3c1.2-1.1,2.4-2.2,3.6-3.3c0.1-0.1,0.3-0.1,0.4,0C121.4,161.7,121.4,161.8,121.3,161.9z"/>
	<line class="st8" x1="116" y1="177.6" x2="96" y2="197.6"/>
	<path class="st4" d="M116.2,177.7c-1.6,1.8-3.2,3.5-4.9,5.2c-1.6,1.7-3.3,3.4-5,5c-1.7,1.7-3.4,3.3-5.1,5c-1.7,1.6-3.4,3.3-5.2,4.8
		c-0.1,0.1-0.2,0.1-0.3,0c0,0,0,0,0,0c-0.1-0.1-0.1-0.2,0-0.3c1.6-1.8,3.2-3.5,4.9-5.2s3.3-3.4,5-5.1c1.7-1.7,3.4-3.3,5-5
		c1.7-1.6,3.4-3.3,5.2-4.8c0.1-0.1,0.2-0.1,0.3,0c0,0,0,0,0,0C116.2,177.6,116.2,177.7,116.2,177.7z"/>
	<line class="st8" x1="237.5" y1="92.9" x2="231" y2="99.3"/>
	<path class="st4" d="M237.8,93.1c-0.5,0.6-1,1.1-1.5,1.7s-1.1,1.1-1.6,1.6s-1.1,1-1.7,1.5c-0.6,0.5-1.1,1-1.8,1.5
		c-0.1,0.1-0.1,0.1-0.2,0c0,0,0,0,0,0c0-0.1,0-0.1,0-0.2c0.5-0.6,1-1.2,1.5-1.7c0.5-0.6,1-1.1,1.5-1.7c0.5-0.6,1-1.1,1.6-1.6
		c0.5-0.5,1.1-1.1,1.7-1.5c0.2-0.2,0.4-0.2,0.6,0C237.9,92.8,237.9,93,237.8,93.1z"/>
	<path class="st4" d="M228.7,84c-2.1,3.4-5,6.2-8.5,8.2c-0.1,0-0.2,0-0.2-0.1c0-0.1,0-0.1,0-0.2c1.5-1.2,3-2.5,4.3-3.9
		c1.3-1.4,2.6-2.9,3.7-4.5c0.1-0.2,0.4-0.2,0.5-0.1C228.7,83.6,228.8,83.8,228.7,84L228.7,84z"/>
	<path class="st3" d="M138.4,163.3c-8,1.2-14.3,7.5-15.5,15.5"/>
	<path class="st4" d="M138.4,163.6c-1.9,0.4-3.7,1.1-5.4,2c-1.7,0.9-3.2,2-4.6,3.4c-1.4,1.3-2.5,2.9-3.4,4.6c-0.9,1.7-1.6,3.5-2,5.4
		c0,0.1-0.2,0.2-0.3,0.2c0,0,0,0,0,0c-0.1,0-0.2-0.1-0.2-0.3c0.1-1,0.3-2,0.6-2.9c0.3-1,0.6-1.9,1.1-2.8c0.9-1.8,2.1-3.5,3.5-4.9
		c1.4-1.4,3.1-2.6,4.9-3.5c1.8-0.9,3.7-1.4,5.7-1.6c0.2,0,0.3,0.1,0.3,0.2c0,0,0,0,0,0C138.6,163.4,138.5,163.6,138.4,163.6z"/>
	<path class="st9" d="M109.1,173.1l2.5-2.5l4.2,4.2l5.2-5.2l-4.2-4.2l2.5-2.5l8.2,8.1l-2.5,2.5l-2.5-2.5l-5.2,5.2l2.5,2.5l-2.5,2.5
		L109.1,173.1z"/>
	<path class="st9" d="M126.3,159l-3.5,3.5l-1.5-1.5l9.5-9.5l1.5,1.5l-3.5,3.5l6.7,6.7l-2.5,2.5L126.3,159z"/>
	<path class="st9" d="M132.6,149.6l0.2-0.2l10.5-1.6l1.5-10.3l0.2-0.2l8.2,8.2l-2.4,2.4l-3.1-3.1c-0.6-0.6-1.3-1.5-1.3-1.5
		c0,0.8-0.1,1.6-0.2,2.5l-0.6,4.2l-0.2,0.2l-4.2,0.6c-0.8,0.1-1.6,0.2-2.5,0.2c0,0,1,0.8,1.5,1.3l3.1,3.1l-2.4,2.4L132.6,149.6z"/>
	<path class="st9" d="M147.6,134.7l2.5-2.5l6.7,6.7l5.5-5.5l1.5,1.5l-8.1,8.1L147.6,134.7z"/>
	<ellipse cx="147.6" cy="238.4" rx="90.3" ry="6"/>
	<rect x="131.9" y="216.6" class="st10" width="9.1" height="3.1"/>
	<path class="st10" d="M138.2,216.6h-3.4l1.5-16.8C137,205.4,137.6,211,138.2,216.6z"/>
	
		<rect x="154.5" y="197.8" transform="matrix(5.061316e-03 -1 1 5.061316e-03 -47.0913 357.3851)" class="st10" width="3.1" height="9.1"/>
	<path class="st10" d="M154.3,203.9h3.4c-0.5,5.6-1,11.2-1.5,16.7C155.5,215.1,154.9,209.5,154.3,203.9z"/>
	
		<rect x="116.7" y="197.7" transform="matrix(5.061316e-03 -1 1 5.061316e-03 -84.5876 319.5141)" class="st10" width="3.1" height="9.1"/>
	<path class="st10" d="M116.5,203.8h3.4c-0.5,5.6-1,11.2-1.5,16.7C117.7,215,117.1,209.4,116.5,203.8z"/>
</g>
</svg>
