<svg id="Layer_1" data-name="Layer 1" xmlns="http://www.w3.org/2000/svg" viewBox="0 0 300 300"><defs><style>.cls-1,.cls-4,.cls-5,.cls-7{fill:#e44d26;}.cls-1,.cls-2,.cls-3,.cls-4,.cls-7,.cls-8,.cls-9{stroke:#650000;}.cls-1,.cls-11,.cls-2,.cls-3,.cls-7,.cls-8,.cls-9{stroke-miterlimit:10;}.cls-1,.cls-2,.cls-3{stroke-width:1.87px;}.cls-2,.cls-9{fill:#b11a00;}.cls-10,.cls-3{fill:none;}.cls-4{stroke-miterlimit:10;stroke-width:1.87px;}.cls-6{fill:#650000;}.cls-7,.cls-8,.cls-9{stroke-width:2.09px;}.cls-8{fill:#cb340d;}.cls-11{fill:#fff;stroke:#fff;stroke-width:1.34px;}.cls-12,.cls-13{fill:#7f7f7f;stroke:#000;stroke-linecap:round;stroke-linejoin:round;}.cls-12{stroke-width:0.82px;}.cls-13{stroke-width:0.82px;}</style></defs><path class="cls-1" d="M232.4,188.5l-31.6,32.6Q138.1,155.7,75.4,90.2l3.1-3.1,4.8-4.6,3.1-3.1,5.3,5.5-1.9-8.8,4.7-4.5,8-7.8,3.5-3.4.3-.3Q169.45,124.3,232.4,188.5Z"/><path class="cls-1" d="M106.3,60.1c-.3-.3-1-1-1.6-1.5a3.19,3.19,0,0,0-.7-.6l-2.8,2.9L92.1,70l-3,3,.7,3.1,1.9,8.8-7.1-7.3L82,80.2l-4.8,4.9c-2.2,2.3-4.4,4.5-6.6,6.7q63.6,66.3,127.1,132.6l34.8-36Q171,123.15,106.3,60.1Z"/><path class="cls-2" d="M237.1,187.2l-34.8,36-4.3,1.5c-.2.1-.2-.1-.1-.3l34.4-35.5Q168.4,123.8,104.5,58.8l3.3-3.2Z"/><line class="cls-3" x1="232.4" y1="188.5" x2="237.1" y2="187.2"/><ellipse class="cls-4" cx="116.06" cy="103.79" rx="5.7" ry="20.9" transform="matrix(0.72, -0.69, 0.69, 0.72, -39.54, 109.46)"/><path class="cls-1" d="M122.1,110.1c-.4.4-4-2.3-6.8-5.2s-5.7-6.8-5.2-7.3,4.2,2.7,6.9,5.5S122.5,109.6,122.1,110.1Z"/><path class="cls-5" d="M82,80.2a112.89,112.89,0,0,0,27.6,34.6,111.75,111.75,0,0,0,24.3,15.3c15.7,7.9,37,24,59.3,60.9"/><path class="cls-6" d="M82.2,80.1a113.23,113.23,0,0,0,24.3,31.2,109.79,109.79,0,0,0,15.9,11.9q4.2,2.55,8.7,4.8c3,1.5,6,3,8.8,4.7a127.84,127.84,0,0,1,30.5,25.8,225.4,225.4,0,0,1,23.3,32.4l-.9.5c-3.5-5.6-7.1-11.2-11.1-16.5s-8-10.5-12.4-15.5c-8.8-9.8-18.7-18.8-30.1-25.5-2.8-1.7-5.8-3.1-8.8-4.6a92.5,92.5,0,0,1-8.7-4.9,98.72,98.72,0,0,1-15.9-12.2,93.66,93.66,0,0,1-7-7.1,92,92,0,0,1-6.3-7.7A114.35,114.35,0,0,1,82,80.4Z"/><path class="cls-5" d="M92.1,70a230,230,0,0,1,31.2,25.3A97,97,0,0,1,143.4,123c3.9,7.7,9.5,12.6,28.2,31a374.7,374.7,0,0,0,31.5,27.6"/><path class="cls-6" d="M92.3,69.8c5.5,3.7,10.9,7.5,16.1,11.6a185,185,0,0,1,15,13.1,98.64,98.64,0,0,1,13,15.1,92.87,92.87,0,0,1,5.3,8.5c.8,1.5,1.5,2.9,2.3,4.4a29.09,29.09,0,0,0,2.5,4.2,65,65,0,0,0,6.2,7.5c2.3,2.4,4.6,4.7,6.9,7l14.1,13.9c4.7,4.6,9.5,9.1,14.5,13.5s10,8.6,15.1,12.8l-.3.4c-5.2-4-10.4-8.2-15.4-12.5s-9.9-8.8-14.7-13.3-9.5-9.2-14.2-13.8c-2.4-2.3-4.7-4.6-7-7.1a59.43,59.43,0,0,1-6.4-7.7c-.9-1.4-1.8-2.8-2.6-4.3s-1.5-2.9-2.3-4.4q-2.4-4.35-5.1-8.4a107.19,107.19,0,0,0-12.7-15c-4.7-4.7-9.6-9-14.7-13.2C102.6,78,97.4,74,92,70.2Z"/><path class="cls-5" d="M77.2,85.1a111.26,111.26,0,0,0,23.6,27.1c4.8,3.9,9.9,7.3,18.4,14.7,6.2,5.4,11,10.1,14.3,13.4"/><path class="cls-6" d="M77.5,84.9a130.13,130.13,0,0,0,12.1,15.6A107.36,107.36,0,0,0,104,113.9c5.2,4,10.5,8.1,15.4,12.5s9.7,9,14.3,13.8l-.4.4c-4.7-4.6-9.6-9-14.6-13.3-2.5-2.1-5.1-4.2-7.7-6.3s-5.2-4-7.8-6a98.91,98.91,0,0,1-14.6-13.6A108.41,108.41,0,0,1,76.9,85.3Z"/><path class="cls-5" d="M203,218.9c-1.8-2.5-4.9-6.7-9-11.5-15.3-18.2-22-19.6-35.1-35.4-10-12.1-8.4-14.2-16.5-21.2-3.7-3.2-7.8-6.1-19.7-15.9-2.5-2-4.5-3.7-5.9-4.9"/><path class="cls-6" d="M202.7,219.1c-3.1-4.2-6.3-8.2-9.7-12.1a140.28,140.28,0,0,0-10.6-11.2c-3.7-3.6-7.7-6.9-11.6-10.4-1.9-1.7-3.8-3.5-5.6-5.4s-3.6-3.8-5.3-5.8a103.9,103.9,0,0,1-9.3-12.5,54.67,54.67,0,0,0-4.4-6.3,45.92,45.92,0,0,0-5.5-5.3c-4-3.3-8.1-6.5-12.1-9.8s-7.9-6.7-11.9-10l.5-.5c8,6.6,16.2,12.9,24.3,19.3a48.53,48.53,0,0,1,5.7,5.4,46.22,46.22,0,0,1,4.5,6.4,110.24,110.24,0,0,0,9.3,12.3c1.7,2,3.4,3.8,5.2,5.7s3.7,3.6,5.6,5.4c3.8,3.5,7.8,6.8,11.5,10.5a168.11,168.11,0,0,1,20,23.8Z"/><path class="cls-5" d="M228.6,192.6a70.09,70.09,0,0,1-11.9-7.5c-9.3-7.3-10.5-12.4-20.4-23.3a145.35,145.35,0,0,0-17.7-16.5c-9.9-7.8-13-8.2-19.2-14.1a62.44,62.44,0,0,1-13.9-20.1"/><path class="cls-6" d="M228.5,192.8A64,64,0,0,1,216,185a43.54,43.54,0,0,1-5.5-5,50.79,50.79,0,0,1-4.7-5.7c-3-3.9-6-7.8-9.2-11.4s-6.7-7.1-10.3-10.4a143,143,0,0,0-11.3-9.3c-2-1.5-4-2.8-6-4.2s-4.1-2.7-6.1-4.2a43.54,43.54,0,0,1-5.5-5,65.74,65.74,0,0,1-4.8-5.7,68.09,68.09,0,0,1-7.3-12.9l.4-.2a69.53,69.53,0,0,0,7.6,12.5,55.27,55.27,0,0,0,10.2,10.3,64.93,64.93,0,0,0,6.1,4.1c2.1,1.3,4.1,2.7,6.1,4.2a129.34,129.34,0,0,1,11.4,9.4,134.43,134.43,0,0,1,19.6,22.1,60.64,60.64,0,0,0,22.1,18.7Z"/><path class="cls-5" d="M101.2,60.8a18.39,18.39,0,0,0,1.9,4c3.5,5.9,7.9,6.8,14,12.3a47.93,47.93,0,0,1,4.9,5.2"/><path class="cls-6" d="M101.5,60.7a25.53,25.53,0,0,0,3.9,6.3,31.66,31.66,0,0,0,5.7,4.7,55,55,0,0,1,6.1,4.7,34.12,34.12,0,0,1,5,5.8l-.4.3a52.86,52.86,0,0,0-5.4-5.2c-1-.8-2-1.5-3-2.3s-2.1-1.4-3.1-2.2a28.42,28.42,0,0,1-5.9-5,19.59,19.59,0,0,1-3.5-6.9Z"/><path class="cls-5" d="M125.7,87.3c.5.6,1.3,1.6,2.4,2.8,8.7,10,14.5,12.3,22.3,21.7a56,56,0,0,1,3.4,4.5"/><path class="cls-6" d="M126,87.1c2.2,2.5,4.5,5,6.9,7.3s5,4.5,7.5,6.7a81.63,81.63,0,0,1,7.4,7c1.1,1.3,2.3,2.5,3.3,3.9l3,4.1-.7.5-3.1-3.9c-1.1-1.3-2.2-2.5-3.3-3.7a79.5,79.5,0,0,0-7.4-6.8c-2.6-2.2-5.1-4.4-7.5-6.8-1.2-1.2-2.3-2.5-3.4-3.8s-2.1-2.6-3.2-4Z"/><path class="cls-5" d="M209,212.9a70.18,70.18,0,0,0-9-11.9c-6.4-6.9-10.3-8.1-17-13.5-7.4-5.8-7-7.7-21-23.5-3.5-4-8.8-9.9-15.7-16.8"/><path class="cls-6" d="M208.7,213.1A76.21,76.21,0,0,0,202,204a54.25,54.25,0,0,0-8.1-7.8c-3-2.3-6.2-4.3-9.3-6.6a50.67,50.67,0,0,1-4.5-3.6,52.86,52.86,0,0,1-4.1-4.1c-1.3-1.5-2.4-3-3.6-4.4s-2.4-3-3.6-4.4c-2.4-2.9-4.9-5.8-7.4-8.7s-5-5.7-7.6-8.5-5.1-5.6-7.7-8.4l.4-.4,8.1,8.1c2.7,2.7,5.2,5.5,7.8,8.4s5,5.7,7.5,8.6,4.8,5.9,7.2,8.8a36.84,36.84,0,0,0,3.9,4c1.4,1.2,2.9,2.4,4.4,3.5,3,2.3,6.3,4.2,9.3,6.7a61.86,61.86,0,0,1,14.6,17.6Z"/><path class="cls-5" d="M216.7,205a41.09,41.09,0,0,0-4.8-6.2c-6-6.4-11.3-7.7-16.9-15.3a21.94,21.94,0,0,1-1.5-2.2"/><path class="cls-6" d="M216.3,205.2a39.61,39.61,0,0,0-5.2-6.3,19.2,19.2,0,0,0-1.5-1.4c-.5-.5-1-.9-1.5-1.4a28.53,28.53,0,0,0-3.3-2.5,47.76,47.76,0,0,1-6.5-5.4c-1-1-1.9-2.1-2.8-3.2s-1.5-2.3-2.3-3.5l.6-.3a45.28,45.28,0,0,0,5.4,6.2,79.48,79.48,0,0,0,6.4,5.1,40.21,40.21,0,0,1,11.3,12.4Z"/><path class="cls-7" d="M74.9,222c-4.6-3.9-7-5.9-8.2-8.8a17.43,17.43,0,0,1-1.3-6,1.61,1.61,0,0,1,.5-1.1C71.5,202,79.2,196,88,188.4c5.5-4.8,10.2-9.1,20.8-19.2C125.7,153.2,136,143,136,143c12.6-12.3,30-29.3,51.5-50.6l10.9,10.9L79.4,222.1a3.17,3.17,0,0,1-2.3.9A3.72,3.72,0,0,1,74.9,222Z"/><polygon class="cls-8" points="203.7 98.1 198.5 103.3 187.6 92.4 192.9 87.3 203.7 98.1"/><path class="cls-9" d="M192.9,87.3a41.2,41.2,0,0,0,3.7-8.3c1.5-4.6,1.1-6,.8-6.7-.9-2.4-3.2-3.7-4.4-4.4a13.3,13.3,0,0,0-5-1.6c-4.1-.6-9.5-1.5-16.6-2.9l-3.9-3.5c5.2-1,9.7-1.6,12.9-1.9,13.2-1.4,17.5-.1,18.9.4a26.3,26.3,0,0,1,8.6,4.9l20.5,20.5a9.16,9.16,0,0,0,1.1,4.3,9.56,9.56,0,0,0,3.7,3.5,10.76,10.76,0,0,0,4.3,1.3l5.2,5.2a21.14,21.14,0,0,1-13.8,13.8,49.07,49.07,0,0,1-4.8-4.3c-2-2.2-2.3-3.1-2.5-3.9a5.63,5.63,0,0,1,.8-3.8l-4-4a48.57,48.57,0,0,0-14.7,2.3Z"/><line class="cls-10" x1="183.8" y1="100.6" x2="170.2" y2="114.1"/><path class="cls-6" d="M183.9,100.7a73,73,0,0,1-6.5,7.1,88.75,88.75,0,0,1-7.2,6.4h-.1v-.1a87.23,87.23,0,0,1,6.4-7.1,73,73,0,0,1,7.1-6.5.19.19,0,0,1,.3,0C184,100.5,184,100.6,183.9,100.7Z"/><line class="cls-10" x1="184.5" y1="112.7" x2="170.8" y2="126.2"/><path class="cls-6" d="M184.6,112.8a73,73,0,0,1-6.5,7.1,88.75,88.75,0,0,1-7.2,6.4h-.1v-.1a87.23,87.23,0,0,1,6.4-7.1,73,73,0,0,1,7.1-6.5.19.19,0,0,1,.3,0C184.7,112.6,184.7,112.7,184.6,112.8Z"/><path class="cls-5" d="M161.3,124.3a29.35,29.35,0,0,1-10.5,10.5c-3.3,1.9-9.1,4.3-15.1,8.7a11.23,11.23,0,0,0-2,1.8,16.24,16.24,0,0,0-4,10.6"/><path class="cls-6" d="M161.4,124.4a32.76,32.76,0,0,1-7.7,8.9,32.08,32.08,0,0,1-5,3.1c-1.7.9-3.5,1.8-5.2,2.7s-3.4,1.9-5,2.9c-.8.5-1.6,1.1-2.4,1.6a13.55,13.55,0,0,0-5.2,6.6,18.11,18.11,0,0,0-1.2,5.6c0,.1-.1.2-.2.1s-.1-.1-.2-.2a16.47,16.47,0,0,1,1-5.8,14.63,14.63,0,0,1,3-5.1,22,22,0,0,1,2.3-2c.8-.6,1.6-1.1,2.4-1.7a50.88,50.88,0,0,1,5-3c1.7-.9,3.5-1.8,5.2-2.7a30.08,30.08,0,0,0,4.9-2.9,35.08,35.08,0,0,0,7.9-8.4c.1-.1.1-.1.2,0h0C161.4,124.3,161.4,124.4,161.4,124.4Z"/><line class="cls-10" x1="190.8" y1="95.7" x2="186.9" y2="99.6"/><path class="cls-6" d="M191,95.8a9.09,9.09,0,0,1-1.8,2.1,11.78,11.78,0,0,1-2.2,1.7h-.1v-.1a18.39,18.39,0,0,1,1.7-2.2,11.79,11.79,0,0,1,2.1-1.8c.1-.1.2,0,.2.1h0C191,95.7,191,95.7,191,95.8Z"/><line class="cls-10" x1="194.6" y1="99.4" x2="183.8" y2="110.1"/><path class="cls-6" d="M194.7,99.5a67.74,67.74,0,0,1-5.1,5.6c-1.8,1.8-3.7,3.5-5.6,5.1-.1,0-.2,0-.2-.1V110a81.13,81.13,0,0,1,10.7-10.7c.1-.1.2-.1.2,0h0a.14.14,0,0,1,0,.2Z"/><path class="cls-5" d="M168.2,128.9c-.4,1.7-12.7,14-14.4,14.4"/><path class="cls-6" d="M168.4,128.9a10.46,10.46,0,0,1-1.3,2.3c-.5.7-1.1,1.3-1.6,2-1.1,1.3-2.3,2.5-3.5,3.8s-2.5,2.4-3.8,3.5c-.7.6-1.3,1.1-2,1.6a10.89,10.89,0,0,1-2.3,1.4c-.1,0-.2,0-.2-.1s0-.2.1-.2h.1a13.93,13.93,0,0,0,1.9-1.5l1.8-1.8,3.6-3.6,3.6-3.6,1.8-1.8a14.62,14.62,0,0,0,1.6-1.9v-.1c0-.1.2-.1.2-.1S168.4,128.8,168.4,128.9Z"/><path class="cls-5" d="M146.4,147.2c-1.1.3-9.1,8.3-9.4,9.4"/><path class="cls-6" d="M146.5,147.4a6.28,6.28,0,0,0-1.2,1.1l-1.2,1.2-2.4,2.3-2.4,2.3-1.2,1.2a10.59,10.59,0,0,0-1,1.2h0c0,.1-.1.1-.2,0h0a.1.1,0,0,1-.1-.1,6,6,0,0,1,.9-1.5,6.89,6.89,0,0,1,1.1-1.3,27.25,27.25,0,0,1,2.3-2.5c.8-.8,1.6-1.5,2.5-2.3a11.32,11.32,0,0,1,1.3-1,6,6,0,0,1,1.5-.9c.1,0,.1,0,.1.1v.2Z"/><line class="cls-10" x1="174.8" y1="113.9" x2="167.4" y2="121.3"/><path class="cls-6" d="M175,114a32.46,32.46,0,0,1-3.5,3.9,32.46,32.46,0,0,1-3.9,3.5.21.21,0,1,1-.3-.3,32.46,32.46,0,0,1,3.5-3.9c1.2-1.2,2.6-2.4,3.9-3.5a.19.19,0,0,1,.3,0Z"/><line class="cls-10" x1="128.3" y1="161.5" x2="120.9" y2="168.9"/><path class="cls-6" d="M128.4,161.6a32.46,32.46,0,0,1-3.5,3.9A32.46,32.46,0,0,1,121,169a.21.21,0,1,1-.3-.3,32.46,32.46,0,0,1,3.5-3.9,44,44,0,0,1,3.9-3.5.19.19,0,0,1,.3,0h0A.19.19,0,0,1,128.4,161.6Z"/><line class="cls-10" x1="71.9" y1="219.4" x2="81.6" y2="209.8"/><path class="cls-6" d="M71.8,219.4a54.68,54.68,0,0,1,4.5-5.1c1.6-1.6,3.3-3.2,5-4.6a.21.21,0,0,1,.3.3,44,44,0,0,1-4.6,5,54.68,54.68,0,0,1-5.1,4.5h-.1Z"/><line class="cls-10" x1="84.6" y1="206.7" x2="90.9" y2="200.5"/><path class="cls-6" d="M84.6,206.7a23,23,0,0,1,2.8-3.4,23.66,23.66,0,0,1,3.4-2.9c.1-.1.1-.1.2,0v.2a30.71,30.71,0,0,1-2.9,3.4,19.12,19.12,0,0,1-3.5,2.7Z"/><line class="cls-10" x1="67.1" y1="213.9" x2="73.3" y2="207.6"/><path class="cls-6" d="M67,213.8a23,23,0,0,1,2.8-3.4,23.66,23.66,0,0,1,3.4-2.9c.1-.1.1-.1.2,0v.2a30.71,30.71,0,0,1-2.9,3.4,13.6,13.6,0,0,1-3.5,2.7c.1.1,0,.1,0,0Z"/><line class="cls-10" x1="121.2" y1="161.7" x2="93.9" y2="189"/><path class="cls-6" d="M121.3,161.9c-1.1,1.2-2.2,2.4-3.3,3.5l-3.3,3.5c-2.2,2.3-4.5,4.6-6.8,6.9s-4.6,4.5-6.9,6.7-4.6,4.4-7,6.6a.28.28,0,0,1-.4-.4c2.2-2.4,4.4-4.7,6.6-7s4.5-4.6,6.7-6.9,4.6-4.5,6.9-6.8l3.5-3.3,3.6-3.3a.3.3,0,0,1,.4,0C121.4,161.7,121.4,161.8,121.3,161.9Z"/><line class="cls-10" x1="116" y1="177.6" x2="96" y2="197.6"/><path class="cls-6" d="M116.2,177.7c-1.6,1.8-3.2,3.5-4.9,5.2s-3.3,3.4-5,5-3.4,3.3-5.1,5-3.4,3.3-5.2,4.8a.19.19,0,0,1-.3,0h0a.19.19,0,0,1,0-.3c1.6-1.8,3.2-3.5,4.9-5.2s3.3-3.4,5-5.1,3.4-3.3,5-5,3.4-3.3,5.2-4.8a.19.19,0,0,1,.3,0h0A1.58,1.58,0,0,1,116.2,177.7Z"/><line class="cls-10" x1="237.5" y1="92.9" x2="231" y2="99.3"/><path class="cls-6" d="M237.8,93.1c-.5.6-1,1.1-1.5,1.7s-1.1,1.1-1.6,1.6-1.1,1-1.7,1.5-1.1,1-1.8,1.5c-.1.1-.1.1-.2,0h0v-.2c.5-.6,1-1.2,1.5-1.7s1-1.1,1.5-1.7a36.29,36.29,0,0,1,3.3-3.1.37.37,0,0,1,.6,0A.6.6,0,0,1,237.8,93.1Z"/><path class="cls-6" d="M228.7,84a23.86,23.86,0,0,1-8.5,8.2c-.1,0-.2,0-.2-.1v-.2a39.82,39.82,0,0,0,4.3-3.9,40.24,40.24,0,0,0,3.7-4.5.35.35,0,0,1,.5-.1c.2.2.3.4.2.6Z"/><path class="cls-5" d="M138.4,163.3a18.46,18.46,0,0,0-15.5,15.5"/><path class="cls-6" d="M138.4,163.6a20.63,20.63,0,0,0-5.4,2,18.9,18.9,0,0,0-4.6,3.4,17.17,17.17,0,0,0-3.4,4.6,20.63,20.63,0,0,0-2,5.4c0,.1-.2.2-.3.2h0c-.1,0-.2-.1-.2-.3a17.55,17.55,0,0,1,1.7-5.7,18.31,18.31,0,0,1,8.4-8.4,16.18,16.18,0,0,1,5.7-1.6c.2,0,.3.1.3.2h0S138.5,163.6,138.4,163.6Z"/><path class="cls-11" d="M109.1,173.1l2.5-2.5,4.2,4.2,5.2-5.2-4.2-4.2,2.5-2.5,8.2,8.1-2.5,2.5-2.5-2.5-5.2,5.2,2.5,2.5-2.5,2.5Z"/><path class="cls-11" d="M126.3,159l-3.5,3.5-1.5-1.5,9.5-9.5,1.5,1.5-3.5,3.5,6.7,6.7-2.5,2.5Z"/><path class="cls-11" d="M132.6,149.6l.2-.2,10.5-1.6,1.5-10.3.2-.2,8.2,8.2-2.4,2.4-3.1-3.1a19.52,19.52,0,0,1-1.3-1.5,22.86,22.86,0,0,1-.2,2.5l-.6,4.2-.2.2-4.2.6a19.48,19.48,0,0,1-2.5.2s1,.8,1.5,1.3l3.1,3.1-2.4,2.4Z"/><path class="cls-11" d="M147.6,134.7l2.5-2.5,6.7,6.7,5.5-5.5,1.5,1.5-8.1,8.1Z"/><ellipse cx="147.6" cy="238.4" rx="90.3" ry="6"/><rect class="cls-12" x="131.9" y="216.6" width="9.1" height="3.1"/><path class="cls-12" d="M138.2,216.6h-3.4l1.5-16.8C137,205.4,137.6,211,138.2,216.6Z"/><rect class="cls-13" x="154.5" y="197.81" width="3.1" height="9.1" transform="translate(-47.1 357.38) rotate(-89.71)"/><path class="cls-12" d="M154.3,203.9h3.4c-.5,5.6-1,11.2-1.5,16.7C155.5,215.1,154.9,209.5,154.3,203.9Z"/><rect class="cls-13" x="116.71" y="197.74" width="3.1" height="9.1" transform="translate(-84.62 319.52) rotate(-89.71)"/><path class="cls-12" d="M116.5,203.8h3.4c-.5,5.6-1,11.2-1.5,16.7C117.7,215,117.1,209.4,116.5,203.8Z"/></svg>