<svg id="Layer_1" data-name="Layer 1" xmlns="http://www.w3.org/2000/svg" viewBox="0 0 262.08 283.68"><defs><style>.cls-1,.cls-3,.cls-5{fill:#e44d26;}.cls-1,.cls-2,.cls-5,.cls-6,.cls-7{stroke:#650000;}.cls-1,.cls-2,.cls-5,.cls-6,.cls-7,.cls-8{stroke-miterlimit:10;}.cls-1,.cls-2{stroke-width:1.87px;}.cls-2,.cls-7{fill:#b11a00;}.cls-4{fill:#650000;}.cls-5,.cls-6,.cls-7{stroke-width:2.09px;}.cls-6{fill:#cb340d;}.cls-8{font-size:22.1px;fill:#fff;stroke:#fff;stroke-width:1.34px;font-family:NeutraText-Bold, Neutra Text;font-weight:700;}.cls-9{fill:#7f7f7f;stroke:#000;stroke-linecap:round;stroke-linejoin:round;stroke-width:0.82px;}</style></defs><title>HTML Illustration</title><path class="cls-1" d="M237.79,189.25l-41.2,42.6Q114.66,146.41,32.77,61l4.1-4,6.21-6,4.1-4,6.92,7.16L51.62,42.65l6.1-5.92,10.5-10.19,4.6-4.46c.11-.12.24-.23.35-.35Q155.49,105.49,237.79,189.25Z"/><path class="cls-1" d="M73.17,21.73c-.45-.43-1.34-1.32-2.1-2-.35-.33-.65-.64-.87-.84l-3.71,3.77-11.84,12c-1.3,1.32-2.59,2.63-3.89,3.93l.86,4.1L54.1,54.14l-9.26-9.58L41.48,48l-6.31,6.38c-2.88,2.94-5.77,5.86-8.67,8.79q82.95,86.52,165.88,173.06l45.41-46.95Q157.58,104,73.17,21.73Z"/><path class="cls-2" d="M243.85,187.6l-45.4,47-5.65,1.93c-.2.07-.28-.15-.12-.33l44.88-46.39Q154.14,104.89,70.76,20l4.31-4.18Z"/><line class="cls-1" x1="237.79" y1="189.25" x2="243.85" y2="187.6"/><ellipse class="cls-1" cx="85.91" cy="78.8" rx="7.45" ry="27.28" transform="translate(-30.63 81.57) rotate(-43.89)"/><path class="cls-1" d="M93.79,87c-.54.56-5.25-3-8.92-6.82s-7.4-8.92-6.85-9.48,5.44,3.49,9,7.18S94.34,86.37,93.79,87Z"/><path class="cls-3" d="M41.47,48a146,146,0,0,0,36,45.11,148.67,148.67,0,0,0,31.71,20c20.55,10.28,48.32,31.38,77.43,79.47"/><path class="cls-4" d="M41.71,47.84A149.22,149.22,0,0,0,73.37,88.53,137.8,137.8,0,0,0,94.07,104c3.68,2.24,7.47,4.3,11.33,6.23s7.8,3.86,11.55,6.07c15.07,8.88,28.26,20.61,39.77,33.64s21.46,27.42,30.42,42.29l-1.16.7c-4.62-7.32-9.28-14.61-14.44-21.55a246.2,246.2,0,0,0-16.2-20.21c-11.51-12.83-24.47-24.51-39.34-33.25-3.71-2.2-7.53-4.1-11.43-6s-7.7-4.09-11.41-6.39A137.1,137.1,0,0,1,72.35,89.66c-3.22-2.94-6.26-6.06-9.18-9.3s-5.69-6.59-8.28-10.09A153.45,153.45,0,0,1,41.23,48.09Z"/><path class="cls-3" d="M54.65,34.62a295,295,0,0,1,40.7,33.07,128.51,128.51,0,0,1,17.24,20.44,135.92,135.92,0,0,1,9,15.69c5.14,10.08,12.44,16.48,36.86,40.44a494.14,494.14,0,0,0,41.08,36.08"/><path class="cls-4" d="M54.85,34.33c7.18,4.79,14.21,9.83,21,15.17s13.33,11,19.54,17.08a132.44,132.44,0,0,1,17,19.67,125.88,125.88,0,0,1,6.86,11.07c1,1.9,2,3.85,3,5.76a50,50,0,0,0,3.21,5.48,81.83,81.83,0,0,0,8.15,9.84c2.95,3.12,6,6.17,9.06,9.2l18.42,18.16q9.21,9.06,18.9,17.62t19.74,16.69l-.41.53q-10.27-7.89-20.13-16.3c-6.56-5.62-12.94-11.45-19.18-17.42s-12.4-12-18.57-18c-3.07-3-6.15-6.06-9.13-9.21a83.4,83.4,0,0,1-8.38-10,54.78,54.78,0,0,1-3.35-5.67c-1-1.94-1.93-3.84-3-5.72a123.85,123.85,0,0,0-6.71-10.95A135.28,135.28,0,0,0,94.24,67.74C88.15,61.67,81.71,56,75,50.51S61.52,39.84,54.46,34.9Z"/><path class="cls-3" d="M35.18,54.35A146.06,146.06,0,0,0,66,89.75C72.27,94.86,78.86,99.3,90,109c8.09,7,14.42,13.24,18.61,17.5"/><path class="cls-4" d="M35.59,54.09A176.79,176.79,0,0,0,51.36,74.43,142.16,142.16,0,0,0,70.19,91.89c6.8,5.27,13.68,10.58,20.09,16.37S103,120,108.9,126.3l-.49.48q-9.28-9-19.11-17.39-4.93-4.17-10-8.18C76,98.54,72.5,96,69.07,93.33a132.48,132.48,0,0,1-19-17.73,146.6,146.6,0,0,1-15.28-21Z"/><path class="cls-3" d="M199.41,228.93c-2.37-3.28-6.39-8.69-11.7-15-20-23.82-28.68-25.54-45.76-46.14-13.11-15.81-11-18.51-21.53-27.7-4.84-4.24-10.16-7.94-25.67-20.72-3.23-2.66-5.88-4.86-7.64-6.34"/><path class="cls-4" d="M199,229.22q-6-8.15-12.64-15.8a196.28,196.28,0,0,0-13.86-14.68c-4.86-4.66-10-9-15.08-13.52-2.53-2.26-5-4.63-7.37-7s-4.68-4.94-6.88-7.53A135.27,135.27,0,0,1,131,154.32a66.68,66.68,0,0,0-5.72-8.21,62.79,62.79,0,0,0-7.17-6.94c-5.17-4.29-10.54-8.44-15.76-12.74S92,117.74,86.82,113.35l.59-.7c10.45,8.59,21.1,16.83,31.75,25.24a60.59,60.59,0,0,1,7.43,7.09,68.61,68.61,0,0,1,5.9,8.38,140,140,0,0,0,12.11,16.08c2.17,2.57,4.45,5,6.77,7.46s4.77,4.74,7.27,7c5,4.52,10.19,8.88,15,13.65a224.16,224.16,0,0,1,26.14,31.1Z"/><path class="cls-3" d="M232.85,194.62a88.39,88.39,0,0,1-15.47-9.78c-12.08-9.55-13.71-16.12-26.64-30.46a192.83,192.83,0,0,0-23.14-21.6c-12.9-10.19-17-10.66-25.09-18.37a82,82,0,0,1-18.19-26.18"/><path class="cls-4" d="M232.69,194.94a88,88,0,0,1-16.37-10.2,62.41,62.41,0,0,1-7.18-6.52,95.09,95.09,0,0,1-6.19-7.45c-3.87-5.13-7.78-10.15-12-14.89a181.67,181.67,0,0,0-13.49-13.56c-4.72-4.3-9.67-8.33-14.76-12.16-2.56-1.91-5.18-3.71-7.86-5.45s-5.41-3.47-8-5.48a62.89,62.89,0,0,1-7.15-6.59,76,76,0,0,1-6.2-7.45A84.35,84.35,0,0,1,124,88.36l.58-.26a88.85,88.85,0,0,0,9.91,16.31,73.66,73.66,0,0,0,13.33,13.48c2.5,1.94,5.21,3.6,7.91,5.34s5.39,3.54,8,5.45a179.12,179.12,0,0,1,14.9,12.3,181.39,181.39,0,0,1,13.56,13.75,192.28,192.28,0,0,1,12,15.13c7.31,10.47,17.51,18.58,28.85,24.44Z"/><path class="cls-3" d="M66.49,22.62A28.92,28.92,0,0,0,69,27.89C73.55,35.55,79.33,36.72,87.32,44a58.83,58.83,0,0,1,6.44,6.85"/><path class="cls-4" d="M66.87,22.49A30.65,30.65,0,0,0,72,30.68a40.92,40.92,0,0,0,7.5,6.13A63.51,63.51,0,0,1,87.41,43,48.36,48.36,0,0,1,94,50.61l-.49.4a74,74,0,0,0-7.1-6.85c-1.25-1-2.56-2-3.87-3s-2.69-1.89-4.06-2.82a34.63,34.63,0,0,1-7.76-6.54,24.54,24.54,0,0,1-4.6-9Z"/><path class="cls-3" d="M98.42,57.26c.6.75,1.68,2.08,3.07,3.68,11.33,13,18.94,16,29.09,28.33,1,1.23,2.62,3.24,4.47,5.86"/><path class="cls-4" d="M98.85,56.92c2.91,3.28,5.84,6.53,9,9.53s6.49,5.85,9.82,8.73a108.15,108.15,0,0,1,9.65,9.15c1.48,1.65,3,3.32,4.27,5.1l3.89,5.39-.89.62-4.11-5.11c-1.38-1.69-2.86-3.3-4.36-4.88a131,131,0,0,0-9.65-8.87c-3.36-2.82-6.7-5.75-9.84-8.89-1.54-1.59-3.06-3.21-4.5-4.9S99.35,59.35,98,57.61Z"/><path class="cls-3" d="M207.15,221.2a91.25,91.25,0,0,0-11.69-15.58c-8.39-9-13.42-10.58-22.24-17.56-9.65-7.63-9.2-10.1-27.45-30.7-4.59-5.19-11.55-12.86-20.47-21.94"/><path class="cls-4" d="M206.79,221.41A95.67,95.67,0,0,0,198,209.5a74.11,74.11,0,0,0-10.59-10.22c-3.87-3-8.15-5.55-12.17-8.55-2-1.49-4-3-5.88-4.7a52.86,52.86,0,0,1-5.3-5.39c-1.65-1.9-3.18-3.86-4.73-5.8s-3.1-3.87-4.68-5.78c-3.14-3.83-6.39-7.57-9.63-11.33s-6.54-7.45-9.89-11.12-6.71-7.31-10.09-11l.5-.49c3.58,3.46,7.06,7,10.52,10.57s6.83,7.24,10.16,10.92,6.59,7.46,9.79,11.27,6.29,7.74,9.45,11.49a51.62,51.62,0,0,0,5.1,5.25c1.83,1.63,3.77,3.16,5.74,4.63,3.92,3,8.2,5.52,12.12,8.7a82.39,82.39,0,0,1,19.08,23Z"/><path class="cls-3" d="M217.22,210.82a52,52,0,0,0-6.2-8.12c-7.85-8.41-14.69-10-22-20-.86-1.18-1.52-2.2-1.92-2.84"/><path class="cls-4" d="M216.8,211.08a58.45,58.45,0,0,0-6.82-8.27c-.63-.64-1.27-1.25-1.94-1.84s-1.33-1.18-2-1.77c-1.37-1.14-2.8-2.22-4.25-3.29a65,65,0,0,1-8.47-7,44.84,44.84,0,0,1-3.59-4.21c-1.09-1.48-2-3.06-3-4.63l.72-.45a55.32,55.32,0,0,0,7,8.09,92.39,92.39,0,0,0,8.4,6.7,56.24,56.24,0,0,1,8.27,7.25,45.66,45.66,0,0,1,6.47,8.88Z"/><path class="cls-5" d="M32.21,233c-6.06-5.13-9.1-7.69-10.69-11.46a22.45,22.45,0,0,1-1.72-7.79,1.69,1.69,0,0,1,.68-1.42c7.28-5.45,17.32-13.27,28.85-23.23,7.18-6.21,13.29-11.82,27.15-25,22-20.94,35.55-34.26,35.55-34.26,16.42-16,39.18-38.21,67.22-66l14.24,14.2L38.11,233.16a4.53,4.53,0,0,1-3,1.19A4.67,4.67,0,0,1,32.21,233Z"/><polygon class="cls-6" points="200.27 71.33 193.49 78.1 179.25 63.9 186.18 57.26 200.27 71.33"/><path class="cls-7" d="M186.18,57.26A57.41,57.41,0,0,0,191,46.4c1.92-6,1.41-7.84,1.09-8.73-1.16-3.16-4.18-4.85-5.74-5.73a18.27,18.27,0,0,0-6.57-2.13c-5.3-.72-12.46-2-21.72-3.77l-5.09-4.56c6.85-1.33,12.61-2.08,16.8-2.52,17.2-1.82,22.84-.11,24.71.52a35.2,35.2,0,0,1,11.23,6.34l26.8,26.75A11.27,11.27,0,0,0,234,58.21a12,12,0,0,0,4.88,4.52,14.62,14.62,0,0,0,5.57,1.74l6.78,6.77a27.87,27.87,0,0,1-18,18A45.94,45.94,0,0,1,227,83.57c-2.58-2.83-3-4.07-3.22-5.12a7.83,7.83,0,0,1,1-5l-5.22-5.21a61.44,61.44,0,0,0-19.24,3Z"/><line class="cls-3" x1="174.31" y1="74.52" x2="156.56" y2="92.24"/><path class="cls-4" d="M174.49,74.69A104.92,104.92,0,0,1,166,83.94c-3,2.91-6.06,5.77-9.35,8.38a.12.12,0,0,1-.18,0,.14.14,0,0,1,0-.15c2.63-3.29,5.49-6.34,8.41-9.33a103.42,103.42,0,0,1,9.26-8.48.25.25,0,0,1,.35,0A.24.24,0,0,1,174.49,74.69Z"/><line class="cls-3" x1="175.17" y1="90.31" x2="157.41" y2="108.02"/><path class="cls-4" d="M175.34,90.48a101.93,101.93,0,0,1-8.49,9.24c-3,2.92-6.06,5.77-9.35,8.39a.12.12,0,0,1-.17,0,.11.11,0,0,1,0-.15,122.15,122.15,0,0,1,8.4-9.33A101.94,101.94,0,0,1,175,90.13a.26.26,0,0,1,.35,0A.25.25,0,0,1,175.34,90.48Z"/><path class="cls-3" d="M144.92,105.55c-4.73,7.52-9.84,11.48-13.75,13.72-4.26,2.44-11.9,5.6-19.65,11.37a18.06,18.06,0,0,0-2.65,2.32c-4.15,4.46-5.06,10.13-5.24,13.8"/><path class="cls-4" d="M145.08,105.65a40.24,40.24,0,0,1-10,11.61,37.86,37.86,0,0,1-6.55,4c-2.27,1.16-4.53,2.3-6.74,3.52s-4.41,2.47-6.52,3.85c-1.06.68-2.1,1.4-3.12,2.13a17.84,17.84,0,0,0-6.77,8.64,26.82,26.82,0,0,0-1.59,7.33.21.21,0,0,1-.22.19.22.22,0,0,1-.2-.21,24.94,24.94,0,0,1,1.25-7.59,19,19,0,0,1,3.94-6.67,20.36,20.36,0,0,1,3-2.55c1-.76,2.07-1.5,3.13-2.2,2.14-1.42,4.32-2.75,6.57-3.95s4.53-2.36,6.79-3.5a42.37,42.37,0,0,0,6.46-3.85,45.09,45.09,0,0,0,10.25-11,.18.18,0,0,1,.26,0A.19.19,0,0,1,145.08,105.65Z"/><line class="cls-3" x1="183.49" y1="68.13" x2="178.35" y2="73.25"/><path class="cls-4" d="M183.65,68.29a15.74,15.74,0,0,1-2.34,2.79,16.7,16.7,0,0,1-2.86,2.27.13.13,0,0,1-.19,0,.14.14,0,0,1,0-.15,16.62,16.62,0,0,1,2.27-2.85,15.46,15.46,0,0,1,2.8-2.34.23.23,0,0,1,.32.08A.23.23,0,0,1,183.65,68.29Z"/><line class="cls-3" x1="188.35" y1="72.98" x2="174.34" y2="86.96"/><path class="cls-4" d="M188.51,73.14a76,76,0,0,1-6.68,7.31,98.64,98.64,0,0,1-7.36,6.64.19.19,0,0,1-.26-.26c2.08-2.58,4.34-5,6.65-7.34a76,76,0,0,1,7.33-6.67.22.22,0,0,1,.32,0A.21.21,0,0,1,188.51,73.14Z"/><path class="cls-3" d="M154,111.45c-.52,2.21-16.56,18.24-18.79,18.76"/><path class="cls-4" d="M154.19,111.51a11.15,11.15,0,0,1-1.75,3c-.67.9-1.38,1.76-2.1,2.62q-2.21,2.53-4.58,4.9c-1.6,1.56-3.22,3.1-4.92,4.55-.85.73-1.72,1.44-2.62,2.11a11.55,11.55,0,0,1-3,1.78.25.25,0,0,1-.31-.16A.24.24,0,0,1,135,130l.08,0a15.64,15.64,0,0,0,2.46-2l2.38-2.3,4.71-4.69,4.68-4.72,2.32-2.37a15.5,15.5,0,0,0,2.09-2.44l0-.07a.22.22,0,0,1,.3-.07A.22.22,0,0,1,154.19,111.51Z"/><path class="cls-3" d="M125.56,135.45c-1.44.34-11.92,10.79-12.26,12.24"/><path class="cls-4" d="M125.59,135.59A10.36,10.36,0,0,0,124,137c-.53.49-1,1-1.55,1.51l-3.08,3-3.07,3.06c-.51.51-1,1-1.51,1.56a9.64,9.64,0,0,0-1.33,1.6l0,.05a.16.16,0,0,1-.22.06.17.17,0,0,1-.08-.19,7.76,7.76,0,0,1,1.17-1.94c.44-.59.92-1.14,1.38-1.7.94-1.12,2-2.16,3-3.21s2.09-2,3.2-3c.57-.47,1.13-.93,1.72-1.37a7,7,0,0,1,2-1.14.14.14,0,0,1,.17.09.13.13,0,0,1-.06.16Z"/><line class="cls-3" x1="162.59" y1="91.91" x2="152.93" y2="101.55"/><path class="cls-4" d="M162.77,92.09a56.71,56.71,0,0,1-4.54,5.11,46.08,46.08,0,0,1-5.09,4.57.3.3,0,0,1-.42-.06.32.32,0,0,1,0-.37,46.91,46.91,0,0,1,4.57-5.08,59.8,59.8,0,0,1,5.12-4.53.27.27,0,0,1,.36,0A.26.26,0,0,1,162.77,92.09Z"/><line class="cls-3" x1="101.85" y1="154.02" x2="92.19" y2="163.66"/><path class="cls-4" d="M102,154.2a59.59,59.59,0,0,1-4.54,5.11,47,47,0,0,1-5.09,4.56.3.3,0,0,1-.42-.06.32.32,0,0,1,0-.37,45.88,45.88,0,0,1,4.57-5.07,56.56,56.56,0,0,1,5.12-4.53.25.25,0,0,1,.36,0A.27.27,0,0,1,102,154.2Z"/><line class="cls-3" x1="28.27" y1="229.67" x2="40.87" y2="217.09"/><path class="cls-4" d="M28.17,229.57a73.63,73.63,0,0,1,5.92-6.67,68.28,68.28,0,0,1,6.59-6,.27.27,0,0,1,.38,0,.26.26,0,0,1,0,.33,68.27,68.27,0,0,1-6,6.58,73.67,73.67,0,0,1-6.69,5.9.13.13,0,0,1-.19,0A.17.17,0,0,1,28.17,229.57Z"/><line class="cls-3" x1="44.87" y1="213.1" x2="53.05" y2="204.93"/><path class="cls-4" d="M44.81,213a26.33,26.33,0,0,1,3.7-4.48,31.28,31.28,0,0,1,4.42-3.75.18.18,0,0,1,.25,0,.2.2,0,0,1,0,.21,31.9,31.9,0,0,1-3.77,4.41,26.28,26.28,0,0,1-4.48,3.69.1.1,0,0,1-.12,0A.07.07,0,0,1,44.81,213Z"/><line class="cls-3" x1="21.94" y1="222.39" x2="30.12" y2="214.22"/><path class="cls-4" d="M21.88,222.33a25.87,25.87,0,0,1,3.7-4.48A31.76,31.76,0,0,1,30,214.1a.19.19,0,0,1,.26,0,.2.2,0,0,1,0,.21,32.6,32.6,0,0,1-3.77,4.41A26.28,26.28,0,0,1,22,222.45a.09.09,0,0,1-.12,0A.07.07,0,0,1,21.88,222.33Z"/><line class="cls-3" x1="92.55" y1="154.37" x2="56.96" y2="189.89"/><path class="cls-4" d="M92.79,154.61c-1.4,1.57-2.84,3.09-4.26,4.63l-4.34,4.55c-2.93,3-5.86,6-8.83,9s-6,5.9-9,8.79-6.06,5.79-9.17,8.6a.34.34,0,0,1-.48,0,.34.34,0,0,1,0-.46c2.82-3.1,5.71-6.14,8.62-9.15s5.88-6,8.81-9,6-5.9,9-8.82l4.56-4.33c1.54-1.42,3.07-2.86,4.64-4.25a.35.35,0,0,1,.48,0A.34.34,0,0,1,92.79,154.61Z"/><line class="cls-3" x1="85.87" y1="175.06" x2="59.67" y2="201.2"/><path class="cls-4" d="M86.05,175.24c-2.07,2.3-4.2,4.53-6.34,6.75s-4.31,4.41-6.49,6.59-4.38,4.34-6.62,6.47-4.46,4.26-6.75,6.33a.24.24,0,0,1-.35,0,.24.24,0,0,1,0-.33c2.07-2.29,4.2-4.52,6.34-6.74s4.33-4.4,6.49-6.6,4.38-4.34,6.59-6.49,4.47-4.26,6.77-6.31a.25.25,0,0,1,.36,0A.27.27,0,0,1,86.05,175.24Z"/><line class="cls-3" x1="244.4" y1="64.47" x2="235.95" y2="72.89"/><path class="cls-4" d="M244.76,64.83c-.65.76-1.34,1.47-2,2.19s-1.41,1.4-2.15,2.07-1.45,1.36-2.21,2-1.5,1.31-2.29,1.93a.18.18,0,0,1-.26,0,.2.2,0,0,1,0-.23c.63-.78,1.28-1.54,1.94-2.28s1.34-1.47,2-2.21,1.37-1.44,2.07-2.14,1.43-1.38,2.19-2a.52.52,0,0,1,.73,0A.53.53,0,0,1,244.76,64.83Z"/><path class="cls-4" d="M232.9,52.85a30.18,30.18,0,0,1-11.06,10.7.21.21,0,0,1-.23-.34,53.52,53.52,0,0,0,5.62-5.1,56,56,0,0,0,4.82-5.82.51.51,0,0,1,.85.56Z"/><path class="cls-3" d="M115,156.44a24.28,24.28,0,0,0-20.28,20.24"/><path class="cls-4" d="M115,156.8a27.44,27.44,0,0,0-7,2.58,24.09,24.09,0,0,0-6,4.4,24.61,24.61,0,0,0-4.43,5.94,27.72,27.72,0,0,0-2.6,7,.33.33,0,0,1-.4.25.34.34,0,0,1-.26-.35,22.68,22.68,0,0,1,.72-3.83,25.39,25.39,0,0,1,1.39-3.67,23.91,23.91,0,0,1,4.54-6.39,23.49,23.49,0,0,1,6.41-4.52,22.4,22.4,0,0,1,7.49-2.13.36.36,0,0,1,.4.32A.37.37,0,0,1,115,156.8Z"/><text class="cls-8" transform="matrix(1.06, -1.06, 0.71, 0.71, 85.86, 181.51)">HTML</text><ellipse cx="127.09" cy="254.37" rx="117.92" ry="7.89"/><rect class="cls-9" x="106.64" y="225.97" width="11.88" height="4.11"/><path class="cls-9" d="M114.86,226h-4.39l1.92-21.87Q113.62,215,114.86,226Z"/><rect class="cls-9" x="132.16" y="205.33" width="11.88" height="4.11" transform="translate(275.15 415.46) rotate(-179.71)"/><path class="cls-9" d="M135.82,209.43l4.38,0q-1,10.94-2,21.86Q137,220.36,135.82,209.43Z"/><rect class="cls-9" x="82.85" y="205.22" width="11.88" height="4.11" transform="translate(176.53 414.98) rotate(-179.71)"/><path class="cls-9" d="M86.51,209.31l4.38,0q-1,10.93-2,21.86Q87.69,220.26,86.51,209.31Z"/></svg>