<?xml version="1.0" encoding="utf-8"?>
<!-- Generator: Adobe Illustrator 25.4.1, SVG Export Plug-In . SVG Version: 6.00 Build 0)  -->
<svg version="1.1" id="Layer_1" xmlns="http://www.w3.org/2000/svg" xmlns:xlink="http://www.w3.org/1999/xlink" x="0px" y="0px"
	 viewBox="0 0 300 300" style="enable-background:new 0 0 300 300;" xml:space="preserve">
<style type="text/css">
	.st0{fill:#F7DF1E;stroke:#000000;stroke-width:2.21;stroke-linecap:round;stroke-linejoin:round;}
	.st1{fill:#999999;stroke:#000000;stroke-width:2.21;stroke-linecap:round;stroke-linejoin:round;}
	.st2{fill:#F7DF1E;stroke:#000000;stroke-width:1.1;stroke-linecap:round;stroke-linejoin:round;}
	.st3{fill:#DEC605;stroke:#000000;stroke-width:2.21;stroke-linecap:round;stroke-linejoin:round;}
	.st4{fill:#4D4D4D;stroke:#000000;stroke-width:2.21;stroke-linecap:round;stroke-linejoin:round;}
	.st5{fill:#333333;stroke:#000000;stroke-width:2.21;stroke-linecap:round;stroke-linejoin:round;}
	.st6{fill:#F7DF1E;stroke:#000000;stroke-width:1.39;stroke-linecap:round;stroke-linejoin:round;}
	.st7{fill:#DEC605;stroke:#000000;stroke-width:1.39;stroke-miterlimit:10;}
	.st8{fill:#1A1A1A;stroke:#000000;stroke-width:2.21;stroke-linecap:round;stroke-linejoin:round;}
	.st9{fill:#FFF938;stroke:#000000;stroke-width:2.21;stroke-linecap:round;stroke-linejoin:round;}
	.st10{fill:#C4AC00;stroke:#000000;stroke-width:2.21;stroke-linecap:round;stroke-linejoin:round;}
	.st11{fill:none;stroke:#000000;stroke-width:0.46;stroke-linecap:round;stroke-linejoin:round;}
	.st12{fill:#7F7F7F;stroke:#000000;stroke-width:2.21;stroke-linecap:round;stroke-linejoin:round;}
	.st13{fill:#C4AC00;stroke:#000000;stroke-width:1.1;stroke-linecap:round;stroke-linejoin:round;}
	.st14{fill:none;stroke:#000000;stroke-width:0.93;stroke-linecap:round;stroke-linejoin:round;}
	.st15{fill:none;stroke:#000000;stroke-width:1.39;stroke-linecap:round;stroke-linejoin:round;}
	.st16{stroke:#000000;stroke-width:0.75;stroke-miterlimit:10;}
</style>
<g>
	<path class="st0" d="M115.8,64.9l2.5,0.5c-0.4,4.3-0.8,8.6-1.2,12.9l-2.5-0.5L115.8,64.9z"/>
	<path class="st1" d="M68.7,62.9l8.4-1.7l-0.8,12.2l-8-4.3C68.4,67.1,68.5,65,68.7,62.9z"/>
	<path class="st2" d="M161.2,110.5c0.4-1.7,0.3-3.5-0.1-5.3c-0.4-1.4-1.2-2.8-2.3-3.8c-1.2-1.1-2.3-1.4-4.2-2
		c-1.7-0.5-3.4-0.8-5.1-1c-1.4-0.1-5.8-0.7-6.1-0.7v1.5c0.2,0.4,0.5,0.8,0.8,1c0.5,0.3,2.8,0.8,3.6,1.3c0.6,0.3,1.1,0.7,1.6,1.2
		c0.5,0.6,0.9,1.3,1,2.1c0,0,0,0.1,0,0.1c0.2,1,0.2,2,0,2.9c-0.7,3.6-1.4,6.4-0.8,8.3c0.2,0.6,0.6,1.1,1.1,1.5
		c0.3,0.2,0.7,0.4,1.1,0.4c2.3,0.2,4.7,0.2,7,0.1C159.8,115.8,160.6,113.2,161.2,110.5z"/>
	<path class="st3" d="M209.2,101.7c0-1-0.1-1.5-0.4-1.9c-0.4-0.4-0.9-0.5-1.4-0.5h-16.3L178.3,99c-0.8-0.1-1.7,0.2-2.3,0.7
		c-0.7,0.6-1.1,1.4-1.1,2.3c-0.1,1.8-0.1,3.5,0,5.3c0.2,2.7,0.7,5.4,1.3,8.1c1.2,6.1,1.8,7.6,1.2,9.5c0,0.1-0.4,1.6-0.9,3.5
		c-0.2,0.8-0.4,1.7-0.6,2.5c-0.1,1.2,0,2.5,0.3,3.7c0.5,2.3,1.4,6.6,2.5,12.1c0.5,2.2,1.7,10.1,3.2,12.2c0.4,0.6,0.9,1.1,1.5,1.5
		c0.5,0.3,1.2,0.6,1.8,0.7c0.7,0.1,6.8,0,6.8,0h6.7V159c-0.1-4.8-0.4-10-0.9-15.5c-0.4-4.4-1-8.6-1.6-12.5l-1.1-8l-1.5-11.3
		c-0.3-1.1-0.2-2.3,0.3-3.4c0.4-0.8,1.1-1.5,1.9-2c0.7-0.5,1.5-0.9,2.3-1.1c1.4-0.4,3.2-0.2,9.4-0.4h1.8l0,0
		C209.3,103.6,209.3,102.5,209.2,101.7z"/>
	<path class="st4" d="M230.7,74.8c-0.4-1.2-0.9-2.3-1.5-3.4c-0.7-1.2-1.4-2.3-2.3-3.3c-0.8-0.8-1.6-1.5-2.5-2.1
		c-1.2-0.8-2.5-1.4-3.9-1.9c-1.7-0.5-3.4-0.8-5.1-0.8c-2.7-0.3-5.3-0.6-8-0.8c-1.6-0.2-3.9-0.4-6.8-0.7l-10-0.9l-8.6-0.8l-8.8-1
		l-6.3-0.7l-10.2-1l-7.4-0.8l-7.1-0.8l-0.1,1.3l-0.3,3.6l-0.7,5.7l-0.6,5.9l-0.3,3.3l31,3l32.6,3.8l27.9,2.2c0-1.9-0.2-3.9-0.4-5.8
		C231.3,77.3,231.1,76,230.7,74.8z"/>
	<path class="st5" d="M203.8,82.2l-32.6-3.8l-31-3l-0.3,3.4l-0.6,6.5l-0.6,7.7v1.6c-0.2,0.6-0.1,1.3,0.3,1.8
		c0.4,0.5,0.9,0.7,1.9,0.9c0.8,0.2,1.5,0.3,2.3,0.4l1.5,0.2c1.9,0.3,3.2,0.3,4.7,0.5c1.7,0.1,3.4,0.5,5.1,1c1.9,0.6,3,1,4.2,2
		c1.1,1,1.9,2.3,2.3,3.8c0.4,1.7,0.5,3.5,0.1,5.3c-0.1,1.7-0.6,3.4-1.3,5c-0.5,0.9-0.9,1.9-1.1,2.9c-0.1,0.7-0.1,1.5,0,2.2
		c1.2-0.1,2.5,0.2,3.6,0.8c1,0.6,1.8,1.5,2.4,2.5l0.5,5.8c0.3,3.9,0.6,7.8,0.9,11.8c0.7,7.9,1.6,15.5,2.7,22.7
		c0.3,1.1,0.2,2.2-0.2,3.3c-0.3,0.7-0.7,1.3-1.3,1.7c-0.6,0.5-1.4,0.8-2.1,1c-1.2,0.3-10.3,0.5-11.6,0.7c-0.9,0.1-1.8,0.4-2.7,0.8
		c-0.8,0.4-1.6,1-2.3,1.6c-0.8,0.8-1.5,1.7-2,2.7c-0.7,1.5-1.1,3.1-1.2,4.8c-0.2,1.8-0.2,3.6-0.1,5.4c0,0.7,0,1.3,0.1,1.7v0.4h31.8
		c0,0.6,0,1.6,0,2.8c0,0.1,0,0.2,0,0.3c0,1.9-0.2,5.9-0.2,7.6c0,0.7,0.1,1.4,0.5,1.9c0.4,0.5,0.9,0.8,1.5,1c6.4-0.1,10.9-0.1,12.2,0
		c0.5,0.1,1.1,0,1.5-0.4c0.4-0.3,0.6-0.7,0.5-1.2v-12.1h14.6c0.1-1.6,0.2-3.2,0.1-4.8c0-0.1-0.1-0.6-0.2-1.2
		c-0.5-2.9-1.6-5.6-3.1-8.1c-1.5-2.4-3.4-4.5-5.6-6.2l-0.3-3.8l-0.1-3h-6.7c0,0-6.1,0.1-6.8,0c-0.6-0.1-1.2-0.3-1.8-0.7
		c-0.6-0.4-1.1-0.9-1.5-1.5c-1.5-2.2-2.7-10-3.2-12.2c-1.2-5.6-2.1-9.8-2.5-12.1c-0.3-1.2-0.4-2.5-0.3-3.7c0.1-0.9,0.3-1.7,0.6-2.5
		c0.5-1.9,0.9-3.4,0.9-3.5c0.5-2,0-3.4-1.2-9.5c-0.6-2.7-1-5.4-1.3-8.2c-0.1-1.8-0.1-3.5,0-5.3c0-0.9,0.4-1.7,1.1-2.3
		c0.6-0.5,1.5-0.8,2.3-0.7l12.7,0.2h16.3c0.5,0,1,0.1,1.4,0.5c0.4,0.4,0.4,0.9,0.4,1.9c0,0.8,0,1.9,0,3.1l0,0c3.4-0.1,3.2,0,4.5-0.1
		c2.1-0.1,4.2-0.4,6.3-1.1c2-0.7,3.9-1.8,5.5-3.2c1.7-1.6,3.1-3.6,4.1-5.7c0.6-1.2,1-2.4,1.3-3.7c0.5-2.1,0.7-4.3,0.7-6.5
		L203.8,82.2z"/>
	<path class="st6" d="M201.6,93.1l-30-2.4c-0.7-0.1-1.3-0.7-1.2-1.5l1.5-19.6c0-0.7,0.6-1.3,1.4-1.2c0,0,0,0,0.1,0l30.3,3.3
		c0.7,0.1,1.2,0.8,1.1,1.5c-0.6,6.2-1.2,12.5-1.8,18.7C202.9,92.6,202.3,93.1,201.6,93.1C201.6,93.1,201.6,93.1,201.6,93.1z"/>
	<path class="st7" d="M177.1,199c0,0.7,0.1,1.4,0.5,1.9c0.4,0.5,0.9,0.8,1.5,1c6.4-0.1,10.9-0.1,12.2,0c0.5,0.1,1.1,0,1.5-0.4
		c0.4-0.3,0.6-0.7,0.5-1.2v-8.9h-16C177.2,193.3,177,197.3,177.1,199z"/>
	<path class="st8" d="M197.8,197.7c0.2,1.2,0.1,2.4-0.2,3.6c-0.7,2.4-2.6,4.3-5,5.1h-14c-1.3-0.2-2.5-0.8-3.4-1.8
		c-0.7-0.8-1.3-1.7-1.6-2.7c-0.3-1.1-0.5-2.2-0.5-3.4c0-1.7,0-3.7-0.1-6.5l-27.7,0.2v19.9l-0.2,10.3c0,0.4,0.3,0.8,0.7,0.8
		c0.5,0,1,0.1,1.5,0.1c0.7,0,1.5,0,2.1,0h26.2c4.6,0,9.2,0,13.8,0c4.3,0,6.5,0.1,10.3,0c2.7-0.1,5.1-0.2,6.7-0.3
		c0.4,0,0.7-0.3,0.7-0.7c0.2-2.1,0.3-21,0.4-23c0-2.4,0.1-4.7,0.2-7.2l-10.1,0.1C197.6,194.4,197.7,196.3,197.8,197.7z"/>
	<path class="st9" d="M210.6,190.4c-0.1,0.7-0.6,1.2-1.2,1.5h-1.7l-10.1,0.1c-0.1,2.4,0,4.3,0.1,5.7c0.2,1.2,0.1,2.4-0.2,3.6
		c-0.7,2.4-2.6,4.3-5,5.1h-14c-1.3-0.2-2.5-0.8-3.4-1.8c-0.7-0.8-1.3-1.7-1.6-2.7c-0.3-1.1-0.5-2.2-0.5-3.4c0-1.7,0-3.7-0.1-6.5
		l-27.7,0.2h-0.7c-0.6-0.5-0.9-1.2-0.9-1.9c0-0.7,0.4-1.4,0.9-1.9h32.6c0,0.6,0,1.6,0,2.8v0.3c-0.1,1.9-0.3,5.9-0.2,7.6
		c0,0.7,0.1,1.4,0.5,1.9c0.4,0.5,0.9,0.8,1.5,1c6.4-0.1,10.9-0.1,12.2,0c0.5,0.1,1.1-0.1,1.5-0.4c0.4-0.3,0.6-0.7,0.5-1.2v-12.1
		h16.1C210.3,188.7,210.8,189.5,210.6,190.4z"/>
	<path class="st4" d="M119.1,55.3c-0.1,1.8-1.2,15.5-1.2,15.5l-0.7,6.9c0,0-0.8,9.5-1,10.6l16.7,2.7l3.4-35.5L119.1,55.3z"/>
	<path class="st10" d="M142.2,55.5l-5.9-0.1L132.9,91l5.9,1L142.2,55.5z"/>
	<path class="st11" d="M135,91.3l3.3-35.8"/>
	<path class="st11" d="M136.5,91.5c1.1-12,2.2-24.1,3.3-36.1"/>
	<path class="st12" d="M86.1,53.2c-1.4,1.1-2.8,2.2-4.3,3.3c-1.6,1.3-3.2,2.5-4.7,3.8c-0.2,2.3-0.3,4.6-0.5,6.9s-0.3,4.7-0.4,7.1
		c0,0,6,7.3,7.9,9.1c1-14,1.7-24,2.1-30.2L86.1,53.2z"/>
	<path class="st4" d="M114.2,56.1l-28-2.8c-0.4,6.1-1.1,16.2-2.1,30.1c0.3,0.3,0.4,0.4,0.5,0.4l27,2.6c1.2,0.1,2.2-0.8,2.3-2
		c0,0,0,0,0,0l2.2-26C116.2,57.3,115.4,56.3,114.2,56.1z"/>
	<path class="st13" d="M156.5,95.1l-9-1.1c-1.6-0.2-2.7-1.7-2.5-3.3l0.1-0.8c0.1-1.6,1.5-2.8,3.1-2.6c0,0,0,0,0,0l9,1.1
		c1.6,0.3,2.7,1.7,2.5,3.3l-0.1,0.8C159.5,94,158.1,95.2,156.5,95.1C156.5,95.1,156.5,95.1,156.5,95.1z"/>
	<path class="st2" d="M156.2,93.4l-8.2-1c-0.5-0.1-0.9-0.3-1.1-0.7c-0.3-0.4-0.4-0.9-0.4-1.3c0.1-0.9,0.8-1.6,1.7-1.6h0.2l8.2,1
		c1,0.1,1.6,1,1.5,2c-0.1,0.9-0.8,1.6-1.7,1.6L156.2,93.4z"/>
	<line class="st14" x1="179.2" y1="194" x2="191.2" y2="194"/>
	<line class="st14" x1="179.2" y1="196.4" x2="191.2" y2="196.4"/>
	<line class="st14" x1="179.2" y1="198.8" x2="191.2" y2="198.8"/>
	<path class="st15" d="M68.3,66.2l8.3,1.1"/>
	<path class="st16" d="M179.2,83.7l2-1c0.3,0.7,0.6,1.3,1.4,1.3c0.8,0.1,1.3-0.2,1.4-1.4l0.7-8l2.4,0.2l-0.7,8
		c-0.2,2.4-1.7,3.4-3.8,3.2C181,86.1,179.7,85.1,179.2,83.7z"/>
	<path class="st16" d="M187.5,84.2l2-0.9c0.4,0.9,1.2,1.5,2.2,1.6c1,0.1,1.6-0.4,1.7-1c0.1-0.8-0.5-1.1-1.6-1.7l-0.6-0.3
		c-1.6-0.8-2.7-1.9-2.5-3.8c0.1-1.8,1.6-3,3.7-2.8c1.4,0,2.7,0.9,3.2,2.2l-1.9,1c-0.2-0.6-0.8-1.1-1.4-1.1c-0.6-0.1-1.1,0.3-1.2,0.8
		c0,0,0,0,0,0c-0.1,0.7,0.3,1,1.3,1.6L193,80c1.9,1,3,2,2.8,4c-0.2,2.1-1.9,3.1-4.2,3C189.8,86.9,188.2,85.8,187.5,84.2z"/>
	<ellipse cx="150" cy="240" rx="81.8" ry="6.7"/>
</g>
</svg>
