<svg id="Layer_1" data-name="Layer 1" xmlns="http://www.w3.org/2000/svg" viewBox="0 0 300 300"><defs><style>.cls-1,.cls-3,.cls-7{fill:#f7df1e;}.cls-1,.cls-10,.cls-11,.cls-12,.cls-13,.cls-14,.cls-15,.cls-16,.cls-17,.cls-2,.cls-3,.cls-4,.cls-5,.cls-6,.cls-7,.cls-8,.cls-9{stroke:#000;}.cls-1,.cls-10,.cls-11,.cls-12,.cls-13,.cls-14,.cls-15,.cls-16,.cls-2,.cls-3,.cls-4,.cls-5,.cls-6,.cls-7,.cls-9{stroke-linecap:round;stroke-linejoin:round;}.cls-1,.cls-10,.cls-11,.cls-13,.cls-2,.cls-4,.cls-5,.cls-6,.cls-9{stroke-width:2.21px;}.cls-2{fill:#999;}.cls-14,.cls-3{stroke-width:1.1px;}.cls-4,.cls-8{fill:#dec605;}.cls-5{fill:#4d4d4d;}.cls-6{fill:#333;}.cls-16,.cls-7,.cls-8{stroke-width:1.39px;}.cls-17,.cls-8{stroke-miterlimit:10;}.cls-9{fill:#1a1a1a;}.cls-10{fill:#fff938;}.cls-11,.cls-14{fill:#c4ac00;}.cls-12,.cls-15,.cls-16{fill:none;}.cls-12{stroke-width:0.46px;}.cls-13{fill:#7f7f7f;}.cls-15{stroke-width:0.93px;}.cls-17{stroke-width:0.75px;}</style></defs><path class="cls-1" d="M115.8,64.9l2.5.5-1.2,12.9-2.5-.5Z"/><path class="cls-2" d="M68.7,62.9l8.4-1.7-.8,12.2-8-4.3C68.4,67.1,68.5,65,68.7,62.9Z"/><path class="cls-3" d="M161.2,110.5a11.88,11.88,0,0,0-.1-5.3,8.31,8.31,0,0,0-2.3-3.8c-1.2-1.1-2.3-1.4-4.2-2a30.64,30.64,0,0,0-5.1-1c-1.4-.1-5.8-.7-6.1-.7v1.5a2.72,2.72,0,0,0,.8,1c.5.3,2.8.8,3.6,1.3a6.1,6.1,0,0,1,1.6,1.2,4.12,4.12,0,0,1,1,2.1v.1a7.08,7.08,0,0,1,0,2.9c-.7,3.6-1.4,6.4-.8,8.3a3.27,3.27,0,0,0,1.1,1.5,2.1,2.1,0,0,0,1.1.4,54.52,54.52,0,0,0,7,.1A42.26,42.26,0,0,0,161.2,110.5Z"/><path class="cls-4" d="M209.2,101.7a3,3,0,0,0-.4-1.9,1.87,1.87,0,0,0-1.4-.5H191.1L178.3,99a3.17,3.17,0,0,0-2.3.7,3,3,0,0,0-1.1,2.3,46.85,46.85,0,0,0,0,5.3,56.87,56.87,0,0,0,1.3,8.1c1.2,6.1,1.8,7.6,1.2,9.5,0,.1-.4,1.6-.9,3.5-.2.8-.4,1.7-.6,2.5a11.6,11.6,0,0,0,.3,3.7c.5,2.3,1.4,6.6,2.5,12.1.5,2.2,1.7,10.1,3.2,12.2a5.36,5.36,0,0,0,1.5,1.5,5.63,5.63,0,0,0,1.8.7c.7.1,6.8,0,6.8,0h6.7V159c-.1-4.8-.4-10-.9-15.5-.4-4.4-1-8.6-1.6-12.5l-1.1-8-1.5-11.3a5,5,0,0,1,.3-3.4,5.2,5.2,0,0,1,1.9-2,7,7,0,0,1,2.3-1.1c1.4-.4,3.2-.2,9.4-.4h1.8A28.18,28.18,0,0,0,209.2,101.7Z"/><path class="cls-5" d="M230.7,74.8a20.65,20.65,0,0,0-1.5-3.4,19.42,19.42,0,0,0-2.3-3.3,16.38,16.38,0,0,0-2.5-2.1,17.62,17.62,0,0,0-3.9-1.9,18.07,18.07,0,0,0-5.1-.8c-2.7-.3-5.3-.6-8-.8-1.6-.2-3.9-.4-6.8-.7l-10-.9-8.6-.8-8.8-1-6.3-.7-10.2-1-7.4-.8-7.1-.8-.1,1.3-.3,3.6-.7,5.7-.6,5.9-.3,3.3,31,3,32.6,3.8,27.9,2.2a56.5,56.5,0,0,0-.4-5.8A12.45,12.45,0,0,0,230.7,74.8Z"/><path class="cls-6" d="M203.8,82.2l-32.6-3.8-31-3-.3,3.4-.6,6.5-.6,7.7v1.6a1.94,1.94,0,0,0,.3,1.8,2.83,2.83,0,0,0,1.9.9,18.46,18.46,0,0,0,2.3.4l1.5.2c1.9.3,3.2.3,4.7.5a23,23,0,0,1,5.1,1,11,11,0,0,1,4.2,2,7.83,7.83,0,0,1,2.3,3.8,11.83,11.83,0,0,1,.1,5.3,14.8,14.8,0,0,1-1.3,5,10.21,10.21,0,0,0-1.1,2.9,8.1,8.1,0,0,0,0,2.2,6.56,6.56,0,0,1,3.6.8,7.18,7.18,0,0,1,2.4,2.5l.5,5.8c.3,3.9.6,7.8.9,11.8.7,7.9,1.6,15.5,2.7,22.7a5.34,5.34,0,0,1-.2,3.3,3.71,3.71,0,0,1-1.3,1.7,5.8,5.8,0,0,1-2.1,1c-1.2.3-10.3.5-11.6.7a9.24,9.24,0,0,0-2.7.8,11.87,11.87,0,0,0-2.3,1.6,10.52,10.52,0,0,0-2,2.7,13.06,13.06,0,0,0-1.2,4.8,32.47,32.47,0,0,0-.1,5.4,8.12,8.12,0,0,0,.1,1.7v.4h31.8v3.1c0,1.9-.2,5.9-.2,7.6a3,3,0,0,0,.5,1.9,3.07,3.07,0,0,0,1.5,1c6.4-.1,10.9-.1,12.2,0a1.67,1.67,0,0,0,1.5-.4,1.15,1.15,0,0,0,.5-1.2V188.2h14.6a38.46,38.46,0,0,0,.1-4.8c0-.1-.1-.6-.2-1.2a23.2,23.2,0,0,0-8.7-14.3l-.3-3.8-.1-3h-6.7s-6.1.1-6.8,0a4.49,4.49,0,0,1-1.8-.7,5.36,5.36,0,0,1-1.5-1.5c-1.5-2.2-2.7-10-3.2-12.2-1.2-5.6-2.1-9.8-2.5-12.1a11.6,11.6,0,0,1-.3-3.7,10.15,10.15,0,0,1,.6-2.5c.5-1.9.9-3.4.9-3.5.5-2,0-3.4-1.2-9.5a73.71,73.71,0,0,1-1.3-8.2,46.85,46.85,0,0,1,0-5.3,3,3,0,0,1,1.1-2.3,3.17,3.17,0,0,1,2.3-.7l12.7.2h16.3a1.87,1.87,0,0,1,1.4.5c.4.4.4.9.4,1.9v3.1h0c3.4-.1,3.2,0,4.5-.1a23.17,23.17,0,0,0,6.3-1.1,16.89,16.89,0,0,0,5.5-3.2,19.26,19.26,0,0,0,4.1-5.7,16.27,16.27,0,0,0,1.3-3.7,28.15,28.15,0,0,0,.7-6.5Z"/><path class="cls-7" d="M201.6,93.1l-30-2.4a1.36,1.36,0,0,1-1.2-1.5l1.5-19.6a1.22,1.22,0,0,1,1.4-1.2h.1l30.3,3.3a1.34,1.34,0,0,1,1.1,1.5c-.6,6.2-1.2,12.5-1.8,18.7a1.4,1.4,0,0,1-1.4,1.2Z"/><path class="cls-8" d="M177.1,199a3,3,0,0,0,.5,1.9,3.07,3.07,0,0,0,1.5,1c6.4-.1,10.9-.1,12.2,0a1.67,1.67,0,0,0,1.5-.4,1.15,1.15,0,0,0,.5-1.2v-8.9h-16C177.2,193.3,177,197.3,177.1,199Z"/><path class="cls-9" d="M197.8,197.7a8.77,8.77,0,0,1-.2,3.6,7.72,7.72,0,0,1-5,5.1h-14a5.68,5.68,0,0,1-3.4-1.8,7.44,7.44,0,0,1-1.6-2.7,12.7,12.7,0,0,1-.5-3.4c0-1.7,0-3.7-.1-6.5l-27.7.2v19.9l-.2,10.3a.77.77,0,0,0,.7.8c.5,0,1,.1,1.5.1h42.1c4.3,0,6.5.1,10.3,0,2.7-.1,5.1-.2,6.7-.3a.68.68,0,0,0,.7-.7c.2-2.1.3-21,.4-23,0-2.4.1-4.7.2-7.2l-10.1.1C197.6,194.4,197.7,196.3,197.8,197.7Z"/><path class="cls-10" d="M210.6,190.4a2,2,0,0,1-1.2,1.5h-1.7l-10.1.1a49,49,0,0,0,.1,5.7,8.77,8.77,0,0,1-.2,3.6,7.72,7.72,0,0,1-5,5.1h-14a5.68,5.68,0,0,1-3.4-1.8,7.44,7.44,0,0,1-1.6-2.7,12.7,12.7,0,0,1-.5-3.4c0-1.7,0-3.7-.1-6.5l-27.7.2h-.7a2.46,2.46,0,0,1-.9-1.9,2.84,2.84,0,0,1,.9-1.9h32.6v3.1c-.1,1.9-.3,5.9-.2,7.6a3,3,0,0,0,.5,1.9,3.07,3.07,0,0,0,1.5,1c6.4-.1,10.9-.1,12.2,0a2,2,0,0,0,1.5-.4,1.15,1.15,0,0,0,.5-1.2V188.3h16.1A1.81,1.81,0,0,1,210.6,190.4Z"/><path class="cls-5" d="M119.1,55.3c-.1,1.8-1.2,15.5-1.2,15.5l-.7,6.9s-.8,9.5-1,10.6L132.9,91l3.4-35.5Z"/><path class="cls-11" d="M142.2,55.5l-5.9-.1L132.9,91l5.9,1Z"/><path class="cls-12" d="M135,91.3l3.3-35.8"/><path class="cls-12" d="M136.5,91.5c1.1-12,2.2-24.1,3.3-36.1"/><path class="cls-13" d="M86.1,53.2c-1.4,1.1-2.8,2.2-4.3,3.3-1.6,1.3-3.2,2.5-4.7,3.8-.2,2.3-.3,4.6-.5,6.9s-.3,4.7-.4,7.1c0,0,6,7.3,7.9,9.1,1-14,1.7-24,2.1-30.2Z"/><path class="cls-5" d="M114.2,56.1l-28-2.8c-.4,6.1-1.1,16.2-2.1,30.1.3.3.4.4.5.4l27,2.6a2.14,2.14,0,0,0,2.3-2h0l2.2-26A2.18,2.18,0,0,0,114.2,56.1Z"/><path class="cls-14" d="M156.5,95.1l-9-1.1a2.93,2.93,0,0,1-2.5-3.3l.1-.8a2.77,2.77,0,0,1,3.1-2.6h0l9,1.1a3,3,0,0,1,2.5,3.3l-.1.8a2.9,2.9,0,0,1-3.1,2.6Z"/><path class="cls-3" d="M156.2,93.4l-8.2-1a1.44,1.44,0,0,1-1.1-.7,2.2,2.2,0,0,1-.4-1.3,1.73,1.73,0,0,1,1.7-1.6h.2l8.2,1a1.81,1.81,0,0,1-.2,3.6Z"/><line class="cls-15" x1="179.2" y1="194" x2="191.2" y2="194"/><line class="cls-15" x1="179.2" y1="196.4" x2="191.2" y2="196.4"/><line class="cls-15" x1="179.2" y1="198.8" x2="191.2" y2="198.8"/><path class="cls-16" d="M68.3,66.2l8.3,1.1"/><path class="cls-17" d="M179.2,83.7l2-1c.3.7.6,1.3,1.4,1.3s1.3-.2,1.4-1.4l.7-8,2.4.2-.7,8a3.16,3.16,0,0,1-3.8,3.2A3.37,3.37,0,0,1,179.2,83.7Z"/><path class="cls-17" d="M187.5,84.2l2-.9a2.65,2.65,0,0,0,2.2,1.6c1,.1,1.6-.4,1.7-1,.1-.8-.5-1.1-1.6-1.7l-.6-.3c-1.6-.8-2.7-1.9-2.5-3.8s1.6-3,3.7-2.8a3.48,3.48,0,0,1,3.2,2.2l-1.9,1a1.6,1.6,0,0,0-1.4-1.1,1,1,0,0,0-1.2.8h0c-.1.7.3,1,1.3,1.6l.6.2c1.9,1,3,2,2.8,4s-1.9,3.1-4.2,3A4.77,4.77,0,0,1,187.5,84.2Z"/><ellipse cx="150" cy="240" rx="81.8" ry="6.7"/></svg>