<svg id="Layer_1" data-name="Layer 1" xmlns="http://www.w3.org/2000/svg" viewBox="0 0 204.96 250.56"><defs><style>.cls-1,.cls-3,.cls-7{fill:#f7df1e;}.cls-1,.cls-10,.cls-11,.cls-12,.cls-13,.cls-14,.cls-15,.cls-16,.cls-17,.cls-2,.cls-3,.cls-4,.cls-5,.cls-6,.cls-7,.cls-8,.cls-9{stroke:#000;}.cls-1,.cls-10,.cls-11,.cls-12,.cls-13,.cls-14,.cls-15,.cls-16,.cls-2,.cls-3,.cls-4,.cls-5,.cls-6,.cls-7,.cls-9{stroke-linecap:round;stroke-linejoin:round;}.cls-1,.cls-10,.cls-11,.cls-13,.cls-2,.cls-4,.cls-5,.cls-6,.cls-9{stroke-width:2.21px;}.cls-2{fill:#999;}.cls-14,.cls-3{stroke-width:1.1px;}.cls-4,.cls-8{fill:#dec605;}.cls-5{fill:#4d4d4d;}.cls-6{fill:#333;}.cls-16,.cls-7,.cls-8{stroke-width:1.39px;}.cls-17,.cls-8{stroke-miterlimit:10;}.cls-9{fill:#1a1a1a;}.cls-10{fill:#fff938;}.cls-11,.cls-14{fill:#c4ac00;}.cls-12,.cls-15,.cls-16{fill:none;}.cls-12{stroke-width:0.46px;}.cls-13{fill:#7f7f7f;}.cls-15{stroke-width:0.93px;}.cls-17{font-size:19.88px;font-family:NeutraText-Bold, Neutra Text;font-weight:700;}</style></defs><title>Javascript Illustration</title><path class="cls-1" d="M61.55,28.44l3,.64q-.69,7.62-1.39,15.25l-3-.58Z"/><path class="cls-2" d="M5.94,26.08l9.91-2-1,14.44L5.42,33.4Q5.69,29.74,5.94,26.08Z"/><path class="cls-3" d="M115,82.14a13.62,13.62,0,0,0-.11-6.19,10,10,0,0,0-2.7-4.47c-1.39-1.28-2.73-1.7-5-2.4a29.4,29.4,0,0,0-6-1.15c-1.63-.17-6.83-.77-7.23-.84V68.9a2.53,2.53,0,0,0,1,1.21c.55.34,3.25.89,4.3,1.55a6.66,6.66,0,0,1,1.86,1.46,6.1,6.1,0,0,1,1.22,2.49s0,.08,0,.14a10.25,10.25,0,0,1,0,3.47c-.87,4.24-1.7,7.58-.93,9.73a3.82,3.82,0,0,0,1.25,1.79,3,3,0,0,0,1.3.51,68.37,68.37,0,0,0,8.3.17A69.36,69.36,0,0,0,115,82.14Z"/><path class="cls-4" d="M171.67,71.78c0-1.22-.09-1.82-.52-2.28a2.14,2.14,0,0,0-1.64-.58H150.26l-15-.28a3.77,3.77,0,0,0-2.71.83,3.84,3.84,0,0,0-1.32,2.73,50.76,50.76,0,0,0,0,6.23A76.38,76.38,0,0,0,132.71,88c1.42,7.24,2.08,8.91,1.44,11.25,0,.13-.5,1.83-1.08,4.12a24.16,24.16,0,0,0-.65,3,12.82,12.82,0,0,0,.33,4.36c.61,2.73,1.63,7.76,3,14.32.55,2.62,2,11.88,3.78,14.44a6.71,6.71,0,0,0,1.73,1.72,5.81,5.81,0,0,0,2.11.8c.83.14,8,0,8,0h7.92l0-2.71c-.13-5.68-.46-11.77-1.08-18.22-.51-5.18-1.16-10.1-1.9-14.72L155,96.92,153.19,83.6a6,6,0,0,1,.33-4,6.09,6.09,0,0,1,2.19-2.32A8.45,8.45,0,0,1,158.46,76c1.63-.43,3.78-.23,11.11-.43l2.1,0h0C171.72,74,171.7,72.75,171.67,71.78Z"/><path class="cls-5" d="M197,40a18.68,18.68,0,0,0-1.79-4,22.43,22.43,0,0,0-2.75-3.84,19.37,19.37,0,0,0-3-2.46,18.72,18.72,0,0,0-4.59-2.24,24.35,24.35,0,0,0-6-1c-3.14-.31-6.27-.67-9.41-1-1.86-.18-4.63-.46-8.05-.86l-11.79-1.09-10.16-1-10.38-1.14-7.41-.8-12-1.21-8.71-1-8.32-1-.16,1.54-.38,4.19-.81,6.76-.65,7-.3,3.94,36.51,3.57,38.49,4.43,32.93,2.61a59.37,59.37,0,0,0-.49-6.87A22.33,22.33,0,0,0,197,40Z"/><path class="cls-6" d="M165.32,48.76l-38.49-4.43L90.32,40.76l-.3,4-.75,7.62-.65,9.11V63.4a2.92,2.92,0,0,0,.32,2.18c.43.62,1.08.79,2.27,1.09a25.08,25.08,0,0,0,2.72.42l1.72.27c2.21.34,3.81.39,5.51.57a29.4,29.4,0,0,1,6,1.15c2.25.7,3.59,1.12,5,2.4a10,10,0,0,1,2.7,4.47,13.62,13.62,0,0,1,.11,6.19A18.42,18.42,0,0,1,113.49,88a11,11,0,0,0-1.3,3.44,8.83,8.83,0,0,0,0,2.64,7.43,7.43,0,0,1,4.21,1A8.16,8.16,0,0,1,119.22,98l.64,6.88q.45,6.81,1.09,13.87c.84,9.3,1.91,18.25,3.13,26.81a6,6,0,0,1-.24,3.84,5.45,5.45,0,0,1-1.54,2.06,5.83,5.83,0,0,1-2.52,1.12c-1.46.36-12.12.62-13.62.86a11.24,11.24,0,0,0-3.16,1,10.56,10.56,0,0,0-2.68,1.89A11.94,11.94,0,0,0,98,159.49a15.74,15.74,0,0,0-1.45,5.65,40.76,40.76,0,0,0-.13,6.34c0,.83,0,1.51.08,2v.43H134c0,.74,0,1.88,0,3.28,0,.11,0,.26,0,.38-.05,2.19-.29,7-.2,9a3.82,3.82,0,0,0,.59,2.29,3.1,3.1,0,0,0,1.77,1.13c7.51-.09,12.86-.13,14.38,0a2.24,2.24,0,0,0,1.74-.44,1.73,1.73,0,0,0,.64-1.39V173.89h17.22a44,44,0,0,0,.12-5.6c0-.08-.08-.75-.2-1.46a28.31,28.31,0,0,0-3.68-9.52,27.23,27.23,0,0,0-6.59-7.33l-.32-4.47-.07-3.48h-7.92s-7.22.14-8,0a5.81,5.81,0,0,1-2.11-.8,6.71,6.71,0,0,1-1.73-1.72c-1.75-2.56-3.23-11.82-3.78-14.44-1.4-6.56-2.42-11.59-3-14.32a12.82,12.82,0,0,1-.33-4.36,24.16,24.16,0,0,1,.65-3c.58-2.29,1.05-4,1.08-4.12.64-2.34,0-4-1.44-11.25a76.38,76.38,0,0,1-1.48-9.61,50.76,50.76,0,0,1,0-6.23,3.84,3.84,0,0,1,1.32-2.73,3.77,3.77,0,0,1,2.71-.83l15,.28h19.25a2.14,2.14,0,0,1,1.64.58c.43.46.49,1.06.52,2.28,0,1,.05,2.22,0,3.69h0c4-.08,3.77,0,5.36-.12A25.85,25.85,0,0,0,184.52,74,19.17,19.17,0,0,0,191,70.17a20.89,20.89,0,0,0,4.86-6.77,24.48,24.48,0,0,0,1.57-4.35,29.46,29.46,0,0,0,.81-7.68Z"/><path class="cls-7" d="M162.63,61.58l-35.39-2.85A1.58,1.58,0,0,1,125.85,57l1.8-23.12a1.53,1.53,0,0,1,1.66-1.46L165,36.32a1.59,1.59,0,0,1,1.35,1.76q-1,11-2.08,22.06A1.53,1.53,0,0,1,162.63,61.58Z"/><path class="cls-8" d="M133.77,186.51a3.82,3.82,0,0,0,.59,2.29,3.1,3.1,0,0,0,1.77,1.13c7.51-.09,12.86-.13,14.38,0a2.24,2.24,0,0,0,1.74-.44,1.73,1.73,0,0,0,.64-1.39V177.55H134C133.92,179.74,133.68,184.53,133.77,186.51Z"/><path class="cls-9" d="M158.15,184.91a12,12,0,0,1-.18,4.22,9,9,0,0,1-5.84,6H135.59a7.17,7.17,0,0,1-4-2.07,8.1,8.1,0,0,1-1.84-3.2,11.78,11.78,0,0,1-.54-4c0-2-.05-4.4-.11-7.68l-32.67.22v23.48L96.19,214a.92.92,0,0,0,.83,1c.56,0,1.14.07,1.74.08.87,0,1.71,0,2.51,0h30.92c5.41,0,10.81,0,16.22,0,5.05.05,7.65.12,12.11,0,3.23-.09,6-.24,7.93-.38a.9.9,0,0,0,.83-.87c.19-2.48.41-24.73.45-27.14.05-2.88.09-5.49.2-8.54l-11.85.1C158,181.08,158.07,183.35,158.15,184.91Z"/><path class="cls-10" d="M173.34,176.37a2.27,2.27,0,0,1-1.42,1.76h-2l-11.85.1c-.08,2.84,0,5.11.07,6.67a11.73,11.73,0,0,1-.18,4.22,9,9,0,0,1-5.84,6H135.59a7.1,7.1,0,0,1-4-2.07,8.1,8.1,0,0,1-1.84-3.2,12.09,12.09,0,0,1-.54-4c0-2-.05-4.39-.11-7.67l-32.67.22h-.85a3,3,0,0,1-1.07-2.28,3,3,0,0,1,1.07-2.19H134c0,.74,0,1.87,0,3.28v.38c-.06,2.19-.3,7-.21,9a3.83,3.83,0,0,0,.59,2.29,3.1,3.1,0,0,0,1.77,1.13c7.52-.1,12.85-.13,14.38,0a2.29,2.29,0,0,0,1.74-.44,1.73,1.73,0,0,0,.64-1.39V173.89h19A2.38,2.38,0,0,1,173.34,176.37Z"/><path class="cls-5" d="M65.38,17.08C65.24,19.2,64,35.33,64,35.33l-.81,8.13s-1,11.22-1.13,12.53l19.65,3.14,4-41.86Z"/><path class="cls-11" d="M92.62,17.34l-6.91-.07-4,41.86,7,1.12Z"/><path class="cls-12" d="M84.15,59.52l3.93-42.23"/><path class="cls-12" d="M85.88,59.8q2-21.3,3.94-42.6"/><path class="cls-13" d="M26.48,14.64c-1.66,1.24-3.35,2.54-5.05,3.87-1.89,1.5-3.73,3-5.5,4.46-.2,2.7-.4,5.43-.58,8.18s-.36,5.57-.51,8.32c0,0,7.13,8.58,9.34,10.76Q26,25.56,26.65,14.65Z"/><path class="cls-5" d="M59.69,18l-33-3.3Q26,25.56,24.18,50.23c.31.31.53.49.61.49l31.85,3.11a2.51,2.51,0,0,0,2.67-2.37l2.6-30.67A2.58,2.58,0,0,0,59.69,18Z"/><path class="cls-14" d="M109.46,64,98.8,62.66a3.5,3.5,0,0,1-2.93-3.92l.1-1a3.4,3.4,0,0,1,3.7-3.11l10.66,1.29a3.52,3.52,0,0,1,2.94,3.92l-.11,1A3.4,3.4,0,0,1,109.46,64Z"/><path class="cls-3" d="M109.2,62l-9.72-1.18A1.93,1.93,0,0,1,98.14,60a2.19,2.19,0,0,1-.43-1.57,2.08,2.08,0,0,1,2-1.88h.23l9.71,1.18a2.11,2.11,0,0,1,1.77,2.36,2.08,2.08,0,0,1-2,1.89Z"/><line class="cls-15" x1="136.25" y1="180.61" x2="150.36" y2="180.61"/><line class="cls-15" x1="136.25" y1="183.47" x2="150.36" y2="183.47"/><line class="cls-15" x1="136.25" y1="186.28" x2="150.36" y2="186.28"/><path class="cls-16" d="M5.58,29.86l9.77,1.29"/><text class="cls-17" transform="matrix(1, 0.08, -0.08, 1, 135.8, 52.89)">JS</text><ellipse cx="101.84" cy="234.83" rx="96.41" ry="7.95"/></svg>