<?xml version="1.0" encoding="utf-8"?>
<!-- Generator: Adobe Illustrator 23.0.6, SVG Export Plug-In . SVG Version: 6.00 Build 0)  -->
<svg version="1.1" id="Layer_1" xmlns="http://www.w3.org/2000/svg" xmlns:xlink="http://www.w3.org/1999/xlink" x="0px" y="0px"
	 viewBox="0 0 1600 1200" style="enable-background:new 0 0 1600 1200;" xml:space="preserve">
<style type="text/css">
	.st0{fill:#CECECE;}
	.st1{fill:#CC4C6E;}
	.st2{fill:#F3B541;}
	.st3{fill:#4CB3AA;}
	.st4{fill:#842C68;}
	.st5{stroke:#000000;stroke-width:3;stroke-miterlimit:10;}
</style>
<rect y="-0.1" class="st0" width="1600" height="1200"/>
<path id="Path_480" class="st1" d="M220.6,735.7L220.6,735.7c-27.1,3.7-52.4-11.5-57.4-34.1L124.6,512
	c-4.4-22.6,13.8-43.7,40.9-47.9l0,0c27.1-3.7,52.4,11.5,57.4,34.1l38.6,189.6C265.9,710.4,247.8,731.6,220.6,735.7z"/>
<path id="Path_481" class="st1" d="M359.3,735.8L359.3,735.8c-27.1,3.7-52.4-11.5-57.4-34.1l-38.6-189.6
	c-5-22.6,13.3-43.7,40.3-47.9l0,0c27.1-3.7,52.4,11.5,57.4,34.1l38.6,189.6C404.4,710.5,386.3,731.7,359.3,735.8z"/>
<path id="Path_482" class="st2" d="M53.8,732L53.8,732c-24.8-9.2-36.4-33.6-25.4-54.7l100-189.1c11-20.7,40.3-30.4,65.7-21.2l0,0
	c24.8,9.2,36.4,33.6,25.4,54.7L119,710.8C107.9,732,78.7,741.2,53.8,732z"/>
<path id="Path_483" class="st3" d="M192,732L192,732c-24.8-9.2-36.4-33.6-25.4-54.7l100-189.1c11-20.7,40.3-30.4,65.7-21.2l0,0
	c24.8,9.2,36.4,33.6,25.4,54.7l-99.9,189.1C246.1,732,216.9,741.2,192,732z"/>
<path id="Path_484" class="st4" d="M332.4,732.5L332.4,732.5c-24.8-9.2-36.4-33.6-25.4-54.7l100.5-189.1
	c11-20.7,40.3-30.4,65.7-21.2l0,0c24.8,9.2,36.4,33.6,25.4,54.7L398.1,711.3C386.9,732.5,357.8,741.7,332.4,732.5z"/>
<g>
	<path class="st5" d="M701.9,667.7c0,2.1,0.7,3.9,2.1,5.1l14.2,13.5v0.4h-71.4v-0.4l14.4-13.5c1.3-1.3,1.9-3,1.9-5.1v-86.2
		c0-4.3,0.2-8.6,0.6-12.9l-48.5,119.9h-0.4l-50.2-110.3c-2.1-4.4-3.5-7.6-4.1-9.4v82c0,2.1,0.9,4.5,2.8,7.1l21.7,28.5v0.4h-53.4
		v-0.4l21.7-28.5c1.9-2.6,2.8-4.9,2.8-7.1v-85c0-2.6-0.6-4.6-1.9-6.2l-17.6-23.2V536h51.3l44.8,97.8L672,536h46.1v0.4L704,552.1
		c-1.4,1.4-2.1,3.2-2.1,5.4V667.7z"/>
	<path class="st5" d="M817.3,622.2c0,0.9,0,2.3-0.1,4.4c-0.1,2.1-0.1,3.2-0.1,3.3l-1.3,30.5c-0.4,8.3,1.5,12.4,5.8,12.4
		c2.7,0,4.7-1.3,6-3.9h0.4c0,2.9-0.6,5.4-1.7,7.7c-3.9,7.9-10.9,11.8-21,11.8c-6.4,0-11.9-1.8-16.3-5.5c-4.4-3.6-6.8-8.8-7.1-15.3
		c-2.1,6.3-5.8,11.3-11,15.1c-5.2,3.8-11.3,5.7-18.1,5.7c-8.3,0-15.2-2.7-20.8-8c-5.6-5.4-8.4-12.8-8.4-22.2
		c0-10,3.6-17.9,10.8-23.7c7.2-5.8,15.6-8.7,25.2-8.7c9.7,0,17.3,1.9,22.7,5.8l0.4-23v-1.1c0-16.4-5.2-24.7-15.7-24.7
		c-2.1,0-3.5,0.1-4,0.4c-0.5,0.3-1.1,1-1.8,2.1l-17.4,32.2h-0.4L730,587c15.2-5.4,29.6-8.2,43.3-8.2c15.2,0,26.2,3.3,33.3,9.9
		C813.7,595.5,817.3,606.6,817.3,622.2z M774.4,632.5c-5.4,0-9.7,2.1-12.8,6.2c-3.1,4.1-4.6,9.4-4.6,15.9c0,5.7,1.2,10.2,3.5,13.4
		s5.4,4.8,9.1,4.8c4.9,0,8.9-2.5,12.2-7.5v-0.2l0.4-31.3C779.7,632.9,777.1,632.5,774.4,632.5z"/>
	<path class="st5" d="M914.2,616.2l-27.5,66.5c-5.6,13.3-11.7,25.2-18.4,35.6c-4.4,6.9-8.9,11.8-13.4,14.7c-4.5,2.9-10,4.4-16.4,4.4
		c-3.4,0-6.8-0.7-10.1-2.1l7.9-37.5h0.4l21.2,21c1.1,1.1,2,1.7,2.6,1.7c1,0,2.1-0.9,3.2-2.6c2.9-4,5.6-8.9,8.2-14.8l1.3-3.4
		l-39.9-101.3c-0.7-1.9-1.8-4.2-3.2-7.1l-5.8-10.3v-0.4h55.6v0.4l-8.6,11.8c-1,1.4-1.1,3.1-0.4,4.9l21.7,60.1l17.4-42.3
		c0.7-1.9,1.1-3.2,1.2-4c0.1-0.8-0.3-2.1-1.2-4L896.9,581v-0.4h36.7v0.4l-13.9,24C917.7,608.1,916,611.8,914.2,616.2z"/>
	<path class="st5" d="M1048.3,624.1c0,5.1-0.1,13.7-0.3,25.6c-0.2,11.9-0.3,19.1-0.3,21.6c0,2.1,0.6,3.9,1.9,5.1l10.7,9.9v0.4h-60.3
		v-0.4l10.3-9.9c1.3-1.3,1.9-2.9,1.9-4.9c0-0.4,0.1-6.6,0.3-18.6c0.2-11.9,0.3-19.9,0.3-23.9c0-10.7-1.1-18.8-3.4-24.2
		c-2.3-5.4-6.6-8.2-12.9-8.2c-6.3,0-11.6,3.1-15.9,9.4v65.2c0,2.3,0.6,4,1.9,5.1l10.5,9.9v0.4h-60.1v-0.4l10.5-9.9
		c1.3-1.1,1.9-2.9,1.9-5.1v-74.2c0-2.1-0.6-3.9-1.9-5.4L933.1,581v-0.4h47.6v22.7c5.9-16.3,17.2-24.5,34.1-24.5
		c10.7,0,19,3.9,24.8,11.6S1048.3,609.4,1048.3,624.1z"/>
	<path class="st5" d="M1121.9,688.5c-17.5,0-31.2-4.7-41.3-14.1c-10.1-9.4-15.1-23-15.1-40.9c0-17.6,5.1-31.1,15.2-40.5
		c10.2-9.4,23.9-14.2,41.2-14.2c17.4,0,31.2,4.7,41.4,14.1c10.2,9.4,15.2,23,15.2,40.9c0,17.6-5.1,31.1-15.3,40.5
		C1153,683.8,1139.2,688.5,1121.9,688.5z M1135,593.8c-2.9-7.2-7.2-10.8-13.1-10.8c-5.9,0-10.2,3.5-13.1,10.6
		c-2.9,7.1-4.3,20.4-4.3,40c0,19.5,1.4,32.8,4.3,40.1c2.9,7.3,7.2,10.9,13.1,10.9c5.9,0,10.2-3.6,13.1-10.7
		c2.9-7.1,4.3-20.5,4.3-40.1C1139.3,614.3,1137.9,601,1135,593.8z"/>
	<path class="st5" d="M1245,688.5c-17.5,0-31.2-4.7-41.3-14.1c-10.1-9.4-15.1-23-15.1-40.9c0-17.6,5.1-31.1,15.2-40.5
		c10.2-9.4,23.9-14.2,41.2-14.2c17.4,0,31.2,4.7,41.4,14.1c10.2,9.4,15.2,23,15.2,40.9c0,17.6-5.1,31.1-15.3,40.5
		C1276.1,683.8,1262.3,688.5,1245,688.5z M1258.1,593.8c-2.9-7.2-7.2-10.8-13.1-10.8c-5.9,0-10.2,3.5-13.1,10.6
		c-2.9,7.1-4.3,20.4-4.3,40c0,19.5,1.4,32.8,4.3,40.1c2.9,7.3,7.2,10.9,13.1,10.9c5.9,0,10.2-3.6,13.1-10.7
		c2.9-7.1,4.3-20.5,4.3-40.1C1262.4,614.3,1261,601,1258.1,593.8z"/>
	<path class="st5" d="M1379.6,580.6v4.3h-26.4v71.7c0,4.9,1,8.6,3,11.3c2,2.6,4.8,4,8.4,4c5.4,0,9.6-2.6,12.4-7.9l0.4,0.2
		c-1.3,6.9-4.5,12.7-9.5,17.4c-5.1,4.7-12.3,7.1-21.8,7.1c-18.6,0-27.9-9.8-27.9-29.4v-74.2h-11.8v-4.3h9.7c3,0,5.2-0.8,6.7-2.4
		l30-33.7h0.4v36H1379.6z"/>
	<path class="st5" d="M1494.8,624.1c0,5.1-0.1,13.7-0.3,25.6c-0.2,11.9-0.3,19.1-0.3,21.6c0,2.1,0.7,3.9,2.1,5.1l10.5,9.9v0.4h-60.1
		v-0.4l10.1-9.9c1.4-1.3,2.1-2.9,2.1-4.9c0-0.4,0.1-6.6,0.3-18.6c0.2-11.9,0.3-19.9,0.3-23.9c0-10.7-1.2-18.8-3.5-24.2
		c-2.4-5.4-6.6-8.2-12.8-8.2c-6.3,0-11.7,3.2-16.1,9.7v65c0,2.1,0.7,3.9,2.1,5.1l10.5,9.9v0.4h-60.1v-0.4l10.5-9.9
		c1.3-1.3,1.9-3,1.9-5.1V551.6c0-2.3-0.6-4.1-1.9-5.4l-10.5-9.9V536l47.4-5.6V604c5.9-16.7,17.2-25.1,34.1-25.1
		c10.9,0,19.2,3.9,24.9,11.6C1491.9,598.2,1494.8,609.4,1494.8,624.1z"/>
</g>
</svg>
