<?xml version="1.0" encoding="utf-8"?>
<!-- Generator: Adobe Illustrator 23.0.6, SVG Export Plug-In . SVG Version: 6.00 Build 0)  -->
<svg version="1.1" id="Layer_1" xmlns="http://www.w3.org/2000/svg" xmlns:xlink="http://www.w3.org/1999/xlink" x="0px" y="0px"
	 viewBox="0 0 1600 1200" style="enable-background:new 0 0 1600 1200;" xml:space="preserve">
<style type="text/css">
	.st0{fill:#CECECE;}
	.st1{fill:#CC4C6E;}
	.st2{fill:#F3B541;}
	.st3{fill:#4CB3AA;}
	.st4{fill:#842C68;}
	.st5{enable-background:new    ;}
	.st6{stroke:#000000;stroke-width:8;stroke-miterlimit:10;}
	.st7{font-family:'NoeDisplay-Bold';}
	.st8{font-size:164.8559px;}
	.st9{letter-spacing:3;}
</style>
<rect class="st0" width="1600" height="1200"/>
<path id="Path_480" class="st1" d="M220.6,735.7L220.6,735.7c-27.1,3.7-52.4-11.5-57.4-34.1L124.6,512
	c-4.4-22.6,13.8-43.7,40.9-47.9l0,0c27.1-3.7,52.4,11.5,57.4,34.1l38.6,189.6C265.9,710.4,247.8,731.6,220.6,735.7z"/>
<path id="Path_481" class="st1" d="M359.3,735.7L359.3,735.7c-27.1,3.7-52.4-11.5-57.4-34.1L263.3,512c-5-22.6,13.3-43.7,40.3-47.9
	l0,0c27.1-3.7,52.4,11.5,57.4,34.1l38.6,189.6C404.4,710.4,386.3,731.6,359.3,735.7z"/>
<path id="Path_482" class="st2" d="M53.9,732.5L53.9,732.5c-24.8-9.2-36.4-33.6-25.4-54.7l100-189.1c11-20.7,40.3-30.4,65.7-21.2
	l0,0c24.8,9.2,36.4,33.6,25.4,54.7L119.1,711.3C108,732.5,78.8,741.7,53.9,732.5z"/>
<path id="Path_483" class="st3" d="M191.9,732.5L191.9,732.5c-24.8-9.2-36.4-33.6-25.4-54.7l100-189.1c11-20.7,40.3-30.4,65.7-21.2
	l0,0c24.8,9.2,36.4,33.6,25.4,54.7l-99.9,189.1C246,732.5,216.8,741.7,191.9,732.5z"/>
<path id="Path_484" class="st4" d="M332.4,732.5L332.4,732.5c-24.8-9.2-36.4-33.6-25.4-54.7l100.5-189.1
	c11-20.7,40.3-30.4,65.7-21.2l0,0c24.8,9.2,36.4,33.6,25.4,54.7L398.1,711.3C386.9,732.5,357.8,741.7,332.4,732.5z"/>
<g class="st5">
	<text transform="matrix(1 0 0 1 512.1436 691.1245)" class="st6 st7 st8 st9">MAYNOOTH</text>
</g>
</svg>
