<?xml version="1.0" encoding="utf-8"?>
<!-- Generator: Adobe Illustrator 23.0.6, SVG Export Plug-In . SVG Version: 6.00 Build 0)  -->
<svg version="1.1" id="Layer_1" xmlns="http://www.w3.org/2000/svg" xmlns:xlink="http://www.w3.org/1999/xlink" x="0px" y="0px"
	 viewBox="0 0 1600 1200" style="enable-background:new 0 0 1600 1200;" xml:space="preserve">
<style type="text/css">
	.st0{fill:#CECECE;}
	.st1{fill:#CC4C6E;}
	.st2{fill:#F3B541;}
	.st3{fill:#4CB3AA;}
	.st4{fill:#842C68;}
	.st5{font-family:'NoeDisplay-Bold';}
	.st6{font-size:164.8559px;}
	.st7{letter-spacing:2;}
	.st8{enable-background:new    ;}
	.st9{fill:none;stroke:#000000;stroke-width:8;stroke-miterlimit:10;}
</style>
<rect y="-0.1" class="st0" width="1600" height="1200"/>
<path id="Path_480" class="st1" d="M220.6,735.7L220.6,735.7c-27.1,3.7-52.4-11.5-57.4-34.1L124.6,512
	c-4.4-22.6,13.8-43.7,40.9-47.9l0,0c27.1-3.7,52.4,11.5,57.4,34.1l38.6,189.6C265.9,710.4,247.8,731.6,220.6,735.7z"/>
<path id="Path_481" class="st1" d="M359.3,735.8L359.3,735.8c-27.1,3.7-52.4-11.5-57.4-34.1l-38.6-189.6
	c-5-22.6,13.3-43.7,40.3-47.9l0,0c27.1-3.7,52.4,11.5,57.4,34.1l38.6,189.6C404.4,710.5,386.3,731.7,359.3,735.8z"/>
<path id="Path_482" class="st2" d="M53.8,732L53.8,732c-24.8-9.2-36.4-33.6-25.4-54.7l100-189.1c11-20.7,40.3-30.4,65.7-21.2l0,0
	c24.8,9.2,36.4,33.6,25.4,54.7L119,710.8C107.9,732,78.7,741.2,53.8,732z"/>
<path id="Path_483" class="st3" d="M192,732L192,732c-24.8-9.2-36.4-33.6-25.4-54.7l100-189.1c11-20.7,40.3-30.4,65.7-21.2l0,0
	c24.8,9.2,36.4,33.6,25.4,54.7l-99.9,189.1C246.1,732,216.9,741.2,192,732z"/>
<path id="Path_484" class="st4" d="M332.4,732.5L332.4,732.5c-24.8-9.2-36.4-33.6-25.4-54.7l100.5-189.1
	c11-20.7,40.3-30.4,65.7-21.2l0,0c24.8,9.2,36.4,33.6,25.4,54.7L398.1,711.3C386.9,732.5,357.8,741.7,332.4,732.5z"/>
<text transform="matrix(1 0 0 1 512.1436 691.1245)" class="st5 st6 st7">MAYNOOTH</text>
<g class="st8">
	<path class="st9" d="M643.5,676.5c0,1.6,0.5,3,1.6,4l10.9,10.4v0.3h-54.9v-0.3l11-10.4c1-1,1.5-2.3,1.5-4v-66.3
		c0-3.3,0.2-6.6,0.5-9.9l-37.3,92.2h-0.3L538,607.7c-1.6-3.4-2.7-5.8-3.1-7.3v63c0,1.6,0.7,3.5,2.1,5.4l16.7,21.9v0.3h-41v-0.3
		l16.6-21.9c1.4-2,2.1-3.8,2.1-5.4v-65.3c0-2-0.5-3.6-1.5-4.8l-13.5-17.8v-0.3h39.4l34.5,75.2l30.3-75.2h35.4v0.3l-10.9,12
		c-1.1,1.1-1.6,2.5-1.6,4.1V676.5z"/>
	<path class="st9" d="M685.9,650.7l-4.3,13.2c-0.4,1.3-0.6,2.3-0.4,2.8c0.2,0.6,0.7,1.5,1.7,3l14.7,21.1v0.3h-39.1v-0.3l15.8-21.1
		c1.8-2.3,3-4.6,3.8-6.9l22.9-70.2c0.5-1.5,0.8-2.6,0.7-3.2c-0.1-0.6-0.7-1.5-1.6-2.6l-9.7-11.2v-0.3h38.7l30.8,97.8
		c0.5,1.9,1.6,4.1,3.3,6.8l6.9,11v0.3h-48.8v-0.3l7.9-11c0.8-1.1,0.9-2.6,0.3-4.5l-7.7-24.6H685.9z M704.2,594l-17.3,53.4h34
		L704.2,594z"/>
	<path class="st9" d="M831.5,647.1v28.2c0,1.8,0.6,3.2,1.8,4.3l12,11.2v0.3h-57.5v-0.3l12.2-11.2c1.1-1.1,1.6-2.5,1.6-4.3v-25.4
		c0-1.6-0.3-3-1-4.1l-27.2-52.1c-1.4-2.7-2.9-5.1-4.5-7.1l-8.2-11v-0.3h55.4v0.3l-9.9,11.4c-1.1,1.3-1.3,2.6-0.7,4l24.1,48.5
		l19-38.7c0.5-1.3,0.8-2.2,0.7-2.7c-0.1-0.5-0.5-1.3-1.2-2.4l-14.2-19.9v-0.3h41.2v0.3l-18.6,19.9c-1.8,1.8-3.2,3.8-4.5,6.1
		l-19.3,39.2C831.9,642.6,831.5,644.7,831.5,647.1z"/>
	<path class="st9" d="M971.6,691.1h-20.1l-56.9-88v60.3c0,1.6,0.7,3.4,2,5.1l17,22.3v0.3h-41v-0.3l16.5-22.1
		c1.4-1.9,2.1-3.6,2.1-5.3v-62.3c0-2.2-0.5-4-1.5-5.3l-16.5-20.3v-0.3h38.9l56.1,87v-59.3c0-1.9-0.7-3.6-2-5.3l-16.8-22.1v-0.3h41
		v0.3l-16.7,22.1c-1.4,2-2.1,3.7-2.1,5.3V691.1z"/>
	<path class="st9" d="M1006.5,588.8c9.8-10.2,23.5-15.2,41.2-15.2c17.7,0,31.4,5.1,41.2,15.2c9.8,10.2,14.7,25,14.7,44.4
		c0,19.3-4.9,34.1-14.7,44.3c-9.8,10.2-23.5,15.3-41.2,15.3c-17.7,0-31.4-5.1-41.2-15.3c-9.8-10.2-14.7-24.9-14.7-44.3
		C991.9,613.8,996.8,599,1006.5,588.8z M1031.4,676.3c3.7,8.9,9.1,13.4,16.4,13.4c7.3,0,12.7-4.5,16.4-13.4
		c3.7-8.9,5.5-23.3,5.5-43.2c0-19.9-1.8-34.3-5.5-43.1c-3.7-8.8-9.1-13.3-16.4-13.3c-7.3,0-12.7,4.4-16.4,13.3
		c-3.7,8.8-5.5,23.2-5.5,43.1C1025.8,653,1027.7,667.4,1031.4,676.3z"/>
	<path class="st9" d="M1130.2,588.8c9.8-10.2,23.5-15.2,41.2-15.2c17.7,0,31.4,5.1,41.2,15.2c9.8,10.2,14.7,25,14.7,44.4
		c0,19.3-4.9,34.1-14.7,44.3c-9.8,10.2-23.5,15.3-41.2,15.3c-17.7,0-31.4-5.1-41.2-15.3c-9.8-10.2-14.7-24.9-14.7-44.3
		C1115.5,613.8,1120.4,599,1130.2,588.8z M1155,676.3c3.7,8.9,9.1,13.4,16.4,13.4c7.3,0,12.7-4.5,16.4-13.4
		c3.7-8.9,5.5-23.3,5.5-43.2c0-19.9-1.8-34.3-5.5-43.1c-3.7-8.8-9.1-13.3-16.4-13.3c-7.3,0-12.7,4.4-16.4,13.3
		c-3.7,8.8-5.5,23.2-5.5,43.1C1149.5,653,1151.3,667.4,1155,676.3z"/>
	<path class="st9" d="M1301.3,675.3c0,1.8,0.6,3.2,1.8,4.3l12.2,11.2v0.3h-57.7v-0.3l12.2-11.2c1.2-1.2,1.8-2.6,1.8-4.3v-96.8h-9.4
		c-1.3,0-2.2,0.1-2.7,0.4c-0.5,0.3-1,1-1.6,2.2l-20.3,38.6h-0.3v-44.5h98.3v44.5h-0.3l-20.3-38.6c-0.6-1.2-1.1-1.9-1.6-2.2
		c-0.5-0.3-1.4-0.4-2.7-0.4h-9.4V675.3z"/>
	<path class="st9" d="M1454.6,589.9v86.6c0,1.6,0.5,3,1.5,4l10.9,10.4v0.3h-54.7v-0.3l10.9-10.4c1.1-1.1,1.6-2.4,1.6-4v-43h-38.2v43
		c0,1.6,0.5,3,1.6,4l10.9,10.4v0.3h-54.9v-0.3l11-10.4c1-1,1.5-2.3,1.5-4v-86.6c0-1.6-0.5-3-1.5-4l-11-10.4v-0.3h54.9v0.3
		l-10.9,10.4c-1.1,1-1.6,2.3-1.6,4v40.2h38.2v-40.2c0-1.6-0.6-3-1.6-4l-10.9-10.4v-0.3h54.7v0.3l-10.9,10.4
		C1455.1,586.9,1454.6,588.3,1454.6,589.9z"/>
</g>
</svg>
