<svg id="Layer_1" data-name="Layer 1" xmlns="http://www.w3.org/2000/svg" viewBox="0 0 1163.52 175.68"><defs><style>.cls-1{fill:#cc4c6e;}.cls-2{fill:#f3b541;}.cls-3{fill:#4cb3aa;}.cls-4{fill:#842c68;}.cls-5{stroke:#000;stroke-miterlimit:10;}</style></defs><title>maynoothLogo2</title><path id="Path_480" data-name="Path 480" class="cls-1" d="M115.41,158.51h0c-13.55,1.85-26.2-5.75-28.7-17l-19.3-94.8c-2.2-11.3,6.9-21.85,20.45-23.95h0c13.55-1.85,26.2,5.75,28.7,17l19.3,94.8C138.06,145.86,129,156.46,115.41,158.51Z"/><path id="Path_481" data-name="Path 481" class="cls-1" d="M184.76,158.51h0c-13.55,1.85-26.2-5.75-28.7-17l-19.3-94.8c-2.5-11.3,6.65-21.85,20.15-23.95h0c13.55-1.85,26.2,5.75,28.7,17l19.3,94.8C207.31,145.86,198.26,156.46,184.76,158.51Z"/><path id="Path_482" data-name="Path 482" class="cls-2" d="M32.06,156.91h0c-12.4-4.6-18.2-16.8-12.7-27.35L69.36,35c5.5-10.35,20.15-15.2,32.85-10.6h0c12.4,4.6,18.2,16.8,12.7,27.35L64.66,146.31C59.11,156.91,44.51,161.51,32.06,156.91Z"/><path id="Path_483" data-name="Path 483" class="cls-3" d="M101.06,156.91h0c-12.4-4.6-18.2-16.8-12.7-27.35l50-94.55c5.5-10.35,20.15-15.2,32.85-10.6h0c12.4,4.6,18.2,16.8,12.7,27.35L134,146.31C128.11,156.91,113.51,161.51,101.06,156.91Z"/><path id="Path_484" data-name="Path 484" class="cls-4" d="M171.31,156.91h0c-12.4-4.6-18.2-16.8-12.7-27.35L208.86,35c5.5-10.35,20.15-15.2,32.85-10.6h0c12.4,4.6,18.2,16.8,12.7,27.35l-50.25,94.55C198.56,156.91,184,161.51,171.31,156.91Z"/><path class="cls-5" d="M783,69.37v23.3h-.19L770.41,72.83a3.05,3.05,0,0,0-2.7-1.54h-9.92c-.71,0-1.16.11-1.35.34a2.53,2.53,0,0,0-.29,1.49v29.09h6.55a3.47,3.47,0,0,0,2.5-1.35l8.67-10h.2v24.57h-.2l-8.67-10a3.47,3.47,0,0,0-2.6-1.25h-6.45v23.79a2.7,2.7,0,0,0,1.06,2.21l8.86,6.75v.19H731.4v-.19l6.45-6.07a3.12,3.12,0,0,0,.87-2.31V77.94a3.09,3.09,0,0,0-.87-2.31l-6.45-6.07v-.19Z"/><path class="cls-5" d="M836.1,89.4v40.36a3.1,3.1,0,0,0,.86,2.41l4.82,4.72v.19H820.3V126.77a17.37,17.37,0,0,1-5.68,8.09,14.37,14.37,0,0,1-9.06,3q-7.12,0-10.88-5.11t-3.76-14.93q0-5.49.19-21.09a3.16,3.16,0,0,0-.86-2.31l-4.72-4.82V89.4h21.28l-.09,12.71V115.6q0,7,1.44,10.69a5.22,5.22,0,0,0,5.2,3.66q4,0,6.94-4.33V96.82a3.45,3.45,0,0,0-.87-2.41l-4.72-4.82V89.4Z"/><path class="cls-5" d="M884.93,91.81l-5.3,15.12h-.19l-7.61-9.05c-.58-.71-1.16-.87-1.73-.49-1.22.9-2.6,2.77-4.15,5.59v26a2.86,2.86,0,0,0,1.45,2.41l9.44,5.49v.19H844.57v-.19l4.72-4.43a3,3,0,0,0,.87-2.32V96.82a3.45,3.45,0,0,0-.87-2.41l-4.72-4.82V89.4H866v12.33a21.93,21.93,0,0,1,4.53-9.39,10,10,0,0,1,7.9-3.71A7.79,7.79,0,0,1,884.93,91.81Z"/><path class="cls-5" d="M937.52,109q0,3.47-.14,11.51c-.1,5.37-.15,8.59-.15,9.68a3.13,3.13,0,0,0,.87,2.32l4.81,4.43v.19H915.85v-.19l4.62-4.43a3,3,0,0,0,.87-2.22q0-.28.14-8.33t.15-10.74c0-4.82-.52-8.44-1.54-10.89a5.73,5.73,0,0,0-5.78-3.66c-2.83,0-5.2,1.42-7.13,4.24v29.28a3,3,0,0,0,.87,2.32l4.72,4.43v.19h-27v-.19l4.72-4.43a3,3,0,0,0,.86-2.32V96.82a3.49,3.49,0,0,0-.86-2.41l-4.72-4.82V89.4h21.38V99.61q3.95-11,15.31-11,7.23,0,11.13,5.2T937.52,109Z"/><path class="cls-5" d="M945,89.4h21.39v40.74a3,3,0,0,0,.86,2.32l4.72,4.43v.19H945v-.19l4.72-4.43a3,3,0,0,0,.87-2.32V96.82a3.45,3.45,0,0,0-.87-2.41L945,89.59Zm13.2-5.3a8,8,0,0,1-5.44-2A6.53,6.53,0,0,1,950.52,77a7,7,0,0,1,2.27-5.44,7.78,7.78,0,0,1,5.44-2.07,7.87,7.87,0,0,1,5.59,2.07A7.13,7.13,0,0,1,966,77a6.61,6.61,0,0,1-2.21,5.16A8.12,8.12,0,0,1,958.23,84.1Z"/><path class="cls-5" d="M1006.29,89.4v1.93H994.45V123.5a8.27,8.27,0,0,0,1.34,5.05,4.46,4.46,0,0,0,3.76,1.79,6.07,6.07,0,0,0,5.59-3.57l.19.1a13.9,13.9,0,0,1-4.29,7.8q-3.42,3.18-9.77,3.18-12.53,0-12.52-13.2V91.33h-5.3V89.4h4.33a3.84,3.84,0,0,0,3-1.06l13.48-15.12h.2V89.4Z"/><path class="cls-5" d="M1056.28,89.4v40.36a3.07,3.07,0,0,0,.87,2.41l4.82,4.72v.19h-21.48V126.77a17.37,17.37,0,0,1-5.68,8.09,14.37,14.37,0,0,1-9.06,3q-7.12,0-10.88-5.11t-3.76-14.93q0-5.49.19-21.09a3.16,3.16,0,0,0-.86-2.31l-4.72-4.82V89.4H1027l-.09,12.71V115.6q0,7,1.44,10.69a5.22,5.22,0,0,0,5.2,3.66q4,0,6.94-4.33V96.82a3.45,3.45,0,0,0-.87-2.41l-4.72-4.82V89.4Z"/><path class="cls-5" d="M1105.12,91.81l-5.3,15.12h-.19L1092,97.88c-.58-.71-1.16-.87-1.74-.49-1.22.9-2.6,2.77-4.14,5.59v26a2.84,2.84,0,0,0,1.45,2.41l9.44,5.49v.19h-32.27v-.19l4.72-4.43a3,3,0,0,0,.87-2.32V96.82a3.45,3.45,0,0,0-.87-2.41l-4.72-4.82V89.4h21.38v12.33a21.93,21.93,0,0,1,4.53-9.39,10,10,0,0,1,7.9-3.71A7.79,7.79,0,0,1,1105.12,91.81Z"/><path class="cls-5" d="M1150.68,111.07h-28.9v.19q0,8.86,3.85,13.25a12.62,12.62,0,0,0,9.93,4.38q10.2,0,14.64-8.86h.19q-3.66,17.82-21.29,17.82a24.17,24.17,0,0,1-16.76-6.16q-6.84-6.16-6.84-18.11,0-12.63,6.84-18.79t17.34-6.16a26.46,26.46,0,0,1,7.61,1.06A23,23,0,0,1,1144,93a15,15,0,0,1,5,6.31,23.58,23.58,0,0,1,1.83,9.68C1150.77,109.6,1150.74,110.3,1150.68,111.07Zm-21.19-20.61c-2.51,0-4.4,1.46-5.69,4.38s-2,7.76-2,14.5h14.16c.06-.84.1-1.8.1-2.89q0-9-1.69-12.48T1129.49,90.46Z"/><path class="cls-5" d="M333.26,128.51a3,3,0,0,0,1,2.31l6.36,6.07v.19H308.51v-.19l6.45-6.07a3.12,3.12,0,0,0,.87-2.31V89.79a55.79,55.79,0,0,1,.29-5.78l-21.77,53.84h-.2L271.62,88.34a35.11,35.11,0,0,1-1.84-4.24v36.8a5.58,5.58,0,0,0,1.26,3.18l9.73,12.81v.19h-24v-.19l9.73-12.81a5.63,5.63,0,0,0,1.25-3.18V82.75A4.32,4.32,0,0,0,266.9,80L259,69.56v-.19h23l20.13,43.92,17.72-43.92h20.71v.19l-6.36,7a3.28,3.28,0,0,0-1,2.41Z"/><path class="cls-5" d="M385.08,108.09c0,.38,0,1-.05,2s0,1.43,0,1.49l-.58,13.68q-.3,5.6,2.6,5.59a2.85,2.85,0,0,0,2.7-1.74h.19a7.67,7.67,0,0,1-.77,3.47q-2.61,5.3-9.44,5.3a11.13,11.13,0,0,1-7.32-2.46,9,9,0,0,1-3.18-6.88,13.54,13.54,0,0,1-13.1,9.34,12.92,12.92,0,0,1-9.34-3.61q-3.76-3.62-3.76-10a12.91,12.91,0,0,1,4.86-10.64,17.58,17.58,0,0,1,11.32-3.91q6.56,0,10.21,2.61l.19-10.31v-.48q0-11.08-7-11.08a5,5,0,0,0-1.78.19,2.85,2.85,0,0,0-.82,1l-7.8,14.44H352l-6.07-13.77a57.62,57.62,0,0,1,19.46-3.66q10.2,0,14.93,4.43T385.08,108.09Zm-19.26,4.62a6.74,6.74,0,0,0-5.73,2.79,11.61,11.61,0,0,0-2.07,7.13,10.06,10.06,0,0,0,1.58,6,4.87,4.87,0,0,0,4.1,2.17q3.27,0,5.49-3.37v-.1l.19-14.06A11,11,0,0,0,365.82,112.71Z"/><path class="cls-5" d="M428.62,105.39l-12.33,29.86a103.83,103.83,0,0,1-8.28,16,22,22,0,0,1-6,6.6,13.29,13.29,0,0,1-7.37,2,11.31,11.31,0,0,1-4.53-1L393.65,142h.2l9.53,9.44c.52.52.9.77,1.16.77.45,0,.93-.38,1.44-1.15a36.68,36.68,0,0,0,3.66-6.65l.58-1.54L392.31,97.4c-.33-.84-.81-1.9-1.45-3.18l-2.6-4.63V89.4h24.95v.19l-3.85,5.3a2.25,2.25,0,0,0-.2,2.22l9.73,27,7.8-19a7.79,7.79,0,0,0,.53-1.78,4.15,4.15,0,0,0-.53-1.78l-5.87-12V89.4h16.47v.19L431,100.38A30.16,30.16,0,0,0,428.62,105.39Z"/><path class="cls-5" d="M488.82,109c0,2.32-.05,6.15-.14,11.51s-.15,8.59-.15,9.68a3.13,3.13,0,0,0,.87,2.32l4.81,4.43v.19H467.15v-.19l4.62-4.43a3,3,0,0,0,.87-2.22q0-.28.14-8.33t.15-10.74q0-7.23-1.54-10.88a5.74,5.74,0,0,0-5.78-3.67c-2.83,0-5.2,1.42-7.13,4.24v29.28a3,3,0,0,0,.87,2.32l4.72,4.43v.19h-27v-.19l4.72-4.43a3,3,0,0,0,.86-2.32V96.82a3.49,3.49,0,0,0-.86-2.41l-4.72-4.82V89.4h21.38V99.61q3.94-11,15.31-11,7.23,0,11.13,5.2T488.82,109Z"/><path class="cls-5" d="M521.86,137.85q-11.76,0-18.54-6.31t-6.79-18.35q0-11.85,6.83-18.2t18.5-6.36q11.75,0,18.59,6.31t6.84,18.35q0,11.85-6.89,18.2T521.86,137.85Zm5.87-42.53q-1.92-4.86-5.87-4.86c-2.64,0-4.59,1.59-5.88,4.77s-1.92,9.17-1.92,18,.64,14.74,1.92,18,3.24,4.92,5.88,4.92,4.59-1.61,5.87-4.82,1.93-9.21,1.93-18S529,98.57,527.73,95.32Z"/><path class="cls-5" d="M577.15,137.85q-11.76,0-18.55-6.31t-6.79-18.35q0-11.85,6.84-18.2t18.5-6.36q11.75,0,18.59,6.31t6.83,18.35q0,11.85-6.88,18.2T577.15,137.85ZM583,95.32q-1.92-4.86-5.87-4.86t-5.88,4.77q-1.93,4.77-1.93,18t1.93,18q1.92,4.92,5.88,4.92T583,131.3q1.92-4.82,1.93-18T583,95.32Z"/><path class="cls-5" d="M637.54,89.4v1.93H625.69V123.5a8.26,8.26,0,0,0,1.35,5.06,4.46,4.46,0,0,0,3.76,1.78,6,6,0,0,0,5.58-3.57l.2.1a13.9,13.9,0,0,1-4.29,7.8q-3.42,3.18-9.78,3.18-12.51,0-12.52-13.2V91.33h-5.3V89.4H609a3.81,3.81,0,0,0,3-1.06L625.5,73.22h.19V89.4Z"/><path class="cls-5" d="M689.26,109c0,2.32,0,6.15-.14,11.51s-.14,8.59-.14,9.68a3,3,0,0,0,1,2.32l4.72,4.43v.19h-27v-.19l4.53-4.43a2.86,2.86,0,0,0,1-2.22q0-.28.14-8.33t.15-10.74q0-7.23-1.59-10.88a5.75,5.75,0,0,0-5.73-3.67q-4.24,0-7.23,4.34v29.18a3,3,0,0,0,1,2.32l4.72,4.43v.19h-27v-.19l4.72-4.43a3.16,3.16,0,0,0,.86-2.32V76.4a3.29,3.29,0,0,0-.86-2.41l-4.72-4.43v-.19l21.28-2.51v33q4-11.27,15.32-11.27,7.32,0,11.17,5.2T689.26,109Z"/></svg>