<svg id="Layer_1" data-name="Layer 1" xmlns="http://www.w3.org/2000/svg" viewBox="0 0 300 300"><defs><style>.cls-1,.cls-2,.cls-3{fill:#690034;}.cls-1,.cls-10,.cls-12,.cls-13,.cls-2,.cls-3,.cls-4,.cls-5,.cls-6,.cls-7,.cls-8,.cls-9{stroke:#690034;}.cls-1,.cls-12,.cls-13,.cls-2,.cls-4,.cls-5,.cls-6,.cls-7,.cls-8{stroke-linecap:round;stroke-linejoin:round;}.cls-1,.cls-13,.cls-4,.cls-7,.cls-8{stroke-width:0.8px;}.cls-2,.cls-5,.cls-6{stroke-width:1.6px;}.cls-10,.cls-3,.cls-9{stroke-miterlimit:10;stroke-width:1.44px;}.cls-4,.cls-9{fill:#ff97cd;}.cls-5{fill:#e97eb4;}.cls-6{fill:#83184e;}.cls-12,.cls-7{fill:none;}.cls-10,.cls-8{fill:#fff;}.cls-11{fill:#cf649a;}.cls-12{stroke-width:2.4px;}.cls-13{fill:#ffb1e7;}</style></defs><path class="cls-1" d="M164.5,117.9l-3.6-8.3-4.3-10.7v-.3a8.55,8.55,0,0,1,4.4-8.2l.1-.1,6.1-2.9,11.7-5.2,8.9-3.9,6.6-2.9,11.1-5,7.2-3.6a4.13,4.13,0,0,0,1.1-.7,2.7,2.7,0,0,0,.7-.8.37.37,0,0,0,.1-.3l-1.9-5.6-2.4-5.9-2.1-4.7a12.75,12.75,0,0,0-.7-1.2c-.4-.5-.5-.7-.8-.8a.75.75,0,0,0-.5-.1l-5.5,2.2-9,3.9-4.1-9.2,19.9-7.7h.5a6.15,6.15,0,0,1,3.5,1.2,6,6,0,0,1,1.9,2.3c.9,1.6,1.7,3.4,2.6,5.4,1,2.2,2.1,4.5,3.1,6.8.1.1,6.5,13.9,6.2,16.4a7.71,7.71,0,0,1-1,2.9,9.39,9.39,0,0,1-4,3.4L214,77.2l-15.6,7-14.8,6.6c-7,3.1-14.8,6.7-16.5,7.6,0,.1-.1.2-.1.4v.4c.3,1,3,7.3,4.7,11.1.8,1.9,1.6,3.7,2.2,4.9l2,4.3,2.1,4.7-8.9,4.1Z"/><path class="cls-2" d="M197.9,193.2a5,5,0,0,1-4.4-2.7v-.1l-2.3-5.4-5.6-12.1-5.3-11.8-5.7-12.4-4.3-9.6-2-4.6v-.3a4.44,4.44,0,0,1,.1-2c.1-.2.1-.3.2-.5l-4.7-6.3,15.2-6.6,1.9,7h.1a4.18,4.18,0,0,1,1.8,1.1l.4.3,2.4,5.4,7.8,17.1,8,17.7,7.1,15.6v.1a4.69,4.69,0,0,1,.2,3.1,5.1,5.1,0,0,1-1.4,2.6l-.3.3-8.7,4.1Z"/><path class="cls-3" d="M99.4,85.2c-.9,0-1.9-.1-1.9-.1a15,15,0,0,1-2-.2L94,84.8a5.66,5.66,0,0,1-.3-1.8,13.37,13.37,0,0,1,1.1-6.6,11.9,11.9,0,0,1,5.9-5.6L176.5,37a12.07,12.07,0,0,1,13,2.2,11.2,11.2,0,0,1,1.7,2l-1.9,1.4c-1.2.9-2.4,1.8-3.5,2.8a62.22,62.22,0,0,0-7.7,8.5c-2.9,3.7-5.3,6.9-10.5,8.7a13.19,13.19,0,0,1-4.8.9,18.41,18.41,0,0,1-3.3-.3,12.65,12.65,0,0,0-2.8-.3,11.48,11.48,0,0,0-3.7.6c-4.1,1.3-5.9,3.4-8,5.8s-4.6,5.5-9.9,7.4a22,22,0,0,1-8,1.3,24.63,24.63,0,0,0-9.3,1.6,27.89,27.89,0,0,0-5.3,2.4c-1,.6-2,1-3,1.5a22.5,22.5,0,0,1-2.4.8A49.07,49.07,0,0,1,99.4,85.2Z"/><path class="cls-3" d="M108.8,101a12,12,0,0,1-10.9-7.1l-3.3-7.4c-.2-.6-.4-1.1-.6-1.7a5.66,5.66,0,0,1-.3-1.8,12.19,12.19,0,0,1,0-2.7l2.4.3c1.1.1,2.2.2,3.4.2a23.72,23.72,0,0,0,6.5-.9,18.18,18.18,0,0,0,4.5-2,31.48,31.48,0,0,1,5.9-2.7,30.18,30.18,0,0,1,10.7-1.9,16.1,16.1,0,0,0,6.5-1c4.2-1.5,6.1-3.8,8.1-6.1,2.2-2.6,4.6-5.5,10-7.1a16.87,16.87,0,0,1,5-.8,13.93,13.93,0,0,1,3.5.4,10.9,10.9,0,0,0,2.6.3,9.74,9.74,0,0,0,3.4-.6c3.9-1.4,5.7-3.7,8.5-7.2a59.18,59.18,0,0,1,8.2-9.1c1.2-1.1,2.5-2.1,3.8-3.1l1.2-.9,1.5,1a10.8,10.8,0,0,1,2.8,3.9l3.3,7.4a11.94,11.94,0,0,1-6.1,15.8h0L113.6,99.9A11.25,11.25,0,0,1,108.8,101Z"/><path class="cls-4" d="M190.6,44.7,208,38a4.11,4.11,0,0,1,3.6,2.4c1.1,2.1,2,4.1,2.5,5.2,1,2.2,2.1,4.5,3.1,6.8,1.2,2.5,6.2,13.9,6,15.2a4.79,4.79,0,0,1-.7,2,6.42,6.42,0,0,1-3.1,2.5L213,75l-15.6,7-14.8,6.6c-7.4,3.3-16.7,7.6-17,7.9a3.81,3.81,0,0,0-.8,1.7,2,2,0,0,0,0,1.1c.3,1.4,5.1,12.1,7,16.4l2,4.3,1.2,2.8-5,2.3-3.5-8.1-3.6-8.3-4.2-10.3a8.6,8.6,0,0,1,.1-1.6,6.82,6.82,0,0,1,1.1-2.6,7.56,7.56,0,0,1,2.1-1.9l6.1-2.9,11.7-5.2,8.8-3.9,6.6-2.9,11.2-5,7.1-3.6a6.19,6.19,0,0,0,1.7-1.1,3.81,3.81,0,0,0,1.1-1.4,5.78,5.78,0,0,0,.5-1.4l-2.1-6.3-2.4-6-2.1-4.8a9.5,9.5,0,0,0-1-1.7,4.27,4.27,0,0,0-1.4-1.3,4.06,4.06,0,0,0-1.9-.4L200,46.7l-7.1,3.1Z"/><path class="cls-2" d="M121,162.4c-14.9,0-37.7-3.9-39.3-12.2a4.33,4.33,0,0,0-.1-.5c-.4-4.2,4.4-8.3,14.6-12.5s19.1-4.2,24.9-4.2h.2c12.9,0,21.7,2.7,25.7,4.4,10.1,4.1,15,9.5,14.5,12.5a5.46,5.46,0,0,1-1,2.6,8.64,8.64,0,0,1-1.3,1.4l-.1.1a16.09,16.09,0,0,1-5.1,2.9c-1.8.7-3.3,1.2-4.2,1.5-2.8.8-5.1,1.3-6.6,1.6-3.3.7-6.8,1.2-10.2,1.6s-7.2.6-10.7.7Z"/><path class="cls-2" d="M120.9,240.9A72.46,72.46,0,0,1,83.3,230a2,2,0,0,1-.8-.4,2.46,2.46,0,0,1-.9-1.9V149.6l4.3-.1c.2,3.4,16.3,8.7,35.1,8.7h1.1c1.1,0,2.2,0,3.3-.1,18.3-.9,31.7-5.7,31.9-8.6l4.3.1-.4,79.6-1,.6a72.21,72.21,0,0,1-38.6,11.1Z"/><path class="cls-5" d="M159.5,149.5a4.92,4.92,0,0,1-.6,1.7,6.71,6.71,0,0,1-1.2,1.2l-.1.1a14.53,14.53,0,0,1-4.4,2.4c-1.3.5-2.7,1-4,1.4a58.94,58.94,0,0,1-6.4,1.6c-3.9.8-7.3,1.3-10,1.6-2.9.3-6.5.6-10.5.7h-.5c-16.9.1-36.7-4.5-37.8-10.4a.76.76,0,0,0-.1-.4c-.5-4.7,10.8-9.3,13.3-10.3,9.6-3.9,18.1-4,24.1-4,14.1,0,22.8,3.3,25.1,4.2C156.6,143.5,159.7,148.3,159.5,149.5Z"/><path class="cls-1" d="M81.2,151.6h2.1a2.69,2.69,0,0,1,2.7,2.7v7.3a2.69,2.69,0,0,1-2.7,2.7H81.2a2.69,2.69,0,0,1-2.7-2.7v-7.3A2.69,2.69,0,0,1,81.2,151.6Z"/><path class="cls-6" d="M159.5,149.5c-.1,26.1-.2,52.3-.4,78.4a70.33,70.33,0,0,1-74.9,0,.37.37,0,0,1-.3-.1c-.1-.1-.1-.1-.1-.2V149.5c.4,6.1,20.5,10.9,37.8,10.8h.5c1.1,0,2.3,0,3.4-.1C140.7,159.4,159.2,155.3,159.5,149.5Z"/><path class="cls-1" d="M160,150.1h2.1a2.69,2.69,0,0,1,2.7,2.7v7.3a2.69,2.69,0,0,1-2.7,2.7H160a2.69,2.69,0,0,1-2.7-2.7v-7.3A2.69,2.69,0,0,1,160,150.1Z"/><path class="cls-7" d="M150.2,149.1a3.49,3.49,0,0,1-.5,1.3l-.9.9-.1.1a10.62,10.62,0,0,1-3.3,1.8,30.71,30.71,0,0,1-3.1,1.1,41.36,41.36,0,0,1-4.8,1.2,72.54,72.54,0,0,1-7.6,1.2c-2.1.2-4.9.4-8,.5h-.4c-12.8.1-27.6-3.4-28.5-7.8v-.3c-.4-3.5,8.2-7,10-7.8,7.2-3,13.6-3,18.2-3.1,10.6,0,17.2,2.5,18.9,3.2C148,144.6,150.3,148.2,150.2,149.1Z"/><path class="cls-4" d="M97.2,156.5a17,17,0,0,1-2.2-2.4,15.43,15.43,0,0,1-1.9-4.6,48.13,48.13,0,0,1,10.8-5.6,49.21,49.21,0,0,1,17.4-2.8h.1a53.46,53.46,0,0,1,11.3,1.1,45.82,45.82,0,0,1,6.6,1.9,51.14,51.14,0,0,1,10.7,5.4,6.56,6.56,0,0,1-1.7,3.9c-1.6,1.7-3.8,2-5.5,2.3-6.2,1-3.4,1.6-11.5,3C115.3,161.5,100.8,159.5,97.2,156.5Z"/><path class="cls-8" d="M151.8,215.7a83.08,83.08,0,0,1-60.1,0V187.6a177.76,177.76,0,0,0,30,2.5,187.8,187.8,0,0,0,30-2.5v28.1Z"/><path class="cls-4" d="M159.5,149.9c0,4.1,0,8.3-.1,12.4-1.6,7.3-3.7,13.6-6.6,13.7-3.7.2-6.7-9.9-8.9-9.2-2.8.8.4,13.4-3.3,15.1-4.5,2-13.6-14.8-20.6-12.8-4.8,1.4-4.9,11-8.1,11.1-4.3.1-7.5-14.9-10.5-14.3-1.3.2-1.2,2.9-4.1,7.9-1.8,2.9-2.8,4.7-4.2,4.9-3.7.5-7.9-10.5-9.2-14l.1-14.8,9.3-.8a6.77,6.77,0,0,0,1.8,2.6c.5.5,1.4,1.2,5.1,2.4,2.1.7,3.9,1.1,5.1,1.4s3.1.6,5.6,1a87.39,87.39,0,0,0,10.2.7c1.7,0,3.2,0,4.7-.1q4.2-.3,8.4-.9c.7-.1,3.4-.6,6.7-1.4a26.71,26.71,0,0,0,4-1.3,11.4,11.4,0,0,0,3.4-1.9,9.58,9.58,0,0,0,2-2.5Z"/><path class="cls-7" d="M83.8,149.5a27.48,27.48,0,0,0,5.4,5.9c1.7,1.3,4.9,3.5,13.1,5.4a87.79,87.79,0,0,0,19.1,1.9,86.52,86.52,0,0,0,17.6-1.4c8.5-1.7,12.1-3.9,13.2-4.6a29.12,29.12,0,0,0,7.2-6.8"/><path class="cls-6" d="M167.3,126.4l10.4-4.6,1.6,5.9a3.1,3.1,0,0,1,2.2.9l2.2,5,7.9,17.1,8,17.7,7.1,15.5a3.72,3.72,0,0,1,.2,1.8,3.46,3.46,0,0,1-.8,1.6L198,191a2.3,2.3,0,0,1-1.4-.4,3.45,3.45,0,0,1-1.2-1.2l-2.3-5.3-5.6-12.2-5.3-11.7-5.7-12.4-4.3-9.5-1.9-4.3a2.08,2.08,0,0,1,.1-1.1,2.4,2.4,0,0,1,.7-1.2Z"/><path class="cls-9" d="M106.5,82c4.3-1.3,5.1-2.8,10.5-4.7,8.9-3.2,10.7-.5,17.3-2.9,9.6-3.5,8.6-10.3,18-13.2,6.9-2.1,8.2,1.4,14.6-.8,7.8-2.7,8.5-8.9,17.4-16.8a31.94,31.94,0,0,1,3.7-2.9A9.82,9.82,0,0,0,177.4,39L101.6,72.7a9.81,9.81,0,0,0-5.8,10.1A27.61,27.61,0,0,0,106.5,82Z"/><path class="cls-10" d="M184.3,43.6c-8.9,7.8-9.6,14.1-17.4,16.8-6.3,2.2-7.6-1.3-14.6.8-9.4,2.9-8.4,9.7-18,13.2-6.6,2.4-8.4-.3-17.3,2.9-5.4,1.9-6.2,3.4-10.5,4.7a28.12,28.12,0,0,1-10.8.8,9,9,0,0,0,.8,2.8L99.8,93a9.74,9.74,0,0,0,12.9,5h.1l75.8-33.7a9.74,9.74,0,0,0,5-12.9h0L190.3,44a9,9,0,0,0-2.3-3.2A23.74,23.74,0,0,0,184.3,43.6Z"/><ellipse cx="145.1" cy="259" rx="67.2" ry="5.2"/><path class="cls-11" d="M144.9,207.6c0-.1,1.9-2.9-.7-2.3-1.4.3-2,1.5-2.5,2.9,0,.1,0,.2-.1.2a6.19,6.19,0,0,1-.7,1.9,8.64,8.64,0,0,1-1,1.6,5.72,5.72,0,0,1-.7.8c-.4-.1-4.8-2-4.9-3,0-.1,2.3-2.9-1-2.5-1.8.2-2.5,1.4-3.1,2.8,0,.1,0,.2-.1.2-.3.7-.6,1.3-.9,1.9l-1.2,1.8c0,.1-.1.1-.1.2v.1a6.14,6.14,0,0,1-1.9,1.7c-.8.4-2.2.8-2.8.1a.78.78,0,0,1-.2-.8c0-.4.8-3.5,1.5-6,.1-.5-.4-.9-1.1-.9h-1.7a1.15,1.15,0,0,0-1.1.6l-.3.9a3,3,0,0,0-2-1.6c-2.4-.8-5.5,1.2-6.1,1.1-.3,0-1.4-1.2-2.6-1.8-1.8-1-3.9-1.3-4.2-1.6-.7-.6-1.1-3.3-1.3-4.5-.7-2.6-.7-3.7-.5-4.7a4.38,4.38,0,0,1,1.7-2.3h.1a5.34,5.34,0,0,1,2.5-.5,4.94,4.94,0,0,1,3.2,1.6c1.3,1.4,1.3,3.7,0,4.3a2.7,2.7,0,0,1-2.8-.5.76.76,0,0,1,.1-.9c.3-.4,1.6-.4,1.6-.4s-2.2-.5-3,0c-1,.6-.6,1.9-.2,2.6a3.31,3.31,0,0,0,1.9,1.4,6.13,6.13,0,0,0,4.6-.4c2.6-1.5,2.8-5.3.6-7.8a11.07,11.07,0,0,0-10-2.7,5.45,5.45,0,0,0-2.4,1.2,4.94,4.94,0,0,0-1.4,3,13.94,13.94,0,0,0,.3,5c.2,1.3,1.4,5,1.4,5s-3.4-.6-5.2.8a3.7,3.7,0,0,0-1.4,2.9,6.35,6.35,0,0,0,.5,3.1,8.88,8.88,0,0,0,1.6,2.2,8.39,8.39,0,0,0,3.9,1.9c3.1.5,5.7-1,5.9-3.8a10.7,10.7,0,0,0-.9-4.3c.6.3,1.3.6,1.9.9a10.77,10.77,0,0,1,2.4,1.8l-.2.2c-1.3,1.8-2.1,4.9.7,6.8,2.4,1.6,5.6.8,7.5-.6.1,0,.3-.3.3-.3.3.1,1.9,2.1,2.9,2.2,4.3.4,7.1-2.8,8.7-4.8v-.1h0a16.44,16.44,0,0,1,1.4-2.2c.5-.2,3.6,1.5,3.7,2.3a1.32,1.32,0,0,1-1.5,1.3,1.42,1.42,0,0,1-.6-.2,2.55,2.55,0,0,0-3.5.6c-.7.8.8,2.6,4.4,2a6.49,6.49,0,0,0,5.2-4.1c.2-.3,1.2-.8,1.9-1.5a16.37,16.37,0,0,0,1.6-2.6c.3-.1,2.8,1.2,2.8,1.9s-.9,1.7-1.5,1.3c-1.6-1-2.5.6-2.7.9-.6.9.7,2.4,3.3,1.5,3.1-1,3.7-3,3.7-4.6C148.5,208.4,144.9,208.7,144.9,207.6Zm-42.7,5.5a3.19,3.19,0,0,1-1.4.3h-.7a3.11,3.11,0,0,1-1.9-1.1,2.11,2.11,0,0,1-.5-1.3,2.35,2.35,0,0,1,.8-2.1c1.1-1.1,3-1,3.7-1a5.39,5.39,0,0,1,1,3C103.1,211.6,103.1,212.7,102.2,213.1Zm16.1.9a4.47,4.47,0,0,1-2,1.6c-1.4.6-3.1.1-3.3-1.2a4.28,4.28,0,0,1,4.4-4.1,1.83,1.83,0,0,1,1.6,1.8,3.61,3.61,0,0,1-.7,1.9Z"/><path class="cls-12" d="M80.2,157.8H74.7c-1.4,27.4,20.6,50.3,46.8,50.5,26.9.1,49.4-23.7,47.3-51.7l-5.8-.1"/><path class="cls-13" d="M81.2,153.7h2.1a.47.47,0,0,1,.5.5v7.3a.47.47,0,0,1-.5.5H81.2a.47.47,0,0,1-.5-.5v-7.3C80.6,154,80.9,153.7,81.2,153.7Z"/><path class="cls-13" d="M160,152.3h2.1a.47.47,0,0,1,.5.5v7.3a.47.47,0,0,1-.5.5H160a.47.47,0,0,1-.5-.5v-7.3A.47.47,0,0,1,160,152.3Z"/></svg>