<svg id="Layer_1" data-name="Layer 1" xmlns="http://www.w3.org/2000/svg" viewBox="0 0 198.72 264.42"><defs><style>.cls-1,.cls-2,.cls-3{fill:#690034;}.cls-1,.cls-10,.cls-12,.cls-13,.cls-2,.cls-3,.cls-4,.cls-5,.cls-6,.cls-7,.cls-8,.cls-9{stroke:#690034;}.cls-1,.cls-12,.cls-13,.cls-2,.cls-4,.cls-5,.cls-6,.cls-7,.cls-8{stroke-linecap:round;stroke-linejoin:round;}.cls-1,.cls-13,.cls-4,.cls-7,.cls-8{stroke-width:0.8px;}.cls-2,.cls-5,.cls-6{stroke-width:1.6px;}.cls-10,.cls-3,.cls-9{stroke-miterlimit:10;stroke-width:1.44px;}.cls-4,.cls-9{fill:#ff97cd;}.cls-5{fill:#e97eb4;}.cls-6{fill:#83184e;}.cls-12,.cls-7{fill:none;}.cls-10,.cls-8{fill:#fff;}.cls-11{fill:#cf649a;}.cls-12{stroke-width:2.4px;}.cls-13{fill:#ffb1e7;}</style></defs><title>Sass Illustration</title><path class="cls-1" d="M122.21,96.19l-4-9.23L113.4,75.07l0-.36a9.58,9.58,0,0,1,4.94-9.11l.12-.06,6.78-3.27,13-5.82,9.85-4.29,7.38-3.22,12.33-5.52,7.95-4a5.15,5.15,0,0,0,1.27-.83,3.74,3.74,0,0,0,.79-.93c.06-.1.11-.2.16-.3l-2.09-6.19-2.65-6.58-2.35-5.26a6.86,6.86,0,0,0-.83-1.37c-.45-.56-.61-.76-.84-.88a1.59,1.59,0,0,0-.52-.16l-6.12,2.42-10,4.36L148,13.48l22.06-8.57.51,0a7.13,7.13,0,0,1,3.88,1.31,7,7,0,0,1,2.13,2.58c1,1.83,1.93,3.83,2.88,5.95q1.69,3.74,3.47,7.52c.07.16,7.2,15.49,6.88,18.19a7.57,7.57,0,0,1-1.15,3.18,9.53,9.53,0,0,1-4.47,3.76l-7,3.21-17.39,7.83-16.49,7.35c-7.77,3.44-16.44,7.5-18.29,8.46a2.77,2.77,0,0,0-.09.4,1.49,1.49,0,0,0,0,.42c.28,1.07,3.37,8.09,5.22,12.29.94,2.14,1.8,4.1,2.39,5.48l2.18,4.76,2.31,5.25-9.92,4.53Z"/><path class="cls-2" d="M159.33,179.82a5.74,5.74,0,0,1-4.92-2.95l0-.11-2.58-6-6.18-13.49-5.88-13.07-6.31-13.73-4.74-10.63-2.26-5.11,0-.32a5.34,5.34,0,0,1,.15-2.25,5.14,5.14,0,0,1,.2-.55l-5.2-7,16.88-7.37,2.14,7.78.14,0a6.26,6.26,0,0,1,2,1.18l.4.35,2.66,6,8.71,19,8.9,19.67,7.86,17.28,0,.06a6,6,0,0,1,.27,3.41,5.9,5.9,0,0,1-1.56,2.92l-.31.31-9.7,4.59Z"/><path class="cls-3" d="M49.83,59.78c-1,0-2.16-.07-2.16-.07-.72-.05-1.46-.12-2.19-.21l-1.7-.14a12.85,12.85,0,0,1-.38-2A13.78,13.78,0,0,1,44.66,50a13.58,13.58,0,0,1,6.54-6.26L135.46,6.21a13.22,13.22,0,0,1,5.39-1.15,13.39,13.39,0,0,1,9,3.51,13.2,13.2,0,0,1,1.9,2.17l-2.12,1.54c-1.36,1-2.67,2-3.91,3.12a60.86,60.86,0,0,0-8.52,9.43c-3.17,4.12-5.9,7.67-11.64,9.66a16.2,16.2,0,0,1-5.33,1,20.9,20.9,0,0,1-3.66-.38,17.2,17.2,0,0,0-3.09-.34,13.72,13.72,0,0,0-4.16.7c-4.59,1.42-6.56,3.74-8.84,6.44s-5.14,6.07-11,8.22a23.12,23.12,0,0,1-8.88,1.42,26.92,26.92,0,0,0-10.33,1.8A35.45,35.45,0,0,0,64.43,56a32.92,32.92,0,0,1-3.31,1.65,24.39,24.39,0,0,1-2.7.94A34.35,34.35,0,0,1,49.83,59.78Z"/><path class="cls-3" d="M60.26,77.35a13.31,13.31,0,0,1-12.15-7.89l-3.66-8.21a14,14,0,0,1-.67-1.89,13.6,13.6,0,0,1-.38-2,13.32,13.32,0,0,1,0-3l2.7.34a30.1,30.1,0,0,0,3.75.24,26,26,0,0,0,7.26-1,22.13,22.13,0,0,0,5-2.18,40.33,40.33,0,0,1,6.52-3,31.26,31.26,0,0,1,11.92-2.07,18.58,18.58,0,0,0,7.26-1.13c4.69-1.71,6.79-4.19,9-6.82,2.42-2.86,5.16-6.09,11.08-7.92a18.59,18.59,0,0,1,5.58-.92,22.23,22.23,0,0,1,3.89.41,16.67,16.67,0,0,0,2.86.31A11.29,11.29,0,0,0,124,30c4.38-1.52,6.38-4.12,9.41-8a65.67,65.67,0,0,1,9.15-10.11c1.35-1.19,2.79-2.33,4.27-3.41l1.36-1,1.66,1.16A13.07,13.07,0,0,1,153,13l3.66,8.21a13.3,13.3,0,0,1-6.75,17.56L65.66,76.2A13.07,13.07,0,0,1,60.26,77.35Z"/><path class="cls-4" d="M151.21,14.81l19.25-7.48a4.68,4.68,0,0,1,2.58.85,4.6,4.6,0,0,1,1.42,1.76c1.22,2.33,2.24,4.54,2.82,5.82,1.13,2.5,2.29,5,3.48,7.55,1.28,2.74,6.84,15.41,6.67,16.89a5.27,5.27,0,0,1-.81,2.21,7.27,7.27,0,0,1-3.39,2.81l-7.06,3.22L158.8,56.27l-16.48,7.35c-8.17,3.62-18.61,8.49-18.93,8.82a3.38,3.38,0,0,0-.86,1.9,4,4,0,0,0,0,1.27c.34,1.55,5.71,13.43,7.75,18.19l2.2,4.81,1.34,3.06-5.54,2.53-3.92-9-4-9.22-4.65-11.5a7.36,7.36,0,0,1,.09-1.8,7.12,7.12,0,0,1,1.26-2.93,7.31,7.31,0,0,1,2.37-2.08l6.77-3.27,13-5.79,9.83-4.28,7.38-3.22,12.4-5.55,7.91-4a7.25,7.25,0,0,0,1.88-1.22,6.25,6.25,0,0,0,1.27-1.51,6.07,6.07,0,0,0,.61-1.51l-2.37-7-2.69-6.69-2.37-5.3a9.31,9.31,0,0,0-1.14-1.88,4.94,4.94,0,0,0-1.59-1.5,3.92,3.92,0,0,0-2.08-.45l-6.61,2.61-7.89,3.43Z"/><path class="cls-2" d="M73.88,145.64c-16.58,0-41.92-4.3-43.65-13.51a5.77,5.77,0,0,1-.09-.6c-.46-4.71,4.84-9.26,16.21-13.93s21.19-4.67,27.72-4.68h.19c14.36,0,24.07,3,28.58,4.87,11.17,4.52,16.63,10.52,16.1,13.88a6.68,6.68,0,0,1-1.14,2.94,16,16,0,0,1-1.47,1.6l-.16.16a18.48,18.48,0,0,1-5.67,3.23c-2,.82-3.65,1.35-4.72,1.67-3.09.93-5.64,1.49-7.29,1.82-3.7.76-7.53,1.36-11.38,1.78s-8,.69-11.94.76Z"/><path class="cls-2" d="M73.77,232.82A80.58,80.58,0,0,1,32,220.66a2.92,2.92,0,0,1-.88-.49,2.69,2.69,0,0,1-1-2.09V131.29l4.79-.14c.22,3.74,18.14,9.69,39,9.69h1.25c1.21,0,2.44-.05,3.64-.12,20.32-.95,35.25-6.36,35.41-9.55l4.79.13-.41,88.44-1.11.7a80.58,80.58,0,0,1-42.9,12.39Z"/><path class="cls-5" d="M116.57,131.29a4.3,4.3,0,0,1-.68,1.87c-.3.39-1.14,1.24-1.28,1.37l-.14.15c-.47.45-1.62,1.36-4.88,2.7a46.42,46.42,0,0,1-4.5,1.59c-2.92.88-5.33,1.42-7.08,1.77-4.28.88-8.11,1.41-11.16,1.75-3.23.35-7.19.66-11.72.75h-.57c-18.83.12-40.74-5-42-11.55a2.87,2.87,0,0,1-.06-.4c-.51-5.21,12-10.36,14.73-11.47,10.67-4.38,20.09-4.49,26.81-4.5,15.67,0,25.32,3.67,27.87,4.7C113.4,124.65,116.78,130,116.57,131.29Z"/><rect class="cls-1" x="26.58" y="133.59" width="8.33" height="14.08" rx="2.99"/><path class="cls-6" d="M116.57,131.29q-.19,43.56-.4,87.12a78,78,0,0,1-83.24,0,.44.44,0,0,1-.29-.09.3.3,0,0,1-.11-.24V131.29c.4,6.75,22.82,12.07,42,12h.57c1.27,0,2.54-.05,3.78-.12C95.72,142.33,116.25,137.7,116.57,131.29Z"/><rect class="cls-1" x="114.18" y="131.97" width="8.33" height="14.08" rx="3"/><path class="cls-7" d="M106.23,130.8a3.24,3.24,0,0,1-.51,1.4,13.66,13.66,0,0,1-1,1l-.1.11a12,12,0,0,1-3.68,2c-1.43.59-2.6,1-3.39,1.2-2.2.66-4,1.06-5.34,1.33-3.23.66-6.12,1.06-8.42,1.32s-5.42.5-8.84.56h-.42c-14.2.1-30.72-3.76-31.65-8.71,0-.08,0-.17,0-.29-.39-3.94,9.06-7.82,11.11-8.66,8-3.3,15.14-3.38,20.21-3.39,11.81,0,19.09,2.77,21,3.55C103.84,125.79,106.39,129.81,106.23,130.8Z"/><path class="cls-4" d="M47.4,139.07A15.63,15.63,0,0,1,45,136.36a15.84,15.84,0,0,1-2.08-5.12,51.27,51.27,0,0,1,12-6.19,53.2,53.2,0,0,1,19.3-3.1h.14a65,65,0,0,1,12.61,1.17,50.09,50.09,0,0,1,7.36,2.08,54.54,54.54,0,0,1,11.93,6,7.54,7.54,0,0,1-1.84,4.32c-1.77,1.91-4.26,2.23-6.1,2.54-6.9,1.13-3.79,1.8-12.76,3.35C67.45,144.57,51.38,142.45,47.4,139.07Z"/><path class="cls-8" d="M108.08,204.85a92.45,92.45,0,0,1-66.78,0V173.57a198.25,198.25,0,0,0,33.39,2.83,198.25,198.25,0,0,0,33.39-2.83Z"/><path class="cls-4" d="M116.57,131.75q0,6.9-.07,13.81c-1.75,8.12-4.13,15.06-7.32,15.23-4.1.23-7.42-11-9.88-10.26-3.1.94.45,14.92-3.63,16.77-5,2.27-15.14-16.5-22.85-14.18-5.37,1.61-5.4,12.22-9,12.28-4.74.08-8.33-16.52-11.7-15.93-1.4.25-1.31,3.21-4.6,8.73-2,3.27-3.16,5.26-4.71,5.47-4.08.55-8.81-11.62-10.26-15.54l.06-16.44,10.28-.89a9,9,0,0,0,2,2.88c.56.54,1.61,1.38,5.68,2.71,2.33.76,4.28,1.23,5.68,1.54s3.48.72,6.26,1.09a89.31,89.31,0,0,0,11.28.78c1.88,0,3.61,0,5.21-.14a89.79,89.79,0,0,0,9.31-1c.82-.14,3.77-.62,7.46-1.54a33.19,33.19,0,0,0,4.48-1.42,13,13,0,0,0,3.79-2.06,9.55,9.55,0,0,0,2.2-2.82Z"/><path class="cls-7" d="M32.53,131.29a27.41,27.41,0,0,0,5.95,6.57c1.87,1.49,5.47,3.94,14.58,6a98.45,98.45,0,0,0,21.25,2.16,92.12,92.12,0,0,0,19.52-1.59c9.49-1.87,13.48-4.34,14.69-5.13a31.59,31.59,0,0,0,8-7.6"/><path class="cls-6" d="M125.23,105.59l11.58-5.06,1.8,6.53a3.82,3.82,0,0,1,2.44,1l2.45,5.54,8.73,19,8.89,19.66L169,169.47a3.59,3.59,0,0,1,.17,2,3.64,3.64,0,0,1-.94,1.75l-8.81,4.16a3.18,3.18,0,0,1-1.55-.41,3.4,3.4,0,0,1-1.31-1.3L154,169.83l-6.2-13.54-5.87-13-6.32-13.75-4.73-10.6-2.13-4.82a2.89,2.89,0,0,1,.09-1.22,2.93,2.93,0,0,1,.81-1.31Z"/><path class="cls-9" d="M57.76,56.28c4.81-1.4,5.7-3.08,11.69-5.22,9.89-3.55,11.89-.53,19.2-3.21,10.67-3.9,9.56-11.49,20-14.7,7.69-2.38,9.14,1.51,16.17-.93,8.65-3,9.47-9.92,19.35-18.62,1.14-1,2.5-2.11,4.09-3.26a10.89,10.89,0,0,0-11.8-1.94L52.18,45.88a10.89,10.89,0,0,0-6.4,11.24A29.74,29.74,0,0,0,57.76,56.28Z"/><path class="cls-10" d="M144.14,13.6c-9.88,8.7-10.7,15.63-19.35,18.62-7,2.44-8.48-1.45-16.17.93-10.41,3.21-9.3,10.8-20,14.7-7.31,2.68-9.31-.34-19.2,3.21-6,2.14-6.88,3.82-11.69,5.22a29.74,29.74,0,0,1-12,.84,10.66,10.66,0,0,0,.87,3.15l3.65,8.21A10.9,10.9,0,0,0,64.69,74l84.25-37.47a10.9,10.9,0,0,0,5.54-14.39l-3.66-8.22a10.71,10.71,0,0,0-2.59-3.59C146.64,11.49,145.28,12.6,144.14,13.6Z"/><ellipse cx="100.56" cy="253.01" rx="74.65" ry="5.76"/><path class="cls-11" d="M100.36,195.83c0-.06,2.06-3.23-.83-2.54-1.55.38-2.18,1.64-2.73,3.22,0,.08,0,.17-.06.24A9.15,9.15,0,0,1,96,198.9a8.07,8.07,0,0,1-1.1,1.82,6,6,0,0,1-.81.88c-.48-.08-5.35-2.17-5.41-3.35,0-.06,2.61-3.22-1.07-2.75-2,.25-2.78,1.51-3.49,3.09,0,.08,0,.17-.08.25A15.61,15.61,0,0,1,83,201a22,22,0,0,1-1.38,2,1.74,1.74,0,0,0-.15.22l0,.07a6,6,0,0,1-2.15,1.94c-.84.46-2.49.87-3.16.07a1.26,1.26,0,0,1-.26-.92c0-.42.88-3.87,1.63-6.62.14-.53-.47-1-1.25-1h-1.9a1.26,1.26,0,0,0-1.24.66l-.31,1a3.09,3.09,0,0,0-2.18-1.73c-2.66-.86-6.06,1.28-6.76,1.24-.32,0-1.59-1.33-2.89-2.05-2-1.09-4.34-1.42-4.71-1.75-.82-.71-1.18-3.69-1.5-4.95-.74-2.9-.82-4.14-.51-5.22a4.42,4.42,0,0,1,1.86-2.55l.07,0a5.18,5.18,0,0,1,2.76-.51,5.84,5.84,0,0,1,3.6,1.76c1.48,1.61,1.47,4.15,0,4.8-1,.41-2.62.15-3.06-.52a.88.88,0,0,1,.08-1c.33-.41,1.77-.44,1.77-.44s-2.49-.55-3.28,0c-1.08.71-.68,2.09-.21,2.84a4.38,4.38,0,0,0,2.14,1.6,6.47,6.47,0,0,0,5.09-.48c2.91-1.66,3.16-5.87.65-8.65a11.3,11.3,0,0,0-5.65-3,10.73,10.73,0,0,0-5.45,0A6.4,6.4,0,0,0,52,179.12a5.44,5.44,0,0,0-1.55,3.32,15.87,15.87,0,0,0,.36,5.54c.27,1.4,1.53,5.55,1.53,5.55s-3.75-.71-5.73.85A4.43,4.43,0,0,0,45,197.61a7.89,7.89,0,0,0,.57,3.5,8.15,8.15,0,0,0,1.83,2.5,8.28,8.28,0,0,0,4.36,2.07c3.39.61,6.38-1.08,6.51-4.23a12.27,12.27,0,0,0-1-4.78,14.89,14.89,0,0,1,2.08,1,10.37,10.37,0,0,1,2.71,2,1.89,1.89,0,0,1-.19.24c-1.5,2-2.37,5.47.82,7.57,2.69,1.76,6.17.89,8.34-.69.06,0,.37-.33.37-.32.32.09,2.13,2.35,3.19,2.44,4.8.43,7.94-3.08,9.64-5.37l0-.07,0-.05A21.36,21.36,0,0,1,85.79,201c.54-.17,4,1.66,4.09,2.58a1.56,1.56,0,0,1-2.29,1.29,2.85,2.85,0,0,0-3.89.64c-.83.93.91,2.94,4.87,2.26a7.24,7.24,0,0,0,5.77-4.59c.19-.31,1.36-.88,2.09-1.68a13.22,13.22,0,0,0,1.73-2.84c.33-.13,3.06,1.28,3.09,2.15s-1,1.84-1.7,1.39c-1.73-1.08-2.78.69-3,1-.62,1,.81,2.65,3.67,1.72,3.47-1.14,4.16-3.31,4.16-5.09C104.43,196.69,100.4,197.11,100.36,195.83ZM52.93,202a3.92,3.92,0,0,1-1.56.32,4,4,0,0,1-.67,0h-.08a3.5,3.5,0,0,1-2.09-1.22,3.72,3.72,0,0,1-.6-1.46,2.56,2.56,0,0,1,.91-2.31c1.27-1.24,3.38-1.14,4.07-1.09A6.23,6.23,0,0,1,54,199.59C53.94,200.27,53.89,201.54,52.93,202Zm17.93,1a5.47,5.47,0,0,1-2.18,1.81c-1.56.66-3.5.11-3.71-1.29a4.24,4.24,0,0,1,1.41-3.27,3.89,3.89,0,0,1,3.4-1.31,2,2,0,0,1,1.76,2A3.59,3.59,0,0,1,70.86,203.08Z"/><path class="cls-12" d="M28.49,140.48H22.36c-1.54,30.45,22.92,55.94,52,56.1,29.84.16,54.91-26.31,52.53-57.47l-6.41-.09"/><rect class="cls-13" x="28.98" y="135.99" width="3.54" height="9.28" rx="0.59"/><rect class="cls-13" x="116.58" y="134.37" width="3.54" height="9.28" rx="0.6"/></svg>